# Rhino

g object_1
v 13.839500427246094 7.0753951072692871 0
v 13.839500427246094 7.0753951072692871 2.2000000476837158
v 14.089500427246094 7.0753951072692871 0
v 14.089500427246094 7.0753951072692871 2.2000000476837158
v 13.964500427246094 7.0753951072692871 0
v 13.964500427246094 7.0753951072692871 0.55000001192092896
v 13.964500427246094 7.0753951072692871 0.27500000596046448
v 13.902000427246094 7.0753951072692871 0.55000001192092896
v 13.902000427246094 7.0753951072692871 0.27500000596046448
v 14.027000427246094 7.0753951072692871 0.55000001192092896
v 14.027000427246094 7.0753951072692871 0.27500000596046448
v 13.964500427246094 7.0753951072692871 2.2000000476837158
v 13.964500427246094 7.0753951072692871 1.6500000953674316
v 13.964500427246094 7.0753951072692871 1.9250000715255737
v 14.027000427246094 7.0753951072692871 1.6500000953674316
v 14.027000427246094 7.0753951072692871 1.9250000715255737
v 13.902000427246094 7.0753951072692871 1.6500000953674316
v 13.902000427246094 7.0753951072692871 1.9250000715255737
v 13.839500427246094 7.0753951072692871 1.4666666984558105
v 13.839500427246094 7.0753951072692871 0.73333334922790527
v 14.089500427246094 7.0753951072692871 0.73333334922790527
v 14.089500427246094 7.0753951072692871 1.4666666984558105
v 14.089500427246094 7.3253951072692871 0
v 14.089500427246094 7.3253951072692871 2.2000000476837158
v 14.089500427246094 7.2003951072692871 0
v 14.089500427246094 7.2003951072692871 0.55000001192092896
v 14.089500427246094 7.2003951072692871 0.27500000596046448
v 14.089500427246094 7.1378951072692871 0.55000001192092896
v 14.089500427246094 7.1378951072692871 0.27500000596046448
v 14.089500427246094 7.2628951072692871 0.55000001192092896
v 14.089500427246094 7.2628951072692871 0.27500000596046448
v 14.089500427246094 7.2003951072692871 2.2000000476837158
v 14.089500427246094 7.2003951072692871 1.6500000953674316
v 14.089500427246094 7.2003951072692871 1.9250000715255737
v 14.089500427246094 7.2628951072692871 1.6500000953674316
v 14.089500427246094 7.2628951072692871 1.9250000715255737
v 14.089500427246094 7.1378951072692871 1.6500000953674316
v 14.089500427246094 7.1378951072692871 1.9250000715255737
v 14.089500427246094 7.3253951072692871 0.73333334922790527
v 14.089500427246094 7.3253951072692871 1.4666666984558105
v 13.839500427246094 7.3253951072692871 0
v 13.839500427246094 7.3253951072692871 2.2000000476837158
v 13.964500427246094 7.3253951072692871 0
v 13.964500427246094 7.3253951072692871 0.55000001192092896
v 13.964500427246094 7.3253951072692871 0.27500000596046448
v 14.027000427246094 7.3253951072692871 0.55000001192092896
v 14.027000427246094 7.3253951072692871 0.27500000596046448
v 13.902000427246094 7.3253951072692871 0.55000001192092896
v 13.902000427246094 7.3253951072692871 0.27500000596046448
v 13.964500427246094 7.3253951072692871 2.2000000476837158
v 13.964500427246094 7.3253951072692871 1.6500000953674316
v 13.964500427246094 7.3253951072692871 1.9250000715255737
v 13.902000427246094 7.3253951072692871 1.6500000953674316
v 13.902000427246094 7.3253951072692871 1.9250000715255737
v 14.027000427246094 7.3253951072692871 1.6500000953674316
v 14.027000427246094 7.3253951072692871 1.9250000715255737
v 13.839500427246094 7.3253951072692871 0.73333334922790527
v 13.839500427246094 7.3253951072692871 1.4666666984558105
v 13.839500427246094 7.2003951072692871 0
v 13.839500427246094 7.2003951072692871 0.55000001192092896
v 13.839500427246094 7.2003951072692871 0.27500000596046448
v 13.839500427246094 7.2628951072692871 0.55000001192092896
v 13.839500427246094 7.2628951072692871 0.27500000596046448
v 13.839500427246094 7.1378951072692871 0.55000001192092896
v 13.839500427246094 7.1378951072692871 0.27500000596046448
v 13.839500427246094 7.2003951072692871 2.2000000476837158
v 13.839500427246094 7.2003951072692871 1.6500000953674316
v 13.839500427246094 7.2003951072692871 1.9250000715255737
v 13.839500427246094 7.1378951072692871 1.6500000953674316
v 13.839500427246094 7.1378951072692871 1.9250000715255737
v 13.839500427246094 7.2628951072692871 1.6500000953674316
v 13.839500427246094 7.2628951072692871 1.9250000715255737
f 20 1 5 3 21 22 4 12 2 19
f 21 3 25 23 39 40 24 32 4 22
f 39 23 43 41 57 58 42 50 24 40
f 57 41 59 1 20 19 2 66 42 58
f 5 1 59 41 43 23 25 3
f 66 2 12 4 32 24 50 42
g object_2
v 2.8394999504089355 7.0753951072692871 0
v 2.8394999504089355 7.0753951072692871 2.2000000476837158
v 3.0894999504089355 7.0753951072692871 0
v 3.0894999504089355 7.0753951072692871 2.2000000476837158
v 2.9644999504089355 7.0753951072692871 0
v 2.9644999504089355 7.0753951072692871 0.55000001192092896
v 2.9644999504089355 7.0753951072692871 0.27500000596046448
v 2.9019999504089355 7.0753951072692871 0.55000001192092896
v 2.9019999504089355 7.0753951072692871 0.27500000596046448
v 3.0269999504089355 7.0753951072692871 0.55000001192092896
v 3.0269999504089355 7.0753951072692871 0.27500000596046448
v 2.9644999504089355 7.0753951072692871 2.2000000476837158
v 2.9644999504089355 7.0753951072692871 1.6500000953674316
v 2.9644999504089355 7.0753951072692871 1.9250000715255737
v 3.0269999504089355 7.0753951072692871 1.6500000953674316
v 3.0269999504089355 7.0753951072692871 1.9250000715255737
v 2.9019999504089355 7.0753951072692871 1.6500000953674316
v 2.9019999504089355 7.0753951072692871 1.9250000715255737
v 2.8394999504089355 7.0753951072692871 1.4666666984558105
v 2.8394999504089355 7.0753951072692871 0.73333334922790527
v 3.0894999504089355 7.0753951072692871 0.73333334922790527
v 3.0894999504089355 7.0753951072692871 1.4666666984558105
v 3.0894999504089355 7.3253951072692871 0
v 3.0894999504089355 7.3253951072692871 2.2000000476837158
v 3.0894999504089355 7.2003951072692871 0
v 3.0894999504089355 7.2003951072692871 0.55000001192092896
v 3.0894999504089355 7.2003951072692871 0.27500000596046448
v 3.0894999504089355 7.1378951072692871 0.55000001192092896
v 3.0894999504089355 7.1378951072692871 0.27500000596046448
v 3.0894999504089355 7.2628951072692871 0.55000001192092896
v 3.0894999504089355 7.2628951072692871 0.27500000596046448
v 3.0894999504089355 7.2003951072692871 2.2000000476837158
v 3.0894999504089355 7.2003951072692871 1.6500000953674316
v 3.0894999504089355 7.2003951072692871 1.9250000715255737
v 3.0894999504089355 7.2628951072692871 1.6500000953674316
v 3.0894999504089355 7.2628951072692871 1.9250000715255737
v 3.0894999504089355 7.1378951072692871 1.6500000953674316
v 3.0894999504089355 7.1378951072692871 1.9250000715255737
v 3.0894999504089355 7.3253951072692871 0.73333334922790527
v 3.0894999504089355 7.3253951072692871 1.4666666984558105
v 2.8394999504089355 7.3253951072692871 0
v 2.8394999504089355 7.3253951072692871 2.2000000476837158
v 2.9644999504089355 7.3253951072692871 0
v 2.9644999504089355 7.3253951072692871 0.55000001192092896
v 2.9644999504089355 7.3253951072692871 0.27500000596046448
v 3.0269999504089355 7.3253951072692871 0.55000001192092896
v 3.0269999504089355 7.3253951072692871 0.27500000596046448
v 2.9019999504089355 7.3253951072692871 0.55000001192092896
v 2.9019999504089355 7.3253951072692871 0.27500000596046448
v 2.9644999504089355 7.3253951072692871 2.2000000476837158
v 2.9644999504089355 7.3253951072692871 1.6500000953674316
v 2.9644999504089355 7.3253951072692871 1.9250000715255737
v 2.9019999504089355 7.3253951072692871 1.6500000953674316
v 2.9019999504089355 7.3253951072692871 1.9250000715255737
v 3.0269999504089355 7.3253951072692871 1.6500000953674316
v 3.0269999504089355 7.3253951072692871 1.9250000715255737
v 2.8394999504089355 7.3253951072692871 0.73333334922790527
v 2.8394999504089355 7.3253951072692871 1.4666666984558105
v 2.8394999504089355 7.2003951072692871 0
v 2.8394999504089355 7.2003951072692871 0.55000001192092896
v 2.8394999504089355 7.2003951072692871 0.27500000596046448
v 2.8394999504089355 7.2628951072692871 0.55000001192092896
v 2.8394999504089355 7.2628951072692871 0.27500000596046448
v 2.8394999504089355 7.1378951072692871 0.55000001192092896
v 2.8394999504089355 7.1378951072692871 0.27500000596046448
v 2.8394999504089355 7.2003951072692871 2.2000000476837158
v 2.8394999504089355 7.2003951072692871 1.6500000953674316
v 2.8394999504089355 7.2003951072692871 1.9250000715255737
v 2.8394999504089355 7.1378951072692871 1.6500000953674316
v 2.8394999504089355 7.1378951072692871 1.9250000715255737
v 2.8394999504089355 7.2628951072692871 1.6500000953674316
v 2.8394999504089355 7.2628951072692871 1.9250000715255737
f 92 73 77 75 93 94 76 84 74 91
f 93 75 97 95 111 112 96 104 76 94
f 111 95 115 113 129 130 114 122 96 112
f 129 113 131 73 92 91 74 138 114 130
f 77 73 131 113 115 95 97 75
f 138 74 84 76 104 96 122 114
g object_3
v 13.839500427246094 1.7264951467514038 0
v 13.839500427246094 1.7264951467514038 2.2000000476837158
v 14.089500427246094 1.7264951467514038 0
v 14.089500427246094 1.7264951467514038 2.2000000476837158
v 13.964500427246094 1.7264951467514038 0
v 13.964500427246094 1.7264951467514038 0.55000001192092896
v 13.964500427246094 1.7264951467514038 0.27500000596046448
v 13.902000427246094 1.7264951467514038 0.55000001192092896
v 13.902000427246094 1.7264951467514038 0.27500000596046448
v 14.027000427246094 1.7264951467514038 0.55000001192092896
v 14.027000427246094 1.7264951467514038 0.27500000596046448
v 13.964500427246094 1.7264951467514038 2.2000000476837158
v 13.964500427246094 1.7264951467514038 1.6500000953674316
v 13.964500427246094 1.7264951467514038 1.9250000715255737
v 14.027000427246094 1.7264951467514038 1.6500000953674316
v 14.027000427246094 1.7264951467514038 1.9250000715255737
v 13.902000427246094 1.7264951467514038 1.6500000953674316
v 13.902000427246094 1.7264951467514038 1.9250000715255737
v 13.839500427246094 1.7264951467514038 1.4666666984558105
v 13.839500427246094 1.7264951467514038 0.73333334922790527
v 14.089500427246094 1.7264951467514038 0.73333334922790527
v 14.089500427246094 1.7264951467514038 1.4666666984558105
v 14.089500427246094 1.9764951467514038 0
v 14.089500427246094 1.9764951467514038 2.2000000476837158
v 14.089500427246094 1.8514951467514038 0
v 14.089500427246094 1.8514951467514038 0.55000001192092896
v 14.089500427246094 1.8514951467514038 0.27500000596046448
v 14.089500427246094 1.7889951467514038 0.55000001192092896
v 14.089500427246094 1.7889951467514038 0.27500000596046448
v 14.089500427246094 1.9139951467514038 0.55000001192092896
v 14.089500427246094 1.9139951467514038 0.27500000596046448
v 14.089500427246094 1.8514951467514038 2.2000000476837158
v 14.089500427246094 1.8514951467514038 1.6500000953674316
v 14.089500427246094 1.8514951467514038 1.9250000715255737
v 14.089500427246094 1.9139951467514038 1.6500000953674316
v 14.089500427246094 1.9139951467514038 1.9250000715255737
v 14.089500427246094 1.7889951467514038 1.6500000953674316
v 14.089500427246094 1.7889951467514038 1.9250000715255737
v 14.089500427246094 1.9764951467514038 0.73333334922790527
v 14.089500427246094 1.9764951467514038 1.4666666984558105
v 13.839500427246094 1.9764951467514038 0
v 13.839500427246094 1.9764951467514038 2.2000000476837158
v 13.964500427246094 1.9764951467514038 0
v 13.964500427246094 1.9764951467514038 0.55000001192092896
v 13.964500427246094 1.9764951467514038 0.27500000596046448
v 14.027000427246094 1.9764951467514038 0.55000001192092896
v 14.027000427246094 1.9764951467514038 0.27500000596046448
v 13.902000427246094 1.9764951467514038 0.55000001192092896
v 13.902000427246094 1.9764951467514038 0.27500000596046448
v 13.964500427246094 1.9764951467514038 2.2000000476837158
v 13.964500427246094 1.9764951467514038 1.6500000953674316
v 13.964500427246094 1.9764951467514038 1.9250000715255737
v 13.902000427246094 1.9764951467514038 1.6500000953674316
v 13.902000427246094 1.9764951467514038 1.9250000715255737
v 14.027000427246094 1.9764951467514038 1.6500000953674316
v 14.027000427246094 1.9764951467514038 1.9250000715255737
v 13.839500427246094 1.9764951467514038 0.73333334922790527
v 13.839500427246094 1.9764951467514038 1.4666666984558105
v 13.839500427246094 1.8514951467514038 0
v 13.839500427246094 1.8514951467514038 0.55000001192092896
v 13.839500427246094 1.8514951467514038 0.27500000596046448
v 13.839500427246094 1.9139951467514038 0.55000001192092896
v 13.839500427246094 1.9139951467514038 0.27500000596046448
v 13.839500427246094 1.7889951467514038 0.55000001192092896
v 13.839500427246094 1.7889951467514038 0.27500000596046448
v 13.839500427246094 1.8514951467514038 2.2000000476837158
v 13.839500427246094 1.8514951467514038 1.6500000953674316
v 13.839500427246094 1.8514951467514038 1.9250000715255737
v 13.839500427246094 1.7889951467514038 1.6500000953674316
v 13.839500427246094 1.7889951467514038 1.9250000715255737
v 13.839500427246094 1.9139951467514038 1.6500000953674316
v 13.839500427246094 1.9139951467514038 1.9250000715255737
f 164 145 149 147 165 166 148 156 146 163
f 165 147 169 167 183 184 168 176 148 166
f 183 167 187 185 201 202 186 194 168 184
f 201 185 203 145 164 163 146 210 186 202
f 149 145 203 185 187 167 169 147
f 210 146 156 148 176 168 194 186
g object_4
v 11.089500427246094 1.7264951467514038 0
v 11.089500427246094 1.7264951467514038 2.2000000476837158
v 11.339500427246094 1.7264951467514038 0
v 11.339500427246094 1.7264951467514038 2.2000000476837158
v 11.214500427246094 1.7264951467514038 0
v 11.214500427246094 1.7264951467514038 0.55000001192092896
v 11.214500427246094 1.7264951467514038 0.27500000596046448
v 11.152000427246094 1.7264951467514038 0.55000001192092896
v 11.152000427246094 1.7264951467514038 0.27500000596046448
v 11.277000427246094 1.7264951467514038 0.55000001192092896
v 11.277000427246094 1.7264951467514038 0.27500000596046448
v 11.214500427246094 1.7264951467514038 2.2000000476837158
v 11.214500427246094 1.7264951467514038 1.6500000953674316
v 11.214500427246094 1.7264951467514038 1.9250000715255737
v 11.277000427246094 1.7264951467514038 1.6500000953674316
v 11.277000427246094 1.7264951467514038 1.9250000715255737
v 11.152000427246094 1.7264951467514038 1.6500000953674316
v 11.152000427246094 1.7264951467514038 1.9250000715255737
v 11.089500427246094 1.7264951467514038 1.4666666984558105
v 11.089500427246094 1.7264951467514038 0.73333334922790527
v 11.339500427246094 1.7264951467514038 0.73333334922790527
v 11.339500427246094 1.7264951467514038 1.4666666984558105
v 11.339500427246094 1.9764951467514038 0
v 11.339500427246094 1.9764951467514038 2.2000000476837158
v 11.339500427246094 1.8514951467514038 0
v 11.339500427246094 1.8514951467514038 0.55000001192092896
v 11.339500427246094 1.8514951467514038 0.27500000596046448
v 11.339500427246094 1.7889951467514038 0.55000001192092896
v 11.339500427246094 1.7889951467514038 0.27500000596046448
v 11.339500427246094 1.9139951467514038 0.55000001192092896
v 11.339500427246094 1.9139951467514038 0.27500000596046448
v 11.339500427246094 1.8514951467514038 2.2000000476837158
v 11.339500427246094 1.8514951467514038 1.6500000953674316
v 11.339500427246094 1.8514951467514038 1.9250000715255737
v 11.339500427246094 1.9139951467514038 1.6500000953674316
v 11.339500427246094 1.9139951467514038 1.9250000715255737
v 11.339500427246094 1.7889951467514038 1.6500000953674316
v 11.339500427246094 1.7889951467514038 1.9250000715255737
v 11.339500427246094 1.9764951467514038 0.73333334922790527
v 11.339500427246094 1.9764951467514038 1.4666666984558105
v 11.089500427246094 1.9764951467514038 0
v 11.089500427246094 1.9764951467514038 2.2000000476837158
v 11.214500427246094 1.9764951467514038 0
v 11.214500427246094 1.9764951467514038 0.55000001192092896
v 11.214500427246094 1.9764951467514038 0.27500000596046448
v 11.277000427246094 1.9764951467514038 0.55000001192092896
v 11.277000427246094 1.9764951467514038 0.27500000596046448
v 11.152000427246094 1.9764951467514038 0.55000001192092896
v 11.152000427246094 1.9764951467514038 0.27500000596046448
v 11.214500427246094 1.9764951467514038 2.2000000476837158
v 11.214500427246094 1.9764951467514038 1.6500000953674316
v 11.214500427246094 1.9764951467514038 1.9250000715255737
v 11.152000427246094 1.9764951467514038 1.6500000953674316
v 11.152000427246094 1.9764951467514038 1.9250000715255737
v 11.277000427246094 1.9764951467514038 1.6500000953674316
v 11.277000427246094 1.9764951467514038 1.9250000715255737
v 11.089500427246094 1.9764951467514038 0.73333334922790527
v 11.089500427246094 1.9764951467514038 1.4666666984558105
v 11.089500427246094 1.8514951467514038 0
v 11.089500427246094 1.8514951467514038 0.55000001192092896
v 11.089500427246094 1.8514951467514038 0.27500000596046448
v 11.089500427246094 1.9139951467514038 0.55000001192092896
v 11.089500427246094 1.9139951467514038 0.27500000596046448
v 11.089500427246094 1.7889951467514038 0.55000001192092896
v 11.089500427246094 1.7889951467514038 0.27500000596046448
v 11.089500427246094 1.8514951467514038 2.2000000476837158
v 11.089500427246094 1.8514951467514038 1.6500000953674316
v 11.089500427246094 1.8514951467514038 1.9250000715255737
v 11.089500427246094 1.7889951467514038 1.6500000953674316
v 11.089500427246094 1.7889951467514038 1.9250000715255737
v 11.089500427246094 1.9139951467514038 1.6500000953674316
v 11.089500427246094 1.9139951467514038 1.9250000715255737
f 236 217 221 219 237 238 220 228 218 235
f 237 219 241 239 255 256 240 248 220 238
f 255 239 259 257 273 274 258 266 240 256
f 273 257 275 217 236 235 218 282 258 274
f 221 217 275 257 259 239 241 219
f 282 218 228 220 248 240 266 258
g object_5
v 8.3395004272460938 1.7264951467514038 0
v 8.3395004272460938 1.7264951467514038 2.2000000476837158
v 8.5895004272460938 1.7264951467514038 0
v 8.5895004272460938 1.7264951467514038 2.2000000476837158
v 8.4645004272460938 1.7264951467514038 0
v 8.4645004272460938 1.7264951467514038 0.55000001192092896
v 8.4645004272460938 1.7264951467514038 0.27500000596046448
v 8.4020004272460938 1.7264951467514038 0.55000001192092896
v 8.4020004272460938 1.7264951467514038 0.27500000596046448
v 8.5270004272460938 1.7264951467514038 0.55000001192092896
v 8.5270004272460938 1.7264951467514038 0.27500000596046448
v 8.4645004272460938 1.7264951467514038 2.2000000476837158
v 8.4645004272460938 1.7264951467514038 1.6500000953674316
v 8.4645004272460938 1.7264951467514038 1.9250000715255737
v 8.5270004272460938 1.7264951467514038 1.6500000953674316
v 8.5270004272460938 1.7264951467514038 1.9250000715255737
v 8.4020004272460938 1.7264951467514038 1.6500000953674316
v 8.4020004272460938 1.7264951467514038 1.9250000715255737
v 8.3395004272460938 1.7264951467514038 1.4666666984558105
v 8.3395004272460938 1.7264951467514038 0.73333334922790527
v 8.5895004272460938 1.7264951467514038 0.73333334922790527
v 8.5895004272460938 1.7264951467514038 1.4666666984558105
v 8.5895004272460938 1.9764951467514038 0
v 8.5895004272460938 1.9764951467514038 2.2000000476837158
v 8.5895004272460938 1.8514951467514038 0
v 8.5895004272460938 1.8514951467514038 0.55000001192092896
v 8.5895004272460938 1.8514951467514038 0.27500000596046448
v 8.5895004272460938 1.7889951467514038 0.55000001192092896
v 8.5895004272460938 1.7889951467514038 0.27500000596046448
v 8.5895004272460938 1.9139951467514038 0.55000001192092896
v 8.5895004272460938 1.9139951467514038 0.27500000596046448
v 8.5895004272460938 1.8514951467514038 2.2000000476837158
v 8.5895004272460938 1.8514951467514038 1.6500000953674316
v 8.5895004272460938 1.8514951467514038 1.9250000715255737
v 8.5895004272460938 1.9139951467514038 1.6500000953674316
v 8.5895004272460938 1.9139951467514038 1.9250000715255737
v 8.5895004272460938 1.7889951467514038 1.6500000953674316
v 8.5895004272460938 1.7889951467514038 1.9250000715255737
v 8.5895004272460938 1.9764951467514038 0.73333334922790527
v 8.5895004272460938 1.9764951467514038 1.4666666984558105
v 8.3395004272460938 1.9764951467514038 0
v 8.3395004272460938 1.9764951467514038 2.2000000476837158
v 8.4645004272460938 1.9764951467514038 0
v 8.4645004272460938 1.9764951467514038 0.55000001192092896
v 8.4645004272460938 1.9764951467514038 0.27500000596046448
v 8.5270004272460938 1.9764951467514038 0.55000001192092896
v 8.5270004272460938 1.9764951467514038 0.27500000596046448
v 8.4020004272460938 1.9764951467514038 0.55000001192092896
v 8.4020004272460938 1.9764951467514038 0.27500000596046448
v 8.4645004272460938 1.9764951467514038 2.2000000476837158
v 8.4645004272460938 1.9764951467514038 1.6500000953674316
v 8.4645004272460938 1.9764951467514038 1.9250000715255737
v 8.4020004272460938 1.9764951467514038 1.6500000953674316
v 8.4020004272460938 1.9764951467514038 1.9250000715255737
v 8.5270004272460938 1.9764951467514038 1.6500000953674316
v 8.5270004272460938 1.9764951467514038 1.9250000715255737
v 8.3395004272460938 1.9764951467514038 0.73333334922790527
v 8.3395004272460938 1.9764951467514038 1.4666666984558105
v 8.3395004272460938 1.8514951467514038 0
v 8.3395004272460938 1.8514951467514038 0.55000001192092896
v 8.3395004272460938 1.8514951467514038 0.27500000596046448
v 8.3395004272460938 1.9139951467514038 0.55000001192092896
v 8.3395004272460938 1.9139951467514038 0.27500000596046448
v 8.3395004272460938 1.7889951467514038 0.55000001192092896
v 8.3395004272460938 1.7889951467514038 0.27500000596046448
v 8.3395004272460938 1.8514951467514038 2.2000000476837158
v 8.3395004272460938 1.8514951467514038 1.6500000953674316
v 8.3395004272460938 1.8514951467514038 1.9250000715255737
v 8.3395004272460938 1.7889951467514038 1.6500000953674316
v 8.3395004272460938 1.7889951467514038 1.9250000715255737
v 8.3395004272460938 1.9139951467514038 1.6500000953674316
v 8.3395004272460938 1.9139951467514038 1.9250000715255737
f 308 289 293 291 309 310 292 300 290 307
f 309 291 313 311 327 328 312 320 292 310
f 327 311 331 329 345 346 330 338 312 328
f 345 329 347 289 308 307 290 354 330 346
f 293 289 347 329 331 311 313 291
f 354 290 300 292 320 312 338 330
g object_6
v 5.5894999504089355 1.7264951467514038 0
v 5.5894999504089355 1.7264951467514038 2.2000000476837158
v 5.8394999504089355 1.7264951467514038 0
v 5.8394999504089355 1.7264951467514038 2.2000000476837158
v 5.7144999504089355 1.7264951467514038 0
v 5.7144999504089355 1.7264951467514038 0.55000001192092896
v 5.7144999504089355 1.7264951467514038 0.27500000596046448
v 5.6519999504089355 1.7264951467514038 0.55000001192092896
v 5.6519999504089355 1.7264951467514038 0.27500000596046448
v 5.7769999504089355 1.7264951467514038 0.55000001192092896
v 5.7769999504089355 1.7264951467514038 0.27500000596046448
v 5.7144999504089355 1.7264951467514038 2.2000000476837158
v 5.7144999504089355 1.7264951467514038 1.6500000953674316
v 5.7144999504089355 1.7264951467514038 1.9250000715255737
v 5.7769999504089355 1.7264951467514038 1.6500000953674316
v 5.7769999504089355 1.7264951467514038 1.9250000715255737
v 5.6519999504089355 1.7264951467514038 1.6500000953674316
v 5.6519999504089355 1.7264951467514038 1.9250000715255737
v 5.5894999504089355 1.7264951467514038 1.4666666984558105
v 5.5894999504089355 1.7264951467514038 0.73333334922790527
v 5.8394999504089355 1.7264951467514038 0.73333334922790527
v 5.8394999504089355 1.7264951467514038 1.4666666984558105
v 5.8394999504089355 1.9764951467514038 0
v 5.8394999504089355 1.9764951467514038 2.2000000476837158
v 5.8394999504089355 1.8514951467514038 0
v 5.8394999504089355 1.8514951467514038 0.55000001192092896
v 5.8394999504089355 1.8514951467514038 0.27500000596046448
v 5.8394999504089355 1.7889951467514038 0.55000001192092896
v 5.8394999504089355 1.7889951467514038 0.27500000596046448
v 5.8394999504089355 1.9139951467514038 0.55000001192092896
v 5.8394999504089355 1.9139951467514038 0.27500000596046448
v 5.8394999504089355 1.8514951467514038 2.2000000476837158
v 5.8394999504089355 1.8514951467514038 1.6500000953674316
v 5.8394999504089355 1.8514951467514038 1.9250000715255737
v 5.8394999504089355 1.9139951467514038 1.6500000953674316
v 5.8394999504089355 1.9139951467514038 1.9250000715255737
v 5.8394999504089355 1.7889951467514038 1.6500000953674316
v 5.8394999504089355 1.7889951467514038 1.9250000715255737
v 5.8394999504089355 1.9764951467514038 0.73333334922790527
v 5.8394999504089355 1.9764951467514038 1.4666666984558105
v 5.5894999504089355 1.9764951467514038 0
v 5.5894999504089355 1.9764951467514038 2.2000000476837158
v 5.7144999504089355 1.9764951467514038 0
v 5.7144999504089355 1.9764951467514038 0.55000001192092896
v 5.7144999504089355 1.9764951467514038 0.27500000596046448
v 5.7769999504089355 1.9764951467514038 0.55000001192092896
v 5.7769999504089355 1.9764951467514038 0.27500000596046448
v 5.6519999504089355 1.9764951467514038 0.55000001192092896
v 5.6519999504089355 1.9764951467514038 0.27500000596046448
v 5.7144999504089355 1.9764951467514038 2.2000000476837158
v 5.7144999504089355 1.9764951467514038 1.6500000953674316
v 5.7144999504089355 1.9764951467514038 1.9250000715255737
v 5.6519999504089355 1.9764951467514038 1.6500000953674316
v 5.6519999504089355 1.9764951467514038 1.9250000715255737
v 5.7769999504089355 1.9764951467514038 1.6500000953674316
v 5.7769999504089355 1.9764951467514038 1.9250000715255737
v 5.5894999504089355 1.9764951467514038 0.73333334922790527
v 5.5894999504089355 1.9764951467514038 1.4666666984558105
v 5.5894999504089355 1.8514951467514038 0
v 5.5894999504089355 1.8514951467514038 0.55000001192092896
v 5.5894999504089355 1.8514951467514038 0.27500000596046448
v 5.5894999504089355 1.9139951467514038 0.55000001192092896
v 5.5894999504089355 1.9139951467514038 0.27500000596046448
v 5.5894999504089355 1.7889951467514038 0.55000001192092896
v 5.5894999504089355 1.7889951467514038 0.27500000596046448
v 5.5894999504089355 1.8514951467514038 2.2000000476837158
v 5.5894999504089355 1.8514951467514038 1.6500000953674316
v 5.5894999504089355 1.8514951467514038 1.9250000715255737
v 5.5894999504089355 1.7889951467514038 1.6500000953674316
v 5.5894999504089355 1.7889951467514038 1.9250000715255737
v 5.5894999504089355 1.9139951467514038 1.6500000953674316
v 5.5894999504089355 1.9139951467514038 1.9250000715255737
f 380 361 365 363 381 382 364 372 362 379
f 381 363 385 383 399 400 384 392 364 382
f 399 383 403 401 417 418 402 410 384 400
f 417 401 419 361 380 379 362 426 402 418
f 365 361 419 401 403 383 385 363
f 426 362 372 364 392 384 410 402
g object_7
v 2.8394999504089355 1.7264951467514038 0
v 2.8394999504089355 1.7264951467514038 2.2000000476837158
v 3.0894999504089355 1.7264951467514038 0
v 3.0894999504089355 1.7264951467514038 2.2000000476837158
v 2.9644999504089355 1.7264951467514038 0
v 2.9644999504089355 1.7264951467514038 0.55000001192092896
v 2.9644999504089355 1.7264951467514038 0.27500000596046448
v 2.9019999504089355 1.7264951467514038 0.55000001192092896
v 2.9019999504089355 1.7264951467514038 0.27500000596046448
v 3.0269999504089355 1.7264951467514038 0.55000001192092896
v 3.0269999504089355 1.7264951467514038 0.27500000596046448
v 2.9644999504089355 1.7264951467514038 2.2000000476837158
v 2.9644999504089355 1.7264951467514038 1.6500000953674316
v 2.9644999504089355 1.7264951467514038 1.9250000715255737
v 3.0269999504089355 1.7264951467514038 1.6500000953674316
v 3.0269999504089355 1.7264951467514038 1.9250000715255737
v 2.9019999504089355 1.7264951467514038 1.6500000953674316
v 2.9019999504089355 1.7264951467514038 1.9250000715255737
v 2.8394999504089355 1.7264951467514038 1.4666666984558105
v 2.8394999504089355 1.7264951467514038 0.73333334922790527
v 3.0894999504089355 1.7264951467514038 0.73333334922790527
v 3.0894999504089355 1.7264951467514038 1.4666666984558105
v 3.0894999504089355 1.9764951467514038 0
v 3.0894999504089355 1.9764951467514038 2.2000000476837158
v 3.0894999504089355 1.8514951467514038 0
v 3.0894999504089355 1.8514951467514038 0.55000001192092896
v 3.0894999504089355 1.8514951467514038 0.27500000596046448
v 3.0894999504089355 1.7889951467514038 0.55000001192092896
v 3.0894999504089355 1.7889951467514038 0.27500000596046448
v 3.0894999504089355 1.9139951467514038 0.55000001192092896
v 3.0894999504089355 1.9139951467514038 0.27500000596046448
v 3.0894999504089355 1.8514951467514038 2.2000000476837158
v 3.0894999504089355 1.8514951467514038 1.6500000953674316
v 3.0894999504089355 1.8514951467514038 1.9250000715255737
v 3.0894999504089355 1.9139951467514038 1.6500000953674316
v 3.0894999504089355 1.9139951467514038 1.9250000715255737
v 3.0894999504089355 1.7889951467514038 1.6500000953674316
v 3.0894999504089355 1.7889951467514038 1.9250000715255737
v 3.0894999504089355 1.9764951467514038 0.73333334922790527
v 3.0894999504089355 1.9764951467514038 1.4666666984558105
v 2.8394999504089355 1.9764951467514038 0
v 2.8394999504089355 1.9764951467514038 2.2000000476837158
v 2.9644999504089355 1.9764951467514038 0
v 2.9644999504089355 1.9764951467514038 0.55000001192092896
v 2.9644999504089355 1.9764951467514038 0.27500000596046448
v 3.0269999504089355 1.9764951467514038 0.55000001192092896
v 3.0269999504089355 1.9764951467514038 0.27500000596046448
v 2.9019999504089355 1.9764951467514038 0.55000001192092896
v 2.9019999504089355 1.9764951467514038 0.27500000596046448
v 2.9644999504089355 1.9764951467514038 2.2000000476837158
v 2.9644999504089355 1.9764951467514038 1.6500000953674316
v 2.9644999504089355 1.9764951467514038 1.9250000715255737
v 2.9019999504089355 1.9764951467514038 1.6500000953674316
v 2.9019999504089355 1.9764951467514038 1.9250000715255737
v 3.0269999504089355 1.9764951467514038 1.6500000953674316
v 3.0269999504089355 1.9764951467514038 1.9250000715255737
v 2.8394999504089355 1.9764951467514038 0.73333334922790527
v 2.8394999504089355 1.9764951467514038 1.4666666984558105
v 2.8394999504089355 1.8514951467514038 0
v 2.8394999504089355 1.8514951467514038 0.55000001192092896
v 2.8394999504089355 1.8514951467514038 0.27500000596046448
v 2.8394999504089355 1.9139951467514038 0.55000001192092896
v 2.8394999504089355 1.9139951467514038 0.27500000596046448
v 2.8394999504089355 1.7889951467514038 0.55000001192092896
v 2.8394999504089355 1.7889951467514038 0.27500000596046448
v 2.8394999504089355 1.8514951467514038 2.2000000476837158
v 2.8394999504089355 1.8514951467514038 1.6500000953674316
v 2.8394999504089355 1.8514951467514038 1.9250000715255737
v 2.8394999504089355 1.7889951467514038 1.6500000953674316
v 2.8394999504089355 1.7889951467514038 1.9250000715255737
v 2.8394999504089355 1.9139951467514038 1.6500000953674316
v 2.8394999504089355 1.9139951467514038 1.9250000715255737
f 452 433 437 435 453 454 436 444 434 451
f 453 435 457 455 471 472 456 464 436 454
f 471 455 475 473 489 490 474 482 456 472
f 489 473 491 433 452 451 434 498 474 490
f 437 433 491 473 475 455 457 435
f 498 434 444 436 464 456 482 474
