# Rhino

g object_1
v 2.5297000408172607 7.3000001907348633 -8.4680995941162109
v 2.5297000408172607 9.75 -8.4680995941162109
v 11.394200325012207 7.3000001907348633 -8.4680995941162109
v 11.394200325012207 9.75 -8.4680995941162109
v 4.7458248138427734 7.3000001907348633 -8.4680995941162109
v 6.9619498252868652 7.3000001907348633 -8.4680995941162109
v 9.178074836730957 7.3000001907348633 -8.4680995941162109
v 11.394200325012207 8.5249996185302734 -8.4680995941162109
v 6.9619498252868652 9.75 -8.4680995941162109
v 9.178074836730957 9.75 -8.4680995941162109
v 4.7458248138427734 9.75 -8.4680995941162109
v 2.5297000408172607 8.5249996185302734 -8.4680995941162109
v 11.394200325012207 7.3000001907348633 -9.1681003570556641
v 11.394200325012207 9.75 -9.1681003570556641
v 11.394200325012207 8.5249996185302734 -9.1681003570556641
v 2.5297000408172607 7.3000001907348633 -9.1681003570556641
v 2.5297000408172607 9.75 -9.1681003570556641
v 6.9619498252868652 9.75 -9.1681003570556641
v 6.9619498252868652 7.3000001907348633 -9.1681003570556641
v 9.178074836730957 7.3000001907348633 -9.1681003570556641
v 4.7458248138427734 7.3000001907348633 -9.1681003570556641
v 2.5297000408172607 8.5249996185302734 -9.1681003570556641
v 4.7458248138427734 9.75 -9.1681003570556641
v 9.178074836730957 9.75 -9.1681003570556641
f 12 1 5 6 7 3 8 4 10 9 11 2
f 8 3 13 15 14 4
f 15 13 20 19 21 16 22 17 23 18 24 14
f 22 16 1 12 2 17
f 1 16 21 19 20 13 3 7 6 5
f 2 11 9 10 4 14 24 18 23 17
g object_2
v 2.5297000408172607 4.8499999046325684 -8.4680995941162109
v 2.5297000408172607 7.3000001907348633 -8.4680995941162109
v 11.119199752807617 4.8499999046325684 -8.4680995941162109
v 11.119199752807617 7.3000001907348633 -8.4680995941162109
v 4.6770749092102051 4.8499999046325684 -8.4680995941162109
v 6.8244500160217285 4.8499999046325684 -8.4680995941162109
v 8.9718246459960938 4.8499999046325684 -8.4680995941162109
v 11.119199752807617 6.0749998092651367 -8.4680995941162109
v 6.8244500160217285 7.3000001907348633 -8.4680995941162109
v 8.9718246459960938 7.3000001907348633 -8.4680995941162109
v 4.6770749092102051 7.3000001907348633 -8.4680995941162109
v 2.5297000408172607 6.0749998092651367 -8.4680995941162109
v 11.119199752807617 4.8499999046325684 -9.1681003570556641
v 11.119199752807617 7.3000001907348633 -9.1681003570556641
v 11.119199752807617 6.0749998092651367 -9.1681003570556641
v 2.5297000408172607 4.8499999046325684 -9.1681003570556641
v 2.5297000408172607 7.3000001907348633 -9.1681003570556641
v 6.8244500160217285 7.3000001907348633 -9.1681003570556641
v 6.8244500160217285 4.8499999046325684 -9.1681003570556641
v 8.9718246459960938 4.8499999046325684 -9.1681003570556641
v 4.6770749092102051 4.8499999046325684 -9.1681003570556641
v 2.5297000408172607 6.0749998092651367 -9.1681003570556641
v 4.6770749092102051 7.3000001907348633 -9.1681003570556641
v 8.9718246459960938 7.3000001907348633 -9.1681003570556641
f 36 25 29 30 31 27 32 28 34 33 35 26
f 32 27 37 39 38 28
f 39 37 44 43 45 40 46 41 47 42 48 38
f 46 40 25 36 26 41
f 25 40 45 43 44 37 27 31 30 29
f 26 35 33 34 28 38 48 42 47 41
g object_3
v 2.5297000408172607 2.4000000953674316 -7.9681000709533691
v 2.5297000408172607 4.8499999046325684 -7.9681000709533691
v 11.219200134277344 2.4000000953674316 -7.9681000709533691
v 11.219200134277344 4.8499999046325684 -7.9681000709533691
v 5.4261999130249023 2.4000000953674316 -7.9681000709533691
v 8.3226995468139648 2.4000000953674316 -7.9681000709533691
v 11.219200134277344 3.625 -7.9681000709533691
v 2.5297000408172607 3.625 -7.9681000709533691
v 8.3226995468139648 4.8499999046325684 -7.9681000709533691
v 5.4261999130249023 4.8499999046325684 -7.9681000709533691
v 11.219200134277344 2.4000000953674316 -9.1681003570556641
v 11.219200134277344 4.8499999046325684 -9.1681003570556641
v 11.219200134277344 3.625 -9.1681003570556641
v 2.5297000408172607 2.4000000953674316 -9.1681003570556641
v 2.5297000408172607 4.8499999046325684 -9.1681003570556641
v 2.5297000408172607 3.625 -9.1681003570556641
v 8.3226995468139648 2.4000000953674316 -9.1681003570556641
v 5.4261999130249023 2.4000000953674316 -9.1681003570556641
v 5.4261999130249023 4.8499999046325684 -9.1681003570556641
v 8.3226995468139648 4.8499999046325684 -9.1681003570556641
f 56 49 53 54 51 55 52 57 58 50
f 55 51 59 61 60 52
f 61 59 65 66 62 64 63 67 68 60
f 64 62 49 56 50 63
f 49 62 66 65 59 51 54 53
f 50 58 57 52 60 68 67 63
g object_4
v 3.7797000408172607 0.20000000298023224 -8.4680995941162109
v 3.7797000408172607 2.4000000953674316 -8.4680995941162109
v 11.119199752807617 0.20000000298023224 -8.4680995941162109
v 11.119199752807617 2.4000000953674316 -8.4680995941162109
v 11.119199752807617 0.20000000298023224 -9.1681003570556641
v 11.119199752807617 2.4000000953674316 -9.1681003570556641
v 3.7797000408172607 0.20000000298023224 -9.1681003570556641
v 3.7797000408172607 2.4000000953674316 -9.1681003570556641
f 71 69 75 73
f 76 70 72 74
f 69 71 72 70
f 71 73 74 72
f 73 75 76 74
f 75 69 70 76
