# Rhino

g object_1
v 13.04466438293457 0 -3.9916048049926758
v 11.886544227600098 0 -3.9916048049926758
v 10.728423118591309 0 -3.9916048049926758
v 9.5703029632568359 0 -3.9916048049926758
v 8.4121818542480469 0 -3.9916048049926758
v 7.2540616989135742 0 -3.9916048049926758
v 6.0959410667419434 0 -3.9916048049926758
v 4.9378204345703125 0 -3.9916048049926758
v 3.7797000408172607 0 -3.9916048049926758
v 13.04466438293457 0.20000000298023224 -3.9916048049926758
v 11.886544227600098 0.20000000298023224 -3.9916048049926758
v 10.728423118591309 0.20000000298023224 -3.9916048049926758
v 9.5703029632568359 0.20000000298023224 -3.9916048049926758
v 8.4121818542480469 0.20000000298023224 -3.9916048049926758
v 7.2540616989135742 0.20000000298023224 -3.9916048049926758
v 6.0959410667419434 0.20000000298023224 -3.9916048049926758
v 4.9378204345703125 0.20000000298023224 -3.9916048049926758
v 3.7797000408172607 0.20000000298023224 -3.9916048049926758
v 3.7797000408172607 0 -5.0269041061401367
v 3.7797000408172607 0 -6.0622029304504395
v 3.7797000408172607 0 -7.0975017547607422
v 3.7797000408172607 0 -8.1328010559082031
v 3.7797000408172607 0 -9.1681003570556641
v 3.7797000408172607 0.20000000298023224 -5.0269041061401367
v 3.7797000408172607 0.20000000298023224 -6.0622029304504395
v 3.7797000408172607 0.20000000298023224 -7.0975017547607422
v 3.7797000408172607 0.20000000298023224 -8.1328010559082031
v 3.7797000408172607 0.20000000298023224 -9.1681003570556641
v 4.9378204345703125 0 -9.1681003570556641
v 6.0959410667419434 0 -9.1681003570556641
v 7.2540616989135742 0 -9.1681003570556641
v 8.4121818542480469 0 -9.1681003570556641
v 9.5703029632568359 0 -9.1681003570556641
v 10.728423118591309 0 -9.1681003570556641
v 11.886544227600098 0 -9.1681003570556641
v 13.04466438293457 0 -9.1681003570556641
v 4.9378204345703125 0.20000000298023224 -9.1681003570556641
v 6.0959410667419434 0.20000000298023224 -9.1681003570556641
v 7.2540616989135742 0.20000000298023224 -9.1681003570556641
v 8.4121818542480469 0.20000000298023224 -9.1681003570556641
v 9.5703029632568359 0.20000000298023224 -9.1681003570556641
v 10.728423118591309 0.20000000298023224 -9.1681003570556641
v 11.886544227600098 0.20000000298023224 -9.1681003570556641
v 13.04466438293457 0.20000000298023224 -9.1681003570556641
v 13.04466438293457 0 -8.1328010559082031
v 13.04466438293457 0 -7.0975017547607422
v 13.04466438293457 0 -6.0622029304504395
v 13.04466438293457 0 -5.0269041061401367
v 13.04466438293457 0.20000000298023224 -8.1328010559082031
v 13.04466438293457 0.20000000298023224 -7.0975017547607422
v 13.04466438293457 0.20000000298023224 -6.0622029304504395
v 13.04466438293457 0.20000000298023224 -5.0269041061401367
v 8.4121818542480469 0.20000000298023224 -6.5798525810241699
v 8.4121818542480469 0.20000000298023224 -7.8739762306213379
v 6.0959410667419434 0.20000000298023224 -6.5798525810241699
v 6.0959410667419434 0.20000000298023224 -7.8739762306213379
v 8.4121818542480469 0.20000000298023224 -5.2857284545898438
v 6.0959410667419434 0.20000000298023224 -5.2857284545898438
v 10.728423118591309 0.20000000298023224 -6.5798525810241699
v 10.728423118591309 0.20000000298023224 -5.2857284545898438
v 10.728423118591309 0.20000000298023224 -7.8739762306213379
v 8.4121818542480469 0 -6.5798525810241699
v 8.4121818542480469 0 -5.2857284545898438
v 6.0959410667419434 0 -6.5798525810241699
v 6.0959410667419434 0 -5.2857284545898438
v 10.728423118591309 0 -6.5798525810241699
v 10.728423118591309 0 -5.2857284545898438
v 8.4121818542480469 0 -7.8739762306213379
v 6.0959410667419434 0 -7.8739762306213379
v 10.728423118591309 0 -7.8739762306213379
f 2 1 10 11 12 13 14 15 16 17 18 9 8 7 6 5 4 3
f 19 9 18 24 25 26 27 28 23 22 21 20
f 29 23 28 37 38 39 40 41 42 43 44 36 35 34 33 32 31 30
f 45 36 44 49 50 51 52 10 1 48 47 46
f 42 41 40 39 38 37 28 27 26 25 24 18 17 16 15 14 13 12 11 10 52 51 50 49 44 43
f 33 34 35 36 45 46 47 48 1 2 3 4 5 6 7 8 9 19 20 21 22 23 29 30 31 32
g object_2
v 0 0 0
v 0 -2 0
v 0 0 -12.706999778747559
v 0 -2 -12.706999778747559
v 15.941969871520996 0 -12.706999778747559
v 15.941969871520996 -2 -12.706999778747559
v 15.941969871520996 0 0
v 15.941969871520996 -2 0
f 71 77 75 73
f 76 78 72 74
f 71 73 74 72
f 73 75 76 74
f 75 77 78 76
f 77 71 72 78
