# Rhino

g object_1
v 2.5297000408172607 7.3000001907348633 -2.7181000709533691
v 2.5297000408172607 9.75 -2.7181000709533691
v 11.394200325012207 7.3000001907348633 -2.7181000709533691
v 11.394200325012207 9.75 -2.7181000709533691
v 6.9619498252868652 7.3000001907348633 -2.7181000709533691
v 6.9619498252868652 9.75 -2.7181000709533691
v 11.394200325012207 7.3000001907348633 -8.4680995941162109
v 11.394200325012207 9.75 -8.4680995941162109
v 11.394200325012207 7.3000001907348633 -5.5931000709533691
v 11.394200325012207 9.75 -5.5931000709533691
v 2.5297000408172607 7.3000001907348633 -8.4680995941162109
v 2.5297000408172607 9.75 -8.4680995941162109
v 6.9619498252868652 7.3000001907348633 -8.4680995941162109
v 6.9619498252868652 9.75 -8.4680995941162109
v 2.5297000408172607 7.3000001907348633 -5.5931000709533691
v 2.5297000408172607 9.75 -5.5931000709533691
f 2 1 5 3 4 6
f 10 4 3 9 7 8
f 14 8 7 13 11 12
f 16 12 11 15 1 2
f 5 1 15 11 13 7 9 3
f 16 2 6 4 10 8 14 12
g object_2
v 2.5297000408172607 2.4000000953674316 -2.7181000709533691
v 2.5297000408172607 4.8499999046325684 -2.7181000709533691
v 11.219200134277344 2.4000000953674316 -2.7181000709533691
v 11.219200134277344 4.8499999046325684 -2.7181000709533691
v 6.8744502067565918 2.4000000953674316 -2.7181000709533691
v 6.8744502067565918 4.8499999046325684 -2.7181000709533691
v 11.219200134277344 2.4000000953674316 -7.9681000709533691
v 11.219200134277344 4.8499999046325684 -7.9681000709533691
v 11.219200134277344 2.4000000953674316 -5.3431000709533691
v 11.219200134277344 4.8499999046325684 -5.3431000709533691
v 2.5297000408172607 2.4000000953674316 -7.9681000709533691
v 2.5297000408172607 4.8499999046325684 -7.9681000709533691
v 6.8744502067565918 2.4000000953674316 -7.9681000709533691
v 6.8744502067565918 4.8499999046325684 -7.9681000709533691
v 2.5297000408172607 2.4000000953674316 -5.3431000709533691
v 2.5297000408172607 4.8499999046325684 -5.3431000709533691
f 18 17 21 19 20 22
f 19 25 23 24 26 20
f 24 23 29 27 28 30
f 27 31 17 18 32 28
f 29 23 25 19 21 17 31 27
f 26 24 30 28 32 18 22 20
g object_3
v 11.394200325012207 7.3000001907348633 -2.7181000709533691
v 11.394200325012207 9.75 -2.7181000709533691
v 13.869199752807617 7.3000001907348633 -2.7181000709533691
v 13.869199752807617 9.75 -2.7181000709533691
v 12.631699562072754 7.3000001907348633 -2.7181000709533691
v 13.869199752807617 8.5249996185302734 -2.7181000709533691
v 12.631699562072754 9.75 -2.7181000709533691
v 11.394200325012207 8.5249996185302734 -2.7181000709533691
v 13.869199752807617 7.3000001907348633 -9.1681003570556641
v 13.869199752807617 9.75 -9.1681003570556641
v 13.869199752807617 9.75 -5.9430999755859375
v 13.869199752807617 7.3000001907348633 -5.9430999755859375
v 13.869199752807617 8.5249996185302734 -9.1681003570556641
v 11.394200325012207 7.3000001907348633 -9.1681003570556641
v 11.394200325012207 9.75 -9.1681003570556641
v 12.631699562072754 7.3000001907348633 -9.1681003570556641
v 11.394200325012207 8.5249996185302734 -9.1681003570556641
v 12.631699562072754 9.75 -9.1681003570556641
v 11.394200325012207 7.3000001907348633 -5.9430999755859375
v 11.394200325012207 9.75 -5.9430999755859375
f 40 33 37 35 38 36 39 34
f 38 35 44 41 45 42 43 36
f 45 41 48 46 49 47 50 42
f 49 46 51 33 40 34 52 47
f 37 33 51 46 48 41 44 35
f 52 34 39 36 43 42 50 47
g object_4
v 11.119199752807617 4.8499999046325684 -9.1681003570556641
v 11.119199752807617 7.3000001907348633 -9.1681003570556641
v 11.119199752807617 4.8499999046325684 -2.7181000709533691
v 11.119199752807617 7.3000001907348633 -2.7181000709533691
v 11.119199752807617 4.8499999046325684 -5.9430999755859375
v 11.119199752807617 6.0749998092651367 -2.7181000709533691
v 11.119199752807617 7.3000001907348633 -5.9430999755859375
v 11.119199752807617 6.0749998092651367 -9.1681003570556641
v 13.869199752807617 4.8499999046325684 -2.7181000709533691
v 13.869199752807617 7.3000001907348633 -2.7181000709533691
v 12.494199752807617 4.8499999046325684 -2.7181000709533691
v 13.869199752807617 6.0749998092651367 -2.7181000709533691
v 12.494199752807617 7.3000001907348633 -2.7181000709533691
v 13.869199752807617 4.8499999046325684 -9.1681003570556641
v 13.869199752807617 7.3000001907348633 -9.1681003570556641
v 13.869199752807617 7.3000001907348633 -5.9430999755859375
v 13.869199752807617 4.8499999046325684 -5.9430999755859375
v 13.869199752807617 6.0749998092651367 -9.1681003570556641
v 12.494199752807617 4.8499999046325684 -9.1681003570556641
v 12.494199752807617 7.3000001907348633 -9.1681003570556641
f 60 53 57 55 58 56 59 54
f 58 55 63 61 64 62 65 56
f 64 61 69 66 70 67 68 62
f 70 66 71 53 60 54 72 67
f 57 53 71 66 69 61 63 55
f 72 54 59 56 65 62 68 67
g object_5
v 11.119199752807617 4.8499999046325684 -2.7181000709533691
v 11.119199752807617 7.3000001907348633 -2.7181000709533691
v 11.119199752807617 4.8499999046325684 -8.4680995941162109
v 11.119199752807617 7.3000001907348633 -8.4680995941162109
v 11.119199752807617 6.0749998092651367 -2.7181000709533691
v 11.119199752807617 4.8499999046325684 -5.5931000709533691
v 11.119199752807617 7.3000001907348633 -5.5931000709533691
v 7.4494500160217285 4.8499999046325684 -8.4680995941162109
v 7.4494500160217285 7.3000001907348633 -8.4680995941162109
v 9.2843246459960938 4.8499999046325684 -8.4680995941162109
v 7.4494500160217285 6.0749998092651367 -8.4680995941162109
v 9.2843246459960938 7.3000001907348633 -8.4680995941162109
v 7.4494500160217285 4.8499999046325684 -6.9797496795654297
v 7.4494500160217285 7.3000001907348633 -6.9797496795654297
v 7.4494500160217285 6.0749998092651367 -6.9797496795654297
v 8.1679000854492188 4.8499999046325684 -2.7181000709533691
v 9.643549919128418 4.8499999046325684 -2.7181000709533691
v 7.8086748123168945 4.8499999046325684 -4.8489246368408203
v 8.1679000854492188 7.3000001907348633 -2.7181000709533691
v 9.643549919128418 7.3000001907348633 -2.7181000709533691
v 7.8086748123168945 7.3000001907348633 -4.8489246368408203
v 8.1679000854492188 6.0749998092651367 -2.7181000709533691
f 77 73 78 75 76 79 74
f 76 75 82 80 83 81 84
f 83 80 85 87 86 81
f 90 85 80 82 75 78 73 89 88
f 86 93 91 92 74 79 76 84 81
f 94 88 89 73 77 74 92 91
f 90 88 94 91 93 86 87 85
g object_6
v 11.219200134277344 2.4000000953674316 -2.7181000709533691
v 11.219200134277344 4.8499999046325684 -2.7181000709533691
v 13.869199752807617 2.4000000953674316 -2.7181000709533691
v 13.869199752807617 4.8499999046325684 -2.7181000709533691
v 12.54419994354248 2.4000000953674316 -2.7181000709533691
v 13.869199752807617 3.625 -2.7181000709533691
v 12.54419994354248 4.8499999046325684 -2.7181000709533691
v 11.219200134277344 3.625 -2.7181000709533691
v 13.869199752807617 2.4000000953674316 -9.1681003570556641
v 13.869199752807617 4.8499999046325684 -9.1681003570556641
v 13.869199752807617 3.625 -9.1681003570556641
v 13.869199752807617 4.8499999046325684 -5.9430999755859375
v 13.869199752807617 2.4000000953674316 -5.9430999755859375
v 11.219200134277344 2.4000000953674316 -9.1681003570556641
v 11.219200134277344 4.8499999046325684 -9.1681003570556641
v 12.54419994354248 2.4000000953674316 -9.1681003570556641
v 11.219200134277344 3.625 -9.1681003570556641
v 12.54419994354248 4.8499999046325684 -9.1681003570556641
v 11.219200134277344 4.8499999046325684 -5.9430999755859375
v 11.219200134277344 2.4000000953674316 -5.9430999755859375
f 102 95 99 97 100 98 101 96
f 100 97 107 103 105 104 106 98
f 105 103 110 108 111 109 112 104
f 111 108 114 95 102 96 113 109
f 99 95 114 108 110 103 107 97
f 113 96 101 98 106 104 112 109
g object_7
v 3.7797000408172607 0.20000000298023224 -5.2181000709533691
v 3.7797000408172607 2.4000000953674316 -5.2181000709533691
v 8.1892004013061523 0.20000000298023224 -5.2181000709533691
v 8.1892004013061523 2.4000000953674316 -5.2181000709533691
v 8.1892004013061523 0.20000000298023224 -8.4680995941162109
v 8.1892004013061523 2.4000000953674316 -8.4680995941162109
v 3.7797000408172607 0.20000000298023224 -8.4680995941162109
v 3.7797000408172607 2.4000000953674316 -8.4680995941162109
f 117 115 121 119
f 122 116 118 120
f 115 117 118 116
f 117 119 120 118
f 119 121 122 120
f 121 115 116 122
g object_8
v 8.1892004013061523 0.20000000298023224 -7.0131001472473145
v 8.1892004013061523 2.4000000953674316 -7.0131001472473145
v 11.119199752807617 0.20000000298023224 -7.0131001472473145
v 11.119199752807617 2.4000000953674316 -7.0131001472473145
v 9.6541996002197266 0.20000000298023224 -7.0131001472473145
v 11.119199752807617 1.2999999523162842 -7.0131001472473145
v 9.6541996002197266 2.4000000953674316 -7.0131001472473145
v 8.1892004013061523 1.2999999523162842 -7.0131001472473145
v 11.119199752807617 0.20000000298023224 -8.2180995941162109
v 11.119199752807617 2.4000000953674316 -8.2180995941162109
v 11.119199752807617 0.93333333730697632 -8.2180995941162109
v 11.119199752807617 1.6666666269302368 -8.2180995941162109
v 11.119199752807617 2.4000000953674316 -8.4680995941162109
v 8.1892004013061523 2.4000000953674316 -8.2180995941162109
v 8.1892004013061523 2.4000000953674316 -8.4680995941162109
v 10.142533302307129 2.4000000953674316 -8.2180995941162109
v 9.1658668518066406 2.4000000953674316 -8.2180995941162109
v 9.1658668518066406 2.4000000953674316 -8.4680995941162109
v 10.142533302307129 2.4000000953674316 -8.4680995941162109
v 8.1892004013061523 0.20000000298023224 -8.2180995941162109
v 8.1892004013061523 1.6666666269302368 -8.2180995941162109
v 8.1892004013061523 0.93333333730697632 -8.2180995941162109
v 10.142533302307129 0.20000000298023224 -8.2180995941162109
v 9.1658668518066406 0.20000000298023224 -8.2180995941162109
v 8.1892004013061523 0.20000000298023224 -8.4680995941162109
v 8.1892004013061523 0.93333333730697632 -8.4680995941162109
v 8.1892004013061523 1.6666666269302368 -8.4680995941162109
v 11.119199752807617 0.20000000298023224 -8.4680995941162109
v 11.119199752807617 1.6666666269302368 -8.4680995941162109
v 11.119199752807617 0.93333333730697632 -8.4680995941162109
v 10.142533302307129 0.20000000298023224 -8.4680995941162109
v 9.1658668518066406 0.20000000298023224 -8.4680995941162109
f 130 123 127 125 128 126 129 124
f 128 125 131 133 134 132 126
f 138 132 135 141 140 137 136 139
f 144 142 123 130 124 136 143
f 127 123 142 146 145 131 125
f 139 136 124 129 126 132 138
f 136 137 149 148 147 142 144 143
f 131 150 152 151 135 132 134 133
f 152 150 153 154 147 148 149 137 140 141 135 151
f 146 142 147 154 153 150 131 145
g object_9
v 12.04419994354248 0.20000000298023224 -7.0931000709533691
v 12.04419994354248 1.2999999523162842 -7.0931000709533691
v 12.04419994354248 2.4000000953674316 -7.0931000709533691
v 12.242414474487305 0.20000000298023224 -7.112210750579834
v 12.242414474487305 1.2999999523162842 -7.112210750579834
v 12.242414474487305 2.4000000953674316 -7.112210750579834
v 12.438357353210449 0.20000000298023224 -7.1708884239196777
v 12.438357353210449 1.2999999523162842 -7.1708884239196777
v 12.438357353210449 2.4000000953674316 -7.1708884239196777
v 12.623076438903809 0.20000000298023224 -7.2696070671081543
v 12.623076438903809 1.2999999523162842 -7.2696070671081543
v 12.623076438903809 2.4000000953674316 -7.2696070671081543
v 12.78542423248291 0.20000000298023224 -7.4046573638916016
v 12.78542423248291 1.2999999523162842 -7.4046573638916016
v 12.78542423248291 2.4000000953674316 -7.4046573638916016
v 12.916942596435547 0.20000000298023224 -7.5695958137512207
v 12.916942596435547 1.2999999523162842 -7.5695958137512207
v 12.916942596435547 2.4000000953674316 -7.5695958137512207
v 13.010749816894531 0.20000000298023224 -7.7535209655761719
v 13.010749816894531 1.2999999523162842 -7.7535209655761719
v 13.010749816894531 2.4000000953674316 -7.7535209655761719
v 13.064825057983398 0.20000000298023224 -7.9442358016967773
v 13.064825057983398 1.2999999523162842 -7.9442358016967773
v 13.064825057983398 2.4000000953674316 -7.9442358016967773
v 13.081700325012207 0.20000000298023224 -8.1305999755859375
v 13.081700325012207 1.2999999523162842 -8.1305999755859375
v 13.081700325012207 2.4000000953674316 -8.1305999755859375
v 13.062589645385742 0.20000000298023224 -8.3288145065307617
v 13.062589645385742 1.2999999523162842 -8.3288145065307617
v 13.062589645385742 2.4000000953674316 -8.3288145065307617
v 13.003911972045898 0.20000000298023224 -8.5247573852539062
v 13.003911972045898 1.2999999523162842 -8.5247573852539062
v 13.003911972045898 2.4000000953674316 -8.5247573852539062
v 12.905193328857422 0.20000000298023224 -8.7094764709472656
v 12.905193328857422 1.2999999523162842 -8.7094764709472656
v 12.905193328857422 2.4000000953674316 -8.7094764709472656
v 12.770142555236816 0.20000000298023224 -8.8718242645263672
v 12.770142555236816 1.2999999523162842 -8.8718242645263672
v 12.770142555236816 2.4000000953674316 -8.8718242645263672
v 12.605204582214355 0.20000000298023224 -9.0033426284790039
v 12.605204582214355 1.2999999523162842 -9.0033426284790039
v 12.605204582214355 2.4000000953674316 -9.0033426284790039
v 12.421278953552246 0.20000000298023224 -9.0971498489379883
v 12.421278953552246 1.2999999523162842 -9.0971498489379883
v 12.421278953552246 2.4000000953674316 -9.0971498489379883
v 12.230564117431641 0.20000000298023224 -9.1512241363525391
v 12.230564117431641 1.2999999523162842 -9.1512241363525391
v 12.230564117431641 2.4000000953674316 -9.1512241363525391
v 12.04419994354248 0.20000000298023224 -9.1681003570556641
v 12.04419994354248 1.2999999523162842 -9.1681003570556641
v 12.04419994354248 2.4000000953674316 -9.1681003570556641
v 12.242414474487305 0.75 -7.112210750579834
v 12.142051696777344 1.2999999523162842 -7.0977249145507812
v 12.142051696777344 0.75 -7.0977249145507812
v 12.438357353210449 0.75 -7.1708884239196777
v 12.340610504150391 1.2999999523162842 -7.1363430023193359
v 12.340610504150391 0.75 -7.1363430023193359
v 12.623076438903809 0.75 -7.2696070671081543
v 12.53251838684082 1.2999999523162842 -7.2152032852172852
v 12.53251838684082 0.75 -7.2152032852172852
v 12.916942596435547 0.75 -7.5695958137512207
v 12.855575561523438 1.2999999523162842 -7.4840121269226074
v 12.78542423248291 0.75 -7.4046573638916016
v 12.855575561523438 0.75 -7.4840121269226074
v 13.010749816894531 0.75 -7.7535209655761719
v 12.968803405761719 1.2999999523162842 -7.6599464416503906
v 12.968803405761719 0.75 -7.6599464416503906
v 13.064825057983398 0.75 -7.9442358016967773
v 13.042689323425293 1.2999999523162842 -7.8487749099731445
v 13.042689323425293 0.75 -7.8487749099731445
v 13.081700325012207 0.75 -8.1305999755859375
v 13.077610015869141 1.2999999523162842 -8.0385646820068359
v 13.077610015869141 0.75 -8.0385646820068359
v 13.062589645385742 0.75 -8.3288145065307617
v 13.077075004577637 1.2999999523162842 -8.2284517288208008
v 13.077075004577637 0.75 -8.2284517288208008
v 13.003911972045898 0.75 -8.5247573852539062
v 13.038456916809082 1.2999999523162842 -8.4270105361938477
v 13.038456916809082 0.75 -8.4270105361938477
v 12.905193328857422 0.75 -8.7094764709472656
v 12.959596633911133 1.2999999523162842 -8.6189184188842773
v 12.959596633911133 0.75 -8.6189184188842773
v 12.605204582214355 0.75 -9.0033426284790039
v 12.690788269042969 1.2999999523162842 -8.9419755935668945
v 12.770142555236816 0.75 -8.8718242645263672
v 12.690788269042969 0.75 -8.9419755935668945
v 12.421278953552246 0.75 -9.0971498489379883
v 12.514853477478027 1.2999999523162842 -9.0552034378051758
v 12.514853477478027 0.75 -9.0552034378051758
v 12.230564117431641 0.75 -9.1512241363525391
v 12.326025009155273 1.2999999523162842 -9.12908935546875
v 12.326025009155273 0.75 -9.12908935546875
v 12.136235237121582 1.2999999523162842 -9.1640100479125977
v 12.136235237121582 0.75 -9.1640100479125977
v 12.230564117431641 1.8500000238418579 -9.1512241363525391
v 12.136235237121582 1.8500000238418579 -9.1640100479125977
v 12.421278953552246 1.8500000238418579 -9.0971498489379883
v 12.326025009155273 1.8500000238418579 -9.12908935546875
v 12.605204582214355 1.8500000238418579 -9.0033426284790039
v 12.514853477478027 1.8500000238418579 -9.0552034378051758
v 12.770142555236816 1.8500000238418579 -8.8718242645263672
v 12.690788269042969 1.8500000238418579 -8.9419755935668945
v 12.905193328857422 1.8500000238418579 -8.7094764709472656
v 13.003911972045898 1.8500000238418579 -8.5247573852539062
v 12.959596633911133 1.8500000238418579 -8.6189184188842773
v 13.062589645385742 1.8500000238418579 -8.3288145065307617
v 13.038456916809082 1.8500000238418579 -8.4270105361938477
v 13.081700325012207 1.8500000238418579 -8.1305999755859375
v 13.077075004577637 1.8500000238418579 -8.2284517288208008
v 13.064825057983398 1.8500000238418579 -7.9442358016967773
v 13.077610015869141 1.8500000238418579 -8.0385646820068359
v 13.010749816894531 1.8500000238418579 -7.7535209655761719
v 13.042689323425293 1.8500000238418579 -7.8487749099731445
v 12.916942596435547 1.8500000238418579 -7.5695958137512207
v 12.968803405761719 1.8500000238418579 -7.6599464416503906
v 12.78542423248291 1.8500000238418579 -7.4046573638916016
v 12.855575561523438 1.8500000238418579 -7.4840121269226074
v 12.623076438903809 1.8500000238418579 -7.2696070671081543
v 12.438357353210449 1.8500000238418579 -7.1708884239196777
v 12.53251838684082 1.8500000238418579 -7.2152032852172852
v 12.242414474487305 1.8500000238418579 -7.112210750579834
v 12.340610504150391 1.8500000238418579 -7.1363430023193359
v 12.142051696777344 1.8500000238418579 -7.0977249145507812
v 11.444199562072754 0.20000000298023224 -9.1681003570556641
v 11.444199562072754 2.4000000953674316 -9.1681003570556641
v 11.444199562072754 0.93333333730697632 -9.1681003570556641
v 11.444199562072754 1.6666666269302368 -9.1681003570556641
v 11.119199752807617 2.4000000953674316 -9.1681003570556641
v 11.444199562072754 2.4000000953674316 -7.0931000709533691
v 11.119199752807617 2.4000000953674316 -7.0931000709533691
v 11.444199562072754 2.4000000953674316 -8.4764337539672852
v 11.444199562072754 2.4000000953674316 -7.784766674041748
v 11.119199752807617 2.4000000953674316 -7.784766674041748
v 11.119199752807617 2.4000000953674316 -8.4764337539672852
v 11.444199562072754 0.20000000298023224 -7.0931000709533691
v 11.444199562072754 1.6666666269302368 -7.0931000709533691
v 11.444199562072754 0.93333333730697632 -7.0931000709533691
v 12.26294994354248 0.20000000298023224 -8.1305999755859375
v 12.26294994354248 0.20000000298023224 -7.6118497848510742
v 11.853574752807617 0.20000000298023224 -8.1305999755859375
v 11.853574752807617 0.20000000298023224 -7.6118497848510742
v 12.672325134277344 0.20000000298023224 -8.1305999755859375
v 12.672325134277344 0.20000000298023224 -7.6118497848510742
v 12.26294994354248 0.20000000298023224 -8.6493501663208008
v 12.672325134277344 0.20000000298023224 -8.6493501663208008
v 11.853574752807617 0.20000000298023224 -8.6493501663208008
v 11.444199562072754 0.20000000298023224 -8.4764337539672852
v 11.444199562072754 0.20000000298023224 -7.784766674041748
v 12.26294994354248 2.4000000953674316 -8.1305999755859375
v 12.26294994354248 2.4000000953674316 -7.6118497848510742
v 11.853574752807617 2.4000000953674316 -8.1305999755859375
v 11.853574752807617 2.4000000953674316 -7.6118497848510742
v 12.672325134277344 2.4000000953674316 -8.1305999755859375
v 12.672325134277344 2.4000000953674316 -7.6118497848510742
v 12.26294994354248 2.4000000953674316 -8.6493501663208008
v 12.672325134277344 2.4000000953674316 -8.6493501663208008
v 11.853574752807617 2.4000000953674316 -8.6493501663208008
v 11.119199752807617 0.20000000298023224 -7.0931000709533691
v 11.119199752807617 0.93333333730697632 -7.0931000709533691
v 11.119199752807617 1.6666666269302368 -7.0931000709533691
v 11.119199752807617 0.20000000298023224 -9.1681003570556641
v 11.119199752807617 1.6666666269302368 -9.1681003570556641
v 11.119199752807617 0.93333333730697632 -9.1681003570556641
v 11.119199752807617 0.20000000298023224 -8.4764337539672852
v 11.119199752807617 0.20000000298023224 -7.784766674041748
f 207 208 158 206 159 275 160 277
f 210 211 161 209 162 273 163 276
f 159 206 211 210 276 160 275
f 213 214 212 165 272 166 274
f 162 209 161 214 213 274 163 273
f 216 218 170 215 171 268 172 271
f 168 217 167 218 216 271 169 270
f 220 221 173 219 174 266 175 269
f 171 215 221 220 269 172 268
f 223 224 176 222 177 264 178 267
f 174 219 173 224 223 267 175 266
f 226 227 179 225 180 262 181 265
f 177 222 176 227 226 265 178 264
f 229 230 182 228 183 260 184 263
f 180 225 179 230 229 263 181 262
f 232 233 185 231 186 258 187 261
f 183 228 182 233 232 261 184 260
f 235 236 188 234 189 257 190 259
f 186 231 185 236 235 259 187 258
f 238 240 194 237 195 253 196 256
f 192 239 191 240 238 256 193 255
f 242 243 241 198 251 199 254
f 195 237 194 243 242 254 196 253
f 245 246 244 201 249 252
f 198 241 197 246 245 252 199 251
f 201 244 200 248 247 250 202 249
f 156 155 208 207 277 157
f 212 164 167 217 168 270 169 166 272 165
f 191 239 192 255 193 190 257 189 234 188
f 247 248 203 204 205 250
f 204 203 278 280 281 279 205
f 285 279 282 288 287 284 283 286
f 291 289 155 156 157 283 290
f 185 182 179 176 173 170 167 164 161 158 155 289 302 301 278 203 200 197 194 191 188
f 193 196 199 202 205 279 285 286 283 157 160 163 166 169 172 175 178 181 184 187 190
f 283 284 314 313 312 289 291 290
f 280 278 315 317 316 282 279 281
f 317 315 318 319 312 313 314 284 287 288 282 316
f 302 289 312 319 318 315 278 301
f 208 155 158
f 158 161 211 206
f 161 164 212 214
f 170 218 167
f 170 173 221 215
f 176 224 173
f 179 227 176
f 160 157 277
f 163 160 276
f 163 274 166
f 172 169 271
f 175 172 269
f 181 178 265
f 175 267 178
f 179 182 230
f 185 233 182
f 188 236 185
f 191 194 240
f 194 197 241 243
f 197 200 244 246
f 203 248 200
f 184 181 263
f 187 184 261
f 259 190 187
f 196 193 256
f 199 196 254
f 250 205 202
f 202 199 252 249
g object_10
v 5.2442002296447754 0.20000000298023224 -4.7360749244689941
v 5.2442002296447754 2.4000000953674316 -4.7360749244689941
v 5.2442002296447754 0.20000000298023224 -5.2181000709533691
v 5.2442002296447754 2.4000000953674316 -5.2181000709533691
v 3.7797000408172607 0.20000000298023224 -5.2181000709533691
v 3.7797000408172607 2.4000000953674316 -5.2181000709533691
v 3.7797000408172607 0.20000000298023224 -4.7360501289367676
v 3.7797000408172607 2.4000000953674316 -4.7360501289367676
v 3.7919292449951172 0.20000000298023224 -4.60211181640625
v 3.7919292449951172 2.4000000953674316 -4.60211181640625
v 3.8311216831207275 0.20000000298023224 -4.4651064872741699
v 3.8311216831207275 2.4000000953674316 -4.4651064872741699
v 3.8990738391876221 0.20000000298023224 -4.3332667350769043
v 3.8990738391876221 2.4000000953674316 -4.3332667350769043
v 3.9941887855529785 0.20000000298023224 -4.215573787689209
v 3.9941887855529785 2.4000000953674316 -4.215573787689209
v 4.1112766265869141 0.20000000298023224 -4.1199698448181152
v 4.1112766265869141 2.4000000953674316 -4.1199698448181152
v 4.2424359321594238 0.20000000298023224 -4.0516719818115234
v 4.2424359321594238 2.4000000953674316 -4.0516719818115234
v 4.3787322044372559 0.20000000298023224 -4.0122838020324707
v 4.3787322044372559 2.4000000953674316 -4.0122838020324707
v 4.5119752883911133 0.20000000298023224 -4
v 4.5119752883911133 2.4000000953674316 -4
v 4.6452140808105469 0.20000000298023224 -4.0122923851013184
v 4.6452140808105469 2.4000000953674316 -4.0122923851013184
v 4.7815041542053223 0.20000000298023224 -4.0516877174377441
v 4.7815041542053223 2.4000000953674316 -4.0516877174377441
v 4.912656307220459 0.20000000298023224 -4.1199913024902344
v 4.912656307220459 2.4000000953674316 -4.1199913024902344
v 5.0297365188598633 0.20000000298023224 -4.2155985832214355
v 5.0297365188598633 2.4000000953674316 -4.2155985832214355
v 5.1248440742492676 0.20000000298023224 -4.3332934379577637
v 5.1248440742492676 2.4000000953674316 -4.3332934379577637
v 5.1927890777587891 0.20000000298023224 -4.4651331901550293
v 5.1927890777587891 2.4000000953674316 -4.4651331901550293
v 5.2319755554199219 0.20000000298023224 -4.6021380424499512
v 5.2319755554199219 2.4000000953674316 -4.6021380424499512
f 356 354 352 350 348 346 344 342 340 338 336 334 332 330 328 326 324 322 320
f 355 357 321 323 325 327 329 331 333 335 337 339 341 343 345 347 349 351 353
f 320 322 323 321
f 322 324 325 323
f 324 326 327 325
f 326 328 329 327
f 328 330 331 329
f 330 332 333 331
f 332 334 335 333
f 334 336 337 335
f 336 338 339 337
f 338 340 341 339
f 340 342 343 341
f 342 344 345 343
f 344 346 347 345
f 346 348 349 347
f 348 350 351 349
f 350 352 353 351
f 352 354 355 353
f 354 356 357 355
f 356 320 321 357
g object_11
v 8.1892004013061523 0.20000000298023224 -5.2181000709533691
v 8.1892004013061523 2.4000000953674316 -5.2181000709533691
v 11.119199752807617 0.20000000298023224 -5.2181000709533691
v 11.119199752807617 2.4000000953674316 -5.2181000709533691
v 11.119199752807617 0.20000000298023224 -7.0131001472473145
v 11.119199752807617 2.4000000953674316 -7.0131001472473145
v 8.1892004013061523 0.20000000298023224 -7.0131001472473145
v 8.1892004013061523 2.4000000953674316 -7.0131001472473145
f 360 358 364 362
f 365 359 361 363
f 358 360 361 359
f 360 362 363 361
f 362 364 365 363
f 364 358 359 365
