# Rhino

o F36_door_0001
v 86.831452041305539 0.31764705882353894 -3.3420296793987845
v 86.831452041305539 2.6705882352941188 -3.3420296793987845
v 85.831452041305539 2.6705882352941188 -3.3420296793987845
v 85.831452041305539 0.31764705882353894 -3.3420296793987845
f 1 2 3 4
o F36_door_0002
v 89.619572907500441 0.31764705882353894 -3.3420296793987845
v 89.619572907500441 2.6705882352941188 -3.3420296793987845
v 88.619572907500441 2.6705882352941188 -3.3420296793987845
v 88.619572907500441 0.31764705882353894 -3.3420296793987845
f 5 6 7 8
o F36_door_0003
v 92.857262208508473 0.31764705882353894 -3.3420296793987845
v 92.857262208508473 2.6705882352941188 -3.3420296793987845
v 91.857262208508473 2.6705882352941188 -3.3420296793987845
v 91.857262208508473 0.31764705882353894 -3.3420296793987845
f 9 10 11 12
o F36_door_0004
v 84.254968092469426 0.31764705882353894 -3.3420296793987845
v 84.254968092469426 2.6705882352941188 -3.3420296793987845
v 83.254968092469426 2.6705882352941188 -3.3420296793987845
v 83.254968092469426 0.31764705882353894 -3.3420296793987845
f 13 14 15 16
o F36_door_0005
v 89.42095105840221 0.31764705882353894 -5.7652294212300816
v 89.42095105840221 2.6705882352941188 -5.7652294212300816
v 88.42095105840221 2.6705882352941188 -5.7652294212300816
v 88.42095105840221 0.31764705882353894 -5.7652294212300816
f 17 18 19 20
o F36_door_0008
v 104.65611515048906 0.44679842692208638 -11.406853010959843
v 104.65611515048906 2.7997396033926663 -11.406853010959843
v 104.65611515048906 2.7997396033926663 -10.406853010959843
v 104.65611515048906 0.44679842692208638 -10.406853010959843
f 21 22 23 24
o F36_door_0009
v 104.65611515048903 0.44679842692208638 -3.7420296805975042
v 104.65611515048903 2.7997396033926663 -3.7420296805975042
v 104.65611515048903 2.7997396033926663 -2.7420296805975042
v 104.65611515048903 0.44679842692208638 -2.7420296805975042
f 25 26 27 28
o F36_door_0011
v 99.969422178112495 0.31764705882353894 7.9932517568904373
v 99.969422178112495 2.6705882352941188 7.9932517568904373
v 99.169422178112512 2.6705882352941188 7.9932517568904373
v 99.169422178112512 0.31764705882353894 7.9932517568904373
f 29 30 31 32
o F36_door_0012
v 95.6813043754251 0.31764705882353894 7.9932517568904373
v 95.6813043754251 2.6705882352941188 7.9932517568904373
v 94.881304375425117 2.6705882352941188 7.9932517568904373
v 94.881304375425117 0.31764705882353894 7.9932517568904373
f 33 34 35 36
o F36_door_0013
v 83.435696184913951 0.31764705882353894 7.9932517568904373
v 83.435696184913951 2.6705882352941188 7.9932517568904373
v 82.635696184913968 2.6705882352941188 7.9932517568904373
v 82.635696184913968 0.31764705882353894 7.9932517568904373
f 37 38 39 40
o F36_door_0014
v 83.435696184913951 0.31764705882353894 -17.641748241902576
v 83.435696184913951 2.6705882352941188 -17.641748241902576
v 82.635696184913968 2.6705882352941188 -17.641748241902576
v 82.635696184913968 0.31764705882353894 -17.641748241902576
f 41 42 43 44
o F36_door_0015
v 59.197434724454581 0.31764705882353894 -17.641748241902576
v 59.197434724454581 2.6705882352941188 -17.641748241902576
v 58.397434724454598 2.6705882352941188 -17.641748241902576
v 58.397434724454598 0.31764705882353894 -17.641748241902576
f 45 46 47 48
o F36_door_0016
v 62.653808723358225 0.31764705882353894 -17.641748241902576
v 62.653808723358225 2.6705882352941188 -17.641748241902576
v 61.853808723358242 2.6705882352941188 -17.641748241902576
v 61.853808723358242 0.31764705882353894 -17.641748241902576
f 49 50 51 52
o F36_door_0017
v 94.948987720375101 0.31764705882353894 -17.641748241902576
v 94.948987720375101 2.6705882352941188 -17.641748241902576
v 94.148987720375118 2.6705882352941188 -17.641748241902576
v 94.148987720375118 0.31764705882353894 -17.641748241902576
f 53 54 55 56
o F36_door_0018
v 102.05569929386257 0.44679842692208638 -15.056775481797558
v 102.05569929386257 2.7997396033926663 -15.056775481797558
v 102.05569929386257 2.7997396033926663 -14.088442704157103
v 102.05569929386257 0.44679842692208638 -14.088442704157103
f 57 58 59 60
o F36_door_0019
v 102.05569929386257 0.44679842692208638 -19.411337322963561
v 102.05569929386257 2.7997396033926663 -19.411337322963561
v 102.05569929386257 2.7997396033926663 -18.443004545323106
v 102.05569929386257 0.44679842692208638 -18.443004545323106
f 61 62 63 64
o F36_door_0020
v 99.756115150490302 0.44679842692208638 -19.411337322963561
v 99.756115150490302 2.7997396033926663 -19.411337322963561
v 99.756115150490302 2.7997396033926663 -18.443004545323106
v 99.756115150490302 0.44679842692208638 -18.443004545323106
f 65 66 67 68
o F36_door_0021
v 100.97611515049033 0.44679842692208638 -19.411337322963561
v 100.97611515049033 2.7997396033926663 -19.411337322963561
v 100.97611515049033 2.7997396033926663 -18.443004545323106
v 100.97611515049033 0.44679842692208638 -18.443004545323106
f 69 70 71 72
o F36_door_0022
v 100.97611515049033 0.44679842692208638 -17.012017503544996
v 100.97611515049033 2.7997396033926663 -17.012017503544996
v 100.97611515049033 2.7997396033926663 -16.043684725904512
v 100.97611515049033 0.44679842692208638 -16.043684725904512
f 73 74 75 76
o F36_door_0023
v 100.97611515049033 0.44679842692208638 -15.387931041578355
v 100.97611515049033 2.7997396033926663 -15.387931041578355
v 100.97611515049033 2.7997396033926663 -14.4195982639379
v 100.97611515049033 0.44679842692208638 -14.4195982639379
f 77 78 79 80
o F36_door_0024
v 94.613839052402653 0.31764705882353894 -11.643353082122779
v 94.613839052402653 2.6705882352941188 -11.643353082122779
v 94.613839052402653 2.6705882352941188 -10.843353082122796
v 94.613839052402653 0.31764705882353894 -10.843353082122796
f 81 82 83 84
o F36_door_0025
v 87.20110668973328 0.31764705882353894 -5.7650745014779901
v 87.20110668973328 2.6705882352941188 -5.7650745014779901
v 86.20110668973328 2.6705882352941188 -5.7650745014779901
v 86.20110668973328 0.31764705882353894 -5.7650745014779901
f 85 86 87 88
o F36_door_0026
v 72.473179977597709 0.31764705882353894 -3.3421845991453196
v 72.473179977597709 2.6705882352941188 -3.3421845991453196
v 71.473179977597709 2.6705882352941188 -3.3421845991453196
v 71.473179977597709 0.31764705882353894 -3.3421845991453196
f 89 90 91 92
o F36_door_0027
v 69.256115150489137 0.31764705882353894 -3.3421845991453196
v 69.256115150489137 2.6705882352941188 -3.3421845991453196
v 68.256115150489137 2.6705882352941188 -3.3421845991453196
v 68.256115150489137 0.31764705882353894 -3.3421845991453196
f 93 94 95 96
o F36_door_0028
v 66.356115150488733 0.31764705882353894 -3.3421845991453196
v 66.356115150488733 2.6705882352941188 -3.3421845991453196
v 65.356115150488733 2.6705882352941188 -3.3421845991453196
v 65.356115150488733 0.31764705882353894 -3.3421845991453196
f 97 98 99 100
o F36_door_0029
v 75.38465819518666 0.31764705882353894 -3.3421845991453196
v 75.38465819518666 2.6705882352941188 -3.3421845991453196
v 74.38465819518666 2.6705882352941188 -3.3421845991453196
v 74.38465819518666 0.31764705882353894 -3.3421845991453196
f 101 102 103 104
o F36_door_0030
v 68.108915427117466 0.31764705882353894 -5.7652294212300816
v 68.108915427117466 2.6705882352941188 -5.7652294212300816
v 67.108915427117466 2.6705882352941188 -5.7652294212300816
v 67.108915427117466 0.31764705882353894 -5.7652294212300816
f 105 106 107 108
o F36_door_0031
v 83.604185418493216 0.31764705882353894 -5.7650745014779901
v 83.604185418493216 2.6705882352941188 -5.7650745014779901
v 82.604185418493216 2.6705882352941188 -5.7650745014779901
v 82.604185418493216 0.31764705882353894 -5.7650745014779901
f 109 110 111 112
o F36_door_0032
v 77.85335682853804 0.31764705882353894 -5.7652294212300816
v 77.85335682853804 2.6705882352941188 -5.7652294212300816
v 76.85335682853804 2.6705882352941188 -5.7652294212300816
v 76.85335682853804 0.31764705882353894 -5.7652294212300816
f 113 114 115 116
o F36_door_0033
v 84.236760343155709 0.31764705882353894 -13.188651831971988
v 84.236760343155709 2.6705882352941188 -13.188651831971988
v 84.236760343155709 2.6705882352941188 -12.388651831972005
v 84.236760343155709 0.31764705882353894 -12.388651831972005
f 117 118 119 120
o F36_door_0034
v 81.896100655780259 0.31764705882353894 -12.19202968317564
v 81.896100655780259 2.6705882352941188 -12.19202968317564
v 81.896100655780259 2.6705882352941188 -11.392029683175657
v 81.896100655780259 0.31764705882353894 -11.392029683175657
f 121 122 123 124
o F36_door_0035
v 80.149276096073891 0.31764705882353894 -12.19202968317564
v 80.149276096073891 2.6705882352941188 -12.19202968317564
v 80.149276096073891 2.6705882352941188 -11.392029683175657
v 80.149276096073891 0.31764705882353894 -11.392029683175657
f 125 126 127 128
o F36_door_0036
v 74.818139824208657 0.31764705882353894 -12.19202968317564
v 74.818139824208657 2.6705882352941188 -12.19202968317564
v 74.818139824208657 2.6705882352941188 -11.392029683175657
v 74.818139824208657 0.31764705882353894 -11.392029683175657
f 129 130 131 132
o F36_door_0037
v 65.240894038778833 0.31764705882353894 -13.102029680897509
v 65.240894038778833 2.6705882352941188 -13.102029680897509
v 65.240894038778833 2.6705882352941188 -12.302029680897526
v 65.240894038778833 0.31764705882353894 -12.302029680897526
f 133 134 135 136
o F36_door_0038
v 70.906115182556107 0.31764705882353894 -13.102029680897509
v 70.906115182556107 2.6705882352941188 -13.102029680897509
v 70.906115182556107 2.6705882352941188 -12.302029680897526
v 70.906115182556107 0.31764705882353894 -12.302029680897526
f 137 138 139 140
o F36_door_0039
v 60.692883938326617 0.44679842692208638 -10.515103571471691
v 60.692883938326617 2.7997396033926663 -10.515103571471691
v 60.692883938326617 2.7997396033926663 -9.5151035714716912
v 60.692883938326617 0.44679842692208638 -9.5151035714716912
f 141 142 143 144
o F36_door_0040
v 60.692883938326617 0.44679842692208638 -5.9009184698442496
v 60.692883938326617 2.7997396033926663 -5.9009184698442496
v 60.692883938326617 2.7997396033926663 -4.9009184698442496
v 60.692883938326617 0.44679842692208638 -4.9009184698442496
f 145 146 147 148
o F36_door_0052
v 74.818139824208657 0.31764705882353894 1.7834195359107312
v 74.818139824208657 2.6705882352941188 1.7834195359107312
v 74.818139824208657 2.6705882352941188 2.5834195359107142
v 74.818139824208657 0.31764705882353894 2.5834195359107142
f 149 150 151 152
o F36_door_0053
v 80.149276096073891 0.31764705882353894 1.7834195359107312
v 80.149276096073891 2.6705882352941188 1.7834195359107312
v 80.149276096073891 2.6705882352941188 2.5834195359107142
v 80.149276096073891 0.31764705882353894 2.5834195359107142
f 153 154 155 156
o F36_door_0054
v 91.861478428758943 0.31764705882353894 2.7407340595851011
v 91.861478428758943 2.6705882352941188 2.7407340595851011
v 91.861478428758943 2.6705882352941188 3.540734059585084
v 91.861478428758943 0.31764705882353894 3.540734059585084
f 157 158 159 160
o F36_door_0055
v 84.240142431506371 0.31764705882353894 2.7407340595851011
v 84.240142431506371 2.6705882352941188 2.7407340595851011
v 84.240142431506371 2.6705882352941188 3.540734059585084
v 84.240142431506371 0.31764705882353894 3.540734059585084
f 161 162 163 164
o F36_door_0056
v 91.857419922720908 0.31764705882353894 -13.056519860254092
v 91.857419922720908 2.6705882352941188 -13.056519860254092
v 91.857419922720908 2.6705882352941188 -12.256519860254109
v 91.857419922720908 0.31764705882353894 -12.256519860254109
f 165 166 167 168
o F36_door_0057
v 97.906115119440813 0.31764705882353894 -0.30875085491555154
v 97.906115119440813 2.6705882352941188 -0.30875085491555154
v 97.906115119440813 2.6705882352941188 0.4912491450844314
v 97.906115119440813 0.31764705882353894 0.4912491450844314
f 169 170 171 172
o F36_door_0058
v 100.25611309180709 0.31764705882353894 4.2129703205876368
v 100.25611309180709 2.6705882352941188 4.2129703205876368
v 100.25611309180709 2.6705882352941188 5.0129703205876197
v 100.25611309180709 0.31764705882353894 5.0129703205876197
f 173 174 175 176
o F36_door_0059
v 107.35611508838275 0.31764705882353894 4.2129703205876368
v 107.35611508838275 2.6705882352941188 4.2129703205876368
v 107.35611508838275 2.6705882352941188 5.0129703205876197
v 107.35611508838275 0.31764705882353894 5.0129703205876197
f 177 178 179 180
o F36_door_0060
v 96.406116504878526 0.44679842692208638 -9.7920289968346381
v 96.406116504878526 2.7997396033926663 -9.7920289968346381
v 96.406116504878526 2.7997396033926663 -8.7920289968346381
v 96.406116504878526 0.44679842692208638 -8.7920289968346381
f 181 182 183 184
o F36_door_0061
v 96.406116504878526 0.44679842692208638 -4.9280617888897567
v 96.406116504878526 2.7997396033926663 -4.9280617888897567
v 96.406116504878526 2.7997396033926663 -3.9280617888897567
v 96.406116504878526 0.44679842692208638 -3.9280617888897567
f 185 186 187 188
o F36_door_0071
v 102.85611515043126 0.31764705882353894 2.5079703205866863
v 102.85611515043126 2.6705882352941188 2.5079703205866863
v 102.05611515043128 2.6705882352941188 2.5079703205866863
v 102.05611515043128 0.31764705882353894 2.5079703205866863
f 189 190 191 192
o F36_door_0072
v 101.89396573849459 0.31764705882353894 -20.092029679397797
v 101.89396573849459 2.6705882352941188 -20.092029679397797
v 101.0939657384946 2.6705882352941188 -20.092029679397797
v 101.0939657384946 0.31764705882353894 -20.092029679397797
f 193 194 195 196
o F36_door_0073
v 101.89835219587971 0.31764705882353894 -12.992029678924574
v 101.89835219587971 2.6705882352941188 -12.992029678924574
v 101.09835219587973 2.6705882352941188 -12.992029678924574
v 101.09835219587973 0.31764705882353894 -12.992029678924574
f 197 198 199 200
o F36_door_0076
v 97.841804687845638 0.31764705882353894 -10.441807309047199
v 97.841804687845638 2.6705882352941188 -10.441807309047199
v 97.041804687845655 2.6705882352941188 -10.441807309047199
v 97.041804687845655 0.31764705882353894 -10.441807309047199
f 201 202 203 204
o F36_door_0077
v 97.787138356978119 0.31764705882353894 -3.6920296805829125
v 97.787138356978119 2.6705882352941188 -3.6920296805829125
v 96.987138356978136 2.6705882352941188 -3.6920296805829125
v 96.987138356978136 0.31764705882353894 -3.6920296805829125
f 205 206 207 208
o F36_door_0078
v 101.29764756069682 0.31764705882353894 3.957970320586675
v 101.29764756069682 2.6705882352941188 3.957970320586675
v 100.49764756069683 2.6705882352941188 3.957970320586675
v 100.49764756069683 0.31764705882353894 3.957970320586675
f 209 210 211 212
o F36_door_0079
v 102.21541790891723 0.31764705882353894 5.1579703205868768
v 102.21541790891723 2.6705882352941188 5.1579703205868768
v 101.41541790891725 2.6705882352941188 5.1579703205868768
v 101.41541790891725 0.31764705882353894 5.1579703205868768
f 213 214 215 216
o F36_door_0080
v 104.39731084507829 0.31764705882353894 5.157970320586891
v 104.39731084507829 2.6705882352941188 5.157970320586891
v 103.59731084507831 2.6705882352941188 5.157970320586891
v 103.59731084507831 0.31764705882353894 5.157970320586891
f 217 218 219 220
o F36_door_0081
v 106.58569947933955 0.31764705882353894 2.8579703205867091
v 106.58569947933955 2.6705882352941188 2.8579703205867091
v 105.78569947933957 2.6705882352941188 2.8579703205867091
v 105.78569947933957 0.31764705882353894 2.8579703205867091
f 221 222 223 224
o F36_door_0082
v 106.5512261639677 0.31764705882353894 3.957970320586675
v 106.5512261639677 2.6705882352941188 3.957970320586675
v 105.75122616396771 2.6705882352941188 3.957970320586675
v 105.75122616396771 0.31764705882353894 3.957970320586675
f 225 226 227 228
o F36_door_0083
v 104.75611508737398 0.31764705882353894 3.9579703205867034
v 104.75611508737398 2.6705882352941188 3.9579703205867034
v 103.956115087374 2.6705882352941188 3.9579703205867034
v 103.956115087374 0.31764705882353894 3.9579703205867034
f 229 230 231 232
o F36_door_0084
v 102.70335896404771 0.31764705882353894 3.957970320586675
v 102.70335896404771 2.6705882352941188 3.957970320586675
v 101.90335896404773 2.6705882352941188 3.957970320586675
v 101.90335896404773 0.31764705882353894 3.957970320586675
f 233 234 235 236
o F36_door_0085
v 94.305303271293241 0.31764705882353894 2.381033194207113
v 94.305303271293241 2.6705882352941188 2.381033194207113
v 93.505303271293258 2.6705882352941188 2.381033194207113
v 93.505303271293258 0.31764705882353894 2.381033194207113
f 237 238 239 240
o F36_door_0086
v 87.956115181542543 0.31764705882353894 3.5935331943860618
v 87.956115181542543 2.6705882352941188 3.5935331943860618
v 87.15611518154256 2.6705882352941188 3.5935331943860618
v 87.15611518154256 0.31764705882353894 3.5935331943860618
f 241 242 243 244
o F36_door_0087
v 89.292911331524238 0.31764705882353894 3.5935331943860618
v 89.292911331524238 2.6705882352941188 3.5935331943860618
v 88.492911331524255 2.6705882352941188 3.5935331943860618
v 88.492911331524255 0.31764705882353894 3.5935331943860618
f 245 246 247 248
o F36_door_0088
v 89.175350228408377 0.31764705882353894 2.5135331941562313
v 89.175350228408377 2.6705882352941188 2.5135331941562313
v 88.375350228408394 2.6705882352941188 2.5135331941562313
v 88.375350228408394 0.31764705882353894 2.5135331941562313
f 249 250 251 252
o F36_door_0089
v 91.030617903317534 0.31764705882353894 2.5135331941562313
v 91.030617903317534 2.6705882352941188 2.5135331941562313
v 90.230617903317551 2.6705882352941188 2.5135331941562313
v 90.230617903317551 0.31764705882353894 2.5135331941562313
f 253 254 255 256
o F36_door_0090
v 86.013601547805905 0.31764705882353894 2.5135331941562455
v 86.013601547805905 2.6705882352941188 2.5135331941562455
v 85.213601547805922 2.6705882352941188 2.5135331941562455
v 85.213601547805922 0.31764705882353894 2.5135331941562455
f 257 258 259 260
o F36_door_0091
v 87.972306376437615 0.31764705882353894 2.5135331941562455
v 87.972306376437615 2.6705882352941188 2.5135331941562455
v 87.172306376437632 2.6705882352941188 2.5135331941562455
v 87.172306376437632 0.31764705882353894 2.5135331941562455
f 261 262 263 264
o F36_door_0092
v 74.367539466299377 0.31764705882353894 -12.342029683031534
v 74.367539466299377 2.6705882352941188 -12.342029683031534
v 73.567539466299394 2.6705882352941188 -12.342029683031534
v 73.567539466299394 0.31764705882353894 -12.342029683031534
f 265 266 267 268
o F36_door_0093
v 77.651210510918162 0.31764705882353894 1.5935331983076324
v 77.651210510918162 2.6705882352941188 1.5935331983076324
v 76.851210510918179 2.6705882352941188 1.5935331983076324
v 76.851210510918179 0.31764705882353894 1.5935331983076324
f 269 270 271 272
o F36_door_0094
v 76.067046625672788 0.31764705882353894 1.5935331983076324
v 76.067046625672788 2.6705882352941188 1.5935331983076324
v 75.267046625672805 2.6705882352941188 1.5935331983076324
v 75.267046625672805 0.31764705882353894 1.5935331983076324
f 273 274 275 276
o F36_door_0095
v 74.048877691869649 0.31764705882353894 2.6935331980194022
v 74.048877691869649 2.6705882352941188 2.6935331980194022
v 73.248877691869666 2.6705882352941188 2.6935331980194022
v 73.248877691869666 0.31764705882353894 2.6935331980194022
f 277 278 279 280
o F36_door_0096
v 76.271455197722162 0.31764705882353894 2.6935331980194022
v 76.271455197722162 2.6705882352941188 2.6935331980194022
v 75.471455197722179 2.6705882352941188 2.6935331980194022
v 75.471455197722179 0.31764705882353894 2.6935331980194022
f 281 282 283 284
o F36_door_0097
v 77.555934219858244 0.31764705882353894 2.6935331980194022
v 77.555934219858244 2.6705882352941188 2.6935331980194022
v 76.755934219858261 2.6705882352941188 2.6935331980194022
v 76.755934219858261 0.31764705882353894 2.6935331980194022
f 285 286 287 288
o F36_door_0098
v 87.88430680227242 0.31764705882353894 -13.242029679398193
v 87.88430680227242 2.6705882352941188 -13.242029679398193
v 87.084306802272437 2.6705882352941188 -13.242029679398193
v 87.084306802272437 0.31764705882353894 -13.242029679398193
f 289 290 291 292
o F36_door_0099
v 89.219501484089704 0.31764705882353894 -13.242029679398193
v 89.219501484089704 2.6705882352941188 -13.242029679398193
v 88.419501484089722 2.6705882352941188 -13.242029679398193
v 88.419501484089722 0.31764705882353894 -13.242029679398193
f 293 294 295 296
o F36_door_0100
v 90.524026156670118 0.31764705882353894 -12.162029679168363
v 90.524026156670118 2.6705882352941188 -12.162029679168363
v 89.724026156670135 2.6705882352941188 -12.162029679168363
v 89.724026156670135 0.31764705882353894 -12.162029679168363
f 297 298 299 300
o F36_door_0101
v 89.034473579713961 0.31764705882353894 -12.162029679168363
v 89.034473579713961 2.6705882352941188 -12.162029679168363
v 88.234473579713978 2.6705882352941188 -12.162029679168363
v 88.234473579713978 0.31764705882353894 -12.162029679168363
f 301 302 303 304
o F36_door_0102
v 87.577713338483477 0.31764705882353894 -12.162029679168377
v 87.577713338483477 2.6705882352941188 -12.162029679168377
v 86.777713338483494 2.6705882352941188 -12.162029679168377
v 86.777713338483494 0.31764705882353894 -12.162029679168377
f 305 306 307 308
o F36_door_0103
v 86.056115181543106 0.31764705882353894 -12.162029679168619
v 86.056115181543106 2.6705882352941188 -12.162029679168619
v 85.256115181543123 2.6705882352941188 -12.162029679168619
v 85.256115181543123 0.31764705882353894 -12.162029679168619
f 309 310 311 312
o F36_door_0104
v 83.334269535859448 0.31764705882353894 -12.342029683031534
v 83.334269535859448 2.6705882352941188 -12.342029683031534
v 82.534269535859465 2.6705882352941188 -12.342029683031534
v 82.534269535859465 0.31764705882353894 -12.342029683031534
f 313 314 315 316
o F36_door_0105
v 75.980500710435848 0.31764705882353894 -12.342029683031534
v 75.980500710435848 2.6705882352941188 -12.342029683031534
v 75.180500710435865 2.6705882352941188 -12.342029683031534
v 75.180500710435865 0.31764705882353894 -12.342029683031534
f 317 318 319 320
o F36_door_0106
v 78.725351251274901 0.31764705882353894 -12.342029683031534
v 78.725351251274901 2.6705882352941188 -12.342029683031534
v 77.925351251274918 2.6705882352941188 -12.342029683031534
v 77.925351251274918 0.31764705882353894 -12.342029683031534
f 321 322 323 324
o F36_door_0107
v 78.914416453395489 0.31764705882353894 -11.242029683319764
v 78.914416453395489 2.6705882352941188 -11.242029683319764
v 78.114416453395506 2.6705882352941188 -11.242029683319764
v 78.114416453395506 0.31764705882353894 -11.242029683319764
f 325 326 327 328
o F36_door_0108
v 76.132000178067528 0.31764705882353894 -11.242029683319764
v 76.132000178067528 2.6705882352941188 -11.242029683319764
v 75.332000178067545 2.6705882352941188 -11.242029683319764
v 75.332000178067545 0.31764705882353894 -11.242029683319764
f 329 330 331 332
o F36_door_0109
v 69.9311151194388 0.31764705882353894 -12.142029679167557
v 69.9311151194388 2.6705882352941188 -12.142029679167557
v 69.131115119438817 2.6705882352941188 -12.142029679167557
v 69.131115119438817 0.31764705882353894 -12.142029679167557
f 333 334 335 336
o F36_door_0110
v 68.128443514661569 0.31764705882353894 -12.142029679167557
v 68.128443514661569 2.6705882352941188 -12.142029679167557
v 67.328443514661586 2.6705882352941188 -12.142029679167557
v 67.328443514661586 0.31764705882353894 -12.142029679167557
f 337 338 339 340
o F36_door_0111
v 70.081115181542714 0.31764705882353894 -13.242029679397213
v 70.081115181542714 2.6705882352941188 -13.242029679397213
v 69.281115181542731 2.6705882352941188 -13.242029679397213
v 69.281115181542731 0.31764705882353894 -13.242029679397213
f 341 342 343 344
o F36_door_0112
v 68.184091107244171 0.31764705882353894 -13.242029679398193
v 68.184091107244171 2.6705882352941188 -13.242029679398193
v 67.384091107244188 2.6705882352941188 -13.242029679398193
v 67.384091107244188 0.31764705882353894 -13.242029679398193
f 345 346 347 348
o F36_door_0113
v 94.613842735562116 0.44679842692208638 -4.9280617888897567
v 94.613842735562116 2.7997396033926663 -4.9280617888897567
v 94.613842735562116 2.7997396033926663 -3.9280617888897567
v 94.613842735562116 0.44679842692208638 -3.9280617888897567
f 349 350 351 352
o F36_door_0114
v 81.768519069247986 0.44679842692208638 -4.9280617888897567
v 81.768519069247986 2.7997396033926663 -4.9280617888897567
v 81.768519069247986 2.7997396033926663 -3.9280617888897567
v 81.768519069247986 0.44679842692208638 -3.9280617888897567
f 353 354 355 356
o F36_door_0115
v 78.533900274493277 0.44679842692208638 -4.9280617888897567
v 78.533900274493277 2.7997396033926663 -4.9280617888897567
v 78.533900274493277 2.7997396033926663 -3.9280617888897567
v 78.533900274493277 0.44679842692208638 -3.9280617888897567
f 357 358 359 360
o F36_door_0116
v 62.962098735874918 0.44679842692208638 -4.9280617888897567
v 62.962098735874918 2.7997396033926663 -4.9280617888897567
v 62.962098735874918 2.7997396033926663 -3.9280617888897567
v 62.962098735874918 0.44679842692208638 -3.9280617888897567
f 361 362 363 364
o F36_door_0118
v 81.575732897757945 0.31764705882353894 -0.11174824024114827
v 81.575732897757945 2.6705882352941188 -0.11174824024114827
v 80.575732897757945 2.6705882352941188 -0.11174824024114827
v 80.575732897757945 0.31764705882353894 -0.11174824024114827
f 365 366 367 368
o F36_door_0119
v 96.008000842177552 0.31764705882353894 0.7933108240350677
v 96.008000842177552 2.6705882352941188 0.7933108240350677
v 95.008000842177552 2.6705882352941188 0.7933108240350677
v 95.008000842177552 0.31764705882353894 0.7933108240350677
f 369 370 371 372
o F36_door_0120
v 96.056115150489461 0.31764705882353894 -10.441652389300735
v 96.056115150489461 2.6705882352941188 -10.441652389300735
v 95.056115150489461 2.6705882352941188 -10.441652389300735
v 95.056115150489461 0.31764705882353894 -10.441652389300735
f 373 374 375 376
o F36_door_0121
v 81.654568716453184 0.31764705882353894 -9.5367482447709833
v 81.654568716453184 2.6705882352941188 -9.5367482447709833
v 80.654568716453184 2.6705882352941188 -9.5367482447709833
v 80.654568716453184 0.31764705882353894 -9.5367482447709833
f 377 378 379 380
o F36_door_0122
v 62.377028761725455 0.31764705882353894 -11.118367956747157
v 62.377028761725455 2.6705882352941188 -11.118367956747157
v 61.377028761725455 2.6705882352941188 -11.118367956747157
v 61.377028761725455 0.31764705882353894 -11.118367956747157
f 381 382 383 384
o F36_door_0123
v 59.169531345877971 0.31764705882353894 -10.282517679376831
v 59.169531345877971 2.6705882352941188 -10.282517679376831
v 59.169531345877971 2.6705882352941188 -9.2825176793768307
v 59.169531345877971 0.31764705882353894 -9.2825176793768307
f 385 386 387 388
o F36_door_0124
v 60.333116352026707 0.31764705882353894 -8.8420269454138563
v 60.333116352026707 2.6705882352941188 -8.8420269454138563
v 59.333116352026707 2.6705882352941188 -8.8420269454138563
v 59.333116352026707 0.31764705882353894 -8.8420269454138563
f 389 390 391 392
o F36_door_0125
v 56.824860412581785 0.31764705882353894 -13.752718705526945
v 56.824860412581785 2.6705882352941188 -13.752718705526945
v 56.824860412581785 2.6705882352941188 -14.752718705526945
v 56.824860412581785 0.31764705882353894 -14.752718705526945
f 393 394 395 396
o F36_door_0126
v 53.730791406749972 0.31764705882353894 -14.842030517713482
v 53.730791406749972 2.6705882352941188 -14.842030517713482
v 52.930791406749989 2.6705882352941188 -14.842030517713482
v 52.930791406749989 0.31764705882353894 -14.842030517713482
f 397 398 399 400
o F36_door_0127
v 55.501731662682573 0.31764705882353894 -14.842030517713482
v 55.501731662682573 2.6705882352941188 -14.842030517713482
v 54.70173166268259 2.6705882352941188 -14.842030517713482
v 54.70173166268259 0.31764705882353894 -14.842030517713482
f 401 402 403 404
o F36_door_0128
v 49.732517422510995 0.31764705882353894 -13.752718705526945
v 49.732517422510995 2.6705882352941188 -13.752718705526945
v 49.732517422510995 2.6705882352941188 -14.752718705526945
v 49.732517422510995 0.31764705882353894 -14.752718705526945
f 405 406 407 408
o F36_door_0129
v 50.775093203322257 0.31764705882353894 -13.296617454363023
v 50.775093203322257 2.6705882352941188 -13.296617454363023
v 50.775093203322257 2.6705882352941188 -12.49661745436304
v 50.775093203322257 0.31764705882353894 -12.49661745436304
f 409 410 411 412
o F36_door_0130
v 55.501731662682573 0.31764705882353894 -13.642029679398064
v 55.501731662682573 2.6705882352941188 -13.642029679398064
v 54.70173166268259 2.6705882352941188 -13.642029679398064
v 54.70173166268259 0.31764705882353894 -13.642029679398064
f 413 414 415 416
o F36_door_0131
v 53.433918155709705 0.31764705882353894 -13.642029679398064
v 53.433918155709705 2.6705882352941188 -13.642029679398064
v 52.633918155709722 2.6705882352941188 -13.642029679398064
v 52.633918155709722 0.31764705882353894 -13.642029679398064
f 417 418 419 420
o F36_door_0132
v 50.559234964718144 0.31764705882353894 -13.642029679398064
v 50.559234964718144 2.6705882352941188 -13.642029679398064
v 49.759234964718161 2.6705882352941188 -13.642029679398064
v 49.759234964718161 0.31764705882353894 -13.642029679398064
f 421 422 423 424
