# Rhino

o F36_3604_balcony
v 91.840886326102634 0.20000000000000284 7.9932517568904373
v 91.840886326102634 4.2000000000000028 7.9932517568904373
v 91.840886326102634 4.2000000000000028 9.8185331943860987
v 91.840886326102634 0.20000000000000284 9.8185331943860987
v 96.412098735874537 0.20000000000000284 7.9932517568904373
v 96.412098735874537 4.2000000000000028 7.9932517568904373
v 96.412098735874537 4.2000000000000028 9.8185331943860987
v 96.412098735874537 0.20000000000000284 9.8185331943860987
f 1 4 3 2
f 5 6 7 8
f 8 4 1 5
f 5 1 2 6
f 7 3 4 8
f 6 2 3 7
o F36_3604_balcony_2
v 91.840886326102634 0.20000000000000284 -19.467029679398223
v 91.840886326102634 4.2000000000000028 -19.467029679398223
v 91.840886326102634 4.2000000000000028 -17.641748241902576
v 91.840886326102634 0.20000000000000284 -17.641748241902576
v 96.412098735874537 0.20000000000000284 -19.467029679398223
v 96.412098735874537 4.2000000000000028 -19.467029679398223
v 96.412098735874537 4.2000000000000028 -17.641748241902576
v 96.412098735874537 0.20000000000000284 -17.641748241902576
f 9 12 11 10
f 13 14 15 16
f 16 12 9 13
f 13 9 10 14
f 15 11 12 16
f 14 10 11 15
o F36_3603_balcony
v 80.125226747549704 0.20000000000000284 -19.467029679398223
v 80.125226747549704 4.2000000000000028 -19.467029679398223
v 80.125226747549704 4.2000000000000028 -17.641748241902576
v 80.125226747549704 0.20000000000000284 -17.641748241902576
v 84.220226746537463 0.20000000000000284 -19.467029679398223
v 84.220226746537463 4.2000000000000028 -19.467029679398223
v 84.220226746537463 4.2000000000000028 -17.641748241902576
v 84.220226746537463 0.20000000000000284 -17.641748241902576
f 17 20 19 18
f 21 22 23 24
f 24 20 17 21
f 21 17 18 22
f 23 19 20 24
f 22 18 19 23
o F36_3601_balcony_5
v 56.824863145381642 4.2000000000000028 -17.641748241902576
v 56.824863145381642 4.2000000000000028 -19.467029679398223
v 60.692883938326617 4.2000000000000028 -19.467029679398223
v 60.692883938326617 4.2000000000000028 -17.641748241902576
v 56.824863145381642 0.20000000000000284 -17.641748241902576
v 56.824863145381642 0.20000000000000284 -19.467029679398223
v 60.692883938326617 0.20000000000000284 -19.467029679398223
v 60.692883938326617 0.20000000000000284 -17.641748241902576
f 25 28 27 26
f 29 30 31 32
f 29 25 26 30
f 32 28 25 29
f 30 26 27 31
f 31 27 28 32
o F36_3604_balcony_9
v 104.65611515048906 0.20000000000000284 -8.6420296805980357
v 104.65611515048906 0.20000000000000284 -12.992029678924574
v 104.65611515048906 4.2000000000000028 -12.992029678924574
v 104.65611515048906 4.2000000000000028 -8.6420296805980357
v 106.53111515048911 0.20000000000000284 -8.6420296805980357
v 106.53111515048911 0.20000000000000284 -12.992029678924574
v 106.53111515048911 4.2000000000000028 -12.992029678924574
v 106.53111515048911 4.2000000000000028 -8.6420296805980357
f 33 36 35 34
f 37 38 39 40
f 37 33 34 38
f 40 36 33 37
f 38 34 35 39
f 39 35 36 40
o F36_3604_balcony_7
v 104.65611515048903 0.20000000000000284 -1.0420296805976577
v 104.65611515048903 0.20000000000000284 -4.9920296805830802
v 104.65611515048903 4.2000000000000028 -4.9920296805830802
v 104.65611515048903 4.2000000000000028 -1.0420296805976577
v 106.53111515048911 0.20000000000000284 -1.0420296805976577
v 106.53111515048911 0.20000000000000284 -4.9920296805830802
v 106.53111515048911 4.2000000000000028 -4.9920296805830802
v 106.53111515048911 4.2000000000000028 -1.0420296805976577
f 41 44 43 42
f 45 46 47 48
f 45 41 42 46
f 48 44 41 45
f 46 42 43 47
f 47 43 44 48
o F36_3604_balcony_5
v 96.412098735874537 0.20000000000000284 7.9932517568904373
v 96.412098735874537 4.2000000000000028 7.9932517568904373
v 96.412098735874537 4.2000000000000028 9.8185331943860987
v 96.412098735874537 0.20000000000000284 9.8185331943860987
v 100.25611508737418 0.20000000000000284 7.9932517568904373
v 100.25611508737418 4.2000000000000028 7.9932517568904373
v 100.25611508737418 4.2000000000000028 9.8185331943860987
v 100.25611508737418 0.20000000000000284 9.8185331943860987
f 49 52 51 50
f 53 54 55 56
f 53 49 50 54
f 56 52 49 53
f 54 50 51 55
f 55 51 52 56
o F36_3603_balcony_2
v 80.125226747549704 0.20000000000000284 7.9932517568904373
v 80.125226747549704 4.2000000000000028 7.9932517568904373
v 80.125226747549704 4.2000000000000028 9.8185331943860987
v 80.125226747549704 0.20000000000000284 9.8185331943860987
v 84.220226746537463 0.20000000000000284 7.9932517568904373
v 84.220226746537463 4.2000000000000028 7.9932517568904373
v 84.220226746537463 4.2000000000000028 9.8185331943860987
v 84.220226746537463 0.20000000000000284 9.8185331943860987
f 57 60 59 58
f 61 62 63 64
f 64 60 57 61
f 61 57 58 62
f 63 59 60 64
f 62 58 59 63
o F36_3601_balcony_8
v 60.692883938326617 0.20000000000000284 -19.467029679398223
v 60.692883938326617 4.2000000000000028 -19.467029679398223
v 60.692883938326617 4.2000000000000028 -17.641748241902576
v 60.692883938326617 0.20000000000000284 -17.641748241902576
v 65.220226778603319 0.20000000000000284 -19.467029679398223
v 65.220226778603319 4.2000000000000028 -19.467029679398223
v 65.220226778603319 4.2000000000000028 -17.641748241902576
v 65.220226778603319 0.20000000000000284 -17.641748241902576
f 65 68 67 66
f 69 70 71 72
f 72 68 65 69
f 69 65 66 70
f 71 67 68 72
f 70 66 67 71
