# Rhino

o F36_3603_bedroom_master
v 84.236760343155709 4.2000000000000028 3.5935331943860618
v 84.220226746537463 4.2000000000000028 7.9932517568904373
v 88.070226746537486 4.2000000000000028 7.9932517568904373
v 88.08676034315576 4.2000000000000028 3.5935331943860618
v 84.236760343155709 0.20000000000000284 3.5935331943860618
v 84.220226746537463 0.20000000000000284 7.9932517568904373
v 88.070226746537486 0.20000000000000284 7.9932517568904373
v 88.08676034315576 0.20000000000000284 3.5935331943860618
f 1 2 3 4
f 5 8 7 6
f 5 6 2 1
f 6 7 3 2
f 8 5 1 4
f 7 8 4 3
o F36_3602_bedroom_3_9
v 72.790142431506354 4.2000000000000028 2.6935331980194022
v 72.770226746537446 4.2000000000000028 7.9932517568904373
v 76.570226747122092 4.2000000000000028 7.9932517568904373
v 76.590142432090971 4.2000000000000028 2.6935331980194022
v 72.790142431506354 0.20000000000000284 2.6935331980194022
v 72.770226746537446 0.20000000000000284 7.9932517568904373
v 76.570226747122092 0.20000000000000284 7.9932517568904373
v 76.590142432090971 0.20000000000000284 2.6935331980194022
f 9 10 11 12
f 13 16 15 14
f 13 14 10 9
f 14 15 11 10
f 16 13 9 12
f 15 16 12 11
o F36_3603_bedroom_3_5
v 88.08676034315576 4.2000000000000028 -13.242029679398208
v 88.070226746537486 4.2000000000000028 -17.641748241902576
v 91.840886326102634 4.2000000000000028 -17.641748241902576
v 91.857419922720908 4.2000000000000028 -13.242029679398208
v 88.08676034315576 0.20000000000000284 -13.242029679398208
v 88.070226746537486 0.20000000000000284 -17.641748241902576
v 91.840886326102634 0.20000000000000284 -17.641748241902576
v 91.857419922720908 0.20000000000000284 -13.242029679398208
f 17 20 19 18
f 21 22 23 24
f 21 17 18 22
f 22 18 19 23
f 24 20 17 21
f 23 19 20 24
o F36_3602_bedroom_3_13
v 76.590142432090971 4.2000000000000028 -12.342029683031534
v 76.570226747122092 4.2000000000000028 -17.641748241902576
v 80.125226747549704 4.2000000000000028 -17.641748241902576
v 80.145142432518611 4.2000000000000028 -12.342029683031534
v 76.590142432090971 0.20000000000000284 -12.342029683031534
v 76.570226747122092 0.20000000000000284 -17.641748241902576
v 80.125226747549704 0.20000000000000284 -17.641748241902576
v 80.145142432518611 0.20000000000000284 -12.342029683031534
f 25 28 27 26
f 29 30 31 32
f 29 25 26 30
f 30 26 27 31
f 32 28 25 29
f 31 27 28 32
o F36_3602_bedroom_master
v 65.236760375221593 4.2000000000000028 -13.242029679398193
v 65.220226778603319 4.2000000000000028 -17.641748241902576
v 68.820226746537486 4.2000000000000028 -17.641748241902576
v 68.836760343155731 4.2000000000000028 -13.242029679398193
v 65.236760375221593 0.20000000000000284 -13.242029679398193
v 65.220226778603319 0.20000000000000284 -17.641748241902576
v 68.820226746537486 0.20000000000000284 -17.641748241902576
v 68.836760343155731 0.20000000000000284 -13.242029679398193
f 33 36 35 34
f 37 38 39 40
f 37 33 34 38
f 38 34 35 39
f 40 36 33 37
f 39 35 36 40
o F36_3604_bedroom_3_11
v 104.99172879492764 4.2000000000000028 2.8579703205867091
v 104.99172879492764 4.2000000000000028 3.957970320586675
v 106.85611508737418 4.2000000000000028 2.8579703205867091
v 104.99172879492764 0.20000000000000284 2.8579703205867091
v 104.99172879492764 0.20000000000000284 3.957970320586675
v 106.85611508737418 0.20000000000000284 2.8579703205867091
v 111.38111515150194 4.2000000000000028 3.957970320586675
v 111.38111515150194 0.20000000000000284 3.957970320586675
v 106.85611508737418 4.2000000000000028 -1.0420296805976577
v 111.38111515150197 4.2000000000000028 -1.0420296805976577
v 106.85611508737418 0.20000000000000284 -1.0420296805976577
v 111.38111515150197 0.20000000000000284 -1.0420296805976577
f 41 42 47 50 49 43
f 44 46 51 52 48 45
f 44 45 42 41
f 45 48 47 42
f 46 44 41 43
f 51 46 43 49
f 52 51 49 50
f 48 52 50 47
o F36_3604_bedroom_3_13
v 111.38111515150194 4.2000000000000028 3.957970320586675
v 107.35611508838275 4.2000000000000028 3.957970320586675
v 107.35611508838275 4.2000000000000028 9.7829703206009597
v 111.38111515150194 4.2000000000000028 9.7829703206009597
v 111.38111515150194 0.20000000000000284 3.957970320586675
v 107.35611508838275 0.20000000000000284 3.957970320586675
v 107.35611508838275 0.20000000000000284 9.7829703206009597
v 111.38111515150194 0.20000000000000284 9.7829703206009597
f 53 54 55 56
f 57 60 59 58
f 58 59 55 54
f 59 60 56 55
f 57 58 54 53
f 60 57 53 56
o F36_3604_bedroom_3_9
v 107.35611508838275 4.2000000000000028 5.157970320586891
v 103.05611515048946 4.2000000000000028 5.157970320586891
v 103.05611515048946 4.2000000000000028 9.7829703206009597
v 107.35611508838275 4.2000000000000028 9.7829703206009597
v 107.35611508838275 0.20000000000000284 5.157970320586891
v 103.05611515048946 0.20000000000000284 5.157970320586891
v 103.05611515048946 0.20000000000000284 9.7829703206009597
v 107.35611508838275 0.20000000000000284 9.7829703206009597
f 61 62 63 64
f 65 68 67 66
f 66 67 63 62
f 67 68 64 63
f 65 66 62 61
f 68 65 61 64
o F36_3604_bedroom_3
v 99.756115150490302 4.2000000000000028 -8.6420296805980357
v 99.756115150490302 4.2000000000000028 -4.9920296805830944
v 104.65611515048903 4.2000000000000028 -4.9920296805830802
v 104.65611515048906 4.2000000000000028 -8.6420296805980357
v 99.756115150490302 0.20000000000000284 -8.6420296805980357
v 99.756115150490302 0.20000000000000284 -4.9920296805830944
v 104.65611515048903 0.20000000000000284 -4.9920296805830802
v 104.65611515048906 0.20000000000000284 -8.6420296805980357
f 69 70 71 72
f 73 76 75 74
f 73 74 70 69
f 74 75 71 70
f 76 73 69 72
f 75 76 72 71
o F36_3604_bedroom_3_5
v 106.53111515048911 4.2000000000000028 -24.167029679397189
v 100.97611515049033 4.2000000000000028 -24.167029679397189
v 100.97611515049036 4.2000000000000028 -20.092029679397797
v 106.53111515048911 4.2000000000000028 -20.092029679397825
v 106.53111515048911 0.20000000000000284 -24.167029679397189
v 100.97611515049033 0.20000000000000284 -24.167029679397189
v 100.97611515049036 0.20000000000000284 -20.092029679397797
v 106.53111515048911 0.20000000000000284 -20.092029679397825
f 77 78 79 80
f 81 84 83 82
f 82 83 79 78
f 81 82 78 77
f 83 84 80 79
f 84 81 77 80
o F36_3604_bedroom_master
v 100.97611515049033 4.2000000000000028 -17.692029679397677
v 99.756115150490302 4.2000000000000028 -20.092029679397797
v 99.756115150490302 4.2000000000000028 -17.692029679397677
v 100.97611515049033 0.20000000000000284 -17.692029679397677
v 99.756115150490302 0.20000000000000284 -20.092029679397797
v 99.756115150490302 0.20000000000000284 -17.692029679397677
v 96.412098735874537 4.2000000000000028 -24.167029679397189
v 100.97611515049033 4.2000000000000028 -24.167029679397189
v 96.412098735874537 0.20000000000000284 -24.167029679397189
v 100.97611515049033 0.20000000000000284 -24.167029679397189
v 96.412098735874537 4.2000000000000028 -20.092029679397797
v 96.412098735874537 0.20000000000000284 -20.092029679397797
f 86 87 85 92 91 95
f 89 96 93 94 88 90
f 93 96 95 91
f 96 89 86 95
f 94 93 91 92
f 89 90 87 86
f 90 88 85 87
f 88 94 92 85
o F36_3601_bedroom_3
v 45.642910644282438 4.2000000000000028 -9.7220296793974157
v 45.642910644282438 4.2000000000000028 -13.641936196937877
v 50.759234964718161 4.2000000000000028 -13.641936196937877
v 50.775093201270778 4.2000000000000028 -9.7220296793974157
v 45.642910644282438 0.20000000000000284 -9.7220296793974157
v 45.642910644282438 0.20000000000000284 -13.641936196937877
v 50.759234964718161 0.20000000000000284 -13.641936196937877
v 50.775093201270778 0.20000000000000284 -9.7220296793974157
f 97 100 99 98
f 101 102 103 104
f 101 97 98 102
f 102 98 99 103
f 104 100 97 101
f 103 99 100 104
o F36_3601_bedroom_master
v 45.642910644282438 4.2000000000000028 -13.641936196937877
v 45.642910644282438 4.2000000000000028 -19.467029679398223
v 49.723563224480813 4.2000000000000028 -19.467029679398223
v 49.723563224480813 4.2000000000000028 -13.641936196937877
v 45.642910644282438 0.20000000000000284 -13.641936196937877
v 45.642910644282438 0.20000000000000284 -19.467029679398223
v 49.723563224480813 0.20000000000000284 -19.467029679398223
v 49.723563224480813 0.20000000000000284 -13.641936196937877
f 105 108 107 106
f 109 110 111 112
f 109 105 106 110
f 110 106 107 111
f 112 108 105 109
f 111 107 108 112
o F36_3601_bedroom_3_5
v 49.723563224480813 4.2000000000000028 -14.842029679398223
v 49.723563224480813 4.2000000000000028 -19.467047692024465
v 53.956856714258919 4.2000000000000028 -19.467029679398223
v 53.97423689057544 4.2000000000000028 -14.842029679398223
v 49.723563224480813 0.20000000000000284 -14.842029679398223
v 49.723563224480813 0.20000000000000284 -19.467047692024465
v 53.956856714258919 0.20000000000000284 -19.467029679398223
v 53.97423689057544 0.20000000000000284 -14.842029679398223
f 113 116 115 114
f 117 118 119 120
f 117 113 114 118
f 118 114 115 119
f 120 116 113 117
f 119 115 116 120
o F36_3603_bedroom_3_6
v 88.08676034315576 4.2000000000000028 3.593533194386076
v 88.070226746537486 4.2000000000000028 7.9932517568904373
v 91.840886326102634 4.2000000000000028 7.9932517568904373
v 91.857419922720908 4.2000000000000028 3.593533194386076
v 88.08676034315576 0.20000000000000284 3.593533194386076
v 88.070226746537486 0.20000000000000284 7.9932517568904373
v 91.840886326102634 0.20000000000000284 7.9932517568904373
v 91.857419922720908 0.20000000000000284 3.593533194386076
f 121 122 123 124
f 125 128 127 126
f 125 126 122 121
f 126 127 123 122
f 128 125 121 124
f 127 128 124 123
o F36_3602_bedroom_3_14
v 76.590142432090971 4.2000000000000028 2.6935331980194022
v 76.570226747122092 4.2000000000000028 7.9932517568904373
v 80.125226747549704 4.2000000000000028 7.9932517568904373
v 80.145142432518611 4.2000000000000028 2.6935331980194022
v 76.590142432090971 0.20000000000000284 2.6935331980194022
v 76.570226747122092 0.20000000000000284 7.9932517568904373
v 80.125226747549704 0.20000000000000284 7.9932517568904373
v 80.145142432518611 0.20000000000000284 2.6935331980194022
f 129 130 131 132
f 133 136 135 134
f 133 134 130 129
f 134 135 131 130
f 136 133 129 132
f 135 136 132 131
o F36_3603_bedroom_2
v 84.236760343155709 4.2000000000000028 -13.242029679398193
v 84.220226746537463 4.2000000000000028 -17.641748241902576
v 88.070226746537486 4.2000000000000028 -17.641748241902576
v 88.08676034315576 4.2000000000000028 -13.242029679398193
v 84.236760343155709 0.20000000000000284 -13.242029679398193
v 84.220226746537463 0.20000000000000284 -17.641748241902576
v 88.070226746537486 0.20000000000000284 -17.641748241902576
v 88.08676034315576 0.20000000000000284 -13.242029679398193
f 137 140 139 138
f 141 142 143 144
f 141 137 138 142
f 142 138 139 143
f 144 140 137 141
f 143 139 140 144
o F36_3602_bedroom_3_10
v 72.790142431506354 4.2000000000000028 -12.342029683031534
v 72.770226746537446 4.2000000000000028 -17.641748241902576
v 76.570226747122092 4.2000000000000028 -17.641748241902576
v 76.590142432090971 4.2000000000000028 -12.342029683031534
v 72.790142431506354 0.20000000000000284 -12.342029683031534
v 72.770226746537446 0.20000000000000284 -17.641748241902576
v 76.570226747122092 0.20000000000000284 -17.641748241902576
v 76.590142432090971 0.20000000000000284 -12.342029683031534
f 145 148 147 146
f 149 150 151 152
f 149 145 146 150
f 150 146 147 151
f 152 148 145 149
f 151 147 148 152
o F36_3602_bedroom_3_6
v 72.770226746537446 4.2000000000000028 -17.641748241902576
v 72.78676034315572 4.2000000000000028 -13.242029679398193
v 68.836760343155731 4.2000000000000028 -13.242029679398193
v 68.820226746537486 4.2000000000000028 -17.641748241902576
v 72.770226746537446 0.20000000000000284 -17.641748241902576
v 72.78676034315572 0.20000000000000284 -13.242029679398193
v 68.836760343155731 0.20000000000000284 -13.242029679398193
v 68.820226746537486 0.20000000000000284 -17.641748241902576
f 153 156 155 154
f 157 158 159 160
f 159 155 156 160
f 160 156 153 157
f 158 154 155 159
f 157 153 154 158
o F36_3604_bedroom_3_7
v 102.05569929386257 4.2000000000000028 -20.092029679397797
v 102.05569929386257 4.2000000000000028 -15.692029683106767
v 106.53111515048911 4.2000000000000028 -15.692029683106767
v 106.53111515048911 4.2000000000000028 -20.092029679397825
v 102.05569929386257 0.20000000000000284 -20.092029679397797
v 102.05569929386257 0.20000000000000284 -15.692029683106767
v 106.53111515048911 0.20000000000000284 -15.692029683106767
v 106.53111515048911 0.20000000000000284 -20.092029679397825
f 161 162 163 164
f 165 168 167 166
f 165 166 162 161
f 166 167 163 162
f 168 165 161 164
f 167 168 164 163
