# Rhino

o F36_core_corridor_shared_15
v 85.106115150488705 0.20000000000000284 -5.7650745014779901
v 85.106115150488705 0.20000000000000284 -9.5367482447709833
v 85.112098735874497 4.2000000000000028 -9.5367482447709833
v 85.112098735874497 4.2000000000000028 -5.7652294212244541
v 88.106466290743896 0.20000000000000284 -5.7650745014779901
v 88.106466290743896 0.20000000000000284 -9.5367482447709833
v 88.112449876129688 4.2000000000000028 -9.5367482447709833
v 88.112449876129688 4.2000000000000028 -5.7652294212244541
f 1 4 3 2
f 5 6 7 8
f 8 4 1 5
f 5 1 2 6
f 7 3 4 8
f 6 2 3 7
o F36_core_corridor_shared_9
v 74.818139824208629 4.2000000000000028 -11.242029683319764
v 80.149276096073891 4.2000000000000028 -11.242029683319778
v 80.145142432518611 4.2000000000000028 -12.342029683031534
v 74.814006160653349 4.2000000000000028 -12.342029683031534
v 74.818139824208629 0.20000000000000284 -11.242029683319764
v 80.149276096073891 0.20000000000000284 -11.242029683319778
v 80.145142432518611 0.20000000000000284 -12.342029683031534
v 74.814006160653349 0.20000000000000284 -12.342029683031534
f 9 10 11 12
f 13 16 15 14
f 16 13 9 12
f 15 16 12 11
f 13 14 10 9
f 14 15 11 10
o F36_core_corridor_shared_7
v 62.962098735874918 4.2000000000000028 -3.3421845991453196
v 78.533896591333814 4.2000000000000028 -3.3421845991453196
v 78.533896591333814 0.20000000000000284 -3.3420296793988413
v 62.962098735874918 0.20000000000000284 -3.3420296793988413
v 62.962098735874918 4.2000000000000028 -5.7652294212300816
v 78.533896591333814 4.2000000000000028 -5.7652294212300816
v 78.533896591333814 0.20000000000000284 -5.7650745014836176
v 62.962098735874918 0.20000000000000284 -5.7650745014836176
f 17 20 19 18
f 21 22 23 24
f 23 19 20 24
f 22 18 19 23
f 24 20 17 21
f 21 17 18 22
o F36_core_corridor_shared_23
v 94.613839052402653 4.2000000000000028 -10.441807309047199
v 94.613839052402653 4.2000000000000028 0.79315590428860361
v 94.613839052402653 0.20000000000000284 0.7933108240350677
v 94.613839052402653 0.20000000000000284 -10.441652389300735
v 96.412098735874537 4.2000000000000028 -10.441807309047199
v 96.412098735874537 4.2000000000000028 0.79315590428860361
v 96.406115150488745 0.20000000000000284 0.7933108240350677
v 96.406115150488745 0.20000000000000284 -10.441652389300735
f 25 28 27 26
f 29 30 31 32
f 32 28 25 29
f 29 25 26 30
f 31 27 28 32
f 30 26 27 31
o F36_3604_corridor_shared_5
v 107.35611508838275 4.2000000000000028 3.957970320586675
v 100.25611508737418 4.2000000000000028 3.957970320586675
v 100.25611508737418 4.2000000000000028 5.1579703205868768
v 107.35611508838275 4.2000000000000028 5.157970320586891
v 107.35611508838275 0.20000000000000284 3.957970320586675
v 100.25611508737418 0.20000000000000284 3.957970320586675
v 100.25611508737418 0.20000000000000284 5.1579703205868768
v 107.35611508838275 0.20000000000000284 5.157970320586891
f 33 34 35 36
f 37 40 39 38
f 38 39 35 34
f 39 40 36 35
f 37 38 34 33
f 40 37 33 36
o F36_3604_corridor_shared_3
v 103.05611515048946 4.2000000000000028 3.957970320586675
v 103.05611515048946 4.2000000000000028 2.511234244016272
v 101.6261150873745 4.2000000000000028 2.511234244016272
v 101.6261150873745 4.2000000000000028 3.957970320586675
v 103.05611515048946 0.20000000000000284 3.957970320586675
v 103.05611515048946 0.20000000000000284 2.511234244016272
v 101.6261150873745 0.20000000000000284 2.511234244016272
v 101.6261150873745 0.20000000000000284 3.957970320586675
f 41 42 43 44
f 45 48 47 46
f 47 48 44 43
f 48 45 41 44
f 46 47 43 42
f 45 46 42 41
o F36_3601_corridor_apt
v 56.824863145381642 4.2000000000000028 -14.842029679398223
v 56.824863145381642 4.2000000000000028 -13.641936196937877
v 49.723563224480813 4.2000000000000028 -13.641936196937877
v 49.723563224480813 4.2000000000000028 -14.842029679398223
v 56.824863145381642 0.20000000000000284 -14.842029679398223
v 56.824863145381642 0.20000000000000284 -13.641936196937877
v 49.723563224480813 0.20000000000000284 -13.641936196937877
v 49.723563224480813 0.20000000000000284 -14.842029679398223
f 49 52 51 50
f 53 54 55 56
f 55 51 52 56
f 56 52 49 53
f 54 50 51 55
f 53 49 50 54
o F36_core_corridor_apt
v 62.962098735874918 0.20000000000000284 -11.118367956747157
v 62.962098735874918 0.20000000000000284 1.4698714717350256
v 62.962098735874918 4.2000000000000028 1.4698714717350256
v 62.962098735874918 4.2000000000000028 -11.118367956747157
v 60.692883938326617 0.20000000000000284 -11.118367956747157
v 60.692883938326617 0.20000000000000284 1.4698714717350256
v 60.692883938326617 4.2000000000000028 1.4698714717350256
v 60.692883938326617 4.2000000000000028 -11.118367956747157
f 57 60 59 58
f 61 62 63 64
f 64 60 57 61
f 61 57 58 62
f 63 59 60 64
f 62 58 59 63
o F36_core_corridor_shared_10
v 74.818139824208629 4.2000000000000028 1.5935331983076324
v 80.149276096073891 4.2000000000000028 1.5935331983076466
v 80.145142432518611 4.2000000000000028 2.6935331980194022
v 74.814006160653349 4.2000000000000028 2.6935331980194022
v 74.818139824208629 0.20000000000000284 1.5935331983076324
v 80.149276096073891 0.20000000000000284 1.5935331983076466
v 80.145142432518611 0.20000000000000284 2.6935331980194022
v 74.814006160653349 0.20000000000000284 2.6935331980194022
f 65 68 67 66
f 69 70 71 72
f 72 68 65 69
f 71 67 68 72
f 69 65 66 70
f 70 66 67 71
o F36_core_corridor_shared_17
v 84.240818849193715 4.2000000000000028 2.5135331941562455
v 84.236760343155709 4.2000000000000028 3.5935331943860618
v 91.857419922720908 4.2000000000000028 3.593533194386076
v 91.861478428758943 4.2000000000000028 2.5135331941562313
v 84.240818849193715 0.20000000000000284 2.5135331941562455
v 84.236760343155709 0.20000000000000284 3.5935331943860618
v 91.857419922720908 0.20000000000000284 3.593533194386076
v 91.861478428758943 0.20000000000000284 2.5135331941562313
f 73 74 75 76
f 77 80 79 78
f 77 78 74 73
f 78 79 75 74
f 80 77 73 76
f 79 80 76 75
o F36_core_corridor_shared_4
v 70.906115182556107 4.2000000000000028 -13.242029679398193
v 65.236760375221593 4.2000000000000028 -13.242029679398193
v 65.240894038778833 4.2000000000000028 -12.142029679167557
v 70.906115182556078 4.2000000000000028 -12.142029679167557
v 70.906115182556107 0.20000000000000284 -13.242029679398193
v 65.236760375221593 0.20000000000000284 -13.242029679398193
v 65.240894038778833 0.20000000000000284 -12.142029679167557
v 70.906115182556078 0.20000000000000284 -12.142029679167557
f 81 82 83 84
f 85 88 87 86
f 86 87 83 82
f 85 86 82 81
f 87 88 84 83
f 88 85 81 84
o F36_core_corridor_shared_18
v 84.240818849193715 4.2000000000000028 -12.162029679168377
v 84.236760343155709 4.2000000000000028 -13.242029679398193
v 91.857419922720908 4.2000000000000028 -13.242029679398208
v 91.861478428758943 4.2000000000000028 -12.162029679168363
v 84.240818849193715 0.20000000000000284 -12.162029679168377
v 84.236760343155709 0.20000000000000284 -13.242029679398193
v 91.857419922720908 0.20000000000000284 -13.242029679398208
v 91.861478428758943 0.20000000000000284 -12.162029679168363
f 89 92 91 90
f 93 94 95 96
f 93 89 90 94
f 94 90 91 95
f 96 92 89 93
f 95 91 92 96
o F36_core_corridor_shared_13
v 81.768515386088552 0.20000000000000284 -9.5367482447709833
v 81.768515386088552 0.20000000000000284 -0.11174824024114827
v 81.768515386088552 4.2000000000000028 -0.11174824024114827
v 81.768515386088552 4.2000000000000028 -9.5367482447709833
v 78.533896591333814 0.20000000000000284 -9.5367482447709833
v 78.533896591333814 0.20000000000000284 -0.11174824024114827
v 78.533896591333814 4.2000000000000028 -0.11174824024114827
v 78.533896591333814 4.2000000000000028 -9.5367482447709833
f 97 100 99 98
f 101 102 103 104
f 104 100 97 101
f 101 97 98 102
f 103 99 100 104
f 102 98 99 103
o F36_core_corridor_shared_21
v 81.768515386088552 4.2000000000000028 -3.3421845991452344
v 94.613839052402653 4.2000000000000028 -3.3421845991452344
v 94.613839052402653 0.20000000000000284 -3.3420296793987561
v 81.768515386088552 0.20000000000000284 -3.3420296793987561
v 81.768515386088552 4.2000000000000028 -5.7652294212300816
v 94.613839052402653 4.2000000000000028 -5.7652294212300816
v 94.613839052402653 0.20000000000000284 -5.7650745014836176
v 81.768515386088552 0.20000000000000284 -5.7650745014836176
f 105 108 107 106
f 109 110 111 112
f 111 107 108 112
f 110 106 107 111
f 112 108 105 109
f 109 105 106 110
o F36_3604_corridor_apt
v 100.97611515049036 4.2000000000000028 -20.092029679397797
v 100.97611515049033 4.2000000000000028 -12.992029678924574
v 102.05569929386257 4.2000000000000028 -12.992029678924574
v 102.05569929386257 4.2000000000000028 -20.092029679397797
v 100.97611515049036 0.20000000000000284 -20.092029679397797
v 100.97611515049033 0.20000000000000284 -12.992029678924574
v 102.05569929386257 0.20000000000000284 -12.992029678924574
v 102.05569929386257 0.20000000000000284 -20.092029679397797
f 113 114 115 116
f 117 120 119 118
f 117 118 114 113
f 118 119 115 114
f 120 117 113 116
f 119 120 116 115
