# Rhino

o F36_3601_kitchen_3
v 53.97423689057544 4.2000000000000028 -14.842029679398223
v 53.956856714258919 4.2000000000000028 -19.467029679398223
v 56.824863145381642 4.2000000000000028 -19.465732488089117
v 56.824863145381642 4.2000000000000028 -14.840732488089088
v 53.97423689057544 0.20000000000000284 -14.842029679398223
v 53.956856714258919 0.20000000000000284 -19.467029679398223
v 56.824863145381642 0.20000000000000284 -19.465732488089117
v 56.824863145381642 0.20000000000000284 -14.840732488089088
f 1 4 3 2
f 5 6 7 8
f 5 1 2 6
f 6 2 3 7
f 8 4 1 5
f 7 3 4 8
o F36_3603_kitchen_5
v 94.606115150488733 4.2000000000000028 2.381033194207113
v 94.606115150488733 4.2000000000000028 -0.11174824024114827
v 91.871343910750369 4.2000000000000028 -0.11174824024114827
v 91.861976347323491 4.2000000000000028 2.381033194207113
v 94.606115150488733 0.20000000000000284 2.381033194207113
v 94.606115150488733 0.20000000000000284 -0.11174824024114827
v 91.871343910750369 0.20000000000000284 -0.11174824024114827
v 91.861976347323491 0.20000000000000284 2.381033194207113
f 9 10 11 12
f 13 16 15 14
f 15 16 12 11
f 16 13 9 12
f 14 15 11 10
f 13 14 10 9
o F36_3603_kitchen
v 81.905987049140521 4.2000000000000028 -0.11174824024114827
v 81.895445149461722 4.2000000000000028 2.6935331980194022
v 84.240142431506371 4.2000000000000028 2.6935331980194022
v 84.25068433118517 4.2000000000000028 -0.11174824024114827
v 81.905987049140521 0.20000000000000284 -0.11174824024114827
v 81.895445149461722 0.20000000000000284 2.6935331980194022
v 84.240142431506371 0.19999999999998863 2.6935331980194022
v 84.25068433118517 0.20000000000000284 -0.11174824024114827
f 17 18 19 20
f 21 24 23 22
f 21 22 18 17
f 22 23 19 18
f 24 21 17 20
f 23 24 20 19
o F36_3604_kitchen_3
v 103.05611515048946 4.2000000000000028 5.157970320586891
v 100.25611508737418 4.2000000000000028 5.1579703205868768
v 100.25611508737418 4.2000000000000028 9.7829703206009597
v 103.05611515048946 4.2000000000000028 9.7829703206009597
v 103.05611515048946 0.20000000000000284 5.157970320586891
v 100.25611508737418 0.20000000000000284 5.1579703205868768
v 100.25611508737418 0.20000000000000284 9.7829703206009597
v 103.05611515048946 0.20000000000000284 9.7829703206009597
f 25 26 27 28
f 29 32 31 30
f 30 31 27 26
f 31 32 28 27
f 29 30 26 25
f 32 29 25 28
o F36_3604_kitchen
v 96.412098735874537 4.2000000000000028 -1.0420296805976577
v 99.336115150159827 4.2000000000000028 -1.0420296805976577
v 99.336115150159799 4.2000000000000028 -3.6920296805829125
v 96.412098735874537 4.2000000000000028 -3.6920296805829125
v 96.412098735874537 0.20000000000000284 -1.0420296805976577
v 99.336115150159827 0.20000000000000284 -1.0420296805976577
v 99.336115150159799 0.20000000000000284 -3.6920296805829125
v 96.412098735874537 0.20000000000000284 -3.6920296805829125
f 33 34 35 36
f 37 40 39 38
f 40 37 33 36
f 37 38 34 33
f 39 40 36 35
f 38 39 35 34
o F36_3602_kitchen_2
v 62.956115150489126 4.2000000000000028 -9.5367482447709833
v 66.545683760449947 4.2000000000000028 -9.5367482447709833
v 66.535893435977755 4.2000000000000028 -12.142029679167557
v 62.956115150489126 4.2000000000000028 -12.142029679167557
v 62.956115150489126 0.20000000000000284 -9.5367482447709833
v 66.545683760449947 0.20000000000000284 -9.5367482447709833
v 66.535893435977755 0.20000000000000284 -12.142029679167557
v 62.956115150489126 0.20000000000000284 -12.142029679167557
f 41 42 43 44
f 45 48 47 46
f 48 45 41 44
f 47 48 44 43
f 45 46 42 41
f 46 47 43 42
o F36_3603_kitchen_6
v 94.606115150488733 4.2000000000000028 -12.029529679219245
v 94.606115150488733 4.2000000000000028 -9.5367482447709833
v 91.871343910750369 4.2000000000000028 -9.5367482447709833
v 91.861976347323491 4.2000000000000028 -12.029529679219245
v 94.606115150488733 0.20000000000000284 -12.029529679219245
v 94.606115150488733 0.20000000000000284 -9.5367482447709833
v 91.871343910750369 0.20000000000000284 -9.5367482447709833
v 91.861976347323491 0.20000000000000284 -12.029529679219245
f 49 52 51 50
f 53 54 55 56
f 55 51 52 56
f 56 52 49 53
f 54 50 51 55
f 53 49 50 54
o F36_3603_kitchen_2
v 81.905987049140521 4.2000000000000028 -9.5367482447709833
v 81.895445149461722 4.2000000000000028 -12.342029683031534
v 84.240142431506371 4.2000000000000028 -12.342029683031534
v 84.25068433118517 4.2000000000000028 -9.5367482447709833
v 81.905987049140521 0.20000000000000284 -9.5367482447709833
v 81.895445149461722 0.20000000000000284 -12.342029683031534
v 84.240142431506371 0.19999999999998863 -12.342029683031534
v 84.25068433118517 0.20000000000000284 -9.5367482447709833
f 57 60 59 58
f 61 62 63 64
f 61 57 58 62
f 62 58 59 63
f 64 60 57 61
f 63 59 60 64
o F36_3604_kitchen_5
v 102.05569929386257 4.2000000000000028 -15.692029683106767
v 102.05569929386257 4.2000000000000028 -12.992029678924574
v 106.53111515048911 4.2000000000000028 -12.992029678924574
v 106.53111515048911 4.2000000000000028 -15.692029683106767
v 102.05569929386257 0.20000000000000284 -15.692029683106767
v 102.05569929386257 0.20000000000000284 -12.992029678924574
v 106.53111515048911 0.20000000000000284 -12.992029678924574
v 106.53111515048911 0.20000000000000284 -15.692029683106767
f 65 66 67 68
f 69 72 71 70
f 69 70 66 65
f 70 71 67 66
f 72 69 65 68
f 71 72 68 67
