# Rhino

o F36_3603_living_room
v 81.905987049140521 4.2000000000000028 -0.11174824024114827
v 80.155684332197382 4.2000000000000028 -0.11174824024114827
v 81.895445149461722 4.2000000000000028 2.6935331980194022
v 81.905987049140521 0.20000000000000284 -0.11174824024114827
v 80.155684332197382 0.20000000000000284 -0.11174824024114827
v 81.895445149461722 0.20000000000000284 2.6935331980194022
v 80.125226747549704 4.2000000000000028 7.9932517568904373
v 80.125226747549704 0.20000000000000284 7.9932517568904373
v 84.240142431506371 4.2000000000000028 2.6935331980194022
v 84.220226746537463 4.2000000000000028 7.9932517568904373
v 84.240142431506371 0.19999999999998863 2.6935331980194022
v 84.220226746537463 0.20000000000000284 7.9932517568904373
f 1 2 7 10 9 3
f 4 6 11 12 8 5
f 5 8 7 2
f 8 12 10 7
f 4 5 2 1
f 6 4 1 3
f 11 6 3 9
f 12 11 9 10
o F36_3603_living_room_2
v 81.905987049140521 4.2000000000000028 -9.5367482447709833
v 80.155684332197382 4.2000000000000028 -9.5367482447709833
v 81.895445149461722 4.2000000000000028 -12.342029683031534
v 81.905987049140521 0.20000000000000284 -9.5367482447709833
v 80.155684332197382 0.20000000000000284 -9.5367482447709833
v 81.895445149461722 0.20000000000000284 -12.342029683031534
v 80.125226747549704 4.2000000000000028 -17.641748241902576
v 80.125226747549704 0.20000000000000284 -17.641748241902576
v 84.240142431506371 4.2000000000000028 -12.342029683031534
v 84.220226746537463 4.2000000000000028 -17.641748241902576
v 84.240142431506371 0.19999999999998863 -12.342029683031534
v 84.220226746537463 0.20000000000000284 -17.641748241902576
f 13 15 21 22 19 14
f 16 17 20 24 23 18
f 17 14 19 20
f 20 19 22 24
f 16 13 14 17
f 18 15 13 16
f 23 21 15 18
f 24 22 21 23
o F36_3604_living_room
v 94.606115150488733 4.2000000000000028 -12.029529679219245
v 96.412098735874537 4.2000000000000028 -17.641748241902576
v 96.412098735874537 4.2000000000000028 -10.441807309047199
v 94.606115150488733 0.20000000000000284 -12.029529679219245
v 96.412098735874537 0.20000000000000284 -17.641748241902576
v 96.412098735874537 0.20000000000000284 -10.441807309047199
v 94.606115150488733 4.2000000000000028 -10.441807309047199
v 94.606115150488733 0.20000000000000284 -10.441807309047199
v 91.840886326102634 4.2000000000000028 -17.641748241902576
v 91.861976347323491 4.2000000000000028 -12.029529679219245
v 91.840886326102634 0.20000000000000284 -17.641748241902576
v 91.861976347323491 0.20000000000000284 -12.029529679219245
f 26 33 34 25 31 27
f 29 30 32 28 36 35
f 36 34 33 35
f 35 33 26 29
f 28 25 34 36
f 32 31 25 28
f 30 27 31 32
f 29 26 27 30
o F36_3604_living_room_5
v 97.906115119440784 4.2000000000000028 1.6579703205866636
v 100.25611508737418 4.2000000000000028 7.9932517568904373
v 100.25611508737418 4.2000000000000028 1.6579703205866636
v 97.906115119440784 0.20000000000000284 1.6579703205866636
v 100.25611508737418 0.20000000000000284 7.9932517568904373
v 100.25611508737418 0.20000000000000284 1.6579703205866636
v 96.412098735874537 4.2000000000000028 7.9932517568904373
v 96.412098735874537 4.2000000000000028 -1.0420296805976577
v 96.412098735874537 0.20000000000000284 7.9932517568904373
v 96.412098735874537 0.20000000000000284 -1.0420296805976577
v 97.906115119440813 4.2000000000000028 -1.0420296805976577
v 97.906115119440813 0.20000000000000284 -1.0420296805976577
f 38 39 37 47 44 43
f 41 45 46 48 40 42
f 46 45 43 44
f 45 41 38 43
f 48 46 44 47
f 40 48 47 37
f 42 40 37 39
f 41 42 39 38
o F36_3604_living_room_7
v 99.336115150159827 4.2000000000000028 -1.0420296805976577
v 104.65611515048903 4.2000000000000028 -1.0420296805976577
v 99.336115150159799 4.2000000000000028 -3.6920296805829125
v 99.336115150159827 0.20000000000000284 -1.0420296805976577
v 104.65611515048903 0.20000000000000284 -1.0420296805976577
v 99.336115150159799 0.20000000000000284 -3.6920296805829125
v 104.65611515048903 4.2000000000000028 -4.9920296805830802
v 104.65611515048903 0.20000000000000284 -4.9920296805830802
v 96.412098735874537 4.2000000000000028 -3.6920296805829125
v 96.412098735874537 4.2000000000000028 -4.9920296805830944
v 96.412098735874537 0.20000000000000284 -3.6920296805829125
v 96.412098735874537 0.20000000000000284 -4.9920296805830944
f 49 50 55 58 57 51
f 52 54 59 60 56 53
f 60 59 57 58
f 59 54 51 57
f 56 60 58 55
f 54 52 49 51
f 52 53 50 49
f 53 56 55 50
o F36_3604_living_room_9
v 96.412098735874537 4.2000000000000028 -8.6420296805980499
v 104.65611515048906 4.2000000000000028 -8.6420296805980357
v 98.406115150488745 4.2000000000000028 -10.441807309047199
v 96.412098735874537 0.20000000000000284 -8.6420296805980499
v 104.65611515048906 0.20000000000000284 -8.6420296805980357
v 98.406115150488745 0.20000000000000284 -10.441807309047199
v 104.65611515048906 4.2000000000000028 -12.992029678924574
v 104.65611515048906 0.20000000000000284 -12.992029678924574
v 96.412098735874537 4.2000000000000028 -10.441807309047199
v 96.412098735874537 0.20000000000000284 -10.441807309047199
v 98.406115150488745 4.2000000000000028 -12.992029678924574
v 98.406115150488745 0.20000000000000284 -12.992029678924574
f 61 62 67 71 63 69
f 64 70 66 72 68 65
f 70 64 61 69
f 64 65 62 61
f 66 70 69 63
f 72 66 63 71
f 68 72 71 67
f 65 68 67 62
o F36_3601_living_room_5
v 59.169534641804944 4.2000000000000028 -11.342029679398046
v 60.692883938326617 4.2000000000000028 -17.641748241902576
v 60.692883938326617 4.2000000000000028 -8.8420296782137129
v 59.169534641804944 0.20000000000000284 -11.342029679398046
v 60.692883938326617 0.20000000000000284 -17.641748241902576
v 60.692883938326617 0.20000000000000284 -8.8420296782137129
v 59.178929331710208 4.2000000000000028 -8.8420296782137129
v 59.178929331710208 0.20000000000000284 -8.8420296782137129
v 56.824863145381642 4.2000000000000028 -17.641748241902576
v 56.824863145381642 4.2000000000000028 -11.342029679398046
v 56.824863145381642 0.20000000000000284 -17.641748241902576
v 56.824863145381642 0.20000000000000284 -11.342029679398046
f 74 81 82 73 79 75
f 77 78 80 76 84 83
f 84 82 81 83
f 83 81 74 77
f 76 73 82 84
f 80 79 73 76
f 78 75 79 80
f 77 74 75 78
o F36_3601_living_room_8
v 62.956115150489126 4.2000000000000028 -12.142029679167557
v 65.220226778603319 4.2000000000000028 -17.641748241902576
v 65.240894038778833 4.2000000000000028 -12.142029679167557
v 62.956115150489126 0.20000000000000284 -12.142029679167557
v 65.220226778603319 0.20000000000000284 -17.641748241902576
v 65.240894038778833 0.20000000000000284 -12.142029679167557
v 60.692883938326617 4.2000000000000028 -17.641748241902576
v 60.692883938326617 4.2000000000000028 -11.118367956747157
v 60.692883938326617 0.20000000000000284 -17.641748241902576
v 60.692883938326617 0.20000000000000284 -11.118367956747157
v 62.956115150489126 4.2000000000000028 -11.118367956747157
v 62.956115150489126 0.20000000000000284 -11.118367956747157
f 86 91 92 95 85 87
f 89 90 88 96 94 93
f 94 92 91 93
f 93 91 86 89
f 96 95 92 94
f 88 85 95 96
f 90 87 85 88
f 89 86 87 90
o F36_3604_living_room_2
v 94.606115150488733 4.2000000000000028 2.381033194207113
v 96.412098735874537 4.2000000000000028 7.9932517568904373
v 96.412098735874537 4.2000000000000028 0.7933108240350677
v 94.606115150488733 0.20000000000000284 2.381033194207113
v 96.412098735874537 0.20000000000000284 7.9932517568904373
v 96.412098735874537 0.20000000000000284 0.7933108240350677
v 94.606115150488733 4.2000000000000028 0.7933108240350677
v 94.606115150488733 0.20000000000000284 0.7933108240350677
v 91.840886326102634 4.2000000000000028 7.9932517568904373
v 91.861976347323491 4.2000000000000028 2.381033194207113
v 91.840886326102634 0.20000000000000284 7.9932517568904373
v 91.861976347323491 0.20000000000000284 2.381033194207113
f 98 99 103 97 106 105
f 101 107 108 100 104 102
f 108 107 105 106
f 107 101 98 105
f 100 108 106 97
f 104 100 97 103
f 102 104 103 99
f 101 102 99 98
