# Rhino

o F36_core_lift_1
v 62.962098735874918 0.20000000000000284 -0.11174824024114827
v 78.533896591333814 0.20000000000000284 -0.11174824024114827
v 78.533896591333814 0.20000000000000284 -3.3421845991453196
v 62.962098735874918 0.20000000000000284 -3.3420296793988413
v 62.962098735874918 4.2000000000000028 -0.11174824024114827
v 78.533896591333814 4.2000000000000028 -0.11174824024114827
v 78.533896591333814 4.2000000000000028 -3.3421845991453196
v 62.962098735874918 4.2000000000000028 -3.3421845991453196
f 4 3 2 1
f 2 6 5 1
f 3 7 6 2
f 1 5 8 4
f 5 6 7 8
f 8 7 3 4
o F36_core_staircase_3
v 94.613839052402653 0.20000000000000284 -5.7650745014836176
v 88.090345096079943 0.20000000000000284 -5.7650745014779901
v 88.090345096079943 0.20000000000000284 -9.5367482447709833
v 94.613839052402653 0.20000000000000284 -9.5367482447709833
v 94.613839052402653 4.2000000000000028 -5.7652294212300816
v 88.096328681465735 4.2000000000000028 -5.7652294212244541
v 88.096328681465735 4.2000000000000028 -9.5367482447709833
v 94.613839052402653 4.2000000000000028 -9.5367482447709833
f 11 12 9 10
f 9 13 14 10
f 10 14 15 11
f 12 16 13 9
f 14 13 16 15
f 15 16 12 11
o F36_core_lift_3
v 81.768515386088552 0.20000000000000284 -0.11174824024114827
v 94.613839052402653 0.20000000000000284 -0.11174824024114827
v 94.613839052402653 0.20000000000000284 -3.3420296793988413
v 81.768515386088552 0.20000000000000284 -3.3420296793988413
v 81.768515386088552 4.2000000000000028 -0.11174824024114827
v 94.613839052402653 4.2000000000000028 -0.11174824024114827
v 94.613839052402653 4.2000000000000028 -3.3421845991453196
v 81.768515386088552 4.2000000000000028 -3.3421845991453196
f 20 19 18 17
f 18 22 21 17
f 19 23 22 18
f 17 21 24 20
f 21 22 23 24
f 24 23 19 20
o F36_core_staircase_1
v 69.158732653055296 0.20000000000000284 -5.7650745014836176
v 62.962098735874918 0.20000000000000284 -5.7650745014779901
v 62.962098735874918 0.20000000000000284 -9.5367482447709833
v 69.158732653055296 0.20000000000000284 -9.5367482447709833
v 69.164716238441088 4.2000000000000028 -5.7652294212300816
v 62.962098735874918 4.2000000000000028 -5.7652294212244541
v 62.962098735874918 4.2000000000000028 -9.5367482447709833
v 69.164716238441088 4.2000000000000028 -9.5367482447709833
f 27 28 25 26
f 25 29 30 26
f 26 30 31 27
f 28 32 29 25
f 30 29 32 31
f 31 32 28 27
