# Rhino

o object_1
v 125.35439508129426 0.20000000000000009 15.732943808469372
v 125.35439508129426 0.20000000000000009 -55.166908944216175
v 98.874395539057929 0.20000000000000009 -40.017029488649769
v 99.524397064936835 0.20000000000000009 -40.017029488649769
v 99.524397064936835 0.20000000000000009 -50.467030251589222
v 96.394395996821601 0.20000000000000009 -50.467030251589222
v 96.394395996821601 0.20000000000000009 -49.467030251589222
v 88.424394776118476 0.20000000000000009 -49.467030251589222
v 86.724397827876288 0.20000000000000009 -49.467030251589222
v 86.724397827876288 0.20000000000000009 -51.467766488161487
v 86.924394776118476 0.20000000000000009 -51.467766488161487
v 86.924394776118476 0.20000000000000009 -49.667031014528675
v 88.424394776118476 0.20000000000000009 -49.667031014528675
v 88.424394776118476 0.20000000000000009 -49.867027962770862
v 95.994394470942694 0.20000000000000009 -49.867027962770862
v 95.994394470942694 0.20000000000000009 -53.767029488649769
v 90.624395539057929 0.20000000000000009 -53.767029488649769
v 90.624395539057929 0.20000000000000009 -54.167031014528675
v 96.394395996821601 0.20000000000000009 -54.167031014528675
v 96.394395996821601 0.20000000000000009 -50.667031014528675
v 99.524397064936835 0.20000000000000009 -50.667031014528675
v 99.524397064936835 0.20000000000000009 -55.166908944216175
v 86.924394776118476 0.20000000000000009 -55.166908944216175
v 86.924394776118476 0.20000000000000009 -53.775940621462269
v 86.724397827876288 0.20000000000000009 -53.775940621462269
v 86.724397827876288 0.20000000000000009 -55.166908944216175
v 80.824396301997382 0.20000000000000009 -55.166908944216175
v 80.824396301997382 0.20000000000000009 -42.067028725710315
v 84.274397064936835 0.20000000000000009 -42.067028725710315
v 84.274397064936835 0.20000000000000009 -40.017029488649769
v 85.624395539057929 0.20000000000000009 -40.017029488649769
v 85.624395539057929 0.20000000000000009 -39.817028725710315
v 84.974397827876288 0.20000000000000009 -39.817028725710315
v 84.974397827876288 0.20000000000000009 -39.742027962770862
v 84.774397064936835 0.20000000000000009 -39.742027962770862
v 84.774397064936835 0.20000000000000009 -39.817028725710315
v 83.724397827876288 0.20000000000000009 -39.817028725710315
v 83.724397827876288 0.20000000000000009 -37.867027962770862
v 84.774397064936835 0.20000000000000009 -37.867027962770862
v 84.774397064936835 0.20000000000000009 -37.942028725710315
v 84.974397827876288 0.20000000000000009 -37.942028725710315
v 84.974397827876288 0.20000000000000009 -37.667031014528675
v 79.924394776118476 0.20000000000000009 -37.667031014528675
v 79.924394776118476 0.20000000000000009 -37.867027962770862
v 83.524397064936835 0.20000000000000009 -37.867027962770862
v 83.524397064936835 0.20000000000000009 -40.017029488649769
v 84.074396301997382 0.20000000000000009 -40.017029488649769
v 84.074396301997382 0.20000000000000009 -41.867027962770862
v 79.424394776118476 0.20000000000000009 -41.867027962770862
v 79.424394776118476 0.20000000000000009 -41.267029488649769
v 78.924394776118476 0.20000000000000009 -41.267029488649769
v 78.924394776118476 0.20000000000000009 -41.867027962770862
v 78.474397827876288 0.20000000000000009 -41.867027962770862
v 78.474397827876288 0.20000000000000009 -37.867027962770862
v 78.824396301997382 0.20000000000000009 -37.867027962770862
v 78.824396301997382 0.20000000000000009 -37.667031014528675
v 78.274397064936835 0.20000000000000009 -37.667031014528675
v 78.274397064936835 0.20000000000000009 -38.517029488649769
v 78.099397827876288 0.20000000000000009 -38.517029488649769
v 78.099397827876288 0.20000000000000009 -38.717030251589222
v 78.274397064936835 0.20000000000000009 -38.717030251589222
v 78.274397064936835 0.20000000000000009 -41.567028725710315
v 76.774397064936835 0.20000000000000009 -41.567028725710315
v 76.774397064936835 0.20000000000000009 -39.387028420534534
v 76.774397064936835 0.20000000000000009 -38.717030251589222
v 77.199396301997382 0.20000000000000009 -38.717030251589222
v 77.199396301997382 0.20000000000000009 -38.517029488649769
v 75.674396683467108 0.20000000000000009 -38.517029488649769
v 75.674396683467108 0.20000000000000009 -38.717030251589222
v 76.574396301997382 0.20000000000000009 -38.717030251589222
v 76.574396301997382 0.20000000000000009 -41.567028725710315
v 74.474395920527655 0.20000000000000009 -41.567028725710315
v 74.474395920527655 0.20000000000000009 -38.717030251589222
v 74.574396301997382 0.20000000000000009 -38.717030251589222
v 74.574396301997382 0.20000000000000009 -38.517029488649769
v 74.474395920527655 0.20000000000000009 -38.517029488649769
v 74.474395920527655 0.20000000000000009 -37.667031014528675
v 74.074396301997382 0.20000000000000009 -37.667031014528675
v 74.074396301997382 0.20000000000000009 -37.867027962770862
v 74.274397064936835 0.20000000000000009 -37.867027962770862
v 74.274397064936835 0.20000000000000009 -41.867027962770862
v 70.924396683467108 0.20000000000000009 -41.867027962770862
v 70.924396683467108 0.20000000000000009 -41.267029488649769
v 70.424396683467108 0.20000000000000009 -41.267029488649769
v 70.424396683467108 0.20000000000000009 -37.867027962770862
v 72.974395920527655 0.20000000000000009 -37.867027962770862
v 72.974395920527655 0.20000000000000009 -37.667031014528675
v 63.994396378291334 0.20000000000000009 -37.667031014528675
v 63.994396378291334 0.20000000000000009 -37.867027962770862
v 70.224395920527655 0.20000000000000009 -37.867027962770862
v 70.224395920527655 0.20000000000000009 -41.867027962770862
v 63.624395539057936 0.20000000000000009 -41.867027962770862
v 63.624395539057936 0.20000000000000009 -40.317028725710315
v 62.774397064936842 0.20000000000000009 -40.317028725710315
v 62.774397064936842 0.20000000000000009 -40.017029488649769
v 61.774396111262526 0.20000000000000009 -40.017029488649769
v 61.774396111262526 0.20000000000000009 -40.517029488649769
v 62.774397064936842 0.20000000000000009 -40.517029488649769
v 63.424396683467116 0.20000000000000009 -40.517029488649769
v 63.424396683467116 0.20000000000000009 -41.867027962770862
v 62.274397064936842 0.20000000000000009 -41.867027962770862
v 62.274397064936842 0.20000000000000009 -41.742027962770862
v 62.074396301997389 0.20000000000000009 -41.742027962770862
v 62.074396301997389 0.20000000000000009 -42.967030251589222
v 62.274397064936842 0.20000000000000009 -42.967030251589222
v 62.274397064936842 0.20000000000000009 -42.067028725710315
v 70.424396683467108 0.20000000000000009 -42.067028725710315
v 70.924396683467108 0.20000000000000009 -42.067028725710315
v 78.924394776118476 0.20000000000000009 -42.067028725710315
v 79.424394776118476 0.20000000000000009 -42.067028725710315
v 80.624395539057929 0.20000000000000009 -42.067028725710315
v 80.624395539057929 0.20000000000000009 -55.166908944216175
v 46.751803149474348 0.20000000000000009 -55.166908944216175
v 46.274396304977621 0.20000000000000009 -54.53031607922594
v 46.274396304977621 0.20000000000000009 -49.867027962770862
v 53.594396282923903 0.20000000000000009 -49.867027962770862
v 53.594396282923903 0.20000000000000009 -53.667031014528675
v 46.877385665667738 0.20000000000000009 -53.667031014528675
v 47.252479364169325 0.20000000000000009 -54.167031014528675
v 53.994396378291334 0.20000000000000009 -54.167031014528675
v 55.994396378291334 0.20000000000000009 -54.167031014528675
v 55.994396378291334 0.20000000000000009 -49.467030251589222
v 55.174396683467116 0.20000000000000009 -49.467030251589222
v 55.174396683467116 0.20000000000000009 -42.480259621706409
v 54.074396301997389 0.20000000000000009 -42.480259621706409
v 54.074396301997389 0.20000000000000009 -42.417031014528675
v 53.874396492732252 0.20000000000000009 -42.417031014528675
v 53.874396492732252 0.20000000000000009 -42.680260384645862
v 54.974396874201979 0.20000000000000009 -42.680260384645862
v 54.974396874201979 0.20000000000000009 -49.467030251589222
v 53.994396378291334 0.20000000000000009 -49.467030251589222
v 53.594396282923903 0.20000000000000009 -49.467030251589222
v 46.77439629007646 0.20000000000000009 -49.467030251589222
v 46.77439629007646 0.20000000000000009 -40.367027962770862
v 53.074396301997389 0.20000000000000009 -40.367027962770862
v 53.074396301997389 0.20000000000000009 -40.517029488649769
v 54.074396301997389 0.20000000000000009 -40.517029488649769
v 54.074396301997389 0.20000000000000009 -40.017029488649769
v 53.074396301997389 0.20000000000000009 -40.017029488649769
v 53.074396301997389 0.20000000000000009 -40.167031014528675
v 46.77439629007646 0.20000000000000009 -40.167031014528675
v 46.77439629007646 0.20000000000000009 -32.598644936647815
v 53.174396206629957 0.20000000000000009 -32.598644936647815
v 53.174396206629957 0.20000000000000009 -32.717030251589222
v 54.174396683467116 0.20000000000000009 -32.717030251589222
v 54.174396683467116 0.20000000000000009 -32.598644936647815
v 54.974396874201979 0.20000000000000009 -32.598644936647815
v 54.974396874201979 0.20000000000000009 -37.817028725710315
v 53.874396492732252 0.20000000000000009 -37.817028725710315
v 53.874396492732252 0.20000000000000009 -38.117027962770862
v 54.074396301997389 0.20000000000000009 -38.117027962770862
v 54.074396301997389 0.20000000000000009 -38.017029488649769
v 55.174396683467116 0.20000000000000009 -38.017029488649769
v 55.174396683467116 0.20000000000000009 -24.687027657595081
v 54.374396492732252 0.20000000000000009 -24.687027657595081
v 54.374396492732252 0.20000000000000009 -24.587029183473987
v 54.174396683467116 0.20000000000000009 -24.587029183473987
v 54.174396683467116 0.20000000000000009 -24.887028420534534
v 54.974396874201979 0.20000000000000009 -24.887028420534534
v 54.974396874201979 0.20000000000000009 -32.398644173708362
v 54.174396683467116 0.20000000000000009 -32.398644173708362
v 54.174396683467116 0.20000000000000009 -32.317028725710315
v 53.174396206629957 0.20000000000000009 -32.317028725710315
v 53.174396206629957 0.20000000000000009 -32.398644173708362
v 46.77439629007646 0.20000000000000009 -32.398644173708362
v 46.77439629007646 0.20000000000000009 -22.687029564943714
v 54.174396683467116 0.20000000000000009 -22.687029564943714
v 54.174396683467116 0.20000000000000009 -22.78702994641344
v 54.374396492732252 0.20000000000000009 -22.78702994641344
v 54.374396492732252 0.20000000000000009 -22.387030327883167
v 54.174396683467116 0.20000000000000009 -22.387030327883167
v 54.174396683467116 0.20000000000000009 -22.487028802004261
v 46.77439629007646 0.20000000000000009 -22.487028802004261
v 46.77439629007646 0.20000000000000009 -9.9670302515892217
v 53.774396111262526 0.20000000000000009 -9.9670302515892217
v 53.774396111262526 0.20000000000000009 -11.717030251589222
v 54.374396492732252 0.20000000000000009 -11.717030251589222
v 54.374396492732252 0.20000000000000009 -10.817028725710315
v 68.724395920527655 0.20000000000000009 -10.817028725710315
v 68.724395920527655 0.20000000000000009 -9.2170302515892217
v 77.074396301997382 0.20000000000000009 -9.2170302515892217
v 77.074396301997382 0.20000000000000009 -8.7170302515892217
v 77.074396301997382 0.20000000000000009 -5.1170289164451788
v 76.574396301997382 0.20000000000000009 -5.1170289164451788
v 76.574396301997382 0.20000000000000009 -8.7170302515892217
v 72.424396683467108 0.20000000000000009 -8.7170302515892217
v 72.424396683467108 0.20000000000000009 -5.5170294886497686
v 71.824388672602851 0.20000000000000009 -5.5170294886497686
v 71.824388672602851 0.20000000000000009 -5.417029107180042
v 73.12438981701203 0.20000000000000009 -5.417029107180042
v 73.12438981701203 0.20000000000000009 -6.1670796519188116
v 73.37438981701203 0.20000000000000009 -6.1670796519188116
v 73.37438981701203 0.20000000000000009 -5.9670798426536749
v 73.324388672602851 0.20000000000000009 -5.9670798426536749
v 73.324388672602851 0.20000000000000009 -5.417029107180042
v 74.924389054072577 0.20000000000000009 -5.417029107180042
v 74.924389054072577 0.20000000000000009 -6.1670796519188116
v 75.274397064936835 0.20000000000000009 -6.1670796519188116
v 75.274397064936835 0.20000000000000009 -5.9670798426536749
v 75.12438981701203 0.20000000000000009 -5.9670798426536749
v 75.12438981701203 0.20000000000000009 -5.0170294886497686
v 74.924389054072577 0.20000000000000009 -5.0170294886497686
v 74.924389054072577 0.20000000000000009 -5.2170292979149053
v 71.424389054072577 0.20000000000000009 -5.2170292979149053
v 71.424389054072577 0.20000000000000009 -5.417029107180042
v 71.62438981701203 0.20000000000000009 -5.417029107180042
v 71.62438981701203 0.20000000000000009 -8.7170302515892217
v 70.424396683467108 0.20000000000000009 -8.7170302515892217
v 70.424396683467108 0.20000000000000009 -6.4170300608543585
v 69.524397064936835 0.20000000000000009 -6.4170300608543585
v 69.524397064936835 0.20000000000000009 -6.3170296793846319
v 70.624382187617499 0.20000000000000009 -6.3170296793846319
v 70.624382187617499 0.20000000000000009 -5.417029107180042
v 70.824388672602851 0.20000000000000009 -5.417029107180042
v 70.824388672602851 0.20000000000000009 -5.2170292979149053
v 70.374395539057929 0.20000000000000009 -5.2170292979149053
v 70.374395539057929 0.20000000000000009 -5.417029107180042
v 70.424381424678046 0.20000000000000009 -5.417029107180042
v 70.424381424678046 0.20000000000000009 -6.1170298701194952
v 69.524397064936835 0.20000000000000009 -6.1170298701194952
v 69.524397064936835 0.20000000000000009 -5.2170292979149053
v 69.224395920527655 0.20000000000000009 -5.2170292979149053
v 68.42939584423371 0.20000000000000009 -5.2170292979149053
v 68.42939584423371 0.20000000000000009 -5.5170294886497686
v 69.224395920527655 0.20000000000000009 -5.5170294886497686
v 69.224395920527655 0.20000000000000009 -8.7170302515892217
v 68.524397064936835 0.20000000000000009 -8.7170302515892217
v 68.524397064936835 0.20000000000000009 -9.2170302515892217
v 68.524397064936835 0.20000000000000009 -10.617029870119495
v 54.374396492732252 0.20000000000000009 -10.617029870119495
v 54.374396492732252 0.20000000000000009 -9.7670294886497686
v 46.77439629007646 0.20000000000000009 -9.7670294886497686
v 46.77439629007646 0.20000000000000009 15.732943808469372
v 59.376747299922194 0.20000000000000009 15.732943808469372
v 59.376747299922194 0.20000000000000009 14.682970320615368
v 58.274396111262526 0.20000000000000009 14.682970320615368
v 58.274396111262526 0.20000000000000009 14.182970320615368
v 60.124396492732252 0.20000000000000009 14.182970320615368
v 61.324396301997389 0.20000000000000009 14.182970320615368
v 61.324396301997389 0.20000000000000009 7.7329705113502314
v 61.024396111262526 0.20000000000000009 7.7329705113502314
v 61.024396111262526 0.20000000000000009 6.4829705113502314
v 60.124396492732252 0.20000000000000009 6.4829705113502314
v 60.124396492732252 0.20000000000000009 6.7829704636665156
v 58.274396111262526 0.20000000000000009 6.7829704636665156
v 58.274396111262526 0.20000000000000009 6.4829705113502314
v 54.074396301997389 0.20000000000000009 6.4829705113502314
v 54.074396301997389 0.20000000000000009 6.7829704636665156
v 50.874396492732252 0.20000000000000009 6.7829704636665156
v 50.874396492732252 0.20000000000000009 6.4869704598518183
v 48.974396397364821 0.20000000000000009 6.4869704598518183
v 48.974396397364821 0.20000000000000009 9.5329704636665156
v 48.774396349681105 0.20000000000000009 9.5329704636665156
v 48.774396349681105 0.20000000000000009 6.4869704598518183
v 48.524396349681105 0.20000000000000009 6.4869704598518183
v 48.524396349681105 0.20000000000000009 6.2869704121681025
v 50.874396492732252 0.20000000000000009 6.2869704121681025
v 50.874396492732252 0.20000000000000009 6.2829704636665156
v 54.074396301997389 0.20000000000000009 6.2829704636665156
v 58.274396111262526 0.20000000000000009 6.2829704636665156
v 60.124396492732252 0.20000000000000009 6.2829704636665156
v 61.024396111262526 0.20000000000000009 6.2829704636665156
v 61.024396111262526 0.20000000000000009 3.9829705113502314
v 61.524396111262526 0.20000000000000009 3.9829705113502314
v 61.524396111262526 0.20000000000000009 14.182970320615368
v 61.924396683467116 0.20000000000000009 14.182970320615368
v 61.924396683467116 0.20000000000000009 13.932970320615368
v 62.424396683467116 0.20000000000000009 13.932970320615368
v 62.424396683467116 0.20000000000000009 14.732970511350231
v 62.274397064936842 0.20000000000000009 14.732970511350231
v 62.274397064936842 0.20000000000000009 15.732943808469372
v 68.874395539057929 0.20000000000000009 15.732943808469372
v 68.874395539057929 0.20000000000000009 7.7329705113502314
v 68.724395920527655 0.20000000000000009 7.7329705113502314
v 68.724395920527655 0.20000000000000009 4.1829703206153681
v 62.724395920527662 0.20000000000000009 4.1829703206153681
v 62.724395920527662 0.20000000000000009 3.9829705113502314
v 62.819397141230787 0.20000000000000009 3.9829705113502314
v 62.819397141230787 0.20000000000000009 1.6829703206153681
v 63.019395996821608 0.20000000000000009 1.6829703206153681
v 63.019395996821608 0.20000000000000009 3.9829705113502314
v 68.724395920527655 0.20000000000000009 3.9829705113502314
v 68.874395539057929 0.20000000000000009 3.9829705113502314
v 68.874395539057929 0.20000000000000009 0.38297012988050483
v 62.524397064936842 0.20000000000000009 0.38297012988050483
v 62.524397064936842 0.20000000000000009 -0.11702987011949517
v 62.524397064936842 0.20000000000000009 -3.0170294886497686
v 63.024397064936842 0.20000000000000009 -3.0170294886497686
v 63.024397064936842 0.20000000000000009 -2.7170292979149053
v 68.824396301997382 0.20000000000000009 -2.7170292979149053
v 68.824396301997382 0.20000000000000009 -2.917029107180042
v 69.124395539057929 0.20000000000000009 -2.917029107180042
v 69.124395539057929 0.20000000000000009 -2.7170292979149053
v 74.924396683467108 0.20000000000000009 -2.7170292979149053
v 74.924396683467108 0.20000000000000009 -3.0170294886497686
v 75.224395920527655 0.20000000000000009 -3.0170294886497686
v 75.224395920527655 0.20000000000000009 -0.11702987011949517
v 76.574396301997382 0.20000000000000009 -0.11702987011949517
v 76.574396301997382 0.20000000000000009 -3.0170294886497686
v 77.074396301997382 0.20000000000000009 -3.0170294886497686
v 77.074396301997382 0.20000000000000009 -0.11702987011949517
v 77.074396301997382 0.20000000000000009 0.38297012988050483
v 71.474395920527655 0.20000000000000009 0.38297012988050483
v 71.474395920527655 0.20000000000000009 1.1829703206153681
v 69.074396301997382 0.20000000000000009 1.1829703206153681
v 69.074396301997382 0.20000000000000009 3.9829705113502314
v 69.224395920527655 0.20000000000000009 3.9829705113502314
v 69.224395920527655 0.20000000000000009 7.7329705113502314
v 69.074396301997382 0.20000000000000009 7.7329705113502314
v 69.074396301997382 0.20000000000000009 15.732943808469372
v 76.024397064936835 0.20000000000000009 15.732943808469372
v 76.024397064936835 0.20000000000000009 14.532970702085095
v 76.424396683467108 0.20000000000000009 14.532970702085095
v 76.424396683467108 0.20000000000000009 13.932970320615368
v 76.724395920527655 0.20000000000000009 13.932970320615368
v 76.724395920527655 0.20000000000000009 7.7329705113502314
v 76.424396683467108 0.20000000000000009 7.7329705113502314
v 76.424396683467108 0.20000000000000009 3.9829705113502314
v 76.924396683467108 0.20000000000000009 3.9829705113502314
v 76.924396683467108 0.20000000000000009 7.7329705113502314
v 76.924396683467108 0.20000000000000009 13.932970320615368
v 76.924396683467108 0.20000000000000009 14.732970511350231
v 76.924396683467108 0.20000000000000009 15.407917296323376
v 76.724395920527655 0.20000000000000009 15.407917296323376
v 76.724395920527655 0.20000000000000009 14.732970511350231
v 76.424396683467108 0.20000000000000009 14.732970511350231
v 76.224395920527655 0.20000000000000009 14.732970511350231
v 76.224395920527655 0.20000000000000009 15.732943808469372
v 84.024397064936835 0.20000000000000009 15.732943808469372
v 84.024397064936835 0.20000000000000009 14.732970511350231
v 84.024397064936835 0.20000000000000009 13.932970320615368
v 84.024397064936835 0.20000000000000009 8.3829705098601153
v 80.974397827876288 0.20000000000000009 8.3829705098601153
v 80.674394776118476 0.20000000000000009 8.3829705098601153
v 80.674394776118476 0.20000000000000009 7.7829705232711603
v 80.974397827876288 0.20000000000000009 7.7829705232711603
v 80.974397827876288 0.20000000000000009 8.1829704994293024
v 84.024397064936835 0.20000000000000009 8.1829704994293024
v 84.024397064936835 0.20000000000000009 7.7329705113502314
v 83.974397827876288 0.20000000000000009 7.7329705113502314
v 83.974397827876288 0.20000000000000009 2.1829703206153681
v 84.774397064936835 0.20000000000000009 2.1829703206153681
v 84.774397064936835 0.20000000000000009 7.5329705232711603
v 86.389394928706366 0.20000000000000009 7.5329705232711603
v 86.389394928706366 0.20000000000000009 7.4254705065818598
v 86.409395386470038 0.20000000000000009 7.4254705065818598
v 86.409395386470038 0.20000000000000009 7.5329705232711603
v 87.974397827876288 0.20000000000000009 7.5329705232711603
v 87.974397827876288 0.20000000000000009 4.7829704636665156
v 86.409395386470038 0.20000000000000009 4.7829704636665156
v 86.409395386470038 0.20000000000000009 4.8904705399604609
v 86.389394928706366 0.20000000000000009 4.8904705399604609
v 86.389394928706366 0.20000000000000009 4.5829704159827998
v 87.574396301997382 0.20000000000000009 4.5829704159827998
v 87.574396301997382 0.20000000000000009 2.382970606717663
v 85.874395539057929 0.20000000000000009 2.382970606717663
v 85.874395539057929 0.20000000000000009 2.1829703206153681
v 88.674394776118476 0.20000000000000009 2.1829703206153681
v 88.674394776118476 0.20000000000000009 2.382970606717663
v 88.474397827876288 0.20000000000000009 2.382970606717663
v 88.474397827876288 0.20000000000000009 3.9829705113502314
v 88.473005463374335 0.20000000000000009 3.9829705113502314
v 88.474397827876288 0.20000000000000009 7.7329705113502314
v 88.474397827876288 0.20000000000000009 7.5329705232711603
v 90.039396454585273 0.20000000000000009 7.5329705232711603
v 90.039396454585273 0.20000000000000009 7.4421371573539545
v 90.059396912348944 0.20000000000000009 7.4421371573539545
v 90.059396912348944 0.20000000000000009 7.5329705232711603
v 92.074396301997382 0.20000000000000009 7.5329705232711603
v 92.074396301997382 0.20000000000000009 4.7829704636665156
v 91.074339081538398 0.20000000000000009 4.7829704636665156
v 91.074339081538398 0.20000000000000009 4.5829704159827998
v 92.074396301997382 0.20000000000000009 4.5829704159827998
v 92.074396301997382 0.20000000000000009 2.5829704159827998
v 89.674394776118476 0.20000000000000009 2.5829704159827998
v 89.674394776118476 0.20000000000000009 2.382970606717663
v 89.574396301997382 0.20000000000000009 2.382970606717663
v 89.574396301997382 0.20000000000000009 2.1829703206153681
v 89.674394776118476 0.20000000000000009 2.1829703206153681
v 89.674394776118476 0.20000000000000009 1.5829704159827998
v 89.874395539057929 0.20000000000000009 1.5829704159827998
v 89.874395539057929 0.20000000000000009 2.382970606717663
v 92.074396301997382 0.20000000000000009 2.382970606717663
v 92.074396301997382 0.20000000000000009 0.38297012988050483
v 80.774397064936835 0.20000000000000009 0.38297012988050483
v 80.774397064936835 0.20000000000000009 -0.11702987011949517
v 80.774397064936835 0.20000000000000009 -3.0170294886497686
v 81.274397064936835 0.20000000000000009 -3.0170294886497686
v 81.274397064936835 0.20000000000000009 -2.7170292979149053
v 90.074396301997382 0.20000000000000009 -2.7170292979149053
v 90.074396301997382 0.20000000000000009 -3.0170294886497686
v 90.374395539057929 0.20000000000000009 -3.0170294886497686
v 90.374395539057929 0.20000000000000009 -0.66702910718004205
v 90.824396301997382 0.20000000000000009 -0.66702910718004205
v 90.824396301997382 0.20000000000000009 -0.46702929791490533
v 90.374395539057929 0.20000000000000009 -0.46702929791490533
v 90.374395539057929 0.20000000000000009 -0.11702987011949517
v 91.874395539057929 0.20000000000000009 -0.11702987011949517
v 91.874395539057929 0.20000000000000009 -0.46702929791490533
v 91.424394776118476 0.20000000000000009 -0.46702929791490533
v 91.424394776118476 0.20000000000000009 -0.66702910718004205
v 92.074396301997382 0.20000000000000009 -0.66702910718004205
v 92.074396301997382 0.20000000000000009 -0.11702987011949517
v 94.174394776118476 0.20000000000000009 -0.11702987011949517
v 94.174394776118476 0.20000000000000009 -3.0170294886497686
v 94.474397827876288 0.20000000000000009 -3.0170294886497686
v 94.474397827876288 0.20000000000000009 -3.2170292979149053
v 94.674394776118476 0.20000000000000009 -3.2170292979149053
v 94.674394776118476 0.20000000000000009 -3.0170294886497686
v 94.674394776118476 0.20000000000000009 0.38297012988050483
v 94.174394776118476 0.20000000000000009 0.38297012988050483
v 92.274397064936835 0.20000000000000009 0.38297012988050483
v 92.274397064936835 0.20000000000000009 7.7329705113502314
v 84.224397827876288 0.20000000000000009 7.7329705113502314
v 84.224397827876288 0.20000000000000009 13.932970320615368
v 84.524397064936835 0.20000000000000009 13.932970320615368
v 84.524397064936835 0.20000000000000009 14.732970511350231
v 84.224397827876288 0.20000000000000009 14.732970511350231
v 84.224397827876288 0.20000000000000009 15.732943808469372
v 95.824396301997382 0.20000000000000009 15.732943808469372
v 95.824396301997382 0.20000000000000009 14.732970511350231
v 95.674394776118476 0.20000000000000009 14.732970511350231
v 95.674394776118476 0.20000000000000009 13.932970320615368
v 95.824396301997382 0.20000000000000009 13.932970320615368
v 95.824396301997382 0.20000000000000009 7.7329705113502314
v 95.674394776118476 0.20000000000000009 7.7329705113502314
v 95.674394776118476 0.20000000000000009 3.9829705113502314
v 95.974397827876288 0.20000000000000009 3.9829705113502314
v 95.974397827876288 0.20000000000000009 -0.66702910718004205
v 95.874395539057929 0.20000000000000009 -0.66702910718004205
v 95.874395539057929 0.20000000000000009 -0.86702987011949517
v 96.374395539057929 0.20000000000000009 -0.86702987011949517
v 96.374395539057929 0.20000000000000009 -0.66702910718004205
v 96.174394776118476 0.20000000000000009 -0.66702910718004205
v 96.174394776118476 0.20000000000000009 3.9829705113502314
v 96.174394776118476 0.20000000000000009 7.7329705113502314
v 96.024397064936835 0.20000000000000009 7.7329705113502314
v 96.024397064936835 0.20000000000000009 13.932970320615368
v 96.174394776118476 0.20000000000000009 13.932970320615368
v 96.174394776118476 0.20000000000000009 14.732970511350231
v 96.024397064936835 0.20000000000000009 14.732970511350231
v 96.024397064936835 0.20000000000000009 15.732943808469372
v 104.57439630199738 0.20000000000000009 15.732943808469372
v 104.57439630199738 0.20000000000000009 14.8329704159828
v 104.42439477611848 0.20000000000000009 14.8329704159828
v 104.42439477611848 0.20000000000000009 13.8329704159828
v 104.57439630199738 0.20000000000000009 13.8329704159828
v 104.57439630199738 0.20000000000000009 8.2329705113502314
v 103.42439477611848 0.20000000000000009 8.2329705113502314
v 102.82439630199738 0.20000000000000009 8.2329705113502314
v 102.82439630199738 0.20000000000000009 5.5829704159827998
v 102.82439630199738 0.20000000000000009 2.9829705113502314
v 102.82439630199738 0.20000000000000009 0.53297070208509467
v 102.82439630199738 0.20000000000000009 -0.36702987011949517
v 100.49939553905793 0.20000000000000009 -0.36702987011949517
v 100.49939553905793 0.20000000000000009 -0.66702910718004205
v 98.174394776118476 0.20000000000000009 -0.66702910718004205
v 98.174394776118476 0.20000000000000009 -0.86702987011949517
v 100.49939553905793 0.20000000000000009 -0.86702987011949517
v 104.64939706493684 0.20000000000000009 -0.86702987011949517
v 108.72439782787629 0.20000000000000009 -0.86702987011949517
v 108.72439782787629 0.20000000000000009 -0.66702910718004205
v 104.64939706493684 0.20000000000000009 -0.66702910718004205
v 104.64939706493684 0.20000000000000009 -0.36702987011949517
v 103.02439706493684 0.20000000000000009 -0.36702987011949517
v 103.02439706493684 0.20000000000000009 0.53297070208509467
v 103.42439477611848 0.20000000000000009 0.53297070208509467
v 103.42439477611848 0.20000000000000009 2.9829705113502314
v 103.02439706493684 0.20000000000000009 2.9829705113502314
v 103.02439706493684 0.20000000000000009 5.5829704159827998
v 103.42439477611848 0.20000000000000009 5.5829704159827998
v 103.42439477611848 0.20000000000000009 8.0329705232711603
v 104.77439706493684 0.20000000000000009 8.0329705232711603
v 104.77439706493684 0.20000000000000009 13.8329704159828
v 104.92439477611848 0.20000000000000009 13.8329704159828
v 104.92439477611848 0.20000000000000009 14.8329704159828
v 104.77439706493684 0.20000000000000009 14.8329704159828
v 104.77439706493684 0.20000000000000009 15.732943808469372
v 112.97439782787629 0.20000000000000009 15.732943808469372
v 112.97439782787629 0.20000000000000009 14.8329704159828
v 112.87439935375519 0.20000000000000009 14.8329704159828
v 112.87439935375519 0.20000000000000009 13.8329704159828
v 112.97439782787629 0.20000000000000009 13.8329704159828
v 112.97439782787629 0.20000000000000009 10.5829704159828
v 112.97439782787629 0.20000000000000009 10.282970463666516
v 112.97439782787629 0.20000000000000009 5.6829705590339472
v 111.32439630199738 0.20000000000000009 5.6829705590339472
v 111.32439630199738 0.20000000000000009 7.2329705113502314
v 110.72439782787629 0.20000000000000009 7.2329705113502314
v 110.72439782787629 0.20000000000000009 4.9829705113502314
v 111.12439935375519 0.20000000000000009 4.9829705113502314
v 111.12439935375519 0.20000000000000009 2.9829705113502314
v 110.72439782787629 0.20000000000000009 2.9829705113502314
v 110.72439782787629 0.20000000000000009 -0.86702987011949517
v 111.32439630199738 0.20000000000000009 -0.86702987011949517
v 111.32439630199738 0.20000000000000009 4.6829705590339472
v 112.97439782787629 0.20000000000000009 4.6829705590339472
v 113.27439325023957 0.20000000000000009 4.6829705590339472
v 113.27439325023957 0.20000000000000009 4.9829705113502314
v 113.17439477611848 0.20000000000000009 4.9829705113502314
v 113.17439477611848 0.20000000000000009 10.282970463666516
v 113.27439325023957 0.20000000000000009 10.282970463666516
v 113.27439325023957 0.20000000000000009 10.5829704159828
v 113.17439477611848 0.20000000000000009 10.5829704159828
v 113.17439477611848 0.20000000000000009 13.8329704159828
v 113.37439935375519 0.20000000000000009 13.8329704159828
v 113.37439935375519 0.20000000000000009 13.832917487058239
v 115.97439782787629 0.20000000000000009 13.832917487058239
v 115.97439782787629 0.20000000000000009 15.732943808469372
v 125.35439508129426 0.20000000000000009 -9.2670294886497686
v 121.47439782787629 0.20000000000000009 -9.2670294886497686
v 121.17439477611848 0.20000000000000009 -9.2670294886497686
v 121.17439477611848 0.20000000000000009 -6.5670296793846319
v 121.17439477611848 0.20000000000000009 -5.9670292979149053
v 120.37439935375519 0.20000000000000009 -5.9670292979149053
v 120.37439935375519 0.20000000000000009 -6.5670296793846319
v 120.37439935375519 0.20000000000000009 -6.7170292979149053
v 119.17439477611848 0.20000000000000009 -6.7170292979149053
v 119.17439477611848 0.20000000000000009 -6.2170292979149053
v 119.34939782787629 0.20000000000000009 -6.2170292979149053
v 119.34939782787629 0.20000000000000009 -6.0170294886497686
v 117.22195642162629 0.20000000000000009 -6.0170294886497686
v 117.22195642162629 0.20000000000000009 -6.2170292979149053
v 118.97439782787629 0.20000000000000009 -6.2170292979149053
v 118.97439782787629 0.20000000000000009 -6.917029107180042
v 120.97439782787629 0.20000000000000009 -6.917029107180042
v 120.97439782787629 0.20000000000000009 -9.2670294886497686
v 120.87439935375519 0.20000000000000009 -9.2670294886497686
v 120.87439935375519 0.20000000000000009 -9.5670287257103155
v 121.47439782787629 0.20000000000000009 -9.5670287257103155
v 125.35439508129426 0.20000000000000009 -9.5670287257103155
v 125.35439508129426 0.20000000000000009 -48.817028725710315
v 121.37439935375519 0.20000000000000009 -48.817028725710315
v 121.37439935375519 0.20000000000000009 -48.467030251589222
v 120.37439935375519 0.20000000000000009 -48.467030251589222
v 120.37439935375519 0.20000000000000009 -48.817028725710315
v 114.02439325023957 0.20000000000000009 -48.817028725710315
v 114.02439325023957 0.20000000000000009 -45.667031014528675
v 113.12439935375519 0.20000000000000009 -45.667031014528675
v 113.12439935375519 0.20000000000000009 -42.067028725710315
v 113.42439477611848 0.20000000000000009 -42.067028725710315
v 113.42439477611848 0.20000000000000009 -41.267029488649769
v 113.12439935375519 0.20000000000000009 -41.267029488649769
v 113.12439935375519 0.20000000000000009 -36.967030251589222
v 113.42439477611848 0.20000000000000009 -36.967030251589222
v 113.42439477611848 0.20000000000000009 -36.167031014528675
v 113.12439935375519 0.20000000000000009 -36.167031014528675
v 113.12439935375519 0.20000000000000009 -28.867027962770862
v 113.42439477611848 0.20000000000000009 -28.867027962770862
v 113.42439477611848 0.20000000000000009 -28.067028725710315
v 113.12439935375519 0.20000000000000009 -28.067028725710315
v 113.12439935375519 0.20000000000000009 -23.967030251589222
v 113.42439477611848 0.20000000000000009 -23.967030251589222
v 113.42439477611848 0.20000000000000009 -22.967030251589222
v 113.12439935375519 0.20000000000000009 -22.967030251589222
v 113.12439935375519 0.20000000000000009 -9.0170294886497686
v 114.22439782787629 0.20000000000000009 -9.0170294886497686
v 114.22439782787629 0.20000000000000009 -8.6162802821067999
v 114.02439325023957 0.20000000000000009 -8.6162802821067999
v 114.02439325023957 0.20000000000000009 -8.8170287257103155
v 112.92439477611848 0.20000000000000009 -8.8170287257103155
v 112.92439477611848 0.20000000000000009 -22.967030251589222
v 112.92439477611848 0.20000000000000009 -23.967030251589222
v 112.92439477611848 0.20000000000000009 -28.067028725710315
v 112.92439477611848 0.20000000000000009 -28.867027962770862
v 112.92439477611848 0.20000000000000009 -36.167031014528675
v 112.92439477611848 0.20000000000000009 -36.967030251589222
v 112.92439477611848 0.20000000000000009 -41.267029488649769
v 112.92439477611848 0.20000000000000009 -42.067028725710315
v 112.92439477611848 0.20000000000000009 -48.367027962770862
v 112.92439477611848 0.20000000000000009 -49.167031014528675
v 113.42439477611848 0.20000000000000009 -49.167031014528675
v 113.42439477611848 0.20000000000000009 -49.017029488649769
v 117.67439477611848 0.20000000000000009 -49.017029488649769
v 117.67439477611848 0.20000000000000009 -49.117027962770862
v 117.87439935375519 0.20000000000000009 -49.117027962770862
v 117.87439935375519 0.20000000000000009 -49.017029488649769
v 120.37439935375519 0.20000000000000009 -49.017029488649769
v 120.37439935375519 0.20000000000000009 -49.067028725710315
v 121.37439935375519 0.20000000000000009 -49.067028725710315
v 121.37439935375519 0.20000000000000009 -49.017029488649769
v 125.35439508129426 0.20000000000000009 -49.017029488649769
v 125.35439508129426 0.20000000000000009 -52.867027962770862
v 124.82439630199738 0.20000000000000009 -52.867027962770862
v 124.82439630199738 0.20000000000000009 -53.967030251589222
v 120.87439935375519 0.20000000000000009 -53.967030251589222
v 120.87439935375519 0.20000000000000009 -53.367027962770862
v 120.57439630199738 0.20000000000000009 -53.367027962770862
v 120.57439630199738 0.20000000000000009 -50.967030251589222
v 117.87439935375519 0.20000000000000009 -50.967030251589222
v 117.87439935375519 0.20000000000000009 -50.217030251589222
v 117.67439477611848 0.20000000000000009 -50.217030251589222
v 117.67439477611848 0.20000000000000009 -53.167031014528675
v 112.92439477611848 0.20000000000000009 -53.167031014528675
v 112.92439477611848 0.20000000000000009 -53.367027962770862
v 112.92439477611848 0.20000000000000009 -54.167031014528675
v 113.42439477611848 0.20000000000000009 -54.167031014528675
v 113.42439477611848 0.20000000000000009 -53.367027962770862
v 116.12439935375519 0.20000000000000009 -53.367027962770862
v 116.12439935375519 0.20000000000000009 -54.167031014528675
v 116.32439630199738 0.20000000000000009 -54.167031014528675
v 116.32439630199738 0.20000000000000009 -53.367027962770862
v 116.92439477611848 0.20000000000000009 -53.367027962770862
v 116.92439477611848 0.20000000000000009 -54.167031014528675
v 120.37439935375519 0.20000000000000009 -54.167031014528675
v 120.87439935375519 0.20000000000000009 -54.167031014528675
v 125.35439508129426 0.20000000000000009 -54.167031014528675
v 99.724397827876288 0.20000000000000009 -55.166908944216175
v 99.724397827876288 0.20000000000000009 -40.017029488649769
v 99.924394776118476 0.20000000000000009 -40.017029488649769
v 99.924394776118476 0.20000000000000009 -39.817028725710315
v 98.874395539057929 0.20000000000000009 -39.817028725710315
v 92.174394776118476 0.20000000000000009 -8.7170302515892217
v 81.274397064936835 0.20000000000000009 -8.7170302515892217
v 81.274397064936835 0.20000000000000009 -5.1170298701194952
v 80.774397064936835 0.20000000000000009 -5.1170298701194952
v 80.774397064936835 0.20000000000000009 -9.2170302515892217
v 92.174394776118476 0.20000000000000009 -9.2170302515892217
v 88.474397827876288 0.20000000000000009 -12.817028725710315
v 87.974397827876288 0.20000000000000009 -12.817028725710315
v 87.974397827876288 0.20000000000000009 -16.817028725710315
v 88.473005463374335 0.20000000000000009 -16.817028725710315
v 94.174394776118476 0.20000000000000009 -28.467030251589222
v 86.134496857417304 0.20000000000000009 -28.467030251589222
v 86.134496857417304 0.20000000000000009 -28.867027962770862
v 91.159433533442694 0.20000000000000009 -28.867027962770862
v 91.159433533442694 0.20000000000000009 -36.167031014528675
v 86.134496857417304 0.20000000000000009 -36.167031014528675
v 86.134496857417304 0.20000000000000009 -36.567028725710315
v 94.174394776118476 0.20000000000000009 -36.567028725710315
v 94.174394776118476 0.20000000000000009 -36.167031014528675
v 91.163957764399726 0.20000000000000009 -36.167031014528675
v 91.163957764399726 0.20000000000000009 -28.867027962770862
v 94.174394776118476 0.20000000000000009 -28.867027962770862
v 61.924396683467116 0.20000000000000009 -54.167031014528675
v 62.424396683467116 0.20000000000000009 -54.167031014528675
v 62.424396683467116 0.20000000000000009 -53.367027962770862
v 61.924396683467116 0.20000000000000009 -53.367027962770862
v 70.424396683467108 0.20000000000000009 -53.367027962770862
v 70.424396683467108 0.20000000000000009 -54.167031014528675
v 70.924396683467108 0.20000000000000009 -54.167031014528675
v 70.924396683467108 0.20000000000000009 -53.367027962770862
v 76.424396683467108 0.20000000000000009 -12.817028725710315
v 76.424396683467108 0.20000000000000009 -16.817028725710315
v 76.924396683467108 0.20000000000000009 -16.817028725710315
v 76.924396683467108 0.20000000000000009 -12.817028725710315
v 61.924396683467116 0.20000000000000009 -49.167031014528675
v 62.424396683467116 0.20000000000000009 -49.167031014528675
v 62.424396683467116 0.20000000000000009 -48.367027962770862
v 61.924396683467116 0.20000000000000009 -48.367027962770862
v 70.424396683467108 0.20000000000000009 -49.167031014528675
v 70.924396683467108 0.20000000000000009 -49.167031014528675
v 70.924396683467108 0.20000000000000009 -48.367027962770862
v 70.424396683467108 0.20000000000000009 -48.367027962770862
v 78.924394776118476 0.20000000000000009 -48.367027962770862
v 78.924394776118476 0.20000000000000009 -49.167031014528675
v 79.424394776118476 0.20000000000000009 -49.167031014528675
v 79.424394776118476 0.20000000000000009 -48.367027962770862
v 87.424394776118476 0.20000000000000009 -41.267029488649769
v 87.424394776118476 0.20000000000000009 -42.067028725710315
v 87.924394776118476 0.20000000000000009 -42.067028725710315
v 87.924394776118476 0.20000000000000009 -41.267029488649769
v 70.424396683467108 0.20000000000000009 13.932970320615368
v 70.924396683467108 0.20000000000000009 13.932970320615368
v 70.924396683467108 0.20000000000000009 14.732970511350231
v 70.424396683467108 0.20000000000000009 14.732970511350231
v 53.074396301997389 0.20000000000000009 -25.517029488649769
v 53.074396301997389 0.20000000000000009 -26.017029488649769
v 54.074396301997389 0.20000000000000009 -26.017029488649769
v 54.074396301997389 0.20000000000000009 -25.517029488649769
v 61.874396492732252 0.20000000000000009 -32.317028725710315
v 61.874396492732252 0.20000000000000009 -32.717030251589222
v 62.874395539057936 0.20000000000000009 -32.717030251589222
v 62.874395539057936 0.20000000000000009 -32.317028725710315
v 61.774396111262526 0.20000000000000009 -25.517029488649769
v 61.774396111262526 0.20000000000000009 -26.017029488649769
v 62.774397064936842 0.20000000000000009 -26.017029488649769
v 62.774397064936842 0.20000000000000009 -25.517029488649769
v 70.424396683467108 0.20000000000000009 -23.767029488649769
v 70.924396683467108 0.20000000000000009 -23.767029488649769
v 70.924396683467108 0.20000000000000009 -22.967030251589222
v 70.424396683467108 0.20000000000000009 -22.967030251589222
v 78.924394776118476 0.20000000000000009 -22.967030251589222
v 78.924394776118476 0.20000000000000009 -23.767029488649769
v 79.424394776118476 0.20000000000000009 -23.767029488649769
v 79.424394776118476 0.20000000000000009 -22.967030251589222
v 87.424394776118476 0.20000000000000009 -22.967030251589222
v 87.424394776118476 0.20000000000000009 -23.767029488649769
v 87.924394776118476 0.20000000000000009 -23.767029488649769
v 87.924394776118476 0.20000000000000009 -22.967030251589222
v 80.674394776118476 0.20000000000000009 2.7829707020850947
v 80.674394776118476 0.20000000000000009 2.1829703206153681
v 80.974397827876288 0.20000000000000009 2.1829703206153681
v 80.974397827876288 0.20000000000000009 2.7829707020850947
v 62.524397064936842 0.20000000000000009 -8.167029107180042
v 62.524397064936842 0.20000000000000009 -8.7170302515892217
v 62.524397064936842 0.20000000000000009 -9.2170302515892217
v 67.224395920527655 0.20000000000000009 -9.2170302515892217
v 67.224395920527655 0.20000000000000009 -8.7170302515892217
v 63.024397064936842 0.20000000000000009 -8.7170302515892217
v 63.024397064936842 0.20000000000000009 -5.5170294886497686
v 64.324396301997382 0.20000000000000009 -5.5170294886497686
v 67.329395462763983 0.20000000000000009 -5.5170294886497686
v 67.329395462763983 0.20000000000000009 -5.2170292979149053
v 64.324396301997382 0.20000000000000009 -5.2170292979149053
v 63.024397064936842 0.20000000000000009 -5.2170292979149053
v 63.024397064936842 0.20000000000000009 -5.1170298701194952
v 62.524397064936842 0.20000000000000009 -5.1170298701194952
v 62.524397064936842 0.20000000000000009 -7.9670302515892217
v 56.699396301997389 0.20000000000000009 -7.9670302515892217
v 52.699396301997389 0.20000000000000009 -7.9670302515892217
v 52.699396301997389 0.20000000000000009 -8.4670302515892217
v 56.699396301997389 0.20000000000000009 -8.4670302515892217
v 56.699396301997389 0.20000000000000009 -8.167029107180042
v 87.674394776118476 0.20000000000000009 -5.2170292979149053
v 87.674394776118476 0.20000000000000009 -7.417029107180042
v 87.974397827876288 0.20000000000000009 -7.417029107180042
v 87.974397827876288 0.20000000000000009 -5.2170292979149053
v 84.074396301997382 0.20000000000000009 -16.817028725710315
v 84.674394776118476 0.20000000000000009 -16.817028725710315
v 84.674394776118476 0.20000000000000009 -10.717030251589222
v 84.074396301997382 0.20000000000000009 -10.717030251589222
v 52.699396301997389 0.20000000000000009 -0.21702929791490533
v 52.699396301997389 0.20000000000000009 -0.81702967938463189
v 56.699396301997389 0.20000000000000009 -0.81702967938463189
v 56.699396301997389 0.20000000000000009 -0.21702929791490533
v 70.424396683467108 0.20000000000000009 -36.167031014528675
v 70.424396683467108 0.20000000000000009 -36.567028725710315
v 71.424396683467108 0.20000000000000009 -36.567028725710315
v 71.424396683467108 0.20000000000000009 -36.167031014528675
v 78.674394776118476 0.20000000000000009 -36.167031014528675
v 78.674394776118476 0.20000000000000009 -36.567028725710315
v 79.674394776118476 0.20000000000000009 -36.567028725710315
v 79.674394776118476 0.20000000000000009 -36.167031014528675
v 70.424396683467108 0.20000000000000009 -28.467030251589222
v 70.424396683467108 0.20000000000000009 -28.867027962770862
v 71.424396683467108 0.20000000000000009 -28.867027962770862
v 71.424396683467108 0.20000000000000009 -28.467030251589222
v 78.674394776118476 0.20000000000000009 -28.867027962770862
v 79.674394776118476 0.20000000000000009 -28.867027962770862
v 79.674394776118476 0.20000000000000009 -28.467030251589222
v 78.674394776118476 0.20000000000000009 -28.467030251589222
v 61.524396111262526 0.20000000000000009 -16.617029870119495
v 61.524396111262526 0.20000000000000009 -12.817028725710315
v 61.024396111262526 0.20000000000000009 -12.817028725710315
v 61.024396111262526 0.20000000000000009 -16.617029870119495
v 58.299458672297682 0.20000000000000009 -16.617029870119495
v 58.299458672297682 0.20000000000000009 -16.817028725710315
v 61.024396111262526 0.20000000000000009 -16.817028725710315
v 61.524396111262526 0.20000000000000009 -16.817028725710315
v 68.724395920527655 0.20000000000000009 -16.817028725710315
v 69.224395920527655 0.20000000000000009 -16.817028725710315
v 69.224395920527655 0.20000000000000009 -12.817028725710315
v 68.724395920527655 0.20000000000000009 -12.817028725710315
v 68.724395920527655 0.20000000000000009 -15.017029488649769
v 68.074396301997382 0.20000000000000009 -15.017029488649769
v 68.074396301997382 0.20000000000000009 -16.617029870119495
v 54.374396492732252 0.20000000000000009 -16.617029870119495
v 54.374396492732252 0.20000000000000009 -14.417029107180042
v 53.774396111262526 0.20000000000000009 -14.417029107180042
v 53.774396111262526 0.20000000000000009 -17.317028725710315
v 54.174396683467116 0.20000000000000009 -17.317028725710315
v 54.174396683467116 0.20000000000000009 -20.587029183473987
v 54.374396492732252 0.20000000000000009 -20.587029183473987
v 54.374396492732252 0.20000000000000009 -17.317028725710315
v 54.374396492732252 0.20000000000000009 -16.817028725710315
v 56.499458481562819 0.20000000000000009 -16.817028725710315
v 56.499458481562819 0.20000000000000009 -16.617029870119495
v 79.424394776118476 0.20000000000000009 -54.167031014528675
v 79.424394776118476 0.20000000000000009 -53.967030251589222
v 79.424394776118476 0.20000000000000009 -53.367027962770862
v 78.924394776118476 0.20000000000000009 -53.367027962770862
v 78.924394776118476 0.20000000000000009 -54.167031014528675
v 53.424396206629957 0.20000000000000009 14.682970320615368
v 53.424396206629957 0.20000000000000009 14.182970320615368
v 55.674396683467116 0.20000000000000009 14.182970320615368
v 55.674396683467116 0.20000000000000009 14.682970320615368
v 53.474396397364821 0.20000000000000009 9.7829704636665156
v 53.474396397364821 0.20000000000000009 9.4829705113502314
v 53.774396111262526 0.20000000000000009 9.4829705113502314
v 53.774396111262526 0.20000000000000009 9.7829704636665156
v 59.074396301997389 0.20000000000000009 9.7829704636665156
v 59.074396301997389 0.20000000000000009 9.4829705113502314
v 59.374396492732252 0.20000000000000009 9.4829705113502314
v 59.374396492732252 0.20000000000000009 9.7829704636665156
v 83.446535279048163 0.20000000000000009 -5.2170292979149053
v 83.446535279048163 0.20000000000000009 -5.5170294886497686
v 83.646524597895819 0.20000000000000009 -5.5170294886497686
v 83.646524597895819 0.20000000000000009 -5.417029107180042
v 84.474397827876288 0.20000000000000009 -5.417029107180042
v 84.474397827876288 0.20000000000000009 -6.5170294886497686
v 84.674394776118476 0.20000000000000009 -6.5170294886497686
v 84.674394776118476 0.20000000000000009 -5.417029107180042
v 85.574396301997382 0.20000000000000009 -5.417029107180042
v 85.574396301997382 0.20000000000000009 -5.2170292979149053
v 96.174394776118476 0.20000000000000009 -12.817028725710315
v 95.674394776118476 0.20000000000000009 -12.817028725710315
v 95.674394776118476 0.20000000000000009 -16.817028725710315
v 96.174394776118476 0.20000000000000009 -16.817028725710315
v 96.674394776118476 0.20000000000000009 -28.467030251589222
v 95.674394776118476 0.20000000000000009 -28.467030251589222
v 95.674394776118476 0.20000000000000009 -28.867027962770862
v 96.674394776118476 0.20000000000000009 -28.867027962770862
v 96.674394776118476 0.20000000000000009 -36.167031014528675
v 95.674394776118476 0.20000000000000009 -36.167031014528675
v 95.674394776118476 0.20000000000000009 -36.567028725710315
v 96.674394776118476 0.20000000000000009 -36.567028725710315
v 95.924394776118476 0.20000000000000009 -41.267029488649769
v 95.924394776118476 0.20000000000000009 -42.067028725710315
v 96.424394776118476 0.20000000000000009 -42.067028725710315
v 96.424394776118476 0.20000000000000009 -41.267029488649769
v 87.424394776118476 0.20000000000000009 14.732970511350231
v 87.424394776118476 0.20000000000000009 13.932970320615368
v 87.924394776118476 0.20000000000000009 13.932970320615368
v 87.924394776118476 0.20000000000000009 14.732970511350231
v 89.269395996821601 0.20000000000000009 -5.5170294886497686
v 92.324396301997382 0.20000000000000009 -5.5170294886497686
v 92.324396301997382 0.20000000000000009 -5.2170292979149053
v 89.269395996821601 0.20000000000000009 -5.2170292979149053
v 94.086862732661444 0.20000000000000009 -32.481381142702503
v 94.174394776118476 0.20000000000000009 -32.510559762087269
v 94.174394776118476 0.20000000000000009 -32.452202523317737
v 94.474397827876288 0.20000000000000009 -5.2170292979149053
v 93.424394776118476 0.20000000000000009 -5.2170292979149053
v 93.424394776118476 0.20000000000000009 -5.5170294886497686
v 94.174394776118476 0.20000000000000009 -5.5170294886497686
v 94.174394776118476 0.20000000000000009 -8.7170302515892217
v 93.474397827876288 0.20000000000000009 -8.7170302515892217
v 93.474397827876288 0.20000000000000009 -9.2170302515892217
v 94.674394776118476 0.20000000000000009 -9.2170302515892217
v 94.674394776118476 0.20000000000000009 -8.7170302515892217
v 94.674394776118476 0.20000000000000009 -5.5170294886497686
v 94.674394776118476 0.20000000000000009 -5.2170292979149053
v 94.674394776118476 0.20000000000000009 -5.0170294886497686
v 94.474397827876288 0.20000000000000009 -5.0170294886497686
v 104.42439477611848 0.20000000000000009 -54.167031014528675
v 104.92439477611848 0.20000000000000009 -54.167031014528675
v 104.92439477611848 0.20000000000000009 -53.367027962770862
v 104.42439477611848 0.20000000000000009 -53.367027962770862
v 120.37439935375519 0.20000000000000009 -39.867027962770862
v 120.37439935375519 0.20000000000000009 -40.667031014528675
v 121.37439935375519 0.20000000000000009 -40.667031014528675
v 121.37439935375519 0.20000000000000009 -39.867027962770862
v 120.37439935375519 0.20000000000000009 -31.367027962770862
v 120.37439935375519 0.20000000000000009 -32.167031014528675
v 121.37439935375519 0.20000000000000009 -32.167031014528675
v 121.37439935375519 0.20000000000000009 -31.367027962770862
v 120.37439935375519 0.20000000000000009 -22.867029870119495
v 120.37439935375519 0.20000000000000009 -23.667031014528675
v 121.37439935375519 0.20000000000000009 -23.667031014528675
v 121.37439935375519 0.20000000000000009 -22.867029870119495
v 97.074396301997382 0.20000000000000009 -15.117029870119495
v 97.074396301997382 0.20000000000000009 -15.617029870119495
v 98.924394776118476 0.20000000000000009 -15.617029870119495
v 98.924394776118476 0.20000000000000009 -15.117029870119495
v 97.074396301997382 0.20000000000000009 -23.017029488649769
v 97.074396301997382 0.20000000000000009 -23.517029488649769
v 98.924394776118476 0.20000000000000009 -23.517029488649769
v 98.924394776118476 0.20000000000000009 -23.017029488649769
v 104.42439477611848 0.20000000000000009 -48.367027962770862
v 104.42439477611848 0.20000000000000009 -49.167031014528675
v 104.92439477611848 0.20000000000000009 -49.167031014528675
v 104.92439477611848 0.20000000000000009 -48.367027962770862
v 104.92439477611848 0.20000000000000009 -39.817028725710315
v 101.02439706493684 0.20000000000000009 -39.817028725710315
v 101.02439706493684 0.20000000000000009 -40.017029488649769
v 104.72439782787629 0.20000000000000009 -40.017029488649769
v 104.72439782787629 0.20000000000000009 -41.267029488649769
v 104.42439477611848 0.20000000000000009 -41.267029488649769
v 104.42439477611848 0.20000000000000009 -42.067028725710315
v 104.92439477611848 0.20000000000000009 -42.067028725710315
v 104.92439477611848 0.20000000000000009 -41.267029488649769
v 120.37439935375519 0.20000000000000009 7.2329705113502314
v 121.37439935375519 0.20000000000000009 7.2329705113502314
v 121.37439935375519 0.20000000000000009 7.8329705351920893
v 120.37439935375519 0.20000000000000009 7.8329705351920893
v 120.62439935375519 0.20000000000000009 14.532970702085095
v 120.62439935375519 0.20000000000000009 13.732970511350231
v 121.12439935375519 0.20000000000000009 13.732970511350231
v 121.12439935375519 0.20000000000000009 14.532970702085095
v 120.37439935375519 0.20000000000000009 -14.517029488649769
v 120.37439935375519 0.20000000000000009 -15.017029488649769
v 121.37439935375519 0.20000000000000009 -15.017029488649769
v 121.37439935375519 0.20000000000000009 -14.517029488649769
v 113.22439782787629 0.20000000000000009 -14.517029488649769
v 113.22439782787629 0.20000000000000009 -15.017029488649769
v 114.22439782787629 0.20000000000000009 -15.017029488649769
v 114.22439782787629 0.20000000000000009 -14.517029488649769
v 115.97439782787629 0.20000000000000009 4.6829705590339472
v 116.27439325023957 0.20000000000000009 4.6829705590339472
v 116.27439325023957 0.20000000000000009 4.9829705113502314
v 115.97439782787629 0.20000000000000009 4.9829705113502314
v 115.97439782787629 0.20000000000000009 10.282970463666516
v 116.27439325023957 0.20000000000000009 10.282970463666516
v 116.27439325023957 0.20000000000000009 10.5829704159828
v 115.97439782787629 0.20000000000000009 10.5829704159828
v 100.49939553905793 0.20000000000000009 -8.0170294886497686
v 100.49939553905793 0.20000000000000009 -8.5170294886497686
v 104.49939553905793 0.20000000000000009 -8.5170294886497686
v 104.49939553905793 0.20000000000000009 -8.0170294886497686
v 103.67439477611848 0.20000000000000009 -36.167031014528675
v 103.67439477611848 0.20000000000000009 -36.567028725710315
v 104.67439477611848 0.20000000000000009 -36.567028725710315
v 104.67439477611848 0.20000000000000009 -36.167031014528675
v 103.67439477611848 0.20000000000000009 -28.467030251589222
v 103.67439477611848 0.20000000000000009 -28.867027962770862
v 104.67439477611848 0.20000000000000009 -28.867027962770862
v 104.67439477611848 0.20000000000000009 -28.467030251589222
v 101.52439706493684 0.20000000000000009 -23.017029488649769
v 101.52439706493684 0.20000000000000009 -23.517029488649769
v 103.77439706493684 0.20000000000000009 -23.517029488649769
v 103.77439706493684 0.20000000000000009 -23.017029488649769
v 114.22439782787629 0.20000000000000009 -0.86702987011949517
v 120.37439935375519 0.20000000000000009 -0.86702987011949517
v 121.37439935375519 0.20000000000000009 -0.86702987011949517
v 121.37439935375519 0.20000000000000009 -0.26702948864976861
v 120.37439935375519 0.20000000000000009 -0.26702948864976861
v 120.37439935375519 0.20000000000000009 -0.66702910718004205
v 113.32439630199738 0.20000000000000009 -0.66702910718004205
v 113.32439630199738 0.20000000000000009 -0.86702987011949517
v 114.02439325023957 0.20000000000000009 -0.86702987011949517
v 114.02439325023957 0.20000000000000009 -2.542029107180042
v 114.22439782787629 0.20000000000000009 -2.542029107180042
v 114.22439782787629 0.20000000000000009 -6.8162791376976202
v 114.22439782787629 0.20000000000000009 -6.5170294886497686
v 114.22439782787629 0.20000000000000009 -6.2170292979149053
v 115.42195336986848 0.20000000000000009 -6.2170292979149053
v 115.42195336986848 0.20000000000000009 -6.0170294886497686
v 114.22439782787629 0.20000000000000009 -6.0170294886497686
v 114.22439782787629 0.20000000000000009 -4.3420292979149053
v 114.02439325023957 0.20000000000000009 -4.3420292979149053
v 114.02439325023957 0.20000000000000009 -6.0170294886497686
v 113.22439782787629 0.20000000000000009 -6.0170294886497686
v 113.22439782787629 0.20000000000000009 -6.5170294886497686
v 114.02439325023957 0.20000000000000009 -6.5170294886497686
v 114.02439325023957 0.20000000000000009 -6.8162791376976202
v 103.12439553905793 0.20000000000000009 -11.417029107180042
v 103.12439553905793 0.20000000000000009 -15.117029870119495
v 103.12439553905793 0.20000000000000009 -15.617029870119495
v 106.32439630199738 0.20000000000000009 -15.617029870119495
v 106.32439630199738 0.20000000000000009 -15.117029870119495
v 106.32439630199738 0.20000000000000009 -11.417029107180042
v 105.92439477611848 0.20000000000000009 -11.417029107180042
v 105.92439477611848 0.20000000000000009 -11.617029870119495
v 106.12439553905793 0.20000000000000009 -11.617029870119495
v 106.12439553905793 0.20000000000000009 -15.117029870119495
v 103.32439630199738 0.20000000000000009 -15.117029870119495
v 103.32439630199738 0.20000000000000009 -11.617029870119495
v 104.82439630199738 0.20000000000000009 -11.617029870119495
v 104.82439630199738 0.20000000000000009 -11.417029107180042
v 89.974397827876288 0.20000000000000009 -39.817028725710315
v 87.424394776118476 0.20000000000000009 -39.817028725710315
v 87.424394776118476 0.20000000000000009 -40.017029488649769
v 89.974397827876288 0.20000000000000009 -40.017029488649769
v 94.124395539057929 0.20000000000000009 -40.017029488649769
v 94.124395539057929 0.20000000000000009 -39.817028725710315
v 91.774397064936835 0.20000000000000009 -39.817028725710315
v 91.774397064936835 0.20000000000000009 -40.017029488649769
v 95.924394776118476 0.20000000000000009 -40.017029488649769
v 97.074396301997382 0.20000000000000009 -40.017029488649769
v 97.074396301997382 0.20000000000000009 -39.817028725710315
v 95.924394776118476 0.20000000000000009 -39.817028725710315
v 88.824396301997382 0.20000000000000009 -51.167031014528675
v 88.424394776118476 0.20000000000000009 -51.167031014528675
v 88.424394776118476 0.20000000000000009 -53.667031014528675
v 88.424394776118476 0.20000000000000009 -54.167031014528675
v 88.824396301997382 0.20000000000000009 -54.167031014528675
v 88.824396301997382 0.20000000000000009 -53.667031014528675
f 775 233 774
f 234 777 774
f 776 781 775
f 252 233 775
f 252 253 233
f 778 779 252
f 775 781 778
f 252 775 778
f 255 233 253
f 776 782 781
f 237 776 777
f 777 236 237
f 237 238 782
f 234 236 777
f 782 776 237
f 780 781 783
f 783 781 782
f 244 245 783
f 238 785 782
f 245 780 783
f 233 234 774
f 250 251 249
f 252 249 251
f 233 255 256
f 258 256 257
f 253 254 255
f 248 779 780
f 248 245 246
f 248 780 245
f 247 248 246
f 259 723 258
f 259 260 726
f 779 248 249
f 779 249 252
f 258 723 256
f 232 233 256
f 239 785 238
f 267 268 276
f 267 264 265
f 266 267 265
f 234 235 236
f 270 271 269
f 272 269 271
f 268 269 272
f 272 273 274
f 785 240 784
f 268 272 274
f 785 239 240
f 268 274 276
f 241 242 244
f 784 241 244
f 784 240 241
f 242 243 244
f 262 263 261
f 308 309 663
f 279 277 278
f 274 275 276
f 267 276 264
f 263 260 261
f 318 307 308
f 244 783 784
f 276 277 264
f 263 285 726
f 259 726 723
f 286 725 726
f 256 724 232
f 711 724 725
f 725 708 710
f 710 711 725
f 263 264 279
f 263 726 260
f 726 285 286
f 285 279 280
f 277 279 264
f 279 285 263
f 725 287 708
f 288 708 287
f 291 288 289
f 280 284 285
f 725 286 287
f 709 710 708
f 232 711 712
f 232 712 231
f 175 176 174
f 230 231 713
f 724 711 232
f 695 713 714
f 697 230 713
f 696 713 695
f 229 230 697
f 745 177 178
f 697 713 696
f 697 698 229
f 713 231 712
f 707 708 288
f 723 724 256
f 705 707 288
f 704 705 288
f 291 289 290
f 222 223 291
f 704 291 223
f 288 291 704
f 223 224 704
f 282 283 284
f 284 280 282
f 306 307 305
f 216 221 292
f 292 221 222
f 293 204 292
f 292 222 291
f 307 304 305
f 280 281 282
f 707 705 706
f 699 702 703
f 700 701 702
f 699 228 698
f 700 702 699
f 703 227 699
f 699 227 228
f 227 224 225
f 227 225 226
f 703 704 224
f 228 229 698
f 703 224 227
f 179 754 744
f 310 666 663
f 665 666 310
f 314 312 313
f 311 312 665
f 665 312 664
f 324 327 328
f 311 665 310
f 326 324 325
f 322 331 321
f 323 324 328
f 316 314 315
f 334 321 331
f 327 324 326
f 323 328 329
f 312 314 664
f 308 664 317
f 317 664 314
f 317 318 308
f 303 304 302
f 298 296 297
f 302 304 318
f 293 294 204
f 318 304 307
f 316 317 314
f 320 335 319
f 319 302 318
f 301 302 385 386
f 692 302 319
f 296 298 299
f 320 334 335
f 320 321 334
f 330 322 323
f 308 663 664
f 331 332 333
f 331 322 330
f 336 694 335
f 340 336 337
f 337 338 340
f 330 323 329
f 418 419 417
f 812 417 419
f 416 414 415
f 813 414 416
f 334 331 333
f 694 691 335
f 691 692 319
f 385 341 342
f 385 693 341
f 693 385 692
f 341 693 694
f 692 385 302
f 338 339 340
f 352 342 343
f 353 356 342
f 342 357 385
f 388 389 786
f 342 356 357
f 385 357 380
f 340 341 694
f 694 336 340
f 301 386 300
f 813 416 417
f 335 691 319
f 216 292 215
f 204 205 215
f 205 214 215
f 218 219 217
f 214 212 213
f 205 212 214
f 221 217 220
f 202 204 295
f 190 191 187
f 189 190 187
f 193 195 196
f 215 292 204
f 188 189 187
f 219 220 217
f 209 211 212
f 209 210 211
f 209 207 208
f 207 209 212
f 187 191 186
f 193 194 195
f 193 196 197
f 197 192 193
f 179 180 181
f 207 212 206
f 186 191 192
f 197 186 192
f 186 197 185
f 206 212 205
f 217 221 216
f 184 299 300
f 201 296 299
f 201 202 295
f 202 203 204
f 199 200 201
f 296 201 295
f 201 299 184
f 184 199 201
f 184 300 183
f 616 183 387
f 300 387 183
f 616 387 388 615
f 616 182 183
f 787 615 786
f 795 715 794
f 615 388 786
f 792 793 794
f 786 389 795
f 387 300 386
f 199 184 198
f 197 198 185
f 181 182 617
f 617 182 616
f 185 198 184
f 617 646 181
f 787 614 615
f 791 788 790
f 789 790 788
f 791 787 788
f 791 792 614
f 614 792 716
f 614 716 613
f 646 617 722
f 787 791 614
f 179 181 643
f 720 721 620
f 294 295 204
f 792 794 716
f 309 310 663
f 174 760 761
f 173 174 761
f 761 763 173
f 763 761 762
f 763 171 173
f 759 760 176
f 176 760 174
f 767 765 766
f 768 758 759
f 763 764 170 171
f 173 171 172
f 167 168 166
f 168 169 156 157
f 176 177 759
f 667 166 168
f 669 163 668
f 166 668 165
f 165 668 163
f 164 165 163
f 144 142 143
f 667 668 166
f 669 162 163
f 670 159 669
f 667 158 670
f 160 162 669
f 162 160 161
f 158 159 670
f 158 667 157
f 157 667 168
f 149 142 144
f 768 759 747
f 745 747 759
f 747 748 767 768
f 170 764 675
f 764 767 748
f 764 765 767
f 764 748 675
f 746 747 745
f 756 743 744
f 754 756 744
f 750 751 678
f 178 744 745
f 757 743 756
f 748 749 675
f 675 749 750
f 759 177 745
f 154 156 169
f 155 156 154
f 676 671 154
f 160 669 159
f 169 170 154
f 154 675 676
f 679 677 678
f 154 170 675
f 671 676 677
f 672 153 671
f 673 727 88
f 674 671 677
f 674 677 736
f 153 154 671
f 675 750 678
f 147 145 146
f 674 727 673
f 744 178 179
f 673 88 672
f 141 149 139
f 141 139 140
f 134 135 136
f 136 128 134
f 139 149 150
f 149 141 142
f 148 145 147
f 149 145 148
f 151 138 150
f 137 127 136
f 126 137 124
f 153 138 151
f 137 126 127
f 137 138 124
f 138 139 150
f 149 144 145
f 127 128 136
f 128 132 133
f 116 118 115
f 119 113 114
f 114 118 119
f 118 114 115
f 119 120 113
f 134 128 133
f 124 125 126
f 131 128 129
f 118 116 117
f 130 131 129
f 128 131 132
f 121 113 120
f 153 151 152
f 95 96 89
f 672 96 153
f 96 124 153
f 97 124 96
f 102 103 97
f 102 100 101
f 98 102 97
f 103 124 97
f 95 93 94
f 89 93 95
f 89 96 88
f 91 92 93
f 100 98 99
f 102 98 100
f 89 90 93
f 104 650 124
f 647 638 122
f 124 122 123
f 122 124 650
f 121 638 635
f 121 122 638
f 113 635 636
f 650 647 122
f 103 104 124
f 649 650 104 105
f 105 106 107
f 647 637 638
f 639 637 648
f 647 648 637
f 640 636 637
f 651 648 649
f 121 635 113
f 105 654 649
f 153 124 138
f 672 88 96
f 112 113 636
f 754 755 756
f 681 682 752
f 677 735 736
f 735 677 679
f 682 679 678
f 682 751 752
f 680 735 679
f 644 753 643
f 752 644 681
f 719 645 646
f 643 753 179
f 683 681 644
f 684 680 681
f 731 730 737
f 738 680 684
f 680 738 735
f 737 738 742 739
f 752 753 644
f 754 179 753
f 736 737 727
f 727 737 730
f 727 728 88
f 728 729 87
f 88 728 87
f 729 730 87
f 727 674 736
f 78 79 86 87
f 730 78 87
f 77 78 730
f 80 81 79
f 68 69 75
f 75 76 77
f 75 77 68
f 83 85 86
f 77 730 731
f 68 77 57
f 683 644 645
f 686 683 645
f 741 742 684
f 738 684 742
f 739 731 737
f 731 732 77
f 731 739 734
f 77 732 57
f 688 685 686
f 686 719 687
f 685 688 624
f 687 719 720
f 719 646 722
f 741 685 624
f 625 740 741
f 42 733 734
f 734 740 628
f 734 739 740
f 628 42 734
f 684 685 741
f 686 645 719
f 56 732 733
f 732 56 57
f 55 56 43 44
f 59 60 67
f 59 67 57
f 54 55 51
f 57 58 59
f 57 67 68
f 42 43 733
f 43 56 733
f 40 38 39
f 45 46 44
f 38 40 37
f 50 55 44
f 952 32 41
f 40 41 34 35
f 42 629 41
f 684 681 683
f 75 69 74
f 74 69 72
f 84 85 83
f 86 79 81
f 72 73 74
f 64 65 66
f 64 66 60
f 60 66 67
f 71 69 70
f 64 62 63
f 61 62 60
f 64 60 62
f 72 69 71
f 654 105 107
f 649 654 651
f 639 640 637
f 642 639 651 652
f 639 648 651
f 112 640 641
f 653 654 107
f 81 82 83
f 653 108 655
f 653 107 108
f 652 653 655 656
f 652 772 642
f 641 642 773
f 83 86 81
f 91 93 90
f 55 50 51
f 46 48 50
f 50 48 49
f 53 54 51
f 48 46 47
f 44 46 50
f 37 40 35
f 32 33 34
f 29 30 31
f 953 31 32
f 35 36 37
f 108 109 655
f 652 656 772
f 656 657 771 772
f 770 112 769
f 657 112 771
f 112 773 769
f 109 110 658 655
f 642 772 773
f 111 658 110
f 28 29 9
f 770 771 112
f 112 658 111
f 657 658 112
f 9 27 28
f 641 773 112
f 659 29 31
f 51 52 53
f 34 41 32
f 636 640 112
f 624 625 741
f 682 678 751
f 643 181 646
f 812 813 417
f 348 346 347
f 345 352 343
f 345 346 351 352
f 346 348 351
f 414 813 363
f 342 352 353
f 813 814 363
f 413 363 814
f 362 363 364
f 364 365 366
f 351 348 349
f 423 814 815
f 812 419 815
f 364 366 361
f 351 349 350
f 355 353 354
f 361 362 364
f 376 377 375
f 359 375 377
f 375 361 372
f 359 360 361
f 380 378 379
f 377 378 358 359
f 375 359 361
f 375 372 374
f 371 361 366
f 355 356 353
f 421 422 420
f 422 423 815
f 425 426 423
f 423 413 814
f 423 424 425
f 426 413 423
f 440 441 442
f 446 450 439
f 439 440 445 446
f 436 437 438
f 451 436 450
f 439 436 438
f 436 439 450
f 445 440 442
f 367 368 369
f 371 367 369
f 371 372 361
f 370 371 369
f 374 372 373
f 426 427 413
f 367 371 366
f 427 412 413
f 435 436 451
f 412 427 411
f 434 435 433
f 451 452 435
f 428 410 427
f 383 381 382
f 420 422 815
f 815 419 420
f 435 452 455
f 358 378 380
f 380 381 384
f 384 385 380
f 380 357 358
f 395 396 397
f 400 395 397
f 383 384 381
f 398 400 397
f 404 402 403
f 400 401 394 395
f 399 400 398
f 405 392 402
f 393 394 392
f 715 391 718
f 795 390 715
f 391 819 718
f 613 717 816
f 718 816 717
f 816 718 819
f 613 716 717
f 715 390 391
f 715 716 794
f 818 819 392
f 401 402 392
f 392 405 818
f 405 824 818
f 816 817 613
f 828 613 817
f 824 817 818
f 817 824 825
f 825 828 817
f 819 391 392
f 394 401 392
f 620 721 619
f 795 389 390
f 410 430 431
f 404 405 402
f 431 409 410
f 428 429 410
f 429 430 410
f 433 435 457
f 457 435 455
f 456 457 455
f 458 432 457
f 433 457 432
f 409 432 458
f 409 431 432
f 897 459 900
f 427 410 411
f 458 459 897
f 407 405 406
f 407 835 824
f 834 835 407
f 835 823 824
f 827 828 826
f 826 828 825
f 405 407 824
f 407 408 834
f 458 834 408
f 409 458 408
f 833 834 897
f 897 831 832
f 831 897 898
f 897 832 833
f 898 830 831
f 458 897 834
f 455 453 454
f 828 618 613
f 453 455 452
f 722 617 721
f 476 477 478
f 450 446 449
f 444 445 443
f 447 448 446
f 442 443 445
f 482 476 481
f 479 481 476
f 481 479 480
f 479 476 478
f 484 475 482
f 475 476 482
f 483 484 482
f 475 473 474
f 448 449 446
f 484 489 473
f 489 490 473
f 473 471 472
f 490 471 473
f 471 468 470
f 489 485 488
f 485 489 484
f 487 488 486
f 496 497 919
f 468 471 490
f 502 499 500 501
f 475 484 473
f 491 493 490
f 507 505 506
f 503 504 505
f 503 507 896
f 507 508 896
f 503 505 507
f 503 896 502
f 877 878 508
f 877 508 509
f 879 880 1
f 877 1 880
f 877 509 1
f 895 876 894
f 878 876 895
f 878 895 508
f 878 879 876
f 875 879 1
f 508 895 896
f 488 485 486
f 896 893 502
f 893 892 502
f 498 499 892 889
f 502 892 499
f 891 876 873
f 1 874 875
f 891 894 876
f 917 890 873
f 873 890 891
f 892 893 891
f 890 919 889
f 916 873 874
f 891 893 894
f 876 879 875
f 497 498 919
f 874 1 916
f 890 917 919
f 470 468 469
f 464 467 468
f 467 465 466
f 465 467 464
f 464 468 462
f 493 494 462
f 464 462 463
f 493 491 492
f 494 461 462
f 922 920 921
f 920 495 919
f 919 495 496
f 493 462 468
f 493 468 490
f 900 460 461
f 933 461 494
f 461 933 900
f 561 899 900
f 942 899 561
f 559 560 561
f 934 561 900
f 937 898 899
f 495 931 494
f 460 900 459
f 933 494 931
f 922 931 495
f 933 931 932
f 922 923 930 931
f 936 934 935
f 936 559 561
f 559 936 924 558
f 934 936 561
f 900 933 934
f 922 495 920
f 923 914 522
f 522 930 923
f 930 928 929
f 522 523 927 928
f 522 928 930
f 914 923 913
f 916 510 915
f 919 917 918
f 515 521 914
f 914 521 522
f 520 521 515
f 914 514 515
f 514 914 915
f 514 915 510
f 919 498 889
f 927 925 926
f 924 925 927
f 523 558 927
f 558 525 557
f 558 924 927
f 525 558 523
f 515 516 520
f 516 518 520
f 517 518 516
f 529 557 525
f 513 511 512
f 523 524 525
f 520 518 519
f 526 528 525
f 513 514 510
f 917 873 916
f 885 556 557
f 916 1 510
f 690 621 622
f 720 621 687
f 688 689 624
f 689 857 623
f 690 687 621
f 689 623 624
f 798 690 622
f 686 687 688
f 797 618 829
f 828 829 618
f 829 830 797
f 796 797 830
f 619 618 797
f 619 798 622
f 690 857 689
f 801 623 857
f 856 690 798
f 798 619 797
f 634 623 801 802
f 618 721 617
f 721 618 619
f 628 625 626
f 628 629 42
f 951 629 630
f 627 628 626
f 952 629 951
f 632 633 820
f 625 628 740
f 822 820 634
f 803 821 822
f 802 822 634
f 631 820 821
f 957 951 630
f 630 631 805 806
f 631 632 820
f 630 806 956
f 631 821 805
f 634 820 633
f 630 956 957
f 621 720 620
f 852 796 855
f 937 855 796
f 853 799 852
f 854 799 853
f 854 859 799
f 856 799 859
f 856 857 690
f 854 855 938 939
f 799 856 798
f 909 858 859
f 909 859 854
f 909 939 912
f 939 940 912
f 854 939 909
f 949 947 948
f 937 938 855
f 796 830 898
f 901 804 803
f 803 804 821
f 902 807 804
f 805 821 804
f 807 962 806
f 906 803 800
f 803 822 802
f 905 800 858
f 905 910 911
f 909 910 858
f 910 905 858
f 905 906 800
f 906 907 901
f 902 804 901
f 902 864 865
f 901 803 906
f 857 858 800
f 801 857 800
f 956 806 962
f 908 905 911
f 799 796 852
f 898 937 796
f 902 611 807
f 662 659 953
f 659 31 953
f 953 954 662
f 660 29 659
f 660 8 9
f 29 660 9
f 953 32 952
f 957 958 954 951
f 958 809 661
f 959 955 962
f 661 954 958
f 809 8 661
f 14 15 963
f 955 809 958
f 661 8 660
f 662 954 661
f 14 12 13
f 964 12 14
f 965 24 11
f 10 11 24 25
f 25 26 27
f 24 966 23
f 964 11 12
f 25 27 10
f 11 964 965
f 17 968 963
f 963 964 14
f 23 966 967
f 967 17 18
f 967 968 17
f 23 967 18
f 24 965 966
f 17 963 15
f 22 23 18
f 955 959 808
f 27 9 10
f 961 962 807
f 612 961 807
f 612 3 961
f 808 959 811
f 811 960 3
f 961 3 960
f 959 960 811
f 3 810 811
f 955 808 809
f 865 866 610 611
f 865 611 902
f 860 609 870
f 866 870 610
f 866 869 870
f 867 869 866
f 610 870 609
f 810 3 4
f 955 956 962
f 860 608 609
f 5 6 7
f 809 810 7
f 15 16 17
f 19 20 21
f 7 810 5
f 7 8 809
f 860 861 608
f 5 810 4
f 608 861 839
f 608 839 836
f 837 608 836
f 838 839 861
f 19 21 22
f 18 19 22
f 870 871 863 860
f 611 612 807
f 562 911 912
f 629 952 41
f 943 944 949 950
f 937 899 950
f 950 899 943
f 946 949 944
f 944 945 946
f 949 946 947
f 941 942 561
f 887 554 886
f 886 555 556
f 940 941 561
f 562 563 911
f 886 554 555
f 940 561 562
f 908 911 563
f 885 886 556
f 940 562 912
f 908 565 907
f 564 908 563
f 565 904 907
f 566 903 904
f 864 903 567
f 869 867 868
f 565 908 564
f 907 904 901
f 552 553 550 551
f 566 567 903
f 548 549 546 547
f 864 567 568
f 565 566 904
f 529 525 528
f 884 881 529
f 557 529 888
f 887 848 554
f 881 887 888
f 887 881 882
f 881 888 529
f 882 848 887
f 557 888 885
f 526 527 528
f 531 884 530
f 851 883 531
f 531 883 884
f 884 529 530
f 883 851 882
f 851 531 850
f 851 848 882
f 553 554 848 849
f 550 553 849
f 844 549 550
f 546 840 545
f 546 549 845
f 550 849 844
f 847 844 850
f 849 850 844
f 532 846 847
f 850 531 847
f 542 545 840
f 843 840 845
f 843 845 846
f 845 840 546
f 846 532 843
f 549 844 845
f 544 545 542 543
f 531 532 847
f 942 943 899
f 841 542 840
f 872 864 568
f 569 872 568
f 569 863 871
f 863 569 570
f 569 871 872
f 570 571 862 863
f 538 541 841
f 539 540 541
f 572 573 574 575
f 538 539 541
f 538 535 537
f 594 862 571
f 838 862 594
f 596 837 838
f 838 595 596
f 595 838 594
f 2 608 596
f 571 572 594
f 862 838 861
f 594 592 593
f 601 602 603
f 597 598 599 600
f 2 597 600
f 601 2 600
f 601 603 604
f 592 594 572
f 597 2 596
f 841 541 542
f 537 535 536
f 578 579 577
f 576 577 579
f 576 591 592 575
f 572 575 592
f 532 534 842
f 534 532 533
f 532 842 843
f 580 589 579
f 581 582 580
f 591 576 579
f 842 534 535
f 841 535 538
f 582 584 580
f 591 589 590
f 589 591 579
f 2 604 605
f 588 589 587
f 585 587 584
f 589 584 587
f 584 589 580
f 586 587 585
f 607 2 606
f 605 606 2
f 584 582 583
f 601 604 2
f 535 841 842
f 837 596 608
f 864 902 903
f 511 513 510
f 344 345 343
