# Rhino

o object_1
v 127.72439782787629 0.20000000000000009 -54.167031014528675
v 126.72439782787629 0.20000000000000009 -54.167031014528675
v 126.72439782787629 0.20000000000000009 -53.367027962770862
v 126.72555749584504 0.20000000000000009 -53.367027962770862
v 126.72555749584504 0.20000000000000009 -49.017029488649769
v 126.72439782787629 0.20000000000000009 -49.017029488649769
v 126.72439782787629 0.20000000000000009 -48.517029488649769
v 126.42439477611848 0.20000000000000009 -48.517029488649769
v 125.92439477611848 0.20000000000000009 -48.517029488649769
v 125.92439477611848 0.20000000000000009 -49.017029488649769
v 126.52555291820832 0.20000000000000009 -49.017029488649769
v 126.52555291820832 0.20000000000000009 -51.267029488649769
v 124.44939630199738 0.20000000000000009 -51.267029488649769
v 124.44939630199738 0.20000000000000009 -51.467030251589222
v 126.32439630199738 0.20000000000000009 -51.467030251589222
v 126.32439630199738 0.20000000000000009 -53.367027962770862
v 126.22439782787629 0.20000000000000009 -53.367027962770862
v 126.22439782787629 0.20000000000000009 -53.767029488649769
v 120.87439935375519 0.20000000000000009 -53.767029488649769
v 120.87439935375519 0.20000000000000009 -53.367027962770862
v 120.77439325023957 0.20000000000000009 -53.367027962770862
v 120.77439325023957 0.20000000000000009 -51.867027962770862
v 121.42439477611848 0.20000000000000009 -51.867027962770862
v 121.42439477611848 0.20000000000000009 -51.467030251589222
v 122.64939325023957 0.20000000000000009 -51.467030251589222
v 122.64939325023957 0.20000000000000009 -51.267029488649769
v 120.57439630199738 0.20000000000000009 -51.267029488649769
v 120.57439630199738 0.20000000000000009 -50.267029488649769
v 118.42439477611848 0.20000000000000009 -50.267029488649769
v 118.42439477611848 0.20000000000000009 -50.467030251589222
v 120.37439935375519 0.20000000000000009 -50.467030251589222
v 120.37439935375519 0.20000000000000009 -53.367027962770862
v 120.37439935375519 0.20000000000000009 -53.967030251589222
v 117.12439935375519 0.20000000000000009 -53.967030251589222
v 117.12439935375519 0.20000000000000009 -50.467030251589222
v 117.32439630199738 0.20000000000000009 -50.467030251589222
v 117.32439630199738 0.20000000000000009 -50.267029488649769
v 116.92439477611848 0.20000000000000009 -50.267029488649769
v 116.92439477611848 0.20000000000000009 -53.367027962770862
v 116.12439935375519 0.20000000000000009 -53.367027962770862
v 116.12439935375519 0.20000000000000009 -53.967030251589222
v 113.42439477611848 0.20000000000000009 -53.967030251589222
v 113.42439477611848 0.20000000000000009 -53.367027962770862
v 112.92439477611848 0.20000000000000009 -53.367027962770862
v 112.92439477611848 0.20000000000000009 -53.867027962770862
v 112.92439477611848 0.20000000000000009 -54.167031014528675
v 104.92439477611848 0.20000000000000009 -54.167031014528675
v 104.92439477611848 0.20000000000000009 -53.867027962770862
v 104.92439477611848 0.20000000000000009 -53.367027962770862
v 104.42439477611848 0.20000000000000009 -53.367027962770862
v 104.42439477611848 0.20000000000000009 -53.867027962770862
v 104.42439477611848 0.20000000000000009 -54.167031014528675
v 89.024397064936835 0.20000000000000009 -54.167031014528675
v 89.024397064936835 0.20000000000000009 -53.767029488649769
v 88.824396301997382 0.20000000000000009 -53.767029488649769
v 88.824396301997382 0.20000000000000009 -49.867027962770862
v 88.924429108393866 0.20000000000000009 -49.867027962770862
v 88.924429108393866 0.20000000000000009 -49.467030251589222
v 88.824396301997382 0.20000000000000009 -49.467030251589222
v 88.424394776118476 0.20000000000000009 -49.467030251589222
v 88.424394776118476 0.20000000000000009 -53.867027962770862
v 88.424394776118476 0.20000000000000009 -54.167031014528675
v 79.424394776118476 0.20000000000000009 -54.167031014528675
v 79.424394776118476 0.20000000000000009 -53.867027962770862
v 79.424394776118476 0.20000000000000009 -53.367027962770862
v 78.924394776118476 0.20000000000000009 -53.367027962770862
v 78.924394776118476 0.20000000000000009 -53.867027962770862
v 78.924394776118476 0.20000000000000009 -54.167031014528675
v 70.924396683467108 0.20000000000000009 -54.167031014528675
v 70.924396683467108 0.20000000000000009 -53.867027962770862
v 70.924396683467108 0.20000000000000009 -53.367027962770862
v 70.424396683467108 0.20000000000000009 -53.367027962770862
v 70.424396683467108 0.20000000000000009 -53.867027962770862
v 70.424396683467108 0.20000000000000009 -54.167031014528675
v 62.424396683467116 0.20000000000000009 -54.167031014528675
v 62.424396683467116 0.20000000000000009 -53.867027962770862
v 62.424396683467116 0.20000000000000009 -53.367027962770862
v 62.124395539057936 0.20000000000000009 -53.367027962770862
v 62.124395539057936 0.20000000000000009 -51.267029488649769
v 58.859396149409498 0.20000000000000009 -51.267029488649769
v 58.859396149409498 0.20000000000000009 -51.467030251589222
v 61.924396683467116 0.20000000000000009 -51.467030251589222
v 61.924396683467116 0.20000000000000009 -53.367027962770862
v 61.924396683467116 0.20000000000000009 -53.767029488649769
v 53.994396378291334 0.20000000000000009 -53.767029488649769
v 53.994396378291334 0.20000000000000009 -51.467030251589222
v 57.059395958674635 0.20000000000000009 -51.467030251589222
v 57.059395958674635 0.20000000000000009 -51.267029488649769
v 53.994396378291334 0.20000000000000009 -51.267029488649769
v 53.994396378291334 0.20000000000000009 -49.467030251589222
v 53.594396282923903 0.20000000000000009 -49.467030251589222
v 52.844896485102858 0.20000000000000009 -49.467030251589222
v 52.844896485102858 0.20000000000000009 -49.867027962770862
v 52.944396187556471 0.20000000000000009 -49.867027962770862
v 52.944396187556471 0.20000000000000009 -53.767029488649769
v 52.844396282923903 0.20000000000000009 -53.767029488649769
v 52.344396282923903 0.20000000000000009 -53.767029488649769
v 52.344396282923903 0.20000000000000009 -54.167031014528675
v 46.776586641562666 0.20000000000000009 -54.167031014528675
v 46.776586641562666 0.20000000000000009 -32.717030251589222
v 48.674396206629957 0.20000000000000009 -32.717030251589222
v 48.674396206629957 0.20000000000000009 -38.917031014528675
v 48.874396254313673 0.20000000000000009 -38.917031014528675
v 48.874396254313673 0.20000000000000009 -36.117027962770862
v 53.074396301997389 0.20000000000000009 -36.117027962770862
v 53.074396301997389 0.20000000000000009 -34.067028725710315
v 52.874396492732252 0.20000000000000009 -34.067028725710315
v 52.874396492732252 0.20000000000000009 -35.917031014528675
v 48.874396254313673 0.20000000000000009 -35.917031014528675
v 48.874396254313673 0.20000000000000009 -32.717030251589222
v 52.874396492732252 0.20000000000000009 -32.717030251589222
v 52.874396492732252 0.20000000000000009 -32.967030251589222
v 53.074396301997389 0.20000000000000009 -32.967030251589222
v 53.074396301997389 0.20000000000000009 -32.717030251589222
v 53.174396206629957 0.20000000000000009 -32.717030251589222
v 54.174396683467116 0.20000000000000009 -32.717030251589222
v 54.174396683467116 0.20000000000000009 -32.317028725710315
v 54.074396301997389 0.20000000000000009 -32.317028725710315
v 54.074396301997389 0.20000000000000009 -30.867027962770862
v 53.874396492732252 0.20000000000000009 -30.867027962770862
v 53.874396492732252 0.20000000000000009 -32.317028725710315
v 53.174396206629957 0.20000000000000009 -32.317028725710315
v 53.174396206629957 0.20000000000000009 -32.517029488649769
v 46.776586641562666 0.20000000000000009 -32.517029488649769
v 46.776586641562666 0.20000000000000009 -9.5670287257103155
v 53.774396111262526 0.20000000000000009 -9.5670287257103155
v 53.774396111262526 0.20000000000000009 -11.717030251589222
v 53.774396111262526 0.20000000000000009 -12.167029107180042
v 53.974396397364821 0.20000000000000009 -12.167029107180042
v 53.974396397364821 0.20000000000000009 -11.717030251589222
v 54.374396492732252 0.20000000000000009 -11.717030251589222
v 54.374396492732252 0.20000000000000009 -9.3670298701194952
v 53.974396397364821 0.20000000000000009 -9.3670298701194952
v 53.974396397364821 0.20000000000000009 -8.4670302515892217
v 55.699396301997389 0.20000000000000009 -8.4670302515892217
v 55.699396301997389 0.20000000000000009 -7.9670302515892217
v 55.699396301997389 0.20000000000000009 -7.7670294886497686
v 55.499396492732252 0.20000000000000009 -7.7670294886497686
v 55.499396492732252 0.20000000000000009 -7.9670302515892217
v 52.699396301997389 0.20000000000000009 -7.9670302515892217
v 52.699396301997389 0.20000000000000009 -7.9810301905540655
v 51.124396492732252 0.20000000000000009 -7.9810301905540655
v 51.124396492732252 0.20000000000000009 -0.81702967938463189
v 52.699396301997389 0.20000000000000009 -0.81702967938463189
v 55.499396492732252 0.20000000000000009 -0.81702967938463189
v 55.499396492732252 0.20000000000000009 -6.667029107180042
v 55.699396301997389 0.20000000000000009 -6.667029107180042
v 55.699396301997389 0.20000000000000009 -0.81702967938463189
v 55.699396301997389 0.20000000000000009 -0.31702967938463189
v 54.074396301997389 0.20000000000000009 -0.31702967938463189
v 54.074396301997389 0.20000000000000009 -0.11702987011949517
v 53.874396492732252 0.20000000000000009 -0.11702987011949517
v 53.874396492732252 0.20000000000000009 -0.31702967938463189
v 52.699396301997389 0.20000000000000009 -0.31702967938463189
v 52.699396301997389 0.20000000000000009 -0.61702987011949517
v 51.124396492732252 0.20000000000000009 -0.61702987011949517
v 51.124396492732252 0.20000000000000009 6.2829704636665156
v 53.874396492732252 0.20000000000000009 6.2829704636665156
v 53.874396492732252 0.20000000000000009 0.98297051135023139
v 54.074396301997389 0.20000000000000009 0.98297051135023139
v 54.074396301997389 0.20000000000000009 6.2829704636665156
v 54.074396301997389 0.20000000000000009 6.7829704636665156
v 54.074396301997389 0.20000000000000009 10.643925463590222
v 53.224396397364821 0.20000000000000009 10.643925463590222
v 53.224396397364821 0.20000000000000009 10.443925415906506
v 53.874396492732252 0.20000000000000009 10.443925415906506
v 53.874396492732252 0.20000000000000009 6.7829704636665156
v 50.874396492732252 0.20000000000000009 6.7829704636665156
v 50.874396492732252 0.20000000000000009 6.2829704636665156
v 50.924396206629957 0.20000000000000009 6.2829704636665156
v 50.924396206629957 0.20000000000000009 -8.1810290461448858
v 52.699396301997389 0.20000000000000009 -8.1810290461448858
v 52.699396301997389 0.20000000000000009 -8.4670302515892217
v 53.774396111262526 0.20000000000000009 -8.4670302515892217
v 53.774396111262526 0.20000000000000009 -9.3670298701194952
v 46.776586641562666 0.20000000000000009 -9.3670298701194952
v 46.776586641562666 0.20000000000000009 10.443925415906506
v 51.424396206629957 0.20000000000000009 10.443925415906506
v 51.424396206629957 0.20000000000000009 10.643925463590222
v 49.674396206629957 0.20000000000000009 10.643925463590222
v 49.674396206629957 0.20000000000000009 10.843925511273937
v 49.474396397364821 0.20000000000000009 10.843925511273937
v 49.474396397364821 0.20000000000000009 10.643925463590222
v 46.776586641562666 0.20000000000000009 10.643925463590222
v 46.776586641562666 0.20000000000000009 14.382970606717663
v 49.474396397364821 0.20000000000000009 14.382970606717663
v 49.474396397364821 0.20000000000000009 11.943925415906506
v 49.674396206629957 0.20000000000000009 11.943925415906506
v 49.674396206629957 0.20000000000000009 14.382970606717663
v 51.424396206629957 0.20000000000000009 14.382970606717663
v 51.424396206629957 0.20000000000000009 14.5829704159828
v 46.776586641562666 0.20000000000000009 14.5829704159828
v 46.776586641562666 0.20000000000000009 19.632970129880505
v 53.424396206629957 0.20000000000000009 19.632970129880505
v 53.424396206629957 0.20000000000000009 19.032970702085095
v 53.424396206629957 0.20000000000000009 14.682970320615368
v 53.424396206629957 0.20000000000000009 14.5829704159828
v 53.224396397364821 0.20000000000000009 14.5829704159828
v 53.224396397364821 0.20000000000000009 14.382970606717663
v 53.424396206629957 0.20000000000000009 14.382970606717663
v 53.424396206629957 0.20000000000000009 14.182970320615368
v 55.674396683467116 0.20000000000000009 14.182970320615368
v 55.674396683467116 0.20000000000000009 14.682970320615368
v 53.624396492732252 0.20000000000000009 14.682970320615368
v 53.624396492732252 0.20000000000000009 19.032970702085095
v 53.924396206629957 0.20000000000000009 19.032970702085095
v 53.924396206629957 0.20000000000000009 19.633042609128552
v 59.224395920527662 0.20000000000000009 19.633031165036755
v 59.224395920527662 0.20000000000000009 19.132970129880505
v 59.424396683467116 0.20000000000000009 19.132970129880505
v 59.424396683467116 0.20000000000000009 19.632970129880505
v 61.924396683467116 0.20000000000000009 19.632970129880505
v 61.924396683467116 0.20000000000000009 19.032970702085095
v 62.424396683467116 0.20000000000000009 19.032970702085095
v 62.424396683467116 0.20000000000000009 19.632970129880505
v 65.474395920527655 0.20000000000000009 19.632970129880505
v 65.474395920527655 0.20000000000000009 14.632970606717663
v 64.874395539057929 0.20000000000000009 14.632970606717663
v 64.874395539057929 0.20000000000000009 14.432970320615368
v 65.874395539057929 0.20000000000000009 14.432970320615368
v 65.874395539057929 0.20000000000000009 14.632970606717663
v 65.674396683467108 0.20000000000000009 14.632970606717663
v 65.674396683467108 0.20000000000000009 19.632970129880505
v 70.424396683467108 0.20000000000000009 19.632970129880505
v 70.424396683467108 0.20000000000000009 19.032970702085095
v 70.924396683467108 0.20000000000000009 19.032970702085095
v 70.924396683467108 0.20000000000000009 19.632970129880505
v 72.874395539057929 0.20000000000000009 19.632970129880505
v 72.874395539057929 0.20000000000000009 14.132970606717663
v 70.924396683467108 0.20000000000000009 14.132970606717663
v 70.924396683467108 0.20000000000000009 14.732970511350231
v 70.424396683467108 0.20000000000000009 14.732970511350231
v 70.424396683467108 0.20000000000000009 14.132970606717663
v 68.524397064936835 0.20000000000000009 14.132970606717663
v 68.524397064936835 0.20000000000000009 14.632970606717663
v 67.674396683467108 0.20000000000000009 14.632970606717663
v 67.674396683467108 0.20000000000000009 14.432970320615368
v 68.324396301997382 0.20000000000000009 14.432970320615368
v 68.324396301997382 0.20000000000000009 13.932970320615368
v 70.424396683467108 0.20000000000000009 13.932970320615368
v 70.924396683467108 0.20000000000000009 13.932970320615368
v 76.424396683467108 0.20000000000000009 13.932970320615368
v 76.924396683467108 0.20000000000000009 13.932970320615368
v 77.924396683467108 0.20000000000000009 13.932970320615368
v 77.924396683467108 0.20000000000000009 14.432970320615368
v 78.124395539057929 0.20000000000000009 14.432970320615368
v 78.124395539057929 0.20000000000000009 14.632970606717663
v 77.724395920527655 0.20000000000000009 14.632970606717663
v 77.724395920527655 0.20000000000000009 14.132970606717663
v 76.924396683467108 0.20000000000000009 14.132970606717663
v 76.924396683467108 0.20000000000000009 14.732970511350231
v 76.424396683467108 0.20000000000000009 14.732970511350231
v 76.424396683467108 0.20000000000000009 14.132970606717663
v 73.074396301997382 0.20000000000000009 14.132970606717663
v 73.074396301997382 0.20000000000000009 19.632970129880505
v 76.424396683467108 0.20000000000000009 19.632970129880505
v 76.424396683467108 0.20000000000000009 19.032970702085095
v 76.924396683467108 0.20000000000000009 19.032970702085095
v 76.924396683467108 0.20000000000000009 19.632970129880505
v 80.124395539057929 0.20000000000000009 19.632970129880505
v 80.124395539057929 0.20000000000000009 14.632970606717663
v 79.924394776118476 0.20000000000000009 14.632970606717663
v 79.924394776118476 0.20000000000000009 14.432970320615368
v 80.324396301997382 0.20000000000000009 14.432970320615368
v 80.324396301997382 0.20000000000000009 19.632970129880505
v 80.324396301997382 0.20000000000000009 19.632985388669567
v 84.024397064936835 0.20000000000000009 19.632977759275036
v 84.024397064936835 0.20000000000000009 19.632970129880505
v 84.024397064936835 0.20000000000000009 19.032970702085095
v 84.524397064936835 0.20000000000000009 19.032970702085095
v 84.524397064936835 0.20000000000000009 19.63297680560072
v 87.424394776118476 0.20000000000000009 19.632970129880505
v 87.424394776118476 0.20000000000000009 19.032970702085095
v 87.724397827876288 0.20000000000000009 19.032970702085095
v 87.724397827876288 0.20000000000000009 14.732970511350231
v 87.424394776118476 0.20000000000000009 14.732970511350231
v 87.424394776118476 0.20000000000000009 13.932970320615368
v 87.924394776118476 0.20000000000000009 13.932970320615368
v 87.924394776118476 0.20000000000000009 14.432970320615368
v 88.124395539057929 0.20000000000000009 14.432970320615368
v 88.124395539057929 0.20000000000000009 14.632970606717663
v 87.924394776118476 0.20000000000000009 14.632970606717663
v 87.924394776118476 0.20000000000000009 14.732970511350231
v 87.924394776118476 0.20000000000000009 19.032970702085095
v 87.924394776118476 0.20000000000000009 19.632969176206188
v 95.674394776118476 0.20000000000000009 19.632952010068493
v 95.674394776118476 0.20000000000000009 19.032970702085095
v 95.824396301997382 0.20000000000000009 19.032970702085095
v 95.824396301997382 0.20000000000000009 14.732970511350231
v 95.674394776118476 0.20000000000000009 14.732970511350231
v 95.674394776118476 0.20000000000000009 14.132970606717663
v 90.324396301997382 0.20000000000000009 14.132970606717663
v 90.324396301997382 0.20000000000000009 14.632970606717663
v 89.924394776118476 0.20000000000000009 14.632970606717663
v 89.924394776118476 0.20000000000000009 14.432970320615368
v 90.124395539057929 0.20000000000000009 14.432970320615368
v 90.124395539057929 0.20000000000000009 13.932970320615368
v 95.674394776118476 0.20000000000000009 13.932970320615368
v 96.174394776118476 0.20000000000000009 13.932970320615368
v 102.22439782787629 0.20000000000000009 13.932970320615368
v 102.22439782787629 0.20000000000000009 14.432970320615368
v 102.42439477611848 0.20000000000000009 14.432970320615368
v 102.42439477611848 0.20000000000000009 14.632970606717663
v 102.02439706493684 0.20000000000000009 14.632970606717663
v 102.02439706493684 0.20000000000000009 14.132970606717663
v 96.174394776118476 0.20000000000000009 14.132970606717663
v 96.174394776118476 0.20000000000000009 14.732970511350231
v 96.024397064936835 0.20000000000000009 14.732970511350231
v 96.024397064936835 0.20000000000000009 19.032970702085095
v 96.174394776118476 0.20000000000000009 19.032970702085095
v 96.174394776118476 0.20000000000000009 19.632951056394177
v 104.42439477611848 0.20000000000000009 19.632933890256481
v 104.42439477611848 0.20000000000000009 19.032970702085095
v 104.42439477611848 0.20000000000000009 14.8329704159828
v 104.42439477611848 0.20000000000000009 14.632970606717663
v 104.22439782787629 0.20000000000000009 14.632970606717663
v 104.22439782787629 0.20000000000000009 14.432970320615368
v 104.42439477611848 0.20000000000000009 14.432970320615368
v 104.42439477611848 0.20000000000000009 13.8329704159828
v 104.92439477611848 0.20000000000000009 13.8329704159828
v 104.92439477611848 0.20000000000000009 14.8329704159828
v 104.62439553905793 0.20000000000000009 14.8329704159828
v 104.62439553905793 0.20000000000000009 19.032970702085095
v 104.92439477611848 0.20000000000000009 19.032970702085095
v 104.92439477611848 0.20000000000000009 19.532970702085095
v 104.92439477611848 0.20000000000000009 19.632932936582165
v 112.87439935375519 0.20000000000000009 19.63291577044447
v 112.87439935375519 0.20000000000000009 19.532970702085095
v 112.87439935375519 0.20000000000000009 19.032970702085095
v 113.07439630199738 0.20000000000000009 19.032970702085095
v 113.07439630199738 0.20000000000000009 18.632970129880505
v 113.27439325023957 0.20000000000000009 18.632970129880505
v 113.27439325023957 0.20000000000000009 19.032970702085095
v 113.37439935375519 0.20000000000000009 19.032970702085095
v 113.37439935375519 0.20000000000000009 19.632913863095837
v 118.77439325023957 0.20000000000000009 19.63290241900404
v 118.77439325023957 0.20000000000000009 14.182970320615368
v 118.17439477611848 0.20000000000000009 14.182970320615368
v 118.17439477611848 0.20000000000000009 13.982970511350231
v 120.62439935375519 0.20000000000000009 13.982970511350231
v 120.62439935375519 0.20000000000000009 13.732970511350231
v 121.12439935375519 0.20000000000000009 13.732970511350231
v 121.12439935375519 0.20000000000000009 13.982970511350231
v 121.47439782787629 0.20000000000000009 13.982970511350231
v 121.47439782787629 0.20000000000000009 14.182970320615368
v 121.12439935375519 0.20000000000000009 14.182970320615368
v 121.12439935375519 0.20000000000000009 14.532970702085095
v 120.62439935375519 0.20000000000000009 14.532970702085095
v 120.62439935375519 0.20000000000000009 14.182970320615368
v 118.97439782787629 0.20000000000000009 14.182970320615368
v 118.97439782787629 0.20000000000000009 19.63290241900404
v 120.42439477611848 0.20000000000000009 19.632899557981091
v 120.42439477611848 0.20000000000000009 19.032970702085095
v 120.92439477611848 0.20000000000000009 19.032970702085095
v 120.92439477611848 0.20000000000000009 19.632897650632458
v 125.92439477611848 0.20000000000000009 19.632887160214977
v 125.92439477611848 0.20000000000000009 19.332970892819958
v 126.52439325023957 0.20000000000000009 19.332970892819958
v 126.52439325023957 0.20000000000000009 14.382970606717663
v 125.92439477611848 0.20000000000000009 14.382970606717663
v 125.92439477611848 0.20000000000000009 14.182970320615368
v 123.27439325023957 0.20000000000000009 14.182970320615368
v 123.27439325023957 0.20000000000000009 13.982970511350231
v 125.92439477611848 0.20000000000000009 13.982970511350231
v 125.92439477611848 0.20000000000000009 13.882970606717663
v 126.42439477611848 0.20000000000000009 13.882970606717663
v 126.72439782787629 0.20000000000000009 13.882970606717663
v 126.72439782787629 0.20000000000000009 14.382970606717663
v 126.72439782787629 0.20000000000000009 19.332970892819958
v 126.72439782787629 0.20000000000000009 19.632885252866345
v 127.72439782787629 0.20000000000000009 19.632883345517712
v 120.37439935375519 0.20000000000000009 -48.467030251589222
v 120.37439935375519 0.20000000000000009 -49.067028725710315
v 121.37439935375519 0.20000000000000009 -49.067028725710315
v 121.37439935375519 0.20000000000000009 -48.467030251589222
v 120.37439935375519 0.20000000000000009 -39.867027962770862
v 120.37439935375519 0.20000000000000009 -40.667031014528675
v 121.37439935375519 0.20000000000000009 -40.667031014528675
v 121.37439935375519 0.20000000000000009 -39.867027962770862
v 120.37439935375519 0.20000000000000009 -31.367027962770862
v 120.37439935375519 0.20000000000000009 -32.167031014528675
v 121.37439935375519 0.20000000000000009 -32.167031014528675
v 121.37439935375519 0.20000000000000009 -31.367027962770862
v 120.37439935375519 0.20000000000000009 -22.867029870119495
v 120.37439935375519 0.20000000000000009 -23.667031014528675
v 121.37439935375519 0.20000000000000009 -23.667031014528675
v 121.37439935375519 0.20000000000000009 -22.867029870119495
v 95.994394470942694 0.20000000000000009 -49.867027962770862
v 95.544397522700507 0.20000000000000009 -49.867027962770862
v 95.244394470942694 0.20000000000000009 -49.867027962770862
v 95.244394470942694 0.20000000000000009 -53.767029488649769
v 95.544397522700507 0.20000000000000009 -53.767029488649769
v 95.994394470942694 0.20000000000000009 -53.767029488649769
v 61.524396111262526 0.20000000000000009 7.7329705113502314
v 61.024396111262526 0.20000000000000009 7.7329705113502314
v 61.024396111262526 0.20000000000000009 3.9829705113502314
v 61.524396111262526 0.20000000000000009 3.9829705113502314
v 76.924396683467108 0.20000000000000009 7.7329705113502314
v 76.424396683467108 0.20000000000000009 7.7329705113502314
v 76.424396683467108 0.20000000000000009 3.9829705113502314
v 76.924396683467108 0.20000000000000009 3.9829705113502314
v 88.474397827876288 0.20000000000000009 7.7329705113502314
v 87.974397827876288 0.20000000000000009 7.7329705113502314
v 87.974397827876288 0.20000000000000009 3.9829705113502314
v 88.474397827876288 0.20000000000000009 3.9829705113502314
v 111.32439630199738 0.20000000000000009 7.2329705113502314
v 110.72439782787629 0.20000000000000009 7.2329705113502314
v 110.72439782787629 0.20000000000000009 4.9829705113502314
v 111.32439630199738 0.20000000000000009 4.9829705113502314
v 76.424396683467108 0.20000000000000009 -16.817028725710315
v 76.924396683467108 0.20000000000000009 -16.817028725710315
v 76.924396683467108 0.20000000000000009 -12.817028725710315
v 76.424396683467108 0.20000000000000009 -12.817028725710315
v 87.974397827876288 0.20000000000000009 -16.817028725710315
v 88.474397827876288 0.20000000000000009 -16.817028725710315
v 88.474397827876288 0.20000000000000009 -12.817028725710315
v 87.974397827876288 0.20000000000000009 -12.817028725710315
v 60.124396492732252 0.20000000000000009 6.2829704636665156
v 60.124396492732252 0.20000000000000009 6.7829704636665156
v 58.274396111262526 0.20000000000000009 6.7829704636665156
v 58.274396111262526 0.20000000000000009 6.2829704636665156
v 61.924396683467116 0.20000000000000009 14.182970320615368
v 61.924396683467116 0.20000000000000009 13.932970320615368
v 62.424396683467116 0.20000000000000009 13.932970320615368
v 62.424396683467116 0.20000000000000009 14.432970320615368
v 63.074396301997389 0.20000000000000009 14.432970320615368
v 63.074396301997389 0.20000000000000009 14.632970606717663
v 62.424396683467116 0.20000000000000009 14.632970606717663
v 62.424396683467116 0.20000000000000009 14.732970511350231
v 62.024396111262526 0.20000000000000009 14.732970511350231
v 62.024396111262526 0.20000000000000009 16.932970320615368
v 59.574396301997389 0.20000000000000009 16.932970320615368
v 59.574396301997389 0.20000000000000009 14.682970320615368
v 59.424396683467116 0.20000000000000009 14.682970320615368
v 59.424396683467116 0.20000000000000009 17.332970892819958
v 59.224395920527662 0.20000000000000009 17.332970892819958
v 59.224395920527662 0.20000000000000009 14.682970320615368
v 58.274396111262526 0.20000000000000009 14.682970320615368
v 58.274396111262526 0.20000000000000009 14.182970320615368
v 60.124396492732252 0.20000000000000009 14.182970320615368
v 103.12439553905793 0.20000000000000009 -15.117029870119495
v 103.12439553905793 0.20000000000000009 -15.617029870119495
v 106.32439630199738 0.20000000000000009 -15.617029870119495
v 106.32439630199738 0.20000000000000009 -15.117029870119495
v 97.074396301997382 0.20000000000000009 -23.017029488649769
v 97.074396301997382 0.20000000000000009 -23.517029488649769
v 98.924394776118476 0.20000000000000009 -23.517029488649769
v 98.924394776118476 0.20000000000000009 -23.017029488649769
v 63.024397064936842 0.20000000000000009 -2.7170292979149053
v 68.824396301997382 0.20000000000000009 -2.7170292979149053
v 68.824396301997382 0.20000000000000009 -2.917029107180042
v 69.124395539057929 0.20000000000000009 -2.917029107180042
v 69.124395539057929 0.20000000000000009 -2.7170292979149053
v 74.924396683467108 0.20000000000000009 -2.7170292979149053
v 74.924396683467108 0.20000000000000009 -3.0170294886497686
v 74.924389054072577 0.20000000000000009 -3.0170294886497686
v 74.924389054072577 0.20000000000000009 -3.3170296793846319
v 75.12438981701203 0.20000000000000009 -3.3170296793846319
v 75.12438981701203 0.20000000000000009 -3.0170294886497686
v 75.224395920527655 0.20000000000000009 -3.0170294886497686
v 75.449382950556952 0.20000000000000009 -3.0170294886497686
v 75.449382950556952 0.20000000000000009 -2.8170296793846319
v 75.224395920527655 0.20000000000000009 -2.8170296793846319
v 75.224395920527655 0.20000000000000009 -0.41702910718004205
v 75.924396683467108 0.20000000000000009 -0.41702910718004205
v 75.924396683467108 0.20000000000000009 -0.11702987011949517
v 76.024397064936835 0.20000000000000009 -0.11702987011949517
v 76.024397064936835 0.20000000000000009 -0.66702910718004205
v 76.574396301997382 0.20000000000000009 -0.66702910718004205
v 76.574396301997382 0.20000000000000009 -3.0170294886497686
v 77.074396301997382 0.20000000000000009 -3.0170294886497686
v 77.074396301997382 0.20000000000000009 -0.11702987011949517
v 77.074396301997382 0.20000000000000009 0.38297012988050483
v 71.474395920527655 0.20000000000000009 0.38297012988050483
v 71.474395920527655 0.20000000000000009 0.78297070208509467
v 68.874395539057929 0.20000000000000009 0.78297070208509467
v 68.874395539057929 0.20000000000000009 0.38297012988050483
v 62.524397064936842 0.20000000000000009 0.38297012988050483
v 62.524397064936842 0.20000000000000009 -0.11702987011949517
v 62.524397064936842 0.20000000000000009 -3.0170294886497686
v 62.524389435542311 0.20000000000000009 -3.0170294886497686
v 62.524389435542311 0.20000000000000009 -3.3170296793846319
v 62.724388291133131 0.20000000000000009 -3.3170296793846319
v 62.724388291133131 0.20000000000000009 -3.0170294886497686
v 63.024397064936842 0.20000000000000009 -3.0170294886497686
v 63.024397064936842 0.20000000000000009 -2.917029107180042
v 90.824396301997382 0.20000000000000009 -0.66702910718004205
v 90.824396301997382 0.20000000000000009 -0.46702929791490533
v 90.374395539057929 0.20000000000000009 -0.46702929791490533
v 90.374395539057929 0.20000000000000009 -0.11702987011949517
v 91.874395539057929 0.20000000000000009 -0.11702987011949517
v 91.874395539057929 0.20000000000000009 -0.46702929791490533
v 91.424394776118476 0.20000000000000009 -0.46702929791490533
v 91.424394776118476 0.20000000000000009 -0.66702910718004205
v 92.074396301997382 0.20000000000000009 -0.66702910718004205
v 92.074396301997382 0.20000000000000009 -0.11702987011949517
v 94.174394776118476 0.20000000000000009 -0.11702987011949517
v 94.174394776118476 0.20000000000000009 -1.9170214777855108
v 93.074388672602851 0.20000000000000009 -1.9170214777855108
v 93.074388672602851 0.20000000000000009 -2.8170296793846319
v 92.874387909663398 0.20000000000000009 -2.8170296793846319
v 92.874387909663398 0.20000000000000009 -3.0170294886497686
v 93.274389435542304 0.20000000000000009 -3.0170294886497686
v 94.174394776118476 0.20000000000000009 -3.0170294886497686
v 94.674394776118476 0.20000000000000009 -3.0170294886497686
v 94.674394776118476 0.20000000000000009 0.38297012988050483
v 94.174394776118476 0.20000000000000009 0.38297012988050483
v 84.774397064936835 0.20000000000000009 0.38297012988050483
v 84.774397064936835 0.20000000000000009 7.7329705113502314
v 84.274397064936835 0.20000000000000009 7.7329705113502314
v 84.274397064936835 0.20000000000000009 8.0829705053897669
v 84.274397064936835 0.20000000000000009 8.3829705098601153
v 80.974397827876288 0.20000000000000009 8.3829705098601153
v 80.674394776118476 0.20000000000000009 8.3829705098601153
v 80.674394776118476 0.20000000000000009 7.7829705232711603
v 80.674394776118476 0.20000000000000009 2.7829707020850947
v 80.674394776118476 0.20000000000000009 2.1829703206153681
v 80.974397827876288 0.20000000000000009 2.1829703206153681
v 83.967256714595038 0.20000000000000009 2.1829703206153681
v 83.967256714595038 0.20000000000000009 2.4829705113502314
v 83.974397827876288 0.20000000000000009 2.4829705113502314
v 83.974397827876288 0.20000000000000009 0.38297012988050483
v 80.774397064936835 0.20000000000000009 0.38297012988050483
v 80.774397064936835 0.20000000000000009 -0.11702987011949517
v 80.774397064936835 0.20000000000000009 -3.0170294886497686
v 80.774397064936835 0.20000000000000009 -3.3170296793846319
v 80.974397827876288 0.20000000000000009 -3.3170296793846319
v 80.974397827876288 0.20000000000000009 -3.0170294886497686
v 81.274397064936835 0.20000000000000009 -3.0170294886497686
v 81.274397064936835 0.20000000000000009 -2.7170292979149053
v 90.074396301997382 0.20000000000000009 -2.7170292979149053
v 90.074396301997382 0.20000000000000009 -3.0170294886497686
v 90.074388672602851 0.20000000000000009 -3.0170294886497686
v 90.074388672602851 0.20000000000000009 -3.3170296793846319
v 90.274389435542304 0.20000000000000009 -3.3170296793846319
v 90.274389435542304 0.20000000000000009 -3.0170294886497686
v 90.374395539057929 0.20000000000000009 -3.0170294886497686
v 91.774389435542304 0.20000000000000009 -3.0170294886497686
v 91.774389435542304 0.20000000000000009 -2.8170296793846319
v 90.374395539057929 0.20000000000000009 -2.8170296793846319
v 90.374395539057929 0.20000000000000009 -0.66702910718004205
v 61.924396683467116 0.20000000000000009 -49.167031014528675
v 62.424396683467116 0.20000000000000009 -49.167031014528675
v 62.424396683467116 0.20000000000000009 -48.367027962770862
v 61.924396683467116 0.20000000000000009 -48.367027962770862
v 70.424396683467108 0.20000000000000009 -49.167031014528675
v 70.924396683467108 0.20000000000000009 -49.167031014528675
v 70.924396683467108 0.20000000000000009 -48.367027962770862
v 70.424396683467108 0.20000000000000009 -48.367027962770862
v 78.924394776118476 0.20000000000000009 -49.167031014528675
v 79.424394776118476 0.20000000000000009 -49.167031014528675
v 79.424394776118476 0.20000000000000009 -48.367027962770862
v 78.924394776118476 0.20000000000000009 -48.367027962770862
v 104.42439477611848 0.20000000000000009 -49.167031014528675
v 104.92439477611848 0.20000000000000009 -49.167031014528675
v 104.92439477611848 0.20000000000000009 -48.367027962770862
v 104.42439477611848 0.20000000000000009 -48.367027962770862
v 112.92439477611848 0.20000000000000009 -49.167031014528675
v 113.42439477611848 0.20000000000000009 -49.167031014528675
v 113.42439477611848 0.20000000000000009 -48.367027962770862
v 112.92439477611848 0.20000000000000009 -48.367027962770862
v 70.424396683467108 0.20000000000000009 -42.067028725710315
v 70.924396683467108 0.20000000000000009 -42.067028725710315
v 70.924396683467108 0.20000000000000009 -41.267029488649769
v 70.424396683467108 0.20000000000000009 -41.267029488649769
v 78.924394776118476 0.20000000000000009 -42.067028725710315
v 79.424394776118476 0.20000000000000009 -42.067028725710315
v 79.424394776118476 0.20000000000000009 -41.267029488649769
v 78.924394776118476 0.20000000000000009 -41.267029488649769
v 87.424394776118476 0.20000000000000009 -42.067028725710315
v 87.924394776118476 0.20000000000000009 -42.067028725710315
v 87.924394776118476 0.20000000000000009 -41.267029488649769
v 87.424394776118476 0.20000000000000009 -41.267029488649769
v 95.924394776118476 0.20000000000000009 -42.067028725710315
v 96.424394776118476 0.20000000000000009 -42.067028725710315
v 96.424394776118476 0.20000000000000009 -41.267029488649769
v 95.924394776118476 0.20000000000000009 -41.267029488649769
v 104.42439477611848 0.20000000000000009 -42.067028725710315
v 104.92439477611848 0.20000000000000009 -42.067028725710315
v 104.92439477611848 0.20000000000000009 -41.267029488649769
v 104.42439477611848 0.20000000000000009 -41.267029488649769
v 112.92439477611848 0.20000000000000009 -42.067028725710315
v 113.42439477611848 0.20000000000000009 -42.067028725710315
v 113.42439477611848 0.20000000000000009 -41.267029488649769
v 112.92439477611848 0.20000000000000009 -41.267029488649769
v 113.22439782787629 0.20000000000000009 -36.967030251589222
v 113.22439782787629 0.20000000000000009 -37.417031014528675
v 113.42439477611848 0.20000000000000009 -37.417031014528675
v 113.42439477611848 0.20000000000000009 -36.967030251589222
v 113.42439477611848 0.20000000000000009 -36.167031014528675
v 112.92439477611848 0.20000000000000009 -36.167031014528675
v 112.92439477611848 0.20000000000000009 -36.967030251589222
v 113.42439477611848 0.20000000000000009 -28.067028725710315
v 112.92439477611848 0.20000000000000009 -28.067028725710315
v 112.92439477611848 0.20000000000000009 -28.867027962770862
v 113.42439477611848 0.20000000000000009 -28.867027962770862
v 120.37439935375519 0.20000000000000009 7.8329705351920893
v 120.37439935375519 0.20000000000000009 7.2329705113502314
v 121.37439935375519 0.20000000000000009 7.2329705113502314
v 121.37439935375519 0.20000000000000009 7.8329705351920893
v 84.024397064936835 0.20000000000000009 13.932970320615368
v 84.524397064936835 0.20000000000000009 13.932970320615368
v 84.524397064936835 0.20000000000000009 14.732970511350231
v 84.024397064936835 0.20000000000000009 14.732970511350231
v 120.37439935375519 0.20000000000000009 -14.517029488649769
v 120.37439935375519 0.20000000000000009 -15.017029488649769
v 121.37439935375519 0.20000000000000009 -15.017029488649769
v 121.37439935375519 0.20000000000000009 -14.517029488649769
v 112.92439477611848 0.20000000000000009 -23.967030251589222
v 113.42439477611848 0.20000000000000009 -23.967030251589222
v 113.42439477611848 0.20000000000000009 -22.967030251589222
v 112.92439477611848 0.20000000000000009 -22.967030251589222
v 113.22439782787629 0.20000000000000009 -14.517029488649769
v 113.22439782787629 0.20000000000000009 -15.017029488649769
v 114.22439782787629 0.20000000000000009 -15.017029488649769
v 114.22439782787629 0.20000000000000009 -14.517029488649769
v 113.22439782787629 0.20000000000000009 -6.0170294886497686
v 113.22439782787629 0.20000000000000009 -6.5170294886497686
v 114.22439782787629 0.20000000000000009 -6.5170294886497686
v 114.22439782787629 0.20000000000000009 -6.0170294886497686
v 120.37439935375519 0.20000000000000009 -5.9670292979149053
v 120.37439935375519 0.20000000000000009 -6.5670296793846319
v 121.17439477611848 0.20000000000000009 -6.5670296793846319
v 121.17439477611848 0.20000000000000009 -5.9670292979149053
v 120.37439935375519 0.20000000000000009 -0.26702948864976861
v 120.37439935375519 0.20000000000000009 -0.86702987011949517
v 121.37439935375519 0.20000000000000009 -0.86702987011949517
v 121.37439935375519 0.20000000000000009 -0.26702948864976861
v 54.074396301997389 0.20000000000000009 -40.517029488649769
v 54.074396301997389 0.20000000000000009 -40.017029488649769
v 53.074396301997389 0.20000000000000009 -40.017029488649769
v 53.074396301997389 0.20000000000000009 -40.517029488649769
v 53.874396492732252 0.20000000000000009 -29.067028725710315
v 54.074396301997389 0.20000000000000009 -29.067028725710315
v 54.074396301997389 0.20000000000000009 -26.017029488649769
v 54.074396301997389 0.20000000000000009 -25.517029488649769
v 54.074396301997389 0.20000000000000009 -17.317028725710315
v 54.374396492732252 0.20000000000000009 -17.317028725710315
v 54.374396492732252 0.20000000000000009 -14.417029107180042
v 53.974396397364821 0.20000000000000009 -14.417029107180042
v 53.974396397364821 0.20000000000000009 -13.967030251589222
v 53.774396111262526 0.20000000000000009 -13.967030251589222
v 53.774396111262526 0.20000000000000009 -14.417029107180042
v 53.774396111262526 0.20000000000000009 -17.317028725710315
v 53.874396492732252 0.20000000000000009 -17.317028725710315
v 53.874396492732252 0.20000000000000009 -25.517029488649769
v 53.074396301997389 0.20000000000000009 -25.517029488649769
v 53.074396301997389 0.20000000000000009 -26.017029488649769
v 53.874396492732252 0.20000000000000009 -26.017029488649769
v 62.774397064936842 0.20000000000000009 -40.517029488649769
v 62.774397064936842 0.20000000000000009 -40.017029488649769
v 61.774396111262526 0.20000000000000009 -40.017029488649769
v 61.774396111262526 0.20000000000000009 -40.517029488649769
v 62.874395539057936 0.20000000000000009 -32.717030251589222
v 62.874395539057936 0.20000000000000009 -32.317028725710315
v 61.874396492732252 0.20000000000000009 -32.317028725710315
v 61.874396492732252 0.20000000000000009 -32.717030251589222
v 62.774397064936842 0.20000000000000009 -26.017029488649769
v 62.774397064936842 0.20000000000000009 -25.517029488649769
v 61.774396111262526 0.20000000000000009 -25.517029488649769
v 61.774396111262526 0.20000000000000009 -26.017029488649769
v 106.42439477611848 0.20000000000000009 -28.867027962770862
v 106.42439477611848 0.20000000000000009 -28.667031014528675
v 104.68709771801301 0.20000000000000009 -28.667031014528675
v 104.68709771801301 0.20000000000000009 -28.467030251589222
v 104.67439477611848 0.20000000000000009 -28.467030251589222
v 104.32439630199738 0.20000000000000009 -28.467030251589222
v 104.32439630199738 0.20000000000000009 -24.817028725710315
v 103.77439706493684 0.20000000000000009 -24.817028725710315
v 103.77439706493684 0.20000000000000009 -24.717030251589222
v 103.57439630199738 0.20000000000000009 -24.717030251589222
v 103.57439630199738 0.20000000000000009 -25.017029488649769
v 104.12439553905793 0.20000000000000009 -25.017029488649769
v 104.12439553905793 0.20000000000000009 -28.467030251589222
v 103.67439477611848 0.20000000000000009 -28.467030251589222
v 102.02439706493684 0.20000000000000009 -28.467030251589222
v 102.02439706493684 0.20000000000000009 -23.517029488649769
v 103.57439630199738 0.20000000000000009 -23.517029488649769
v 103.57439630199738 0.20000000000000009 -23.617027962770862
v 103.77439706493684 0.20000000000000009 -23.617027962770862
v 103.77439706493684 0.20000000000000009 -23.517029488649769
v 103.77439706493684 0.20000000000000009 -23.017029488649769
v 101.52439706493684 0.20000000000000009 -23.017029488649769
v 101.52439706493684 0.20000000000000009 -23.517029488649769
v 101.82439630199738 0.20000000000000009 -23.517029488649769
v 101.82439630199738 0.20000000000000009 -28.467030251589222
v 100.17440622021027 0.20000000000000009 -28.467030251589222
v 96.687097718013007 0.20000000000000009 -28.467030251589222
v 96.674394776118476 0.20000000000000009 -28.467030251589222
v 95.674394776118476 0.20000000000000009 -28.467030251589222
v 95.674394776118476 0.20000000000000009 -28.667031014528675
v 92.924394776118476 0.20000000000000009 -28.667031014528675
v 92.924394776118476 0.20000000000000009 -28.867027962770862
v 95.674394776118476 0.20000000000000009 -28.867027962770862
v 96.674394776118476 0.20000000000000009 -28.867027962770862
v 101.82439630199738 0.20000000000000009 -28.867027962770862
v 103.67439477611848 0.20000000000000009 -28.867027962770862
v 104.67439477611848 0.20000000000000009 -28.867027962770862
v 70.424396683467108 0.20000000000000009 -23.767029488649769
v 70.924396683467108 0.20000000000000009 -23.767029488649769
v 70.924396683467108 0.20000000000000009 -22.967030251589222
v 70.424396683467108 0.20000000000000009 -22.967030251589222
v 78.924394776118476 0.20000000000000009 -23.767029488649769
v 79.424394776118476 0.20000000000000009 -23.767029488649769
v 79.424394776118476 0.20000000000000009 -22.967030251589222
v 78.924394776118476 0.20000000000000009 -22.967030251589222
v 87.424394776118476 0.20000000000000009 -23.767029488649769
v 87.924394776118476 0.20000000000000009 -23.767029488649769
v 87.924394776118476 0.20000000000000009 -22.967030251589222
v 87.424394776118476 0.20000000000000009 -22.967030251589222
v 113.37439935375519 0.20000000000000009 13.982970511350231
v 116.37439935375519 0.20000000000000009 13.982970511350231
v 116.37439935375519 0.20000000000000009 14.182970320615368
v 115.77439325023957 0.20000000000000009 14.182970320615368
v 115.77439325023957 0.20000000000000009 16.530698096189099
v 115.77439325023957 0.20000000000000009 16.532970702085095
v 113.27439325023957 0.20000000000000009 16.532970702085095
v 113.27439325023957 0.20000000000000009 16.832970892819958
v 113.07439630199738 0.20000000000000009 16.832970892819958
v 113.07439630199738 0.20000000000000009 14.8329704159828
v 112.87439935375519 0.20000000000000009 14.8329704159828
v 112.87439935375519 0.20000000000000009 13.8329704159828
v 113.37439935375519 0.20000000000000009 13.8329704159828
v 112.32439630199738 0.20000000000000009 1.1837952488990595
v 111.32439630199738 0.20000000000000009 1.1837952488990595
v 111.32439630199738 0.20000000000000009 2.9829705113502314
v 110.72439782787629 0.20000000000000009 2.9829705113502314
v 110.72439782787629 0.20000000000000009 -0.86702987011949517
v 111.32439630199738 0.20000000000000009 -0.86702987011949517
v 112.32439630199738 0.20000000000000009 -0.86702987011949517
v 106.77439706493684 0.20000000000000009 -35.817028725710315
v 106.95439737011262 0.20000000000000009 -35.817028725710315
v 106.97439782787629 0.20000000000000009 -35.817028725710315
v 106.97439782787629 0.20000000000000009 -29.217030251589222
v 106.77439706493684 0.20000000000000009 -29.217030251589222
v 106.77439706493684 0.20000000000000009 -29.237030709352894
v 65.225460221064765 0.20000000000000009 -45.317028725710315
v 65.225460221064765 0.20000000000000009 -45.017029488649769
v 64.925459076655585 0.20000000000000009 -45.017029488649769
v 64.925459076655585 0.20000000000000009 -45.317028725710315
v 98.974397827876288 0.20000000000000009 -45.317028725710315
v 98.974397827876288 0.20000000000000009 -45.017029488649769
v 98.674394776118476 0.20000000000000009 -45.017029488649769
v 98.674394776118476 0.20000000000000009 -45.317028725710315
v 117.42439477611848 0.20000000000000009 -38.967030251589222
v 117.42439477611848 0.20000000000000009 -38.667031014528675
v 117.12439935375519 0.20000000000000009 -38.667031014528675
v 117.12439935375519 0.20000000000000009 -38.967030251589222
v 99.224397827876288 0.20000000000000009 -19.967030251589222
v 99.224397827876288 0.20000000000000009 -19.667029107180042
v 98.924394776118476 0.20000000000000009 -19.667029107180042
v 98.924394776118476 0.20000000000000009 -19.967030251589222
v 82.224397827876288 0.20000000000000009 -19.967030251589222
v 82.224397827876288 0.20000000000000009 -19.667029107180042
v 81.924394776118476 0.20000000000000009 -19.667029107180042
v 81.924394776118476 0.20000000000000009 -19.967030251589222
v 65.224395920527655 0.20000000000000009 -19.967030251589222
v 65.224395920527655 0.20000000000000009 -19.667029107180042
v 64.924396683467108 0.20000000000000009 -19.667029107180042
v 64.924396683467108 0.20000000000000009 -19.967030251589222
v 58.173620392573561 0.20000000000000009 -34.367027962770862
v 58.173620392573561 0.20000000000000009 -34.067028725710315
v 57.873620201838698 0.20000000000000009 -34.067028725710315
v 57.873620201838698 0.20000000000000009 -34.367027962770862
v 58.424396683467116 0.20000000000000009 -5.1197821741966436
v 58.424396683467116 0.20000000000000009 -4.8197819834617803
v 58.124396492732252 0.20000000000000009 -4.8197819834617803
v 58.124396492732252 0.20000000000000009 -5.1197821741966436
v 57.374396492732252 0.20000000000000009 4.9829705113502314
v 57.374396492732252 0.20000000000000009 5.2829704636665156
v 57.074396301997389 0.20000000000000009 5.2829704636665156
v 57.074396301997389 0.20000000000000009 4.9829705113502314
v 67.274847199214179 0.20000000000000009 10.582988058957653
v 67.274847199214179 0.20000000000000009 10.882988011273937
v 66.974847962153632 0.20000000000000009 10.882988011273937
v 66.974847962153632 0.20000000000000009 10.582988058957653
v 84.724397827876288 0.20000000000000009 10.732987915906506
v 84.874395539057929 0.20000000000000009 10.582988058957653
v 84.874395539057929 0.20000000000000009 10.882988011273937
v 102.87439553905793 0.20000000000000009 10.582988058957653
v 102.87439553905793 0.20000000000000009 10.882988011273937
v 102.57439630199738 0.20000000000000009 10.882988011273937
v 102.57439630199738 0.20000000000000009 10.582988058957653
v 117.42439477611848 0.20000000000000009 -1.2670294886497686
v 117.42439477611848 0.20000000000000009 -0.96702929791490533
v 117.12439935375519 0.20000000000000009 -0.96702929791490533
v 117.12439935375519 0.20000000000000009 -1.2670294886497686
v 117.36853997875519 0.20000000000000009 -12.762213433351917
v 117.36853997875519 0.20000000000000009 -12.46221419629137
v 117.06853692699738 0.20000000000000009 -12.46221419629137
v 117.06853692699738 0.20000000000000009 -12.762213433351917
v 117.42439477611848 0.20000000000000009 -24.267029488649769
v 117.42439477611848 0.20000000000000009 -23.967030251589222
v 117.12439935375519 0.20000000000000009 -23.967030251589222
v 117.12439935375519 0.20000000000000009 -24.267029488649769
v 61.024396111262526 0.20000000000000009 -16.817028725710315
v 61.524396111262526 0.20000000000000009 -16.817028725710315
v 61.524396111262526 0.20000000000000009 -12.817028725710315
v 61.024396111262526 0.20000000000000009 -12.817028725710315
v 67.824396301997382 0.20000000000000009 -12.817028725710315
v 67.824396301997382 0.20000000000000009 -16.567028725710315
v 68.724395920527655 0.20000000000000009 -16.567028725710315
v 68.724395920527655 0.20000000000000009 -16.817028725710315
v 69.224395920527655 0.20000000000000009 -16.817028725710315
v 69.224395920527655 0.20000000000000009 -12.817028725710315
v 68.724395920527655 0.20000000000000009 -12.817028725710315
v 95.674394776118476 0.20000000000000009 6.0329704636665156
v 94.625909973872382 0.20000000000000009 6.0329704636665156
v 94.625909973872382 0.20000000000000009 3.9829705113502314
v 95.674394776118476 0.20000000000000009 3.9829705113502314
v 96.174394776118476 0.20000000000000009 3.9829705113502314
v 96.174394776118476 0.20000000000000009 7.7329705113502314
v 95.674394776118476 0.20000000000000009 7.7329705113502314
v 71.424396683467108 0.20000000000000009 -36.567028725710315
v 71.424396683467108 0.20000000000000009 -36.167031014528675
v 70.424396683467108 0.20000000000000009 -36.167031014528675
v 70.424396683467108 0.20000000000000009 -36.567028725710315
v 78.674394776118476 0.20000000000000009 -36.167031014528675
v 78.674394776118476 0.20000000000000009 -36.567028725710315
v 79.674394776118476 0.20000000000000009 -36.567028725710315
v 79.674394776118476 0.20000000000000009 -36.167031014528675
v 71.424396683467108 0.20000000000000009 -28.867027962770862
v 71.424396683467108 0.20000000000000009 -28.467030251589222
v 70.424396683467108 0.20000000000000009 -28.467030251589222
v 70.424396683467108 0.20000000000000009 -28.867027962770862
v 79.674394776118476 0.20000000000000009 -28.867027962770862
v 79.674394776118476 0.20000000000000009 -28.467030251589222
v 78.674394776118476 0.20000000000000009 -28.467030251589222
v 78.674394776118476 0.20000000000000009 -28.867027962770862
v 106.92439477611848 0.20000000000000009 -12.917029107180042
v 106.92439477611848 0.20000000000000009 -16.817028725710315
v 107.92439477611848 0.20000000000000009 -16.817028725710315
v 107.92439477611848 0.20000000000000009 -12.917029107180042
v 76.349382569087226 0.20000000000000009 -2.8170296793846319
v 76.349382569087226 0.20000000000000009 -3.0170294886497686
v 76.574382950556952 0.20000000000000009 -3.0170294886497686
v 76.574382950556952 0.20000000000000009 -2.8170296793846319
v 86.374395539057929 0.20000000000000009 -10.717030251589222
v 86.374395539057929 0.20000000000000009 -9.2170302515892217
v 86.374395539057929 0.20000000000000009 -8.7170302515892217
v 84.674394776118476 0.20000000000000009 -8.7170302515892217
v 84.474397827876288 0.20000000000000009 -8.7170302515892217
v 81.274397064936835 0.20000000000000009 -8.7170302515892217
v 81.274397064936835 0.20000000000000009 -5.417029107180042
v 81.274397064936835 0.20000000000000009 -5.2170292979149053
v 81.274397064936835 0.20000000000000009 -5.1170298701194952
v 80.974397827876288 0.20000000000000009 -5.1170298701194952
v 80.974397827876288 0.20000000000000009 -4.8170296793846319
v 80.774397064936835 0.20000000000000009 -4.8170296793846319
v 80.774397064936835 0.20000000000000009 -5.1170298701194952
v 80.774397064936835 0.20000000000000009 -7.6170298701194952
v 77.074396301997382 0.20000000000000009 -7.6170298701194952
v 77.074396301997382 0.20000000000000009 -5.1170289164451788
v 76.574396301997382 0.20000000000000009 -5.1170289164451788
v 76.574396301997382 0.20000000000000009 -8.7170302515892217
v 71.824388672602851 0.20000000000000009 -8.7170302515892217
v 71.62438981701203 0.20000000000000009 -8.7170302515892217
v 69.524397064936835 0.20000000000000009 -8.7170302515892217
v 69.524397064936835 0.20000000000000009 -6.3170296793846319
v 70.62438981701203 0.20000000000000009 -6.3170296793846319
v 70.62438981701203 0.20000000000000009 -5.417029107180042
v 70.824388672602851 0.20000000000000009 -5.417029107180042
v 70.824388672602851 0.20000000000000009 -5.2170292979149053
v 70.374395539057929 0.20000000000000009 -5.2170292979149053
v 70.374395539057929 0.20000000000000009 -5.417029107180042
v 70.424389054072577 0.20000000000000009 -5.417029107180042
v 70.424389054072577 0.20000000000000009 -6.1170298701194952
v 69.524397064936835 0.20000000000000009 -6.1170298701194952
v 69.524397064936835 0.20000000000000009 -5.2170292979149053
v 69.224395920527655 0.20000000000000009 -5.2170292979149053
v 68.961412598384101 0.20000000000000009 -5.2170292979149053
v 68.961412598384101 0.20000000000000009 -8.6694247370628545
v 63.006887604487623 0.20000000000000009 -8.6694247370628545
v 63.006887604487623 0.20000000000000009 -5.4306075220970342
v 67.329395462763983 0.20000000000000009 -5.4306075220970342
v 67.329395462763983 0.20000000000000009 -5.2170292979149053
v 67.324396301997382 0.20000000000000009 -5.2170292979149053
v 67.224395920527655 0.20000000000000009 -5.2170292979149053
v 64.324396301997382 0.20000000000000009 -5.2170292979149053
v 63.024397064936842 0.20000000000000009 -5.2170292979149053
v 63.024397064936842 0.20000000000000009 -5.1170298701194952
v 62.724388291133131 0.20000000000000009 -5.1170298701194952
v 62.724388291133131 0.20000000000000009 -4.8170296793846319
v 62.524389435542311 0.20000000000000009 -4.8170296793846319
v 62.524389435542311 0.20000000000000009 -5.1170298701194952
v 62.524397064936842 0.20000000000000009 -5.1170298701194952
v 62.524397064936842 0.20000000000000009 -8.7170302515892217
v 62.524397064936842 0.20000000000000009 -9.2170302515892217
v 77.074382950556952 0.20000000000000009 -9.2170302515892217
v 77.074396301997382 0.20000000000000009 -9.2170302515892217
v 80.774397064936835 0.20000000000000009 -9.2170302515892217
v 81.274397064936835 0.20000000000000009 -9.2170302515892217
v 84.074396301997382 0.20000000000000009 -9.2170302515892217
v 84.074396301997382 0.20000000000000009 -10.617029870119495
v 83.224397827876288 0.20000000000000009 -10.617029870119495
v 83.224397827876288 0.20000000000000009 -16.067028725710315
v 84.074396301997382 0.20000000000000009 -16.067028725710315
v 84.074396301997382 0.20000000000000009 -16.817028725710315
v 84.674394776118476 0.20000000000000009 -16.817028725710315
v 84.674394776118476 0.20000000000000009 -10.917029107180042
v 93.874395539057929 0.20000000000000009 -10.917029107180042
v 93.874395539057929 0.20000000000000009 -9.2170302515892217
v 94.674394776118476 0.20000000000000009 -9.2170302515892217
v 94.674394776118476 0.20000000000000009 -8.7170302515892217
v 94.674394776118476 0.20000000000000009 -5.2170292979149053
v 94.174394776118476 0.20000000000000009 -5.2170292979149053
v 94.174394776118476 0.20000000000000009 -8.8732325678734014
v 88.063348938716132 0.20000000000000009 -8.8732325678734014
v 88.063348938716132 0.20000000000000009 -5.4074961787132452
v 92.830412079585273 0.20000000000000009 -5.4074961787132452
v 92.830412079585273 0.20000000000000009 -5.2170292979149053
v 92.324396301997382 0.20000000000000009 -5.2170292979149053
v 90.274389435542304 0.20000000000000009 -5.2170292979149053
v 90.274389435542304 0.20000000000000009 -4.8170296793846319
v 90.074388672602851 0.20000000000000009 -4.8170296793846319
v 90.074388672602851 0.20000000000000009 -5.2170292979149053
v 89.269395996821601 0.20000000000000009 -5.2170292979149053
v 87.974397827876288 0.20000000000000009 -5.2170292979149053
v 87.674394776118476 0.20000000000000009 -5.2170292979149053
v 87.474397827876288 0.20000000000000009 -5.2170292979149053
v 87.474397827876288 0.20000000000000009 -5.417029107180042
v 87.674394776118476 0.20000000000000009 -5.417029107180042
v 87.674394776118476 0.20000000000000009 -7.417029107180042
v 87.674394776118476 0.20000000000000009 -8.7170302515892217
v 87.674394776118476 0.20000000000000009 -9.2170302515892217
v 92.174394776118476 0.20000000000000009 -9.2170302515892217
v 92.324396301997382 0.20000000000000009 -9.2170302515892217
v 92.324396301997382 0.20000000000000009 -9.1605326777366827
v 93.424394776118476 0.20000000000000009 -9.1605326777366827
v 93.424394776118476 0.20000000000000009 -9.2170302515892217
v 93.474397827876288 0.20000000000000009 -9.2170302515892217
v 93.524397064936835 0.20000000000000009 -9.2170302515892217
v 93.674394776118476 0.20000000000000009 -9.2170302515892217
v 93.674394776118476 0.20000000000000009 -10.717030251589222
v 76.374382187617499 0.20000000000000009 -5.9670798426536749
v 76.374382187617499 0.20000000000000009 -6.1670796519188116
v 76.574382950556952 0.20000000000000009 -6.1670796519188116
v 76.574382950556952 0.20000000000000009 -5.9670798426536749
v 108.47439782787629 0.20000000000000009 -0.66702910718004205
v 107.27439706493684 0.20000000000000009 -0.66702910718004205
v 107.27439706493684 0.20000000000000009 5.7829704636665156
v 106.87439553905793 0.20000000000000009 5.7829704636665156
v 106.87439553905793 0.20000000000000009 5.5829704159827998
v 107.07439630199738 0.20000000000000009 5.5829704159827998
v 107.07439630199738 0.20000000000000009 -0.66702910718004205
v 104.64939706493684 0.20000000000000009 -0.66702910718004205
v 104.64939706493684 0.20000000000000009 -0.36702987011949517
v 103.42439477611848 0.20000000000000009 -0.36702987011949517
v 103.42439477611848 0.20000000000000009 0.53297070208509467
v 103.42439477611848 0.20000000000000009 2.9829705113502314
v 103.42439477611848 0.20000000000000009 5.5829704159827998
v 105.77439706493684 0.20000000000000009 5.5829704159827998
v 105.77439706493684 0.20000000000000009 5.7829704636665156
v 104.47439782787629 0.20000000000000009 5.7829704636665156
v 104.47439782787629 0.20000000000000009 7.6329704875083735
v 103.42439477611848 0.20000000000000009 7.6329704875083735
v 103.42439477611848 0.20000000000000009 8.2329705113502314
v 102.82439630199738 0.20000000000000009 8.2329705113502314
v 102.82439630199738 0.20000000000000009 7.6329704875083735
v 101.77439706493684 0.20000000000000009 7.6329704875083735
v 101.77439706493684 0.20000000000000009 5.5829704159827998
v 102.82439630199738 0.20000000000000009 5.5829704159827998
v 103.22439782787629 0.20000000000000009 5.5829704159827998
v 103.22439782787629 0.20000000000000009 2.9829705113502314
v 102.82439630199738 0.20000000000000009 2.9829705113502314
v 102.82439630199738 0.20000000000000009 0.53297070208509467
v 103.22439782787629 0.20000000000000009 0.53297070208509467
v 103.22439782787629 0.20000000000000009 -0.36702987011949517
v 100.49939553905793 0.20000000000000009 -0.36702987011949517
v 100.49939553905793 0.20000000000000009 -0.66702910718004205
v 99.624395539057929 0.20000000000000009 -0.66702910718004205
v 99.624395539057929 0.20000000000000009 -0.86702987011949517
v 100.49939553905793 0.20000000000000009 -0.86702987011949517
v 104.64939706493684 0.20000000000000009 -0.86702987011949517
v 108.27439706493684 0.20000000000000009 -0.86702987011949517
v 108.27439706493684 0.20000000000000009 -8.0170294886497686
v 104.49939553905793 0.20000000000000009 -8.0170294886497686
v 100.49939553905793 0.20000000000000009 -8.0170294886497686
v 96.824396301997382 0.20000000000000009 -8.0170294886497686
v 96.824396301997382 0.20000000000000009 -0.86702987011949517
v 97.824396301997382 0.20000000000000009 -0.86702987011949517
v 97.824396301997382 0.20000000000000009 -0.66702910718004205
v 96.624395539057929 0.20000000000000009 -0.66702910718004205
v 96.624395539057929 0.20000000000000009 -8.417029107180042
v 96.824396301997382 0.20000000000000009 -8.417029107180042
v 96.824396301997382 0.20000000000000009 -8.2170302515892217
v 100.49939553905793 0.20000000000000009 -8.2170302515892217
v 100.49939553905793 0.20000000000000009 -8.5170294886497686
v 102.82439630199738 0.20000000000000009 -8.5170294886497686
v 102.82439630199738 0.20000000000000009 -10.517029488649769
v 98.724397827876288 0.20000000000000009 -10.517029488649769
v 98.724397827876288 0.20000000000000009 -15.117029870119495
v 97.074396301997382 0.20000000000000009 -15.117029870119495
v 97.074396301997382 0.20000000000000009 -15.417029107180042
v 96.174394776118476 0.20000000000000009 -15.417029107180042
v 96.174394776118476 0.20000000000000009 -12.817028725710315
v 95.874395539057929 0.20000000000000009 -12.817028725710315
v 95.874395539057929 0.20000000000000009 -10.717030251589222
v 96.824396301997382 0.20000000000000009 -10.717030251589222
v 96.824396301997382 0.20000000000000009 -9.5170294886497686
v 96.624395539057929 0.20000000000000009 -9.5170294886497686
v 96.624395539057929 0.20000000000000009 -10.517029488649769
v 95.674394776118476 0.20000000000000009 -10.517029488649769
v 95.674394776118476 0.20000000000000009 -12.817028725710315
v 95.674394776118476 0.20000000000000009 -16.817028725710315
v 96.174394776118476 0.20000000000000009 -16.817028725710315
v 96.174394776118476 0.20000000000000009 -15.617029870119495
v 97.074396301997382 0.20000000000000009 -15.617029870119495
v 98.924394776118476 0.20000000000000009 -15.617029870119495
v 98.924394776118476 0.20000000000000009 -15.117029870119495
v 98.924394776118476 0.20000000000000009 -10.717030251589222
v 103.02439706493684 0.20000000000000009 -10.717030251589222
v 103.02439706493684 0.20000000000000009 -8.5170294886497686
v 104.49939553905793 0.20000000000000009 -8.5170294886497686
v 104.49939553905793 0.20000000000000009 -8.2170302515892217
v 108.47439782787629 0.20000000000000009 -8.2170302515892217
v 70.274397064936835 0.20000000000000009 6.0328252667518427
v 69.224395920527655 0.20000000000000009 6.0328252667518427
v 69.224395920527655 0.20000000000000009 7.7329705113502314
v 68.724395920527655 0.20000000000000009 7.7329705113502314
v 68.724395920527655 0.20000000000000009 6.0328252667518427
v 67.674396683467108 0.20000000000000009 6.0328252667518427
v 67.674396683467108 0.20000000000000009 3.9828250760169794
v 68.724395920527655 0.20000000000000009 3.9828250760169794
v 68.724395920527655 0.20000000000000009 3.9829705113502314
v 69.224395920527655 0.20000000000000009 3.9829705113502314
v 69.224395920527655 0.20000000000000009 3.9828250760169794
v 70.274397064936835 0.20000000000000009 3.9828250760169794
v 48.674396206629957 0.20000000000000009 -49.467030251589222
v 48.874396254313673 0.20000000000000009 -49.467030251589222
v 48.874396254313673 0.20000000000000009 -40.717030251589222
v 48.674396206629957 0.20000000000000009 -40.717030251589222
v 49.474396397364821 0.20000000000000009 -49.467030251589222
v 49.674396206629957 0.20000000000000009 -49.467030251589222
v 49.674396206629957 0.20000000000000009 -49.017029488649769
v 49.474396397364821 0.20000000000000009 -49.017029488649769
v 51.644396473658766 0.20000000000000009 -49.467030251589222
v 51.644396473658766 0.20000000000000009 -49.867027962770862
v 51.744896103633131 0.20000000000000009 -49.867027962770862
v 51.744896103633131 0.20000000000000009 -49.467030251589222
v 95.674394776118476 0.20000000000000009 -36.567028725710315
v 96.674394776118476 0.20000000000000009 -36.567028725710315
v 103.67439477611848 0.20000000000000009 -36.567028725710315
v 104.67439477611848 0.20000000000000009 -36.567028725710315
v 104.67439477611848 0.20000000000000009 -36.367027962770862
v 106.42439477611848 0.20000000000000009 -36.367027962770862
v 106.42439477611848 0.20000000000000009 -36.167031014528675
v 104.67439477611848 0.20000000000000009 -36.167031014528675
v 103.67439477611848 0.20000000000000009 -36.167031014528675
v 96.674394776118476 0.20000000000000009 -36.167031014528675
v 95.674394776118476 0.20000000000000009 -36.167031014528675
v 92.924394776118476 0.20000000000000009 -36.167031014528675
v 92.924394776118476 0.20000000000000009 -36.367027962770862
v 95.674394776118476 0.20000000000000009 -36.367027962770862
v 125.92439477611848 0.20000000000000009 7.7829705232711603
v 125.92439477611848 0.20000000000000009 7.2829704636665156
v 126.42439477611848 0.20000000000000009 7.2829704636665156
v 126.72439782787629 0.20000000000000009 7.2829704636665156
v 126.72439782787629 0.20000000000000009 7.7829705232711603
v 126.42439477611848 0.20000000000000009 7.7829705232711603
v 125.92439477611848 0.20000000000000009 -0.36702987011949517
v 125.92439477611848 0.20000000000000009 -0.86702987011949517
v 126.42439477611848 0.20000000000000009 -0.86702987011949517
v 126.72439782787629 0.20000000000000009 -0.86702987011949517
v 126.72439782787629 0.20000000000000009 -0.36702987011949517
v 126.42439477611848 0.20000000000000009 -0.36702987011949517
v 125.92439477611848 0.20000000000000009 -6.0170294886497686
v 125.92439477611848 0.20000000000000009 -6.5170294886497686
v 126.42439477611848 0.20000000000000009 -6.5170294886497686
v 126.72439782787629 0.20000000000000009 -6.5170294886497686
v 126.72439782787629 0.20000000000000009 -6.0170294886497686
v 126.42439477611848 0.20000000000000009 -6.0170294886497686
v 125.92439477611848 0.20000000000000009 -14.517029488649769
v 125.92439477611848 0.20000000000000009 -15.017029488649769
v 126.42439477611848 0.20000000000000009 -15.017029488649769
v 126.72439782787629 0.20000000000000009 -15.017029488649769
v 126.72439782787629 0.20000000000000009 -14.517029488649769
v 126.42439477611848 0.20000000000000009 -14.517029488649769
v 125.92439477611848 0.20000000000000009 -23.017029488649769
v 125.92439477611848 0.20000000000000009 -23.517029488649769
v 126.42439477611848 0.20000000000000009 -23.517029488649769
v 126.72439782787629 0.20000000000000009 -23.517029488649769
v 126.72439782787629 0.20000000000000009 -23.017029488649769
v 126.42439477611848 0.20000000000000009 -23.017029488649769
v 125.92439477611848 0.20000000000000009 -31.517029488649769
v 125.92439477611848 0.20000000000000009 -32.017029488649769
v 126.42439477611848 0.20000000000000009 -32.017029488649769
v 126.72439782787629 0.20000000000000009 -32.017029488649769
v 126.72439782787629 0.20000000000000009 -31.517029488649769
v 126.42439477611848 0.20000000000000009 -31.517029488649769
v 125.92439477611848 0.20000000000000009 -40.017029488649769
v 125.92439477611848 0.20000000000000009 -40.517029488649769
v 126.42439477611848 0.20000000000000009 -40.517029488649769
v 126.72439782787629 0.20000000000000009 -40.517029488649769
v 126.72439782787629 0.20000000000000009 -40.017029488649769
v 126.42439477611848 0.20000000000000009 -40.017029488649769
v 96.244394470942694 0.20000000000000009 -49.467030251589222
v 96.244394470942694 0.20000000000000009 -48.667031014528675
v 96.044397522700507 0.20000000000000009 -48.667031014528675
v 96.044397522700507 0.20000000000000009 -49.467030251589222
v 95.994394470942694 0.20000000000000009 -49.467030251589222
v 95.994394470942694 0.20000000000000009 -48.867027962770862
v 91.494394470942694 0.20000000000000009 -48.867027962770862
v 91.494394470942694 0.20000000000000009 -48.667031014528675
v 91.294397522700507 0.20000000000000009 -48.667031014528675
v 91.294397522700507 0.20000000000000009 -49.467030251589222
v 91.494394470942694 0.20000000000000009 -49.467030251589222
v 90.124395539057929 0.20000000000000009 -49.467030251589222
v 90.024431397212226 0.20000000000000009 -49.467030251589222
v 90.024431397212226 0.20000000000000009 -49.867027962770862
v 90.124395539057929 0.20000000000000009 -49.867027962770862
f 194 195 193
f 206 204 205
f 196 191 195
f 195 191 193
f 197 198 196
f 206 207 208 209
f 212 210 211
f 209 210 435 436
f 204 206 203
f 436 203 206
f 203 436 438
f 202 203 438
f 436 206 209
f 192 193 191
f 187 185 186
f 184 185 187
f 187 188 181 182
f 181 188 179
f 190 188 189
f 182 184 187
f 198 199 190 191
f 201 199 200
f 201 179 190
f 201 190 199
f 439 163 202
f 201 202 163
f 163 439 420
f 188 190 179
f 202 438 439
f 191 196 198
f 164 201 163
f 431 435 213
f 213 435 210
f 431 213 214
f 213 210 212
f 432 435 431
f 432 433 434
f 438 436 437
f 430 431 429
f 432 434 435
f 216 214 215
f 431 216 218
f 427 429 431
f 216 217 218
f 236 221 223
f 235 236 225
f 225 236 223
f 216 431 214
f 218 427 431
f 219 427 218
f 428 429 427
f 219 426 427
f 423 395 440
f 422 423 440
f 219 424 426
f 425 426 424
f 424 394 423
f 424 219 775
f 223 221 222
f 239 237 238
f 237 220 236
f 220 221 236
f 220 775 219
f 239 775 220
f 239 240 774
f 775 239 774
f 237 239 220
f 774 241 773
f 424 775 776
f 395 439 440
f 182 183 184
f 177 168 169
f 159 156 157
f 168 177 178
f 170 171 169
f 165 179 164
f 181 179 180
f 167 165 166
f 178 179 165
f 168 165 167
f 771 161 162
f 165 168 178
f 771 162 420
f 179 201 164
f 158 159 157
f 152 154 159
f 156 159 154
f 154 152 153
f 159 160 151 152
f 169 176 177
f 155 156 154
f 143 144 140
f 160 161 772
f 149 160 772
f 421 770 771
f 772 769 149
f 149 150 151
f 149 479 148
f 147 148 767
f 149 151 160
f 161 771 772
f 144 145 146
f 395 419 420
f 394 395 423
f 163 420 162
f 419 395 418
f 418 769 421
f 421 769 770
f 769 418 396
f 395 396 418
f 149 396 478
f 420 421 771
f 1020 776 773
f 424 776 394
f 1022 776 1020
f 1019 1020 773
f 1021 1022 1020
f 478 479 149
f 1023 478 397
f 1022 1023 397
f 397 394 1022
f 397 478 396
f 1023 476 478
f 776 1022 394
f 439 395 420
f 481 148 479
f 766 481 482
f 884 482 483
f 481 479 480
f 766 482 884
f 765 766 885
f 884 885 766
f 765 885 887
f 148 766 767
f 765 137 768
f 148 481 766
f 486 878 485
f 486 449 450
f 483 484 485
f 883 483 879
f 879 881 883
f 882 883 881
f 884 483 883
f 485 879 483
f 769 396 149
f 767 768 147
f 233 234 235
f 228 229 226
f 228 226 227
f 232 233 235
f 231 232 225
f 225 226 231
f 226 229 231
f 225 232 235
f 255 256 257
f 260 258 259
f 252 257 251
f 258 251 257
f 248 251 258
f 260 247 258
f 262 260 261
f 257 252 254
f 254 255 257
f 260 262 247
f 230 231 229
f 252 253 254
f 1019 773 241
f 241 242 399
f 262 263 246 247
f 247 248 258
f 248 249 250
f 263 244 246
f 245 246 244
f 244 398 243
f 244 263 514
f 251 248 250
f 242 243 398
f 774 240 241
f 267 265 266
f 268 265 267
f 269 604 264 265
f 269 265 268
f 270 603 604 269
f 270 271 272 273
f 273 276 270
f 273 274 275 276
f 276 277 602 603
f 603 270 276
f 282 283 281
f 284 294 283
f 398 244 514
f 264 513 514
f 264 777 513
f 601 264 604
f 777 264 601
f 512 509 511
f 511 509 510
f 777 512 513
f 601 602 779
f 264 514 263
f 779 277 278
f 279 280 278
f 779 602 277
f 278 402 779
f 777 778 512
f 509 512 778
f 778 779 403
f 779 402 403
f 509 778 403
f 777 601 779
f 403 404 509
f 284 285 286 287
f 515 398 514
f 1027 1025 1026
f 1017 1018 1019
f 477 478 476
f 1024 1027 476
f 1027 1024 1025
f 1027 1028 476
f 400 473 475
f 474 475 473
f 1028 400 475
f 1028 475 476
f 468 465 467
f 466 467 465
f 469 834 468
f 464 465 468
f 1028 1017 400
f 399 1017 1019
f 463 464 468
f 450 451 486
f 863 452 453
f 452 871 451
f 863 864 452
f 456 454 455
f 863 456 457
f 456 863 454
f 863 457 862
f 453 454 863
f 486 451 878
f 835 462 834
f 462 463 468
f 462 468 834
f 460 458 459
f 835 461 462
f 458 461 835
f 458 460 461
f 458 854 457
f 835 854 458
f 1023 1024 476
f 1017 399 400
f 401 398 515
f 1019 241 399
f 473 400 401
f 473 523 472
f 401 517 473
f 517 401 516
f 517 523 473
f 515 516 401
f 521 519 520
f 472 523 524
f 519 521 522
f 522 523 518 519
f 529 530 920
f 517 518 523
f 404 508 509
f 525 472 524
f 837 470 836
f 471 472 525
f 837 834 469
f 836 470 854
f 471 854 470
f 853 471 526
f 525 526 471
f 849 853 526
f 854 471 853
f 470 837 469
f 836 854 835
f 526 527 849
f 529 527 528
f 848 527 529
f 853 849 850
f 846 847 848
f 529 846 848
f 848 849 527
f 852 853 850
f 920 846 529
f 935 457 854
f 530 531 920
f 399 242 398
f 508 404 405
f 225 223 224
f 864 869 452
f 141 142 140
f 140 142 143
f 171 172 173
f 175 176 171
f 169 171 176
f 175 171 173
f 128 125 127
f 125 126 127
f 641 129 639
f 128 129 641 642
f 130 131 129
f 174 175 173
f 146 138 140
f 642 125 128
f 644 125 643
f 647 124 125
f 125 644 647
f 122 124 120
f 647 648 124
f 123 124 122
f 124 648 633
f 647 644 646
f 642 643 125
f 640 641 639
f 120 124 633
f 121 122 120
f 633 648 649
f 119 120 633 634
f 645 646 644
f 132 133 134
f 137 138 146
f 136 137 765
f 146 147 137
f 131 639 129
f 132 135 131
f 132 134 135
f 137 147 768
f 139 140 138
f 887 135 136
f 887 136 765
f 879 880 881
f 886 887 885
f 888 798 799
f 135 888 799
f 800 798 888
f 888 135 887
f 798 801 797
f 131 135 799
f 639 131 799
f 636 637 638
f 660 636 638
f 639 796 638
f 639 799 796
f 661 635 636
f 117 118 119
f 634 635 661
f 763 117 119
f 119 634 656
f 796 660 638
f 636 660 661
f 760 659 660
f 796 797 760
f 661 656 634
f 762 119 656
f 659 699 658
f 655 816 654
f 655 656 661 658
f 657 654 651 652
f 655 658 825
f 760 660 796
f 817 651 654
f 140 144 146
f 762 656 657
f 100 102 1032
f 102 103 1031 1032
f 102 100 101
f 109 110 107 108
f 99 100 1032
f 112 107 110
f 116 106 113
f 112 113 106 107
f 104 105 103
f 764 105 106
f 1031 103 631
f 1035 1031 632
f 115 113 114
f 111 112 110
f 1030 1031 1036
f 1040 1037 1035
f 1035 1036 1031
f 1037 1034 1035
f 1033 99 1030
f 1029 1030 99
f 1034 97 1033
f 1037 1038 1034
f 99 1033 97
f 1033 1030 1036
f 1038 97 1034
f 1032 1029 99
f 1039 1040 93
f 92 93 1040
f 632 1040 1035
f 93 94 95 96
f 99 97 98
f 1039 93 97
f 97 93 96
f 1039 97 1038
f 92 1040 632
f 631 103 105
f 106 116 764
f 116 763 764
f 116 117 763
f 630 105 764
f 1031 631 632
f 630 653 629
f 631 105 630
f 632 629 91 92
f 652 630 764
f 116 113 115
f 761 762 657
f 657 652 761
f 630 652 653
f 90 629 545
f 740 544 545
f 545 653 739
f 737 543 544
f 545 629 653
f 565 650 651
f 764 761 652
f 763 119 762
f 542 80 545
f 90 91 629
f 88 90 545
f 89 90 88
f 545 80 88
f 87 85 86
f 87 88 81
f 80 81 88
f 85 87 81
f 84 85 81
f 78 79 77
f 80 542 79
f 543 546 79
f 77 79 72
f 81 83 84
f 72 76 77
f 75 76 73
f 81 82 83
f 543 79 542
f 653 650 739
f 874 875 872 873
f 451 871 876
f 871 452 870
f 869 870 452
f 876 877 451
f 875 876 871
f 868 869 865
f 877 878 451
f 867 865 866
f 865 869 864
f 860 861 862
f 935 936 862
f 854 855 937
f 936 937 855
f 938 935 854
f 457 935 862
f 868 865 867
f 862 936 860
f 806 800 888
f 888 805 806
f 758 801 803
f 802 803 801
f 804 702 803
f 804 805 410
f 800 801 798
f 860 858 859
f 856 860 936
f 857 860 856
f 856 936 855
f 857 858 860
f 888 889 805
f 413 410 805
f 412 413 889
f 413 805 889
f 875 871 872
f 410 701 804
f 938 854 937
f 759 797 801
f 852 850 851
f 844 921 842
f 843 844 842
f 842 921 841
f 920 844 845
f 921 923 841
f 919 533 918
f 920 845 846
f 924 925 840
f 923 840 841
f 840 923 924
f 923 921 922
f 838 925 926
f 920 921 844
f 925 839 840
f 890 891 412
f 895 891 892
f 895 412 891
f 706 410 411
f 896 755 411
f 754 755 896
f 411 412 896
f 898 754 896
f 412 895 896
f 892 893 895
f 890 412 889
f 838 839 925
f 895 893 894
f 897 898 896
f 414 899 417
f 753 754 899
f 899 900 417
f 754 898 899
f 900 416 417
f 414 710 899
f 878 879 485
f 706 411 755
f 797 759 760
f 699 659 757
f 758 759 801
f 824 658 699
f 824 825 658
f 815 816 825
f 816 817 654
f 816 655 825
f 757 758 803
f 651 817 565
f 757 702 699
f 700 703 823
f 757 803 702
f 824 700 823
f 822 823 828 829
f 814 815 818 819
f 815 822 829
f 569 564 814
f 703 828 823
f 815 825 822
f 700 701 706 703
f 699 700 824
f 804 701 702
f 564 817 814
f 738 739 650
f 738 565 562
f 650 565 738
f 737 738 562
f 72 79 546
f 72 73 76
f 73 74 75
f 546 543 737
f 740 737 544
f 737 562 549
f 739 740 545
f 562 563 548 549
f 564 569 563
f 548 563 553
f 547 71 546
f 70 71 66
f 71 547 66
f 69 70 67 68
f 71 72 546
f 547 548 553 550
f 737 549 546
f 564 565 817
f 757 659 760
f 827 828 703 704
f 707 827 704
f 705 706 756
f 829 826 821 818
f 829 818 815
f 753 704 705
f 704 753 707
f 706 755 756
f 899 710 753
f 710 414 709
f 710 707 753
f 826 1052 821
f 573 820 821
f 826 707 693
f 573 821 1052
f 826 827 707
f 446 708 709
f 756 753 705
f 706 701 410
f 569 819 820
f 566 553 563
f 553 566 567 552
f 551 65 550
f 547 550 66
f 65 61 64
f 65 66 550
f 67 70 66
f 566 563 569
f 573 567 568
f 820 568 569
f 1053 572 573
f 570 567 573
f 551 552 60
f 570 552 567
f 63 64 61 62
f 65 551 60
f 60 552 570
f 571 60 570
f 574 571 572
f 568 820 573
f 692 707 708
f 814 819 569
f 709 414 415
f 533 919 920
f 278 280 297
f 280 281 294 295
f 293 294 284
f 281 283 294
f 296 297 295
f 297 280 295
f 292 293 290 291
f 284 287 293
f 287 288 289 290
f 309 307 308
f 293 287 290
f 298 299 812 813
f 405 809 507
f 405 402 808 809
f 297 813 402
f 402 278 297
f 490 488 489
f 491 493 490
f 807 808 813
f 402 813 808
f 813 297 298
f 506 507 809
f 811 506 810
f 809 810 506
f 811 983 506
f 983 505 506
f 961 811 812
f 496 497 495
f 405 507 508
f 309 310 307
f 304 307 310
f 306 307 304 305
f 313 304 310
f 782 299 300
f 300 301 302
f 302 303 316 317
f 316 303 314
f 304 313 303
f 783 812 782
f 320 780 781
f 781 782 300
f 955 957 780
f 781 300 319
f 958 783 780
f 312 313 310 311
f 319 300 302
f 812 783 960
f 959 960 958
f 783 958 960
f 969 811 965
f 811 961 965
f 961 962 965
f 965 962 963 964
f 969 965 966
f 968 969 966
f 961 812 960
f 955 956 957
f 966 967 968
f 950 947 949
f 949 947 948
f 957 958 780
f 811 969 971
f 299 782 812
f 531 533 920
f 540 541 487
f 532 533 531
f 535 536 537
f 533 534 918
f 493 494 487 488
f 492 493 491
f 487 494 539
f 539 494 495
f 500 501 499
f 539 499 501
f 502 539 501
f 539 495 499
f 495 497 499
f 540 487 539
f 493 488 490
f 917 534 915
f 915 534 535 914
f 538 914 535
f 917 915 916
f 909 910 907 908
f 913 914 912
f 917 918 534
f 502 912 538
f 911 912 502
f 502 538 539
f 503 911 502
f 929 927 928
f 911 906 910
f 927 934 926
f 503 906 911
f 538 912 914
f 535 537 538
f 503 504 906
f 499 497 498
f 905 906 504 505
f 505 983 905
f 984 905 983
f 981 979 980
f 971 972 981 982
f 982 811 971
f 972 978 981
f 973 978 972
f 981 978 979
f 985 986 987
f 811 982 983
f 907 910 906
f 931 934 930
f 933 934 932
f 934 931 932
f 903 901 902
f 903 904 984
f 927 929 930
f 985 1000 984
f 977 978 973
f 988 985 987
f 1000 1001 984
f 990 991 988
f 985 991 1000
f 989 990 988
f 985 988 991
f 1003 903 1001
f 1013 1014 1012
f 903 984 1001
f 905 984 904
f 934 927 930
f 971 969 970
f 991 999 1000
f 319 302 317
f 327 325 326
f 325 327 328
f 324 325 328 329
f 324 321 323
f 324 329 719
f 336 716 334
f 332 333 334
f 329 331 719
f 719 331 332 718
f 718 332 716
f 716 717 718
f 321 324 719
f 334 716 332
f 329 330 331
f 321 322 323
f 721 321 719
f 320 321 721 722
f 317 318 319
f 955 780 320
f 315 316 314
f 720 721 719
f 713 714 715
f 713 715 338
f 711 712 723
f 712 713 338 339
f 712 406 723
f 722 407 320
f 338 715 716
f 722 723 406
f 336 334 335
f 303 313 314
f 350 351 353
f 353 351 352
f 336 337 716
f 353 354 347 348
f 347 354 362
f 357 354 355
f 348 350 353
f 371 369 370
f 359 360 357
f 362 354 357
f 358 359 357
f 371 368 369
f 368 371 367
f 356 357 355
f 357 360 362
f 716 337 338
f 350 348 349
f 341 339 340
f 597 712 339
f 362 363 345
f 346 347 345
f 347 362 345
f 363 342 344
f 345 363 344
f 365 1055 363
f 364 365 363
f 365 366 1060 1055
f 342 343 344
f 362 360 361
f 366 367 1059 1060
f 367 371 1059
f 339 341 597
f 953 954 955
f 942 943 952 953
f 955 942 953
f 942 955 941
f 945 947 950
f 950 952 943
f 945 950 943
f 943 944 945
f 408 941 407
f 955 407 941
f 406 407 722
f 727 940 941
f 726 727 408 409
f 724 725 726
f 409 724 726
f 598 724 409
f 786 730 724
f 941 408 727
f 407 955 320
f 945 946 947
f 976 974 975
f 977 974 976
f 973 974 977
f 1014 1015 1016
f 617 1016 728
f 939 727 728
f 617 729 730
f 617 728 729
f 1016 617 618
f 622 619 620
f 613 1016 618
f 620 617 730
f 618 619 790
f 787 620 730
f 728 1016 939
f 727 939 940
f 406 598 409
f 952 950 951
f 600 597 341 342
f 597 598 406
f 363 600 342
f 363 1055 600
f 599 600 1055 1056
f 785 598 625
f 598 599 628 625
f 599 1056 628
f 724 598 786
f 1061 1056 1057
f 627 628 1061
f 1065 1066 1057 1058
f 1057 1066 1061
f 371 1065 1058
f 1058 1059 371
f 628 1056 1061
f 1061 1062 627
f 785 786 598
f 621 784 626
f 785 626 784
f 785 625 626
f 620 621 622
f 620 784 621
f 1067 623 624
f 622 789 619
f 621 626 624
f 784 620 787
f 624 626 627
f 730 786 787
f 623 1067 1068
f 1067 627 1062
f 1072 1067 1063
f 1063 1064 1071 1072
f 371 1070 1071
f 1068 1069 1078 1073
f 623 1068 608
f 1064 1065 371
f 627 1067 624
f 1062 1063 1067
f 623 789 622
f 1071 1064 371
f 597 406 712
f 830 1014 1016
f 1070 371 1077
f 320 781 319
f 1069 1070 1077 1078
f 900 901 416
f 901 903 1003
f 901 1003 1004
f 901 1004 416
f 998 996 997
f 996 998 999
f 991 996 999
f 992 996 991
f 992 993 996
f 994 995 993
f 993 995 996
f 750 751 1009
f 1009 1010 441 442
f 1002 1003 1001
f 1004 1005 416
f 709 445 446
f 416 1005 415
f 1008 1006 1007
f 1005 445 709
f 692 693 707
f 692 690 691
f 446 690 692
f 1006 751 1005
f 826 693 1052
f 446 692 708
f 1005 751 752
f 1005 752 445
f 1006 1009 751
f 448 445 752
f 446 688 689
f 447 448 683 684
f 688 446 447
f 689 690 446
f 687 688 447
f 749 448 752
f 1006 1008 1009
f 1012 1010 1011
f 709 415 1005
f 749 682 683
f 830 444 441
f 441 1010 1012
f 749 750 682
f 672 676 677
f 442 750 1009
f 447 684 687
f 442 831 682
f 831 442 443
f 668 681 682
f 678 679 677
f 671 679 680 670
f 681 668 680
f 679 671 677
f 668 682 612
f 750 442 682
f 830 441 1012
f 677 671 672
f 676 672 675
f 672 673 674 675
f 668 669 670
f 686 687 684
f 685 686 684
f 695 696 1050
f 665 666 668
f 665 668 663
f 667 668 666
f 663 664 665
f 609 663 668
f 668 670 680
f 1048 697 698
f 444 830 831
f 683 448 749
f 697 1049 696
f 59 60 571
f 59 571 1105
f 1102 1103 1104
f 1105 571 1104
f 1105 1106 1108
f 1105 58 59
f 1105 1108 1109
f 1109 58 1105
f 58 1109 1110 57
f 1051 1052 694
f 693 694 1052
f 577 1053 1041
f 1054 1041 1053
f 574 1099 1104
f 577 574 572
f 1104 1099 1102
f 1042 577 1041
f 1104 571 574
f 694 695 1050 1051
f 572 1053 577
f 573 1052 1053
f 55 56 57
f 54 1110 1111
f 54 57 1110
f 57 54 55
f 54 391 53
f 1107 54 1111
f 391 54 1107
f 389 390 1101
f 1107 1101 390
f 390 391 1107
f 388 50 393
f 53 392 393
f 388 389 1101
f 53 391 392
f 1100 388 1101
f 1106 1107 1111
f 1106 1111 1108
f 52 53 393
f 1102 1100 1101
f 60 61 65
f 1044 581 1043
f 696 1049 1050
f 743 574 575
f 575 576 742
f 1042 1043 576
f 581 576 1043
f 576 577 1042
f 576 581 742
f 731 1047 1048
f 698 662 736
f 1046 1047 732
f 1048 1049 697
f 581 1044 580
f 1046 1044 1045
f 579 580 585 582
f 1044 1046 580
f 581 578 742
f 556 579 582
f 1048 698 736
f 578 579 556 557
f 744 1099 574
f 1098 741 554
f 742 743 575
f 1098 744 741
f 1102 1099 1100
f 1097 1098 554
f 554 50 1097
f 50 388 1097
f 1098 1099 744
f 51 393 50
f 741 742 578
f 744 574 743
f 554 49 50
f 556 558 555
f 741 578 557
f 49 554 555
f 51 52 393
f 555 44 49
f 44 48 49
f 47 48 46
f 557 554 741
f 1100 1097 388
f 580 1046 585
f 662 663 734
f 832 682 831
f 444 831 443
f 613 833 1016
f 1012 1014 830
f 832 833 613 614
f 612 609 668
f 832 614 612
f 594 663 609
f 609 610 593 594
f 682 832 612
f 734 663 594
f 616 790 791
f 791 788 615
f 616 613 790
f 615 616 791
f 794 610 611
f 610 794 795
f 615 384 794
f 593 795 792
f 615 794 611
f 615 611 614
f 614 611 612
f 1016 833 830
f 795 593 610
f 662 735 736
f 594 595 734
f 735 662 734
f 733 734 595 591
f 733 1046 732
f 1046 733 592
f 733 591 592
f 595 596 590 591
f 1048 736 731
f 590 746 747
f 380 596 593
f 592 586 587
f 588 589 747
f 590 747 589
f 584 587 588
f 585 592 587
f 381 590 596
f 1046 592 585
f 588 747 748
f 605 788 789
f 789 608 605
f 789 623 608
f 606 788 605
f 606 384 615
f 607 384 606
f 384 607 387
f 1074 387 607
f 607 608 1073
f 793 794 384
f 607 1073 1074
f 608 1068 1073
f 1084 1079 1074 1075
f 1083 1084 1075 1076
f 1076 1 1083
f 1082 1083 1
f 387 1074 1079
f 1079 386 387
f 385 792 793
f 380 792 385
f 385 793 384
f 385 386 383 380
f 746 590 381
f 381 596 380
f 1086 382 383
f 376 746 381
f 381 382 379 376
f 383 386 1080
f 380 593 792
f 383 1085 1086
f 1080 1081 1090 1085
f 1081 1082 1089 1090
f 1089 1 1088
f 1086 1087 1096 1091
f 1086 379 382
f 1 1089 1082
f 1080 1085 383
f 386 1079 1080
f 1087 1088 1095 1096
f 371 1076 1077
f 615 788 606
f 618 790 613
f 561 556 582
f 372 560 583
f 585 587 584
f 582 583 560 561
f 558 556 561
f 38 559 560
f 558 559 43 44
f 748 583 584
f 555 558 44
f 377 748 745
f 745 376 377
f 745 746 376
f 583 377 372
f 372 37 38
f 373 29 372
f 37 372 29
f 374 28 373
f 29 373 28
f 38 560 372
f 36 37 29
f 372 377 375
f 377 583 748
f 584 588 748
f 38 43 559
f 40 38 39
f 38 40 43
f 40 42 43
f 45 46 48
f 42 40 41
f 35 36 34
f 44 45 48
f 32 34 30
f 30 36 29
f 32 33 34
f 30 31 32
f 26 27 28
f 30 34 36
f 378 375 377
f 378 379 1091 1092
f 1093 9 1092
f 9 378 1092
f 374 375 9 10
f 9 375 378
f 10 13 374
f 374 26 28
f 1094 1 7
f 1086 1091 379
f 1093 1094 7 8
f 5 6 7
f 7 1 5
f 11 12 10
f 1 1094 1095
f 9 1093 8
f 26 13 14 25
f 26 374 13
f 23 24 25
f 20 21 22
f 20 25 19
f 25 20 23
f 19 25 14
f 18 19 14
f 22 23 20
f 16 17 15
f 14 15 17
f 2 4 1
f 3 4 2
f 4 5 1
f 14 17 18
f 13 10 12
f 1 1095 1088
f 1076 371 1
f 731 732 1047
f 790 619 789
f 926 934 838
