# Rhino

o F36_3603_bathroom_powder_5
v 84.25068433118517 4.2000000000000028 -0.11174824024114827
v 84.240818849193715 4.2000000000000028 2.5135331941562455
v 86.306115181542538 4.2000000000000028 2.5135331941562455
v 86.306115181542538 4.2000000000000028 -0.11174824024114827
v 84.25068433118517 0.20000000000000284 -0.11174824024114827
v 84.240818849193715 0.20000000000000284 2.5135331941562455
v 86.306115181542538 0.20000000000000284 2.5135331941562455
v 86.306115181542538 0.20000000000000284 -0.11174824024114827
f 1 2 3 4
f 5 8 7 6
f 5 6 2 1
f 6 7 3 2
f 8 5 1 4
f 7 8 4 3
o F36_3603_bathroom_powder_9
v 86.306115181542538 4.2000000000000028 -0.11174824024114827
v 88.109458083436806 4.2000000000000028 -0.11174824024114827
v 88.102772279649713 4.2000000000000028 2.5135331941562313
v 86.306115181542538 4.2000000000000028 2.5135331941562313
v 86.306115181542538 0.20000000000000284 -0.11174824024114827
v 88.109458083436806 0.20000000000000284 -0.11174824024114827
v 88.102772279649713 0.20000000000000284 2.5135331941562313
v 86.306115181542538 0.20000000000000284 2.5135331941562313
f 9 12 11 10
f 13 14 15 16
f 16 12 9 13
f 15 11 12 16
f 13 9 10 14
f 14 10 11 15
o F36_3601_bathroom_full
v 50.775093203322257 4.2000000000000028 -9.7220133175549606
v 50.759272552273899 4.2000000000000028 -13.641936196937877
v 52.355050510420796 4.2000000000000028 -13.641936196937877
v 52.355542037094295 4.2000000000000028 -9.7220296793974157
v 50.775093203322257 0.20000000000000284 -9.7220133175549606
v 50.759272552273899 0.20000000000000284 -13.641936196937877
v 52.355050510420796 0.20000000000000284 -13.641936196937877
v 52.355542037094295 0.20000000000000284 -9.7220296793974157
f 17 20 19 18
f 21 22 23 24
f 21 17 18 22
f 22 18 19 23
f 24 20 17 21
f 23 19 20 24
o F36_3601_bathroom_powder_5
v 59.169534641804944 4.2000000000000028 -11.342029679398046
v 59.178929331710208 4.2000000000000028 -8.8420296782137129
v 56.824863145381642 4.2000000000000028 -8.8420296782137129
v 56.824863145381642 4.2000000000000028 -11.342029679398046
v 59.169534641804944 0.20000000000000284 -11.342029679398046
v 59.178929331710208 0.20000000000000284 -8.8420296782137129
v 56.824863145381642 0.20000000000000284 -8.8420296782137129
v 56.824863145381642 0.20000000000000284 -11.342029679398046
f 25 28 27 26
f 29 30 31 32
f 31 27 28 32
f 32 28 25 29
f 30 26 27 31
f 29 25 26 30
o F36_3601_bathroom_powder_11
v 57.195545403005752 4.2000000000000028 -3.1424069694967685
v 57.189722113081103 4.2000000000000028 -4.6920296782136788
v 60.692883938326617 4.2000000000000028 -4.6920296782136788
v 60.692883938326617 4.2000000000000028 -3.1424069694967685
v 57.195545403005752 0.20000000000000284 -3.1424069694967685
v 57.189722113081103 0.20000000000000284 -4.6920296782136788
v 60.692883938326617 0.20000000000000284 -4.6920296782136788
v 60.692883938326617 0.20000000000000284 -3.1424069694967685
f 33 36 35 34
f 37 38 39 40
f 37 33 34 38
f 38 34 35 39
f 40 36 33 37
f 39 35 36 40
o F36_3601_bathroom_powder
v 54.207635067230314 4.2000000000000028 -13.641936196937877
v 54.207635067230314 4.2000000000000028 -9.7220296793974157
v 52.355571002158797 4.2000000000000028 -9.7220296793974157
v 52.354970611950904 4.2000000000000028 -13.641936196937877
v 54.207635067230314 0.20000000000000284 -13.641936196937877
v 54.207635067230314 0.20000000000000284 -9.7220296793974157
v 52.355571002158797 0.20000000000000284 -9.7220296793974157
v 52.354970611950904 0.20000000000000284 -13.641936196937877
f 41 44 43 42
f 45 46 47 48
f 47 43 44 48
f 48 44 41 45
f 46 42 43 47
f 45 41 42 46
o F36_3601_bathroom_powder_15
v 58.761869443471085 4.2000000000000028 3.3075930288306736
v 58.755219501297432 4.2000000000000028 0.70760108361259455
v 60.692883938326617 4.2000000000000028 0.70759303050221689
v 60.692883938326617 4.2000000000000028 3.3075930288306736
v 58.761869443471085 0.20000000000000284 3.3075930288306736
v 58.755219501297432 0.20000000000000284 0.70760108361259455
v 60.692883938326617 0.20000000000000284 0.70759303050221689
v 60.692883938326617 0.20000000000000284 3.3075930288306736
f 49 52 51 50
f 53 54 55 56
f 53 49 50 54
f 54 50 51 55
f 56 52 49 53
f 55 51 52 56
o F36_3602_bathroom_powder_13
v 72.800684331185181 4.2000000000000028 -0.11174824024114827
v 74.824548060332205 4.2000000000000028 -0.11174824024114827
v 74.814006160653349 4.2000000000000028 2.6935331980194022
v 72.790142431506354 4.2000000000000028 2.6935331980194022
v 72.800684331185181 0.20000000000000284 -0.11174824024114827
v 74.824548060332205 0.20000000000000284 -0.11174824024114827
v 74.814006160653349 0.20000000000000284 2.6935331980194022
v 72.790142431506354 0.20000000000000284 2.6935331980194022
f 57 60 59 58
f 61 62 63 64
f 64 60 57 61
f 63 59 60 64
f 61 57 58 62
f 62 58 59 63
o F36_3602_bathroom_full
v 66.545683760449947 4.2000000000000028 -0.106881793137795
v 66.535893435977755 4.2000000000000028 2.4983996412587786
v 68.840894006712944 4.2000000000000028 2.4935331941554253
v 68.850684331185136 4.2000000000000028 -0.11174824024114827
v 66.545683760449947 0.20000000000000284 -0.106881793137795
v 66.535893435977755 0.20000000000000284 2.4983996412587786
v 68.840894006712944 0.20000000000000284 2.4935331941554253
v 68.850684331185136 0.20000000000000284 -0.11174824024114827
f 65 66 67 68
f 69 72 71 70
f 69 70 66 65
f 70 71 67 66
f 72 69 65 68
f 71 72 68 67
o F36_3602_bathroom_powder_9
v 70.906115182556107 4.2000000000000028 -0.11174824024114827
v 70.906115182556107 4.2000000000000028 3.5935331943860618
v 72.78676034315572 4.2000000000000028 3.5935331943860618
v 72.800684331185181 4.2000000000000028 -0.11174824024114827
v 70.906115182556107 0.20000000000000284 -0.11174824024114827
v 70.906115182556107 0.20000000000000284 3.5935331943860618
v 72.78676034315572 0.20000000000000284 3.5935331943860618
v 72.800684331185181 0.20000000000000284 -0.11174824024114827
f 73 74 75 76
f 77 80 79 78
f 77 78 74 73
f 78 79 75 74
f 80 77 73 76
f 79 80 76 75
o F36_3602_bathroom_powder_14
v 72.800684331185181 4.2000000000000028 -9.5367482447709833
v 74.824548060332205 4.2000000000000028 -9.5367482447709833
v 74.814006160653349 4.2000000000000028 -12.342029683031534
v 72.790142431506354 4.2000000000000028 -12.342029683031534
v 72.800684331185181 0.20000000000000284 -9.5367482447709833
v 74.824548060332205 0.20000000000000284 -9.5367482447709833
v 74.814006160653349 0.20000000000000284 -12.342029683031534
v 72.790142431506354 0.20000000000000284 -12.342029683031534
f 81 82 83 84
f 85 88 87 86
f 88 85 81 84
f 87 88 84 83
f 85 86 82 81
f 86 87 83 82
o F36_3602_bathroom_powder_10
v 70.906115182556107 4.2000000000000028 -9.5367482447709833
v 70.906115182556107 4.2000000000000028 -13.242029679398193
v 72.78676034315572 4.2000000000000028 -13.242029679398193
v 72.800684331185181 4.2000000000000028 -9.5367482447709833
v 70.906115182556107 0.20000000000000284 -9.5367482447709833
v 70.906115182556107 0.20000000000000284 -13.242029679398193
v 72.78676034315572 0.20000000000000284 -13.242029679398193
v 72.800684331185181 0.20000000000000284 -9.5367482447709833
f 89 92 91 90
f 93 94 95 96
f 93 89 90 94
f 94 90 91 95
f 96 92 89 93
f 95 91 92 96
o F36_3601_bathroom_powder_9
v 57.399763867228359 4.2000000000000028 10.007593029303671
v 57.392623902903694 4.2000000000000028 8.1075930293036222
v 60.121793593134726 4.2000000000000028 8.1075930293036222
v 60.130436707843444 4.2000000000000028 10.007593029303671
v 57.399763867228359 0.20000000000000284 10.007593029303671
v 57.392623902903694 0.20000000000000284 8.1075930293036222
v 60.121793593134726 0.20000000000000284 8.1075930293036222
v 60.130436707843444 0.20000000000000284 10.007593029303671
f 97 100 99 98
f 101 102 103 104
f 101 97 98 102
f 102 98 99 103
f 104 100 97 101
f 103 99 100 104
o F36_3601_bathroom_powder_7
v 56.160478726051139 4.2000000000000028 8.1075930293036222
v 56.151837029158685 4.2000000000000028 5.8079703212427702
v 60.119329862340976 4.2000000000000028 5.8079703212427845
v 60.12797155923343 4.2000000000000028 8.1075930293036222
v 56.160478726051139 0.20000000000000284 8.1075930293036222
v 56.151837029158685 0.20000000000000284 5.8079703212427702
v 60.119329862340976 0.20000000000000284 5.8079703212427845
v 60.12797155923343 0.20000000000000284 8.1075930293036222
f 105 108 107 106
f 109 110 111 112
f 109 105 106 110
f 110 106 107 111
f 112 108 105 109
f 111 107 108 112
o F36_3604_bathroom_powder_13
v 104.99172879492764 4.2000000000000028 -1.0420296805976577
v 103.05611515048946 4.2000000000000028 -1.0420296805976577
v 103.05611515048946 4.2000000000000028 3.957970320586675
v 104.99172879492764 4.2000000000000028 3.957970320586675
v 104.99172879492764 0.20000000000000284 -1.0420296805976577
v 103.05611515048946 0.20000000000000284 -1.0420296805976577
v 103.05611515048946 0.20000000000000284 3.957970320586675
v 104.99172879492764 0.20000000000000284 3.957970320586675
f 113 114 115 116
f 117 120 119 118
f 118 119 115 114
f 119 120 116 115
f 117 118 114 113
f 120 117 113 116
o F36_3604_bathroom_powder_15
v 106.85611508737418 4.2000000000000028 2.8579703205867091
v 106.85611508737418 4.2000000000000028 -1.0420296805976577
v 104.99172879492764 4.2000000000000028 -1.0420296805976577
v 104.99172879492764 4.2000000000000028 2.8579703205867091
v 106.85611508737418 0.20000000000000284 2.8579703205867091
v 106.85611508737418 0.20000000000000284 -1.0420296805976577
v 104.99172879492764 0.20000000000000284 -1.0420296805976577
v 104.99172879492764 0.20000000000000284 2.8579703205867091
f 121 122 123 124
f 125 128 127 126
f 127 128 124 123
f 128 125 121 124
f 126 127 123 122
f 125 126 122 121
o F36_3604_bathroom_powder
v 99.756115150490302 4.2000000000000028 -8.6420296805980357
v 96.412098735874537 4.2000000000000028 -8.6420296805980499
v 96.412098735874537 4.2000000000000028 -6.7670296804607446
v 99.756115150490302 4.2000000000000028 -6.7670296804607446
v 99.756115150490302 0.20000000000000284 -8.6420296805980357
v 96.412098735874537 0.20000000000000284 -8.6420296805980499
v 96.412098735874537 0.20000000000000284 -6.7670296804607446
v 99.756115150490302 0.20000000000000284 -6.7670296804607446
f 129 130 131 132
f 133 136 135 134
f 134 135 131 130
f 135 136 132 131
f 133 134 130 129
f 136 133 129 132
o F36_3604_bathroom_powder_4
v 99.756115150490302 4.2000000000000028 -4.9920296805830944
v 99.756115150490302 4.2000000000000028 -6.7670296804607446
v 96.412098735874537 4.2000000000000028 -6.7670296804607446
v 96.412098735874537 4.2000000000000028 -4.9920296805830944
v 99.756115150490302 0.20000000000000284 -4.9920296805830944
v 99.756115150490302 0.20000000000000284 -6.7670296804607446
v 96.412098735874537 0.20000000000000284 -6.7670296804607446
v 96.412098735874537 0.20000000000000284 -4.9920296805830944
f 137 138 139 140
f 141 144 143 142
f 143 144 140 139
f 144 141 137 140
f 142 143 139 138
f 141 142 138 137
o F36_3604_bathroom_powder_5
v 99.756115150490302 4.2000000000000028 -17.692029679397677
v 99.756115150490302 4.2000000000000028 -20.092029679397797
v 96.412098735874537 4.2000000000000028 -20.092029679397797
v 96.412098735874537 4.2000000000000028 -17.692029679397677
v 99.756115150490302 0.20000000000000284 -17.692029679397677
v 99.756115150490302 0.20000000000000284 -20.092029679397797
v 96.412098735874537 0.20000000000000284 -20.092029679397797
v 96.412098735874537 0.20000000000000284 -17.692029679397677
f 145 146 147 148
f 149 152 151 150
f 151 152 148 147
f 152 149 145 148
f 150 151 147 146
f 149 150 146 145
o F36_3604_bathroom_full
v 98.406115150488745 4.2000000000000028 -12.992029678924574
v 96.412098735874537 4.2000000000000028 -12.992029678924574
v 96.412098735874537 4.2000000000000028 -10.441807309047199
v 98.406115150488745 4.2000000000000028 -10.441807309047199
v 98.406115150488745 0.20000000000000284 -12.992029678924574
v 96.412098735874537 0.20000000000000284 -12.992029678924574
v 96.412098735874537 0.20000000000000284 -10.441807309047199
v 98.406115150488745 0.20000000000000284 -10.441807309047199
f 153 154 155 156
f 157 160 159 158
f 158 159 155 154
f 159 160 156 155
f 157 158 154 153
f 160 157 153 156
o F36_3601_bathroom_powder_13
v 60.692883938326617 4.2000000000000028 -3.1424069694967685
v 60.692883938326617 4.2000000000000028 -1.192029678213764
v 57.202874678942237 4.2000000000000028 -1.192029678213764
v 57.195545403005752 4.2000000000000028 -3.1424069694967685
v 60.692883938326617 0.20000000000000284 -3.1424069694967685
v 60.692883938326617 0.20000000000000284 -1.192029678213764
v 57.202874678942237 0.20000000000000284 -1.192029678213764
v 57.195545403005752 0.20000000000000284 -3.1424069694967685
f 161 164 163 162
f 165 166 167 168
f 167 163 164 168
f 168 164 161 165
f 166 162 163 167
f 165 161 162 166
o F36_3602_bathroom_powder_5
v 68.850684331185164 4.2000000000000028 -0.11174824024114827
v 68.840894006712944 4.2000000000000028 2.4935331941554253
v 70.906115182556078 4.2000000000000028 2.4935331941554253
v 70.906115182556107 4.2000000000000028 -0.11174824024114827
v 68.850684331185164 0.20000000000000284 -0.11174824024114827
v 68.840894006712944 0.20000000000000284 2.4935331941554253
v 70.906115182556078 0.20000000000000284 2.4935331941554253
v 70.906115182556107 0.20000000000000284 -0.11174824024114827
f 169 170 171 172
f 173 176 175 174
f 173 174 170 169
f 174 175 171 170
f 176 173 169 172
f 175 176 172 171
o F36_3603_bathroom_powder_13
v 89.312800985330341 4.2000000000000028 -0.11174824024114827
v 89.306115181543248 4.2000000000000028 2.5135331941562313
v 91.861478428758943 4.2000000000000028 2.5135331941562313
v 91.868164232546064 4.2000000000000028 -0.11174824024114827
v 89.312800985330341 0.20000000000000284 -0.11174824024114827
v 89.306115181543248 0.20000000000000284 2.5135331941562313
v 91.861478428758943 0.20000000000000284 2.5135331941562313
v 91.868164232546064 0.20000000000000284 -0.11174824024114827
f 177 178 179 180
f 181 184 183 182
f 181 182 178 177
f 182 183 179 178
f 184 181 177 180
f 183 184 180 179
o F36_3602_bathroom_ensuite
v 66.545683760449947 4.2000000000000028 -9.5416146918743365
v 66.535893435977755 4.2000000000000028 -12.14689612627091
v 68.840894006712944 4.2000000000000028 -12.142029679167557
v 68.850684331185136 4.2000000000000028 -9.5367482447709833
v 66.545683760449947 0.20000000000000284 -9.5416146918743365
v 66.535893435977755 0.20000000000000284 -12.14689612627091
v 68.840894006712944 0.20000000000000284 -12.142029679167557
v 68.850684331185136 0.20000000000000284 -9.5367482447709833
f 185 188 187 186
f 189 190 191 192
f 189 185 186 190
f 190 186 187 191
f 192 188 185 189
f 191 187 188 192
o F36_3602_bathroom_powder_6
v 68.850684331185164 4.2000000000000028 -9.5367482447709833
v 68.840894006712944 4.2000000000000028 -12.142029679167557
v 70.906115182556078 4.2000000000000028 -12.142029679167557
v 70.906115182556107 4.2000000000000028 -9.5367482447709833
v 68.850684331185164 0.20000000000000284 -9.5367482447709833
v 68.840894006712944 0.20000000000000284 -12.142029679167557
v 70.906115182556078 0.20000000000000284 -12.142029679167557
v 70.906115182556107 0.20000000000000284 -9.5367482447709833
f 193 196 195 194
f 197 198 199 200
f 197 193 194 198
f 198 194 195 199
f 200 196 193 197
f 199 195 196 200
o F36_3603_bathroom_powder_7
v 84.25068433118517 4.2000000000000028 -9.5367482447709833
v 84.240818849193715 4.2000000000000028 -12.162029679168377
v 86.401182440546791 4.2000000000000028 -12.162029679168377
v 86.411047922538245 4.2000000000000028 -9.5367482447709833
v 84.25068433118517 0.20000000000000284 -9.5367482447709833
v 84.240818849193715 0.20000000000000284 -12.162029679168377
v 86.401182440546791 0.20000000000000284 -12.162029679168377
v 86.411047922538245 0.20000000000000284 -9.5367482447709833
f 201 204 203 202
f 205 206 207 208
f 205 201 202 206
f 206 202 203 207
f 208 204 201 205
f 207 203 204 208
o F36_3603_bathroom_powder_14
v 89.312800985330341 4.2000000000000028 -9.5367482447709833
v 89.306115181543248 4.2000000000000028 -12.162029679168363
v 91.861478428758943 4.2000000000000028 -12.162029679168363
v 91.868164232546064 4.2000000000000028 -9.5367482447709833
v 89.312800985330341 0.20000000000000284 -9.5367482447709833
v 89.306115181543248 0.20000000000000284 -12.162029679168363
v 91.861478428758943 0.20000000000000284 -12.162029679168363
v 91.868164232546064 0.20000000000000284 -9.5367482447709833
f 209 212 211 210
f 213 214 215 216
f 213 209 210 214
f 214 210 211 215
f 216 212 209 213
f 215 211 212 216
o F36_3603_bathroom_powder_11
v 86.407391455399164 4.2000000000000028 -9.5367482447709833
v 88.109458083436806 4.2000000000000028 -9.5367482447709833
v 88.102772279649713 4.2000000000000028 -12.162029679168363
v 86.400705651612071 4.2000000000000028 -12.162029679168363
v 86.407391455399164 0.20000000000000284 -9.5367482447709833
v 88.109458083436806 0.20000000000000284 -9.5367482447709833
v 88.102772279649713 0.20000000000000284 -12.162029679168363
v 86.400705651612071 0.20000000000000284 -12.162029679168363
f 217 218 219 220
f 221 224 223 222
f 224 221 217 220
f 223 224 220 219
f 221 222 218 217
f 222 223 219 218
o F36_3604_bathroom_powder_11
v 100.25611508737416 4.2000000000000028 -1.0420296805976577
v 97.906115119440813 4.2000000000000028 -1.0420296805976577
v 97.906115119440784 4.2000000000000028 1.6579703205866636
v 100.25611508737418 4.2000000000000028 1.6579703205866636
v 100.25611508737416 0.20000000000000284 -1.0420296805976577
v 97.906115119440813 0.20000000000000284 -1.0420296805976577
v 97.906115119440784 0.20000000000000284 1.6579703205866636
v 100.25611508737418 0.20000000000000284 1.6579703205866636
f 225 226 227 228
f 229 232 231 230
f 230 231 227 226
f 231 232 228 227
f 229 230 226 225
f 232 229 225 228
o F36_3604_bathroom_powder_9
v 100.97611515049033 4.2000000000000028 -15.692029683106767
v 100.97611515049033 4.2000000000000028 -17.692029679397677
v 96.412098735874537 4.2000000000000028 -17.692029679397677
v 96.412098735874537 4.2000000000000028 -15.692029683106767
v 100.97611515049033 0.20000000000000284 -15.692029683106767
v 100.97611515049033 0.20000000000000284 -17.692029679397677
v 96.412098735874537 0.20000000000000284 -17.692029679397677
v 96.412098735874537 0.20000000000000284 -15.692029683106767
f 233 234 235 236
f 237 240 239 238
f 239 240 236 235
f 240 237 233 236
f 238 239 235 234
f 237 238 234 233
o F36_3603_bathroom_full
v 80.152480214135636 4.2000000000000028 1.5935331983076466
v 78.374980213921788 4.2000000000000028 1.5935331983076324
v 78.378184331983562 4.2000000000000028 -0.11174824024114827
v 80.155684332197382 4.2000000000000028 -0.11174824024114827
v 80.152480214135636 0.20000000000000284 1.5935331983076466
v 78.374980213921788 0.20000000000000284 1.5935331983076324
v 78.378184331983562 0.20000000000000284 -0.11174824024114827
v 80.155684332197382 0.20000000000000284 -0.11174824024114827
f 241 244 243 242
f 245 246 247 248
f 246 242 243 247
f 245 241 242 246
f 247 243 244 248
f 248 244 241 245
o F36_3603_bathroom_ensuite
v 80.152480214135636 4.2000000000000028 -11.242029683319778
v 78.374980213921788 4.2000000000000028 -11.242029683319764
v 78.378184331983562 4.2000000000000028 -9.5367482447709833
v 80.155684332197382 4.2000000000000028 -9.5367482447709833
v 80.152480214135636 0.20000000000000284 -11.242029683319778
v 78.374980213921788 0.20000000000000284 -11.242029683319764
v 78.378184331983562 0.20000000000000284 -9.5367482447709833
v 80.155684332197382 0.20000000000000284 -9.5367482447709833
f 249 250 251 252
f 253 256 255 254
f 254 255 251 250
f 253 254 250 249
f 255 256 252 251
f 256 253 249 252
o F36_3602_bathroom_powder_17
v 78.374980213921788 4.2000000000000028 1.5935331983076608
v 76.600684331769713 4.2000000000000028 1.5935331983076466
v 76.600684331769713 4.2000000000000028 -0.11174824024113406
v 78.378184331983533 4.2000000000000028 -0.11174824024113406
v 78.374980213921788 0.20000000000000284 1.5935331983076608
v 76.600684331769713 0.20000000000000284 1.5935331983076466
v 76.600684331769713 0.20000000000000284 -0.11174824024113406
v 78.378184331983533 0.20000000000000284 -0.11174824024113406
f 257 260 259 258
f 261 262 263 264
f 262 258 259 263
f 261 257 258 262
f 263 259 260 264
f 264 260 257 261
o F36_3602_bathroom_powder_18
v 78.374980213921788 4.2000000000000028 -11.242029683319764
v 76.600684331769713 4.2000000000000028 -11.24202968331975
v 76.600684331769713 4.2000000000000028 -9.5367482447709691
v 78.378184331983533 4.2000000000000028 -9.5367482447709691
v 78.374980213921788 0.20000000000000284 -11.242029683319764
v 76.600684331769713 0.20000000000000284 -11.24202968331975
v 76.600684331769713 0.20000000000000284 -9.5367482447709691
v 78.378184331983533 0.20000000000000284 -9.5367482447709691
f 265 266 267 268
f 269 272 271 270
f 270 271 267 266
f 269 270 266 265
f 271 272 268 267
f 272 269 265 268
