# Rhino

o F36_3601_kitchen_3
v 53.97423689057544 4.2000000000000028 -14.842029679398223
v 53.956856714258919 4.2000000000000028 -19.467029679398223
v 56.824863145381642 4.2000000000000028 -19.465732488089117
v 56.824863145381642 4.2000000000000028 -14.840732488089088
v 53.97423689057544 0.20000000000000284 -14.842029679398223
v 53.956856714258919 0.20000000000000284 -19.467029679398223
v 56.824863145381642 0.20000000000000284 -19.465732488089117
v 56.824863145381642 0.20000000000000284 -14.840732488089088
f 1 4 3 2
f 5 6 7 8
f 5 1 2 6
f 6 2 3 7
f 8 4 1 5
f 7 3 4 8
o F36_3603_kitchen_5
v 94.606115150488733 4.2000000000000028 2.381033194207113
v 94.606115150488733 4.2000000000000028 -0.11174824024114827
v 91.871343910750369 4.2000000000000028 -0.11174824024114827
v 91.861976347323491 4.2000000000000028 2.381033194207113
v 94.606115150488733 0.20000000000000284 2.381033194207113
v 94.606115150488733 0.20000000000000284 -0.11174824024114827
v 91.871343910750369 0.20000000000000284 -0.11174824024114827
v 91.861976347323491 0.20000000000000284 2.381033194207113
f 9 10 11 12
f 13 16 15 14
f 15 16 12 11
f 16 13 9 12
f 14 15 11 10
f 13 14 10 9
o F36_3603_kitchen
v 81.905987049140521 4.2000000000000028 -0.11174824024114827
v 81.895445149461722 4.2000000000000028 2.6935331980194022
v 84.240142431506371 4.2000000000000028 2.6935331980194022
v 84.25068433118517 4.2000000000000028 -0.11174824024114827
v 81.905987049140521 0.20000000000000284 -0.11174824024114827
v 81.895445149461722 0.20000000000000284 2.6935331980194022
v 84.240142431506371 0.19999999999998863 2.6935331980194022
v 84.25068433118517 0.20000000000000284 -0.11174824024114827
f 17 18 19 20
f 21 24 23 22
f 21 22 18 17
f 22 23 19 18
f 24 21 17 20
f 23 24 20 19
o F36_3601_kitchen
v 55.04244092143901 4.2000000000000028 3.3075930288307021
v 55.051837029157923 4.2000000000000028 5.8079703212427702
v 50.576837029158327 4.2000000000000028 5.807970321242756
v 50.567440921439413 4.2000000000000028 3.3075930288306452
v 55.04244092143901 0.20000000000000284 3.3075930288307021
v 55.051837029157923 0.20000000000000284 5.8079703212427702
v 50.576837029158327 0.20000000000000284 5.807970321242756
v 50.567440921439413 0.20000000000000284 3.3075930288306452
f 25 28 27 26
f 29 30 31 32
f 31 27 28 32
f 32 28 25 29
f 30 26 27 31
f 29 25 26 30
o F36_3604_kitchen_3
v 103.05611515048946 4.2000000000000028 5.157970320586891
v 100.25611508737418 4.2000000000000028 5.1579703205868768
v 100.25611508737418 4.2000000000000028 9.7829703206009597
v 103.05611515048946 4.2000000000000028 9.7829703206009597
v 103.05611515048946 0.20000000000000284 5.157970320586891
v 100.25611508737418 0.20000000000000284 5.1579703205868768
v 100.25611508737418 0.20000000000000284 9.7829703206009597
v 103.05611515048946 0.20000000000000284 9.7829703206009597
f 33 34 35 36
f 37 40 39 38
f 38 39 35 34
f 39 40 36 35
f 37 38 34 33
f 40 37 33 36
o F36_3604_kitchen
v 96.412098735874537 4.2000000000000028 -1.0420296805976577
v 99.336115150159827 4.2000000000000028 -1.0420296805976577
v 99.336115150159799 4.2000000000000028 -3.6920296805829125
v 96.412098735874537 4.2000000000000028 -3.6920296805829125
v 96.412098735874537 0.20000000000000284 -1.0420296805976577
v 99.336115150159827 0.20000000000000284 -1.0420296805976577
v 99.336115150159799 0.20000000000000284 -3.6920296805829125
v 96.412098735874537 0.20000000000000284 -3.6920296805829125
f 41 42 43 44
f 45 48 47 46
f 48 45 41 44
f 45 46 42 41
f 47 48 44 43
f 46 47 43 42
o F36_3601_kitchen_5
v 60.692883938326617 4.2000000000000028 -8.8420296782137129
v 60.692883938326617 4.2000000000000028 -6.2830116438483614
v 57.733146469685011 4.2000000000000028 -6.2830116438483614
v 57.732980861680744 4.2000000000000028 -8.8420296782137129
v 60.692883938326617 0.20000000000000284 -8.8420296782137129
v 60.692883938326617 0.20000000000000284 -6.2830116438483614
v 57.733146469685011 0.20000000000000284 -6.2830116438483614
v 57.732980861680744 0.20000000000000284 -8.8420296782137129
f 49 52 51 50
f 53 54 55 56
f 55 51 52 56
f 56 52 49 53
f 54 50 51 55
f 53 49 50 54
o F36_3602_kitchen
v 62.956115150489126 4.2000000000000028 -0.11174824024114827
v 66.545683760449947 4.2000000000000028 -0.11174824024114827
v 66.535893435977755 4.2000000000000028 2.4935331941554253
v 62.956115150489126 4.2000000000000028 2.4935331941554253
v 62.956115150489126 0.20000000000000284 -0.11174824024114827
v 66.545683760449947 0.20000000000000284 -0.11174824024114827
v 66.535893435977755 0.20000000000000284 2.4935331941554253
v 62.956115150489126 0.20000000000000284 2.4935331941554253
f 57 60 59 58
f 61 62 63 64
f 64 60 57 61
f 63 59 60 64
f 61 57 58 62
f 62 58 59 63
o F36_3602_kitchen_2
v 62.956115150489126 4.2000000000000028 -9.5367482447709833
v 66.545683760449947 4.2000000000000028 -9.5367482447709833
v 66.535893435977755 4.2000000000000028 -12.142029679167557
v 62.956115150489126 4.2000000000000028 -12.142029679167557
v 62.956115150489126 0.20000000000000284 -9.5367482447709833
v 66.545683760449947 0.20000000000000284 -9.5367482447709833
v 66.535893435977755 0.20000000000000284 -12.142029679167557
v 62.956115150489126 0.20000000000000284 -12.142029679167557
f 65 66 67 68
f 69 72 71 70
f 72 69 65 68
f 71 72 68 67
f 69 70 66 65
f 70 71 67 66
o F36_3603_kitchen_6
v 94.606115150488733 4.2000000000000028 -12.029529679219245
v 94.606115150488733 4.2000000000000028 -9.5367482447709833
v 91.871343910750369 4.2000000000000028 -9.5367482447709833
v 91.861976347323491 4.2000000000000028 -12.029529679219245
v 94.606115150488733 0.20000000000000284 -12.029529679219245
v 94.606115150488733 0.20000000000000284 -9.5367482447709833
v 91.871343910750369 0.20000000000000284 -9.5367482447709833
v 91.861976347323491 0.20000000000000284 -12.029529679219245
f 73 76 75 74
f 77 78 79 80
f 79 75 76 80
f 80 76 73 77
f 78 74 75 79
f 77 73 74 78
o F36_3603_kitchen_2
v 81.905987049140521 4.2000000000000028 -9.5367482447709833
v 81.895445149461722 4.2000000000000028 -12.342029683031534
v 84.240142431506371 4.2000000000000028 -12.342029683031534
v 84.25068433118517 4.2000000000000028 -9.5367482447709833
v 81.905987049140521 0.20000000000000284 -9.5367482447709833
v 81.895445149461722 0.20000000000000284 -12.342029683031534
v 84.240142431506371 0.19999999999998863 -12.342029683031534
v 84.25068433118517 0.20000000000000284 -9.5367482447709833
f 81 84 83 82
f 85 86 87 88
f 85 81 82 86
f 86 82 83 87
f 88 84 81 85
f 87 83 84 88
o F36_3604_kitchen_5
v 102.05569929386257 4.2000000000000028 -15.692029683106767
v 102.05569929386257 4.2000000000000028 -12.992029678924574
v 106.53111515048911 4.2000000000000028 -12.992029678924574
v 106.53111515048911 4.2000000000000028 -15.692029683106767
v 102.05569929386257 0.20000000000000284 -15.692029683106767
v 102.05569929386257 0.20000000000000284 -12.992029678924574
v 106.53111515048911 0.20000000000000284 -12.992029678924574
v 106.53111515048911 0.20000000000000284 -15.692029683106767
f 89 90 91 92
f 93 96 95 94
f 93 94 90 89
f 94 95 91 90
f 96 93 89 92
f 95 96 92 91
