# Rhino

o F36_3601_living_room
v 58.755219501297432 4.2000000000000028 0.70760108361259455
v 52.350717294488817 4.2000000000000028 -1.192029678213764
v 60.692883938326617 4.2000000000000028 -1.192029678213764
v 58.755219501297432 0.20000000000000284 0.70760108361259455
v 52.350717294488817 0.20000000000000284 -1.192029678213764
v 60.692883938326617 0.20000000000000284 -1.192029678213764
v 60.692883938326617 4.2000000000000028 0.70759303050221689
v 60.692883938326617 0.20000000000000284 0.70759303050221689
v 52.362225880452002 4.2000000000000028 3.3075930288306452
v 58.761869443471085 4.2000000000000028 3.3075930288306736
v 52.362225880452002 0.20000000000000284 3.3075930288306452
v 58.761869443471085 0.20000000000000284 3.3075930288306736
f 2 9 10 1 7 3
f 5 6 8 4 12 11
f 11 9 2 5
f 5 2 3 6
f 12 10 9 11
f 4 1 10 12
f 8 7 1 4
f 6 3 7 8
o F36_3603_living_room
v 81.905987049140521 4.2000000000000028 -0.11174824024114827
v 80.155684332197382 4.2000000000000028 -0.11174824024114827
v 81.895445149461722 4.2000000000000028 2.6935331980194022
v 81.905987049140521 0.20000000000000284 -0.11174824024114827
v 80.155684332197382 0.20000000000000284 -0.11174824024114827
v 81.895445149461722 0.20000000000000284 2.6935331980194022
v 80.125226747549704 4.2000000000000028 7.9932517568904373
v 80.125226747549704 0.20000000000000284 7.9932517568904373
v 84.240142431506371 4.2000000000000028 2.6935331980194022
v 84.220226746537463 4.2000000000000028 7.9932517568904373
v 84.240142431506371 0.19999999999998863 2.6935331980194022
v 84.220226746537463 0.20000000000000284 7.9932517568904373
f 13 14 19 22 21 15
f 16 18 23 24 20 17
f 17 20 19 14
f 20 24 22 19
f 16 17 14 13
f 18 16 13 15
f 23 18 15 21
f 24 23 21 22
o F36_3603_living_room_2
v 81.905987049140521 4.2000000000000028 -9.5367482447709833
v 80.155684332197382 4.2000000000000028 -9.5367482447709833
v 81.895445149461722 4.2000000000000028 -12.342029683031534
v 81.905987049140521 0.20000000000000284 -9.5367482447709833
v 80.155684332197382 0.20000000000000284 -9.5367482447709833
v 81.895445149461722 0.20000000000000284 -12.342029683031534
v 80.125226747549704 4.2000000000000028 -17.641748241902576
v 80.125226747549704 0.20000000000000284 -17.641748241902576
v 84.240142431506371 4.2000000000000028 -12.342029683031534
v 84.220226746537463 4.2000000000000028 -17.641748241902576
v 84.240142431506371 0.19999999999998863 -12.342029683031534
v 84.220226746537463 0.20000000000000284 -17.641748241902576
f 25 27 33 34 31 26
f 28 29 32 36 35 30
f 29 26 31 32
f 32 31 34 36
f 28 25 26 29
f 30 27 25 28
f 35 33 27 30
f 36 34 33 35
o F36_3604_living_room
v 94.606115150488733 4.2000000000000028 -12.029529679219245
v 96.412098735874537 4.2000000000000028 -17.641748241902576
v 96.412098735874537 4.2000000000000028 -10.441807309047199
v 94.606115150488733 0.20000000000000284 -12.029529679219245
v 96.412098735874537 0.20000000000000284 -17.641748241902576
v 96.412098735874537 0.20000000000000284 -10.441807309047199
v 94.606115150488733 4.2000000000000028 -10.441807309047199
v 94.606115150488733 0.20000000000000284 -10.441807309047199
v 91.840886326102634 4.2000000000000028 -17.641748241902576
v 91.861976347323491 4.2000000000000028 -12.029529679219245
v 91.840886326102634 0.20000000000000284 -17.641748241902576
v 91.861976347323491 0.20000000000000284 -12.029529679219245
f 38 45 46 37 43 39
f 41 42 44 40 48 47
f 48 46 45 47
f 47 45 38 41
f 40 37 46 48
f 44 43 37 40
f 42 39 43 44
f 41 38 39 42
o F36_3604_living_room_5
v 97.906115119440784 4.2000000000000028 1.6579703205866636
v 100.25611508737418 4.2000000000000028 7.9932517568904373
v 100.25611508737418 4.2000000000000028 1.6579703205866636
v 97.906115119440784 0.20000000000000284 1.6579703205866636
v 100.25611508737418 0.20000000000000284 7.9932517568904373
v 100.25611508737418 0.20000000000000284 1.6579703205866636
v 96.412098735874537 4.2000000000000028 7.9932517568904373
v 96.412098735874537 4.2000000000000028 -1.0420296805976577
v 96.412098735874537 0.20000000000000284 7.9932517568904373
v 96.412098735874537 0.20000000000000284 -1.0420296805976577
v 97.906115119440813 4.2000000000000028 -1.0420296805976577
v 97.906115119440813 0.20000000000000284 -1.0420296805976577
f 50 51 49 59 56 55
f 53 57 58 60 52 54
f 58 57 55 56
f 57 53 50 55
f 60 58 56 59
f 52 60 59 49
f 54 52 49 51
f 53 54 51 50
o F36_3604_living_room_7
v 99.336115150159827 4.2000000000000028 -1.0420296805976577
v 104.65611515048903 4.2000000000000028 -1.0420296805976577
v 99.336115150159799 4.2000000000000028 -3.6920296805829125
v 99.336115150159827 0.20000000000000284 -1.0420296805976577
v 104.65611515048903 0.20000000000000284 -1.0420296805976577
v 99.336115150159799 0.20000000000000284 -3.6920296805829125
v 104.65611515048903 4.2000000000000028 -4.9920296805830802
v 104.65611515048903 0.20000000000000284 -4.9920296805830802
v 96.412098735874537 4.2000000000000028 -3.6920296805829125
v 96.412098735874537 4.2000000000000028 -4.9920296805830944
v 96.412098735874537 0.20000000000000284 -3.6920296805829125
v 96.412098735874537 0.20000000000000284 -4.9920296805830944
f 61 62 67 70 69 63
f 64 66 71 72 68 65
f 72 71 69 70
f 71 66 63 69
f 68 72 70 67
f 66 64 61 63
f 64 65 62 61
f 65 68 67 62
o F36_3604_living_room_9
v 96.412098735874537 4.2000000000000028 -8.6420296805980499
v 104.65611515048906 4.2000000000000028 -8.6420296805980357
v 98.406115150488745 4.2000000000000028 -10.441807309047199
v 96.412098735874537 0.20000000000000284 -8.6420296805980499
v 104.65611515048906 0.20000000000000284 -8.6420296805980357
v 98.406115150488745 0.20000000000000284 -10.441807309047199
v 104.65611515048906 4.2000000000000028 -12.992029678924574
v 104.65611515048906 0.20000000000000284 -12.992029678924574
v 96.412098735874537 4.2000000000000028 -10.441807309047199
v 96.412098735874537 0.20000000000000284 -10.441807309047199
v 98.406115150488745 4.2000000000000028 -12.992029678924574
v 98.406115150488745 0.20000000000000284 -12.992029678924574
f 73 74 79 83 75 81
f 76 82 78 84 80 77
f 82 76 73 81
f 76 77 74 73
f 78 82 81 75
f 84 78 75 83
f 80 84 83 79
f 77 80 79 74
o F36_3601_living_room_3
v 60.692883938326617 4.2000000000000028 -6.2830116438483614
v 60.692883938326617 4.2000000000000028 -4.6920296782136788
v 57.733146469685011 4.2000000000000028 -6.2830116438483614
v 60.692883938326617 0.20000000000000284 -6.2830116438483614
v 60.692883938326617 0.20000000000000284 -4.6920296782136788
v 57.733146469685011 0.20000000000000284 -6.2830116438483614
v 52.356059554974905 4.2000000000000028 -4.6920296782136788
v 52.356059554974905 0.20000000000000284 -4.6920296782136788
v 57.732980861680744 4.2000000000000028 -8.8420296782137129
v 52.355571002158797 4.2000000000000028 -8.8420296782137129
v 57.732980861680744 0.20000000000000284 -8.8420296782137129
v 52.355571002158797 0.20000000000000284 -8.8420296782137129
f 85 87 93 94 91 86
f 88 89 92 96 95 90
f 92 91 94 96
f 96 94 93 95
f 89 86 91 92
f 95 93 87 90
f 90 87 85 88
f 88 85 86 89
o F36_3601_living_room_5
v 59.169534641804944 4.2000000000000028 -11.342029679398046
v 60.692883938326617 4.2000000000000028 -17.641748241902576
v 60.692883938326617 4.2000000000000028 -8.8420296782137129
v 59.169534641804944 0.20000000000000284 -11.342029679398046
v 60.692883938326617 0.20000000000000284 -17.641748241902576
v 60.692883938326617 0.20000000000000284 -8.8420296782137129
v 59.178929331710208 4.2000000000000028 -8.8420296782137129
v 59.178929331710208 0.20000000000000284 -8.8420296782137129
v 56.824863145381642 4.2000000000000028 -17.641748241902576
v 56.824863145381642 4.2000000000000028 -11.342029679398046
v 56.824863145381642 0.20000000000000284 -17.641748241902576
v 56.824863145381642 0.20000000000000284 -11.342029679398046
f 98 105 106 97 103 99
f 101 102 104 100 108 107
f 108 106 105 107
f 107 105 98 101
f 100 97 106 108
f 104 103 97 100
f 102 99 103 104
f 101 98 99 102
o F36_3601_living_room_7
v 62.956115150489126 4.2000000000000028 2.4935331941554253
v 65.220226778603319 4.2000000000000028 7.9932517568904373
v 65.240894038778833 4.2000000000000028 2.4935331941554253
v 62.956115150489126 0.20000000000000284 2.4935331941554253
v 65.220226778603319 0.20000000000000284 7.9932517568904373
v 65.240894038778833 0.20000000000000284 2.4935331941554253
v 60.692883938326617 4.2000000000000028 7.9932517568904373
v 60.692883938326617 4.2000000000000028 1.4698714717350256
v 60.692883938326617 0.20000000000000284 7.9932517568904373
v 60.692883938326617 0.20000000000000284 1.4698714717350256
v 62.956115150489126 4.2000000000000028 1.4698714717350256
v 62.956115150489126 0.20000000000000284 1.4698714717350256
f 110 111 109 119 116 115
f 113 117 118 120 112 114
f 118 117 115 116
f 117 113 110 115
f 120 118 116 119
f 112 120 119 109
f 114 112 109 111
f 113 114 111 110
o F36_3601_living_room_8
v 62.956115150489126 4.2000000000000028 -12.142029679167557
v 65.220226778603319 4.2000000000000028 -17.641748241902576
v 65.240894038778833 4.2000000000000028 -12.142029679167557
v 62.956115150489126 0.20000000000000284 -12.142029679167557
v 65.220226778603319 0.20000000000000284 -17.641748241902576
v 65.240894038778833 0.20000000000000284 -12.142029679167557
v 60.692883938326617 4.2000000000000028 -17.641748241902576
v 60.692883938326617 4.2000000000000028 -11.118367956747157
v 60.692883938326617 0.20000000000000284 -17.641748241902576
v 60.692883938326617 0.20000000000000284 -11.118367956747157
v 62.956115150489126 4.2000000000000028 -11.118367956747157
v 62.956115150489126 0.20000000000000284 -11.118367956747157
f 122 127 128 131 121 123
f 125 126 124 132 130 129
f 130 128 127 129
f 129 127 122 125
f 132 131 128 130
f 124 121 131 132
f 126 123 121 124
f 125 122 123 126
o F36_3604_living_room_2
v 94.606115150488733 4.2000000000000028 2.381033194207113
v 96.412098735874537 4.2000000000000028 7.9932517568904373
v 96.412098735874537 4.2000000000000028 0.7933108240350677
v 94.606115150488733 0.20000000000000284 2.381033194207113
v 96.412098735874537 0.20000000000000284 7.9932517568904373
v 96.412098735874537 0.20000000000000284 0.7933108240350677
v 94.606115150488733 4.2000000000000028 0.7933108240350677
v 94.606115150488733 0.20000000000000284 0.7933108240350677
v 91.840886326102634 4.2000000000000028 7.9932517568904373
v 91.861976347323491 4.2000000000000028 2.381033194207113
v 91.840886326102634 0.20000000000000284 7.9932517568904373
v 91.861976347323491 0.20000000000000284 2.381033194207113
f 134 135 139 133 142 141
f 137 143 144 136 140 138
f 144 143 141 142
f 143 137 134 141
f 136 144 142 133
f 140 136 133 139
f 138 140 139 135
f 137 138 135 134
