# Rhino

o F36_core_undefined_3
v 85.103123357795823 0.20000000000000284 -5.7650745014779901
v 85.109106943181615 4.2000000000000028 -5.7652294212244541
v 85.109106943181615 4.2000000000000028 -9.5367482447709833
v 85.103123357795823 0.20000000000000284 -9.5367482447709833
v 81.768515386088552 0.20000000000000284 -5.7650745014779901
v 81.768515386088552 4.2000000000000028 -5.7652294212244541
v 81.768515386088552 4.2000000000000028 -9.5367482447709833
v 81.768515386088552 0.20000000000000284 -9.5367482447709833
f 1 4 3 2
f 5 6 7 8
f 8 4 1 5
f 5 1 2 6
f 7 3 4 8
f 6 2 3 7
o F36_service_maid_room_1
v 54.207635067230314 4.2000000000000028 -13.641936196937877
v 56.824863145381642 4.2000000000000028 -13.641936196937877
v 56.824863145381642 4.2000000000000028 -8.8420296782137129
v 54.207635067230314 4.2000000000000028 -8.8420296782137129
v 54.207635067230314 0.20000000000000284 -13.641936196937877
v 56.824863145381642 0.20000000000000284 -13.641936196937877
v 56.824863145381642 0.20000000000000284 -8.8420296782137129
v 54.207635067230314 0.20000000000000284 -8.8420296782137129
f 9 12 11 10
f 13 14 15 16
f 16 12 9 13
f 13 9 10 14
f 15 11 12 16
f 14 10 11 15
o F36_3603_storage_utility
v 89.306317277026977 4.2000000000000028 2.5135331941562313
v 88.102772279649713 4.2000000000000028 2.5135331941562313
v 88.109458083436806 4.2000000000000028 -0.11174824024114827
v 89.31300308081407 4.2000000000000028 -0.11174824024114827
v 89.306317277026977 0.20000000000000284 2.5135331941562313
v 88.102772279649713 0.20000000000000284 2.5135331941562313
v 88.109458083436806 0.20000000000000284 -0.11174824024114827
v 89.31300308081407 0.20000000000000284 -0.11174824024114827
f 17 20 19 18
f 21 22 23 24
f 22 18 19 23
f 21 17 18 22
f 23 19 20 24
f 24 20 17 21
o F36_3603_storage_utility_2
v 89.306317277026977 4.2000000000000028 -12.162029679168363
v 88.102772279649713 4.2000000000000028 -12.162029679168363
v 88.109458083436806 4.2000000000000028 -9.5367482447709833
v 89.31300308081407 4.2000000000000028 -9.5367482447709833
v 89.306317277026977 0.20000000000000284 -12.162029679168363
v 88.102772279649713 0.20000000000000284 -12.162029679168363
v 88.109458083436806 0.20000000000000284 -9.5367482447709833
v 89.31300308081407 0.20000000000000284 -9.5367482447709833
f 25 26 27 28
f 29 32 31 30
f 30 31 27 26
f 29 30 26 25
f 31 32 28 27
f 32 29 25 28
o F36_service_maid_room_2
v 100.97611515049033 4.2000000000000028 -15.692029683106767
v 96.412098735874537 4.2000000000000028 -15.692029683106767
v 96.412098735874537 4.2000000000000028 -12.992029678924574
v 100.97611515049033 4.2000000000000028 -12.992029678924574
v 100.97611515049033 0.20000000000000284 -15.692029683106767
v 96.412098735874537 0.20000000000000284 -15.692029683106767
v 96.412098735874537 0.20000000000000284 -12.992029678924574
v 100.97611515049033 0.20000000000000284 -12.992029678924574
f 33 34 35 36
f 37 40 39 38
f 38 39 35 34
f 39 40 36 35
f 37 38 34 33
f 40 37 33 36
o F36_core_undefined
v 69.158732653055296 0.20000000000000284 -9.5367482447709833
v 69.164716238441088 4.2000000000000028 -9.5367482447709833
v 69.164716238441088 4.2000000000000028 -5.7652294212300816
v 69.158732653055296 0.20000000000000284 -5.7650745014836176
v 78.533896591333814 0.20000000000000284 -9.5367482447709833
v 78.533896591333814 4.2000000000000028 -9.5367482447709833
v 78.533896591333814 4.2000000000000028 -5.7652294212300816
v 78.533896591333814 0.20000000000000284 -5.7650745014836176
f 41 44 43 42
f 45 46 47 48
f 48 44 41 45
f 47 43 44 48
f 45 41 42 46
f 46 42 43 47
o F36_service_maid_room_3
v 60.692883938326617 4.2000000000000028 3.3075930288306736
v 60.692883938326617 4.2000000000000028 5.8079703212427845
v 56.151274324622818 4.2000000000000028 5.8079703212427702
v 56.144127849828521 4.2000000000000028 3.3075930288307021
v 60.692883938326617 0.20000000000000284 3.3075930288306736
v 60.692883938326617 0.20000000000000284 5.8079703212427845
v 56.151274324622818 0.20000000000000284 5.8079703212427702
v 56.144127849828521 0.20000000000000284 3.3075930288307021
f 49 52 51 50
f 53 54 55 56
f 55 51 52 56
f 56 52 49 53
f 54 50 51 55
f 53 49 50 54
o F36_service_maid_room_4
v 103.05611515048946 4.2000000000000028 -1.0420296805976577
v 100.25611508737416 4.2000000000000028 -1.0420296805976577
v 100.25611508737418 4.2000000000000028 2.511234244016272
v 103.05611515048946 4.2000000000000028 2.511234244016272
v 103.05611515048946 0.20000000000000284 -1.0420296805976577
v 100.25611508737416 0.20000000000000284 -1.0420296805976577
v 100.25611508737418 0.20000000000000284 2.511234244016272
v 103.05611515048946 0.20000000000000284 2.511234244016272
f 57 58 59 60
f 61 64 63 62
f 62 63 59 58
f 61 62 58 57
f 63 64 60 59
f 64 61 57 60
o F36_3604_storage_utility
v 101.6261150873745 4.2000000000000028 2.511234244016272
v 100.25611508737418 4.2000000000000028 2.511234244016272
v 100.25611508737418 4.2000000000000028 3.957970320586675
v 101.6261150873745 4.2000000000000028 3.957970320586675
v 101.6261150873745 0.20000000000000284 2.511234244016272
v 100.25611508737418 0.20000000000000284 2.511234244016272
v 100.25611508737418 0.20000000000000284 3.957970320586675
v 101.6261150873745 0.20000000000000284 3.957970320586675
f 65 66 67 68
f 69 72 71 70
f 70 71 67 66
f 71 72 68 67
f 69 70 66 65
f 72 69 65 68
o F36_3602_storage_utility
v 74.824548060332205 4.2000000000000028 -9.5367482447709833
v 74.818139824208657 4.2000000000000028 -11.242029683319764
v 76.600684331769713 4.2000000000000028 -11.242029683319764
v 76.600684331769713 4.2000000000000028 -9.5367482447709833
v 74.824548060332205 0.20000000000000284 -9.5367482447709833
v 74.818139824208657 0.20000000000000284 -11.242029683319764
v 76.600684331769713 0.20000000000000284 -11.242029683319764
v 76.600684331769713 0.20000000000000284 -9.5367482447709833
f 73 76 75 74
f 77 78 79 80
f 77 73 74 78
f 78 74 75 79
f 80 76 73 77
f 79 75 76 80
o F36_3602_storage_utility_2
v 74.824548060332205 4.2000000000000028 -0.11174824024114827
v 74.818139824208657 4.2000000000000028 1.5935331983076324
v 76.600684331769713 4.2000000000000028 1.5935331983076324
v 76.600684331769713 4.2000000000000028 -0.11174824024114827
v 74.824548060332205 0.20000000000000284 -0.11174824024114827
v 74.818139824208657 0.20000000000000284 1.5935331983076324
v 76.600684331769713 0.20000000000000284 1.5935331983076324
v 76.600684331769713 0.20000000000000284 -0.11174824024114827
f 81 82 83 84
f 85 88 87 86
f 85 86 82 81
f 86 87 83 82
f 88 85 81 84
f 87 88 84 83
