# Rhino

o F36_window_0001
v 56.644991057676094 0.81964278011496106 8.0474071538774083
v 56.644991057676094 3.1725839565855409 8.0474071538774083
v 59.170991057676105 3.1725839565855694 8.0474071538774083
v 59.170991057676105 0.81964278011496106 8.0474071538774083
f 1 2 3 4
o F36_window_0002
v 51.069991057675736 0.81964278011496106 8.0474071538774083
v 51.069991057675736 3.1725839565855409 8.0474071538774083
v 53.595991057675747 3.1725839565855694 8.0474071538774083
v 53.595991057675747 0.81964278011496106 8.0474071538774083
f 5 6 7 8
o F36_window_0003
v 106.53111515048914 0.81964278011496106 -13.630744928347127
v 106.53111515048914 3.1725839565855409 -13.630744928347127
v 106.53111515048914 3.1725839565855694 -15.318402504681757
v 106.53111515048914 0.81964278011496106 -15.318402504681757
f 9 10 11 12
o F36_window_0004
v 106.53111515048914 0.81964278011496106 -17.256326517118737
v 106.53111515048914 3.1725839565855409 -17.256326517118737
v 106.53111515048914 3.1725839565855694 -18.943984093453338
v 106.53111515048914 0.81964278011496106 -18.943984093453338
f 13 14 15 16
o F36_window_0005
v 104.65611515048906 0.81964278011496106 -6.5563265145950353
v 104.65611515048906 3.1725839565855409 -6.5563265145950353
v 104.65611515048906 3.1725839565855694 -8.2439840909296649
v 104.65611515048906 0.81964278011496106 -8.2439840909296649
f 17 18 19 20
o F36_window_0006
v 111.38111515150197 0.81964278011496106 2.3936734865747198
v 111.38111515150197 3.1725839565855409 2.3936734865747198
v 111.38111515150197 3.1725839565855694 0.70601591024010446
v 111.38111515150197 0.81964278011496106 0.70601591024010446
f 21 22 23 24
o F36_window_0007
v 50.576837029158327 0.81964278011496106 5.4123605824190193
v 50.576837029158327 3.1725839565855409 5.4123605824190193
v 50.576837029158327 3.1725839565855694 3.724703006084404
v 50.576837029158327 0.81964278011496106 3.724703006084404
f 25 26 27 28
o F36_window_0008
v 50.576837029158327 0.81964278011496106 9.6174789091736628
v 50.576837029158327 3.1725839565855409 9.6174789091736628
v 50.576837029158327 3.1725839565855694 7.0914789091736523
v 50.576837029158327 0.81964278011496106 7.0914789091736523
f 29 30 31 32
o F36_window_0009
v 45.642910644282438 0.81964278011496106 -10.3923081186933
v 45.642910644282438 3.1725839565855409 -10.3923081186933
v 45.642910644282438 3.1725839565855694 -12.918308118693311
v 45.642910644282438 0.81964278011496106 -12.918308118693311
f 33 34 35 36
o F36_window_0010
v 97.909922434255662 0.81964278011496106 -24.167029679397189
v 97.909922434255662 3.1725839565855409 -24.167029679397189
v 100.43592243425567 3.1725839565855694 -24.167029679397189
v 100.43592243425567 0.81964278011496106 -24.167029679397189
f 37 38 39 40
o F36_window_0011
v 102.47393884887146 0.81964278011496106 -24.167029679397189
v 102.47393884887146 3.1725839565855409 -24.167029679397189
v 104.99993884887147 3.1725839565855694 -24.167029679397189
v 104.99993884887147 0.81964278011496106 -24.167029679397189
f 41 42 43 44
o F36_window_0012
v 69.280781201097 0.81964278011496106 7.9932517568904373
v 69.280781201097 3.1725839565855409 7.9932517568904373
v 71.80678120109701 3.1725839565855409 7.9932517568904373
v 71.80678120109701 0.81964278011496106 7.9932517568904373
f 45 46 47 48
o F36_window_0013
v 77.030781201681606 0.81964278011496106 7.9932517568904373
v 77.030781201681606 3.1725839565855409 7.9932517568904373
v 79.556781201681616 3.1725839565855409 7.9932517568904373
v 79.556781201681616 0.81964278011496106 7.9932517568904373
f 49 50 51 52
o F36_window_0014
v 84.680781201096977 0.81964278011496106 7.9932517568904373
v 84.680781201096977 3.1725839565855409 7.9932517568904373
v 87.206781201096987 3.1725839565855694 7.9932517568904373
v 87.206781201096987 0.81964278011496106 7.9932517568904373
f 53 54 55 56
o F36_window_0015
v 88.530781201097 0.81964278011496106 7.9932517568904373
v 88.530781201097 3.1725839565855409 7.9932517568904373
v 91.05678120109701 3.1725839565855409 7.9932517568904373
v 91.05678120109701 0.81964278011496106 7.9932517568904373
f 57 58 59 60
o F36_window_0016
v 100.33547581088473 0.81964278011496106 9.7829703206009597
v 100.33547581088473 3.1725839565855409 9.7829703206009597
v 102.86147581088474 3.1725839565855694 9.7829703206009597
v 102.86147581088474 0.81964278011496106 9.7829703206009597
f 61 62 63 64
o F36_window_0017
v 103.51666960504897 0.81964278011496106 9.7829703206009597
v 103.51666960504897 3.1725839565855409 9.7829703206009597
v 106.04266960504899 3.1725839565855694 9.7829703206009597
v 106.04266960504899 0.81964278011496106 9.7829703206009597
f 65 66 67 68
o F36_window_0018
v 107.81666954294226 0.81964278011496106 9.7829703206009597
v 107.81666954294226 3.1725839565855409 9.7829703206009597
v 110.34266954294228 3.1725839565855694 9.7829703206009597
v 110.34266954294228 0.81964278011496106 9.7829703206009597
f 69 70 71 72
o F36_window_0019
v 88.530781201097 0.81964278011496106 -17.641748241902576
v 88.530781201097 3.1725839565855409 -17.641748241902576
v 91.05678120109701 3.1725839565855409 -17.641748241902576
v 91.05678120109701 0.81964278011496106 -17.641748241902576
f 73 74 75 76
o F36_window_0020
v 84.557218309326629 0.81964278011496106 -17.641748241902576
v 84.557218309326629 3.1725839565855409 -17.641748241902576
v 87.083218309326639 3.1725839565855409 -17.641748241902576
v 87.083218309326639 0.81964278011496106 -17.641748241902576
f 77 78 79 80
o F36_window_0021
v 77.434626830032784 0.81964278011496106 -17.641748241902576
v 77.434626830032784 3.1725839565855409 -17.641748241902576
v 79.960626830032794 3.1725839565855409 -17.641748241902576
v 79.960626830032794 0.81964278011496106 -17.641748241902576
f 81 82 83 84
o F36_window_0022
v 73.634626829448138 0.81964278011496106 -17.641748241902576
v 73.634626829448138 3.1725839565855409 -17.641748241902576
v 76.160626829448148 3.1725839565855409 -17.641748241902576
v 76.160626829448148 0.81964278011496106 -17.641748241902576
f 85 86 87 88
o F36_window_0023
v 69.684626829448177 0.81964278011496106 -17.641748241902576
v 69.684626829448177 3.1725839565855409 -17.641748241902576
v 72.210626829448188 3.1725839565855409 -17.641748241902576
v 72.210626829448188 0.81964278011496106 -17.641748241902576
f 89 90 91 92
o F36_window_0024
v 66.08462686151401 0.81964278011496106 -17.641748241902576
v 66.08462686151401 3.1725839565855409 -17.641748241902576
v 68.610626861514021 3.1725839565855694 -17.641748241902576
v 68.610626861514021 0.81964278011496106 -17.641748241902576
f 93 94 95 96
o F36_window_0025
v 50.67924662382876 0.81964278011496106 -19.467029679398223
v 50.67924662382876 3.1725839565855409 -19.467029679398223
v 53.205246623828771 3.1725839565855694 -19.467029679398223
v 53.205246623828771 0.81964278011496106 -19.467029679398223
f 97 98 99 100
o F36_window_0026
v 54.103920955244973 0.81964278011496106 -19.467029679398223
v 54.103920955244973 3.1725839565855409 -19.467029679398223
v 56.629920955244984 3.1725839565855694 -19.467029679398223
v 56.629920955244984 0.81964278011496106 -19.467029679398223
f 101 102 103 104
o F36_window_0027
v 46.507310727193129 0.81964278011496106 -19.467029679398223
v 46.507310727193129 3.1725839565855409 -19.467029679398223
v 49.03331072719314 3.1725839565855694 -19.467029679398223
v 49.03331072719314 0.81964278011496106 -19.467029679398223
f 105 106 107 108
